%TF.GenerationSoftware,KiCad,Pcbnew,(6.0.10)*%
%TF.CreationDate,2023-05-04T16:05:14+10:00*%
%TF.ProjectId,LinearSaturn,4c696e65-6172-4536-9174-75726e2e6b69,rev?*%
%TF.SameCoordinates,Original*%
%TF.FileFunction,Paste,Top*%
%TF.FilePolarity,Positive*%
%FSLAX46Y46*%
G04 Gerber Fmt 4.6, Leading zero omitted, Abs format (unit mm)*
G04 Created by KiCad (PCBNEW (6.0.10)) date 2023-05-04 16:05:14*
%MOMM*%
%LPD*%
G01*
G04 APERTURE LIST*
%ADD10C,0.300000*%
%ADD11R,4.550000X5.250000*%
%ADD12R,4.600000X1.100000*%
G04 APERTURE END LIST*
D10*
X161768571Y-143482857D02*
X160268571Y-143482857D01*
X161340000Y-142982857D01*
X160268571Y-142482857D01*
X161768571Y-142482857D01*
X160268571Y-141482857D02*
X160268571Y-141197142D01*
X160340000Y-141054285D01*
X160482857Y-140911428D01*
X160768571Y-140840000D01*
X161268571Y-140840000D01*
X161554285Y-140911428D01*
X161697142Y-141054285D01*
X161768571Y-141197142D01*
X161768571Y-141482857D01*
X161697142Y-141625714D01*
X161554285Y-141768571D01*
X161268571Y-141840000D01*
X160768571Y-141840000D01*
X160482857Y-141768571D01*
X160340000Y-141625714D01*
X160268571Y-141482857D01*
X161768571Y-140197142D02*
X160268571Y-140197142D01*
X160268571Y-139840000D01*
X160340000Y-139625714D01*
X160482857Y-139482857D01*
X160625714Y-139411428D01*
X160911428Y-139340000D01*
X161125714Y-139340000D01*
X161411428Y-139411428D01*
X161554285Y-139482857D01*
X161697142Y-139625714D01*
X161768571Y-139840000D01*
X161768571Y-140197142D01*
X160982857Y-138697142D02*
X160982857Y-138197142D01*
X161768571Y-137982857D02*
X161768571Y-138697142D01*
X160268571Y-138697142D01*
X160268571Y-137982857D01*
X160268571Y-135482857D02*
X160268571Y-136197142D01*
X160982857Y-136268571D01*
X160911428Y-136197142D01*
X160840000Y-136054285D01*
X160840000Y-135697142D01*
X160911428Y-135554285D01*
X160982857Y-135482857D01*
X161125714Y-135411428D01*
X161482857Y-135411428D01*
X161625714Y-135482857D01*
X161697142Y-135554285D01*
X161768571Y-135697142D01*
X161768571Y-136054285D01*
X161697142Y-136197142D01*
X161625714Y-136268571D01*
X160268571Y-134982857D02*
X161768571Y-134482857D01*
X160268571Y-133982857D01*
D11*
%TO.C,LM2940A 3.3v TO263-3*%
X158708000Y-177273000D03*
D12*
X147133000Y-174498000D03*
D11*
X153858000Y-177273000D03*
X158708000Y-171723000D03*
X153858000Y-171723000D03*
D12*
X147133000Y-171958000D03*
X147133000Y-177038000D03*
%TD*%
M02*
