  0
SECTION
  2
HEADER
  9
$ANGBASE
  50
0.0
  9
$ANGDIR
  70
1
  9
$MEASUREMENT
  70
0
  0
ENDSEC
  0
SECTION
  2
TABLES
  0
TABLE
  2
LTYPE
  70
4
  0
LTYPE
  5
40F
  2
CONTINUOUS
  70
0
  3
Solid line
  72
65
  73
0
  40
0.0
  0
LTYPE
  5
410
  2
DASHDOT
 70
0
  3
Dash Dot ____ _ ____ _
 72
65
 73
4
 40
2.0
 49
1.25
 49
-0.25
 49
0.25
 49
-0.25
  0
LTYPE
  5
411
  2
DASHED
 70
0
  3
Dashed __ __ __ __ __
 72
65
 73
2
 40
0.75
 49
0.5
 49
-0.25
  0
LTYPE
  5
43B
  2
DOTTED
 70
0
  3
Dotted .  .  .  .
 72
65
 73
2
 40
0.2
 49
0.0
 49
-0.2
  0
ENDTAB
  0
TABLE
  2
STYLE
  70
4
  0
STYLE
  2
KICAD
  70
0
  40
0
  41
1
  42
1
  50
0
  71
0
  3
isocp.shx
  0
STYLE
  2
KICADB
  70
0
  40
0
  41
1
  42
1
  50
0
  71
0
  3
isocp.shx
  0
STYLE
  2
KICADI
  70
0
  40
0
  41
1
  42
1
  50
15
  71
0
  3
isocp.shx
  0
STYLE
  2
KICADBI
  70
0
  40
0
  41
1
  42
1
  50
15
  71
0
  3
isocp.shx
  0
ENDTAB
  0
TABLE
  2
LAYER
  70
1
  0
LAYER
  2
BLACK
  70
0
  62
7
  6
CONTINUOUS
  0
ENDTAB
  0
ENDSEC
  0
SECTION
  2
ENTITIES
0
LINE
8
BLACK
6
CONTINUOUS
10
6
20
-7.10945
11
6
21
-7.7
0
LINE
8
BLACK
6
CONTINUOUS
10
6.4
20
-1.11811
11
6.4
21
-7.11
0
LINE
8
BLACK
6
CONTINUOUS
10
4.6
20
-3.36929
11
4.79685
21
-3.36929
0
LINE
8
BLACK
6
CONTINUOUS
10
4.79685
20
-3.0937
11
4.79685
21
-3.36929
0
LINE
8
BLACK
6
CONTINUOUS
10
6.4
20
-7.11
11
6
21
-7.11
0
CIRCLE
8
BLACK
10
4.99
20
-7.46874
40
0.0787402
0
LINE
8
BLACK
6
CONTINUOUS
10
4.6
20
-1.11811
11
4.6
21
-3.0937
0
LINE
8
BLACK
6
CONTINUOUS
10
4.6
20
-3.0937
11
4.79685
21
-3.0937
0
LINE
8
BLACK
6
CONTINUOUS
10
6.4
20
-1.11811
11
4.6
21
-1.11811
0
LINE
8
BLACK
6
CONTINUOUS
10
6
20
-7.7
11
4.6
21
-7.7
0
LINE
8
BLACK
6
CONTINUOUS
10
4.6
20
-3.36929
11
4.6
21
-7.7
0
LINE
8
BLACK
6
CONTINUOUS
10
5.47949
20
-6.84213
11
5.49524
21
-6.85787
0
LINE
8
BLACK
6
CONTINUOUS
10
5.49524
20
-6.84213
11
5.47949
21
-6.85787
0
LINE
8
BLACK
6
CONTINUOUS
10
5.47949
20
-6.89213
11
5.49524
21
-6.90787
0
LINE
8
BLACK
6
CONTINUOUS
10
5.49524
20
-6.89213
11
5.47949
21
-6.90787
0
LINE
8
BLACK
6
CONTINUOUS
10
5.51949
20
-6.84213
11
5.53524
21
-6.85787
0
LINE
8
BLACK
6
CONTINUOUS
10
5.53524
20
-6.84213
11
5.51949
21
-6.85787
0
LINE
8
BLACK
6
CONTINUOUS
10
5.51949
20
-6.89213
11
5.53524
21
-6.90787
0
LINE
8
BLACK
6
CONTINUOUS
10
5.53524
20
-6.89213
11
5.51949
21
-6.90787
0
LINE
8
BLACK
6
CONTINUOUS
10
5.55949
20
-6.84213
11
5.57524
21
-6.85787
0
LINE
8
BLACK
6
CONTINUOUS
10
5.57524
20
-6.84213
11
5.55949
21
-6.85787
0
LINE
8
BLACK
6
CONTINUOUS
10
5.55949
20
-6.89213
11
5.57524
21
-6.90787
0
LINE
8
BLACK
6
CONTINUOUS
10
5.57524
20
-6.89213
11
5.55949
21
-6.90787
0
LINE
8
BLACK
6
CONTINUOUS
10
5.59949
20
-6.84213
11
5.61524
21
-6.85787
0
LINE
8
BLACK
6
CONTINUOUS
10
5.61524
20
-6.84213
11
5.59949
21
-6.85787
0
LINE
8
BLACK
6
CONTINUOUS
10
5.59949
20
-6.89213
11
5.61524
21
-6.90787
0
LINE
8
BLACK
6
CONTINUOUS
10
5.61524
20
-6.89213
11
5.59949
21
-6.90787
0
LINE
8
BLACK
6
CONTINUOUS
10
5.63949
20
-6.84213
11
5.65524
21
-6.85787
0
LINE
8
BLACK
6
CONTINUOUS
10
5.65524
20
-6.84213
11
5.63949
21
-6.85787
0
LINE
8
BLACK
6
CONTINUOUS
10
5.63949
20
-6.89213
11
5.65524
21
-6.90787
0
LINE
8
BLACK
6
CONTINUOUS
10
5.65524
20
-6.89213
11
5.63949
21
-6.90787
0
LINE
8
BLACK
6
CONTINUOUS
10
5.65213
20
-6.76213
11
5.66787
21
-6.77787
0
LINE
8
BLACK
6
CONTINUOUS
10
5.66787
20
-6.76213
11
5.65213
21
-6.77787
0
LINE
8
BLACK
6
CONTINUOUS
10
5.65213
20
-6.96213
11
5.66787
21
-6.97787
0
LINE
8
BLACK
6
CONTINUOUS
10
5.66787
20
-6.96213
11
5.65213
21
-6.97787
0
LINE
8
BLACK
6
CONTINUOUS
10
5.88213
20
-3.25213
11
5.89787
21
-3.26787
0
LINE
8
BLACK
6
CONTINUOUS
10
5.89787
20
-3.25213
11
5.88213
21
-3.26787
0
LINE
8
BLACK
6
CONTINUOUS
10
5.88213
20
-3.77213
11
5.89787
21
-3.78787
0
LINE
8
BLACK
6
CONTINUOUS
10
5.89787
20
-3.77213
11
5.88213
21
-3.78787
0
LINE
8
BLACK
6
CONTINUOUS
10
5.95213
20
-3.25213
11
5.96787
21
-3.26787
0
LINE
8
BLACK
6
CONTINUOUS
10
5.96787
20
-3.25213
11
5.95213
21
-3.26787
0
LINE
8
BLACK
6
CONTINUOUS
10
5.95213
20
-3.77213
11
5.96787
21
-3.78787
0
LINE
8
BLACK
6
CONTINUOUS
10
5.96787
20
-3.77213
11
5.95213
21
-3.78787
0
LINE
8
BLACK
6
CONTINUOUS
10
6.02213
20
-3.25213
11
6.03787
21
-3.26787
0
LINE
8
BLACK
6
CONTINUOUS
10
6.03787
20
-3.25213
11
6.02213
21
-3.26787
0
LINE
8
BLACK
6
CONTINUOUS
10
6.02213
20
-3.77213
11
6.03787
21
-3.78787
0
LINE
8
BLACK
6
CONTINUOUS
10
6.03787
20
-3.77213
11
6.02213
21
-3.78787
0
LINE
8
BLACK
6
CONTINUOUS
10
6.08213
20
-3.25213
11
6.09787
21
-3.26787
0
LINE
8
BLACK
6
CONTINUOUS
10
6.09787
20
-3.25213
11
6.08213
21
-3.26787
0
LINE
8
BLACK
6
CONTINUOUS
10
6.08213
20
-3.77213
11
6.09787
21
-3.78787
0
LINE
8
BLACK
6
CONTINUOUS
10
6.09787
20
-3.77213
11
6.08213
21
-3.78787
0
LINE
8
BLACK
6
CONTINUOUS
10
6.17213
20
-1.42213
11
6.18787
21
-1.43787
0
LINE
8
BLACK
6
CONTINUOUS
10
6.18787
20
-1.42213
11
6.17213
21
-1.43787
0
LINE
8
BLACK
6
CONTINUOUS
10
6.17213
20
-1.49213
11
6.18787
21
-1.50787
0
LINE
8
BLACK
6
CONTINUOUS
10
6.18787
20
-1.49213
11
6.17213
21
-1.50787
0
LINE
8
BLACK
6
CONTINUOUS
10
6.17213
20
-1.56213
11
6.18787
21
-1.57787
0
LINE
8
BLACK
6
CONTINUOUS
10
6.18787
20
-1.56213
11
6.17213
21
-1.57787
0
LINE
8
BLACK
6
CONTINUOUS
10
6.17213
20
-1.62213
11
6.18787
21
-1.63787
0
LINE
8
BLACK
6
CONTINUOUS
10
6.18787
20
-1.62213
11
6.17213
21
-1.63787
0
LINE
8
BLACK
6
CONTINUOUS
10
6.17213
20
-1.69213
11
6.18787
21
-1.70787
0
LINE
8
BLACK
6
CONTINUOUS
10
6.18787
20
-1.69213
11
6.17213
21
-1.70787
0
LINE
8
BLACK
6
CONTINUOUS
10
6.24213
20
-1.42213
11
6.25787
21
-1.43787
0
LINE
8
BLACK
6
CONTINUOUS
10
6.25787
20
-1.42213
11
6.24213
21
-1.43787
0
LINE
8
BLACK
6
CONTINUOUS
10
6.24213
20
-1.49213
11
6.25787
21
-1.50787
0
LINE
8
BLACK
6
CONTINUOUS
10
6.25787
20
-1.49213
11
6.24213
21
-1.50787
0
LINE
8
BLACK
6
CONTINUOUS
10
6.24213
20
-1.56213
11
6.25787
21
-1.57787
0
LINE
8
BLACK
6
CONTINUOUS
10
6.25787
20
-1.56213
11
6.24213
21
-1.57787
0
LINE
8
BLACK
6
CONTINUOUS
10
6.24213
20
-1.62213
11
6.25787
21
-1.63787
0
LINE
8
BLACK
6
CONTINUOUS
10
6.25787
20
-1.62213
11
6.24213
21
-1.63787
0
LINE
8
BLACK
6
CONTINUOUS
10
6.24213
20
-1.69213
11
6.25787
21
-1.70787
0
LINE
8
BLACK
6
CONTINUOUS
10
6.25787
20
-1.69213
11
6.24213
21
-1.70787
0
LINE
8
BLACK
6
CONTINUOUS
10
6.31213
20
-1.42213
11
6.32787
21
-1.43787
0
LINE
8
BLACK
6
CONTINUOUS
10
6.32787
20
-1.42213
11
6.31213
21
-1.43787
0
LINE
8
BLACK
6
CONTINUOUS
10
6.31213
20
-1.49213
11
6.32787
21
-1.50787
0
LINE
8
BLACK
6
CONTINUOUS
10
6.32787
20
-1.49213
11
6.31213
21
-1.50787
0
LINE
8
BLACK
6
CONTINUOUS
10
6.31213
20
-1.56213
11
6.32787
21
-1.57787
0
LINE
8
BLACK
6
CONTINUOUS
10
6.32787
20
-1.56213
11
6.31213
21
-1.57787
0
LINE
8
BLACK
6
CONTINUOUS
10
6.31213
20
-1.62213
11
6.32787
21
-1.63787
0
LINE
8
BLACK
6
CONTINUOUS
10
6.32787
20
-1.62213
11
6.31213
21
-1.63787
0
LINE
8
BLACK
6
CONTINUOUS
10
6.31213
20
-1.69213
11
6.32787
21
-1.70787
0
LINE
8
BLACK
6
CONTINUOUS
10
6.32787
20
-1.69213
11
6.31213
21
-1.70787
0
CIRCLE
8
BLACK
10
5.67126
20
-5.93
40
0.011811
0
CIRCLE
8
BLACK
10
5.67126
20
-6.18
40
0.011811
0
CIRCLE
8
BLACK
10
5.75
20
-5.93
40
0.011811
0
CIRCLE
8
BLACK
10
5.75
20
-6.18
40
0.011811
0
LINE
8
BLACK
6
CONTINUOUS
10
5.22876
20
-5.62425
11
5.22876
21
-5.65575
0
LINE
8
BLACK
6
CONTINUOUS
10
5.21301
20
-5.64
11
5.2445
21
-5.64
0
LINE
8
BLACK
6
CONTINUOUS
10
5.32718
20
-5.62425
11
5.32718
21
-5.65575
0
LINE
8
BLACK
6
CONTINUOUS
10
5.31143
20
-5.64
11
5.34293
21
-5.64
0
LINE
8
BLACK
6
CONTINUOUS
10
5.60727
20
-5.61425
11
5.60727
21
-5.64575
0
LINE
8
BLACK
6
CONTINUOUS
10
5.59152
20
-5.63
11
5.62302
21
-5.63
0
LINE
8
BLACK
6
CONTINUOUS
10
5.6122
20
-6.45425
11
5.6122
21
-6.48575
0
LINE
8
BLACK
6
CONTINUOUS
10
5.59646
20
-6.47
11
5.62795
21
-6.47
0
LINE
8
BLACK
6
CONTINUOUS
10
5.74507
20
-5.61425
11
5.74507
21
-5.64575
0
LINE
8
BLACK
6
CONTINUOUS
10
5.72932
20
-5.63
11
5.76081
21
-5.63
0
LINE
8
BLACK
6
CONTINUOUS
10
5.75
20
-6.45425
11
5.75
21
-6.48575
0
LINE
8
BLACK
6
CONTINUOUS
10
5.73425
20
-6.47
11
5.76575
21
-6.47
0
LINE
8
BLACK
6
CONTINUOUS
10
6.10531
20
-3.43531
11
6.10531
21
-3.40469
0
LINE
8
BLACK
6
CONTINUOUS
10
6.10531
20
-3.40469
11
6.07469
21
-3.40469
0
LINE
8
BLACK
6
CONTINUOUS
10
6.07469
20
-3.40469
11
6.07469
21
-3.43531
0
LINE
8
BLACK
6
CONTINUOUS
10
6.07469
20
-3.43531
11
6.10531
21
-3.43531
0
LINE
8
BLACK
6
CONTINUOUS
10
6.10531
20
-3.53531
11
6.10531
21
-3.50469
0
LINE
8
BLACK
6
CONTINUOUS
10
6.10531
20
-3.50469
11
6.07469
21
-3.50469
0
LINE
8
BLACK
6
CONTINUOUS
10
6.07469
20
-3.50469
11
6.07469
21
-3.53531
0
LINE
8
BLACK
6
CONTINUOUS
10
6.07469
20
-3.53531
11
6.10531
21
-3.53531
0
LINE
8
BLACK
6
CONTINUOUS
10
6.10531
20
-3.63531
11
6.10531
21
-3.60469
0
LINE
8
BLACK
6
CONTINUOUS
10
6.10531
20
-3.60469
11
6.07469
21
-3.60469
0
LINE
8
BLACK
6
CONTINUOUS
10
6.07469
20
-3.60469
11
6.07469
21
-3.63531
0
LINE
8
BLACK
6
CONTINUOUS
10
6.07469
20
-3.63531
11
6.10531
21
-3.63531
0
LINE
8
BLACK
6
CONTINUOUS
10
5.04
20
-1.31937
11
5.07937
21
-1.28
0
LINE
8
BLACK
6
CONTINUOUS
10
5.07937
20
-1.28
11
5.04
21
-1.24063
0
LINE
8
BLACK
6
CONTINUOUS
10
5.04
20
-1.24063
11
5.00063
21
-1.28
0
LINE
8
BLACK
6
CONTINUOUS
10
5.00063
20
-1.28
11
5.04
21
-1.31937
0
LINE
8
BLACK
6
CONTINUOUS
10
5.84
20
-1.31937
11
5.87937
21
-1.28
0
LINE
8
BLACK
6
CONTINUOUS
10
5.87937
20
-1.28
11
5.84
21
-1.24063
0
LINE
8
BLACK
6
CONTINUOUS
10
5.84
20
-1.24063
11
5.80063
21
-1.28
0
LINE
8
BLACK
6
CONTINUOUS
10
5.80063
20
-1.28
11
5.84
21
-1.31937
0
LINE
8
BLACK
6
CONTINUOUS
10
4.65953
20
-1.66669
11
4.74614
21
-1.75331
0
LINE
8
BLACK
6
CONTINUOUS
10
4.74614
20
-1.66669
11
4.65953
21
-1.75331
0
CIRCLE
8
BLACK
10
4.70283
20
-1.71
40
0.0433071
0
LINE
8
BLACK
6
CONTINUOUS
10
4.95787
20
-1.66575
11
5.04449
21
-1.75236
0
LINE
8
BLACK
6
CONTINUOUS
10
5.04449
20
-1.66575
11
4.95787
21
-1.75236
0
CIRCLE
8
BLACK
10
5.00118
20
-1.70906
40
0.0433071
0
LINE
8
BLACK
6
CONTINUOUS
10
6.0411
20
-5.74299
11
6.12772
21
-5.82961
0
LINE
8
BLACK
6
CONTINUOUS
10
6.12772
20
-5.74299
11
6.0411
21
-5.82961
0
CIRCLE
8
BLACK
10
6.08441
20
-5.7863
40
0.0433071
0
LINE
8
BLACK
6
CONTINUOUS
10
6.0411
20
-5.90299
11
6.12772
21
-5.98961
0
LINE
8
BLACK
6
CONTINUOUS
10
6.12772
20
-5.90299
11
6.0411
21
-5.98961
0
CIRCLE
8
BLACK
10
6.08441
20
-5.9463
40
0.0433071
0
LINE
8
BLACK
6
CONTINUOUS
10
6.0411
20
-6.06299
11
6.12772
21
-6.14961
0
LINE
8
BLACK
6
CONTINUOUS
10
6.12772
20
-6.06299
11
6.0411
21
-6.14961
0
CIRCLE
8
BLACK
10
6.08441
20
-6.1063
40
0.0433071
0
LINE
8
BLACK
6
CONTINUOUS
10
6.0411
20
-6.22299
11
6.12772
21
-6.30961
0
LINE
8
BLACK
6
CONTINUOUS
10
6.12772
20
-6.22299
11
6.0411
21
-6.30961
0
CIRCLE
8
BLACK
10
6.08441
20
-6.2663
40
0.0433071
0
LINE
8
BLACK
6
CONTINUOUS
10
6.0411
20
-6.38299
11
6.12772
21
-6.46961
0
LINE
8
BLACK
6
CONTINUOUS
10
6.12772
20
-6.38299
11
6.0411
21
-6.46961
0
CIRCLE
8
BLACK
10
6.08441
20
-6.4263
40
0.0433071
0
LINE
8
BLACK
6
CONTINUOUS
10
6.00701
20
-2.63701
11
6.13299
21
-2.76299
0
LINE
8
BLACK
6
CONTINUOUS
10
6.13299
20
-2.63701
11
6.00701
21
-2.76299
0
LINE
8
BLACK
6
CONTINUOUS
10
6.07
20
-2.63701
11
6.07
21
-2.76299
0
LINE
8
BLACK
6
CONTINUOUS
10
6.00701
20
-2.7
11
6.13299
21
-2.7
0
LINE
8
BLACK
6
CONTINUOUS
10
6.00701
20
-4.28701
11
6.13299
21
-4.41299
0
LINE
8
BLACK
6
CONTINUOUS
10
6.13299
20
-4.28701
11
6.00701
21
-4.41299
0
LINE
8
BLACK
6
CONTINUOUS
10
6.07
20
-4.28701
11
6.07
21
-4.41299
0
LINE
8
BLACK
6
CONTINUOUS
10
6.00701
20
-4.35
11
6.13299
21
-4.35
0
LINE
8
BLACK
6
CONTINUOUS
10
4.69946
20
-7.8242
11
4.69946
21
-7.74546
0
LINE
8
BLACK
6
CONTINUOUS
10
4.69946
20
-7.74546
11
4.7182
21
-7.74546
0
LINE
8
BLACK
6
CONTINUOUS
10
4.7182
20
-7.74546
11
4.72945
21
-7.74921
0
LINE
8
BLACK
6
CONTINUOUS
10
4.72945
20
-7.74921
11
4.73695
21
-7.75671
0
LINE
8
BLACK
6
CONTINUOUS
10
4.73695
20
-7.75671
11
4.7407
21
-7.76421
0
LINE
8
BLACK
6
CONTINUOUS
10
4.7407
20
-7.76421
11
4.74445
21
-7.77921
0
LINE
8
BLACK
6
CONTINUOUS
10
4.74445
20
-7.77921
11
4.74445
21
-7.79046
0
LINE
8
BLACK
6
CONTINUOUS
10
4.74445
20
-7.79046
11
4.7407
21
-7.80546
0
LINE
8
BLACK
6
CONTINUOUS
10
4.7407
20
-7.80546
11
4.73695
21
-7.81295
0
LINE
8
BLACK
6
CONTINUOUS
10
4.73695
20
-7.81295
11
4.72945
21
-7.82045
0
LINE
8
BLACK
6
CONTINUOUS
10
4.72945
20
-7.82045
11
4.7182
21
-7.8242
0
LINE
8
BLACK
6
CONTINUOUS
10
4.7182
20
-7.8242
11
4.69946
21
-7.8242
0
LINE
8
BLACK
6
CONTINUOUS
10
4.7782
20
-7.8242
11
4.7782
21
-7.77171
0
LINE
8
BLACK
6
CONTINUOUS
10
4.7782
20
-7.78671
11
4.78195
21
-7.77921
0
LINE
8
BLACK
6
CONTINUOUS
10
4.78195
20
-7.77921
11
4.7857
21
-7.77546
0
LINE
8
BLACK
6
CONTINUOUS
10
4.7857
20
-7.77546
11
4.79319
21
-7.77171
0
LINE
8
BLACK
6
CONTINUOUS
10
4.79319
20
-7.77171
11
4.80069
21
-7.77171
0
LINE
8
BLACK
6
CONTINUOUS
10
4.82694
20
-7.8242
11
4.82694
21
-7.77171
0
LINE
8
BLACK
6
CONTINUOUS
10
4.82694
20
-7.74546
11
4.82319
21
-7.74921
0
LINE
8
BLACK
6
CONTINUOUS
10
4.82319
20
-7.74921
11
4.82694
21
-7.75296
0
LINE
8
BLACK
6
CONTINUOUS
10
4.82694
20
-7.75296
11
4.83069
21
-7.74921
0
LINE
8
BLACK
6
CONTINUOUS
10
4.83069
20
-7.74921
11
4.82694
21
-7.74546
0
LINE
8
BLACK
6
CONTINUOUS
10
4.82694
20
-7.74546
11
4.82694
21
-7.75296
0
LINE
8
BLACK
6
CONTINUOUS
10
4.87568
20
-7.8242
11
4.86819
21
-7.82045
0
LINE
8
BLACK
6
CONTINUOUS
10
4.86819
20
-7.82045
11
4.86444
21
-7.81295
0
LINE
8
BLACK
6
CONTINUOUS
10
4.86444
20
-7.81295
11
4.86444
21
-7.74546
0
LINE
8
BLACK
6
CONTINUOUS
10
4.91693
20
-7.8242
11
4.90943
21
-7.82045
0
LINE
8
BLACK
6
CONTINUOUS
10
4.90943
20
-7.82045
11
4.90568
21
-7.81295
0
LINE
8
BLACK
6
CONTINUOUS
10
4.90568
20
-7.81295
11
4.90568
21
-7.74546
0
LINE
8
BLACK
6
CONTINUOUS
10
5.00692
20
-7.8242
11
5.00692
21
-7.74546
0
LINE
8
BLACK
6
CONTINUOUS
10
5.00692
20
-7.74546
11
5.03316
21
-7.80171
0
LINE
8
BLACK
6
CONTINUOUS
10
5.03316
20
-7.80171
11
5.05941
21
-7.74546
0
LINE
8
BLACK
6
CONTINUOUS
10
5.05941
20
-7.74546
11
5.05941
21
-7.8242
0
LINE
8
BLACK
6
CONTINUOUS
10
5.13065
20
-7.8242
11
5.13065
21
-7.78296
0
LINE
8
BLACK
6
CONTINUOUS
10
5.13065
20
-7.78296
11
5.1269
21
-7.77546
0
LINE
8
BLACK
6
CONTINUOUS
10
5.1269
20
-7.77546
11
5.1194
21
-7.77171
0
LINE
8
BLACK
6
CONTINUOUS
10
5.1194
20
-7.77171
11
5.10441
21
-7.77171
0
LINE
8
BLACK
6
CONTINUOUS
10
5.10441
20
-7.77171
11
5.09691
21
-7.77546
0
LINE
8
BLACK
6
CONTINUOUS
10
5.13065
20
-7.82045
11
5.12315
21
-7.8242
0
LINE
8
BLACK
6
CONTINUOUS
10
5.12315
20
-7.8242
11
5.10441
21
-7.8242
0
LINE
8
BLACK
6
CONTINUOUS
10
5.10441
20
-7.8242
11
5.09691
21
-7.82045
0
LINE
8
BLACK
6
CONTINUOUS
10
5.09691
20
-7.82045
11
5.09316
21
-7.81295
0
LINE
8
BLACK
6
CONTINUOUS
10
5.09316
20
-7.81295
11
5.09316
21
-7.80546
0
LINE
8
BLACK
6
CONTINUOUS
10
5.09316
20
-7.80546
11
5.09691
21
-7.79796
0
LINE
8
BLACK
6
CONTINUOUS
10
5.09691
20
-7.79796
11
5.10441
21
-7.79421
0
LINE
8
BLACK
6
CONTINUOUS
10
5.10441
20
-7.79421
11
5.12315
21
-7.79421
0
LINE
8
BLACK
6
CONTINUOUS
10
5.12315
20
-7.79421
11
5.13065
21
-7.79046
0
LINE
8
BLACK
6
CONTINUOUS
10
5.16815
20
-7.77171
11
5.16815
21
-7.85045
0
LINE
8
BLACK
6
CONTINUOUS
10
5.16815
20
-7.77546
11
5.17565
21
-7.77171
0
LINE
8
BLACK
6
CONTINUOUS
10
5.17565
20
-7.77171
11
5.19064
21
-7.77171
0
LINE
8
BLACK
6
CONTINUOUS
10
5.19064
20
-7.77171
11
5.19814
21
-7.77546
0
LINE
8
BLACK
6
CONTINUOUS
10
5.19814
20
-7.77546
11
5.20189
21
-7.77921
0
LINE
8
BLACK
6
CONTINUOUS
10
5.20189
20
-7.77921
11
5.20564
21
-7.78671
0
LINE
8
BLACK
6
CONTINUOUS
10
5.20564
20
-7.78671
11
5.20564
21
-7.80921
0
LINE
8
BLACK
6
CONTINUOUS
10
5.20564
20
-7.80921
11
5.20189
21
-7.8167
0
LINE
8
BLACK
6
CONTINUOUS
10
5.20189
20
-7.8167
11
5.19814
21
-7.82045
0
LINE
8
BLACK
6
CONTINUOUS
10
5.19814
20
-7.82045
11
5.19064
21
-7.8242
0
LINE
8
BLACK
6
CONTINUOUS
10
5.19064
20
-7.8242
11
5.17565
21
-7.8242
0
LINE
8
BLACK
6
CONTINUOUS
10
5.17565
20
-7.8242
11
5.16815
21
-7.82045
0
LINE
8
BLACK
6
CONTINUOUS
10
5.23939
20
-7.8167
11
5.24314
21
-7.82045
0
LINE
8
BLACK
6
CONTINUOUS
10
5.24314
20
-7.82045
11
5.23939
21
-7.8242
0
LINE
8
BLACK
6
CONTINUOUS
10
5.23939
20
-7.8242
11
5.23564
21
-7.82045
0
LINE
8
BLACK
6
CONTINUOUS
10
5.23564
20
-7.82045
11
5.23939
21
-7.8167
0
LINE
8
BLACK
6
CONTINUOUS
10
5.23939
20
-7.8167
11
5.23939
21
-7.8242
0
LINE
8
BLACK
6
CONTINUOUS
10
5.23939
20
-7.77546
11
5.24314
21
-7.77921
0
LINE
8
BLACK
6
CONTINUOUS
10
5.24314
20
-7.77921
11
5.23939
21
-7.78296
0
LINE
8
BLACK
6
CONTINUOUS
10
5.23939
20
-7.78296
11
5.23564
21
-7.77921
0
LINE
8
BLACK
6
CONTINUOUS
10
5.23564
20
-7.77921
11
5.23939
21
-7.77546
0
LINE
8
BLACK
6
CONTINUOUS
10
5.23939
20
-7.77546
11
5.23939
21
-7.78296
0
LINE
8
BLACK
6
CONTINUOUS
10
4.58228
20
-7.94606
11
4.59803
21
-7.96181
0
LINE
8
BLACK
6
CONTINUOUS
10
4.59803
20
-7.94606
11
4.58228
21
-7.96181
0
LINE
8
BLACK
6
CONTINUOUS
10
4.71445
20
-7.91082
11
4.72195
21
-7.91082
0
LINE
8
BLACK
6
CONTINUOUS
10
4.72195
20
-7.91082
11
4.72945
21
-7.91457
0
LINE
8
BLACK
6
CONTINUOUS
10
4.72945
20
-7.91457
11
4.7332
21
-7.91832
0
LINE
8
BLACK
6
CONTINUOUS
10
4.7332
20
-7.91832
11
4.73695
21
-7.92582
0
LINE
8
BLACK
6
CONTINUOUS
10
4.73695
20
-7.92582
11
4.7407
21
-7.94081
0
LINE
8
BLACK
6
CONTINUOUS
10
4.7407
20
-7.94081
11
4.7407
21
-7.95956
0
LINE
8
BLACK
6
CONTINUOUS
10
4.7407
20
-7.95956
11
4.73695
21
-7.97456
0
LINE
8
BLACK
6
CONTINUOUS
10
4.73695
20
-7.97456
11
4.7332
21
-7.98206
0
LINE
8
BLACK
6
CONTINUOUS
10
4.7332
20
-7.98206
11
4.72945
21
-7.98581
0
LINE
8
BLACK
6
CONTINUOUS
10
4.72945
20
-7.98581
11
4.72195
21
-7.98956
0
LINE
8
BLACK
6
CONTINUOUS
10
4.72195
20
-7.98956
11
4.71445
21
-7.98956
0
LINE
8
BLACK
6
CONTINUOUS
10
4.71445
20
-7.98956
11
4.70696
21
-7.98581
0
LINE
8
BLACK
6
CONTINUOUS
10
4.70696
20
-7.98581
11
4.70321
21
-7.98206
0
LINE
8
BLACK
6
CONTINUOUS
10
4.70321
20
-7.98206
11
4.69946
21
-7.97456
0
LINE
8
BLACK
6
CONTINUOUS
10
4.69946
20
-7.97456
11
4.69571
21
-7.95956
0
LINE
8
BLACK
6
CONTINUOUS
10
4.69571
20
-7.95956
11
4.69571
21
-7.94081
0
LINE
8
BLACK
6
CONTINUOUS
10
4.69571
20
-7.94081
11
4.69946
21
-7.92582
0
LINE
8
BLACK
6
CONTINUOUS
10
4.69946
20
-7.92582
11
4.70321
21
-7.91832
0
LINE
8
BLACK
6
CONTINUOUS
10
4.70321
20
-7.91832
11
4.70696
21
-7.91457
0
LINE
8
BLACK
6
CONTINUOUS
10
4.70696
20
-7.91457
11
4.71445
21
-7.91082
0
LINE
8
BLACK
6
CONTINUOUS
10
4.77445
20
-7.98206
11
4.7782
21
-7.98581
0
LINE
8
BLACK
6
CONTINUOUS
10
4.7782
20
-7.98581
11
4.77445
21
-7.98956
0
LINE
8
BLACK
6
CONTINUOUS
10
4.77445
20
-7.98956
11
4.7707
21
-7.98581
0
LINE
8
BLACK
6
CONTINUOUS
10
4.7707
20
-7.98581
11
4.77445
21
-7.98206
0
LINE
8
BLACK
6
CONTINUOUS
10
4.77445
20
-7.98206
11
4.77445
21
-7.98956
0
LINE
8
BLACK
6
CONTINUOUS
10
4.84569
20
-7.93706
11
4.84569
21
-7.98956
0
LINE
8
BLACK
6
CONTINUOUS
10
4.82694
20
-7.90707
11
4.80819
21
-7.96331
0
LINE
8
BLACK
6
CONTINUOUS
10
4.80819
20
-7.96331
11
4.85694
21
-7.96331
0
LINE
8
BLACK
6
CONTINUOUS
10
4.90193
20
-7.91082
11
4.90943
21
-7.91082
0
LINE
8
BLACK
6
CONTINUOUS
10
4.90943
20
-7.91082
11
4.91693
21
-7.91457
0
LINE
8
BLACK
6
CONTINUOUS
10
4.91693
20
-7.91457
11
4.92068
21
-7.91832
0
LINE
8
BLACK
6
CONTINUOUS
10
4.92068
20
-7.91832
11
4.92443
21
-7.92582
0
LINE
8
BLACK
6
CONTINUOUS
10
4.92443
20
-7.92582
11
4.92818
21
-7.94081
0
LINE
8
BLACK
6
CONTINUOUS
10
4.92818
20
-7.94081
11
4.92818
21
-7.95956
0
LINE
8
BLACK
6
CONTINUOUS
10
4.92818
20
-7.95956
11
4.92443
21
-7.97456
0
LINE
8
BLACK
6
CONTINUOUS
10
4.92443
20
-7.97456
11
4.92068
21
-7.98206
0
LINE
8
BLACK
6
CONTINUOUS
10
4.92068
20
-7.98206
11
4.91693
21
-7.98581
0
LINE
8
BLACK
6
CONTINUOUS
10
4.91693
20
-7.98581
11
4.90943
21
-7.98956
0
LINE
8
BLACK
6
CONTINUOUS
10
4.90943
20
-7.98956
11
4.90193
21
-7.98956
0
LINE
8
BLACK
6
CONTINUOUS
10
4.90193
20
-7.98956
11
4.89443
21
-7.98581
0
LINE
8
BLACK
6
CONTINUOUS
10
4.89443
20
-7.98581
11
4.89068
21
-7.98206
0
LINE
8
BLACK
6
CONTINUOUS
10
4.89068
20
-7.98206
11
4.88693
21
-7.97456
0
LINE
8
BLACK
6
CONTINUOUS
10
4.88693
20
-7.97456
11
4.88318
21
-7.95956
0
LINE
8
BLACK
6
CONTINUOUS
10
4.88318
20
-7.95956
11
4.88318
21
-7.94081
0
LINE
8
BLACK
6
CONTINUOUS
10
4.88318
20
-7.94081
11
4.88693
21
-7.92582
0
LINE
8
BLACK
6
CONTINUOUS
10
4.88693
20
-7.92582
11
4.89068
21
-7.91832
0
LINE
8
BLACK
6
CONTINUOUS
10
4.89068
20
-7.91832
11
4.89443
21
-7.91457
0
LINE
8
BLACK
6
CONTINUOUS
10
4.89443
20
-7.91457
11
4.90193
21
-7.91082
0
LINE
8
BLACK
6
CONTINUOUS
10
4.97692
20
-7.91082
11
4.98442
21
-7.91082
0
LINE
8
BLACK
6
CONTINUOUS
10
4.98442
20
-7.91082
11
4.99192
21
-7.91457
0
LINE
8
BLACK
6
CONTINUOUS
10
4.99192
20
-7.91457
11
4.99567
21
-7.91832
0
LINE
8
BLACK
6
CONTINUOUS
10
4.99567
20
-7.91832
11
4.99942
21
-7.92582
0
LINE
8
BLACK
6
CONTINUOUS
10
4.99942
20
-7.92582
11
5.00317
21
-7.94081
0
LINE
8
BLACK
6
CONTINUOUS
10
5.00317
20
-7.94081
11
5.00317
21
-7.95956
0
LINE
8
BLACK
6
CONTINUOUS
10
5.00317
20
-7.95956
11
4.99942
21
-7.97456
0
LINE
8
BLACK
6
CONTINUOUS
10
4.99942
20
-7.97456
11
4.99567
21
-7.98206
0
LINE
8
BLACK
6
CONTINUOUS
10
4.99567
20
-7.98206
11
4.99192
21
-7.98581
0
LINE
8
BLACK
6
CONTINUOUS
10
4.99192
20
-7.98581
11
4.98442
21
-7.98956
0
LINE
8
BLACK
6
CONTINUOUS
10
4.98442
20
-7.98956
11
4.97692
21
-7.98956
0
LINE
8
BLACK
6
CONTINUOUS
10
4.97692
20
-7.98956
11
4.96942
21
-7.98581
0
LINE
8
BLACK
6
CONTINUOUS
10
4.96942
20
-7.98581
11
4.96567
21
-7.98206
0
LINE
8
BLACK
6
CONTINUOUS
10
4.96567
20
-7.98206
11
4.96192
21
-7.97456
0
LINE
8
BLACK
6
CONTINUOUS
10
4.96192
20
-7.97456
11
4.95817
21
-7.95956
0
LINE
8
BLACK
6
CONTINUOUS
10
4.95817
20
-7.95956
11
4.95817
21
-7.94081
0
LINE
8
BLACK
6
CONTINUOUS
10
4.95817
20
-7.94081
11
4.96192
21
-7.92582
0
LINE
8
BLACK
6
CONTINUOUS
10
4.96192
20
-7.92582
11
4.96567
21
-7.91832
0
LINE
8
BLACK
6
CONTINUOUS
10
4.96567
20
-7.91832
11
4.96942
21
-7.91457
0
LINE
8
BLACK
6
CONTINUOUS
10
4.96942
20
-7.91457
11
4.97692
21
-7.91082
0
LINE
8
BLACK
6
CONTINUOUS
10
5.03691
20
-7.98956
11
5.03691
21
-7.93706
0
LINE
8
BLACK
6
CONTINUOUS
10
5.03691
20
-7.94456
11
5.04066
21
-7.94081
0
LINE
8
BLACK
6
CONTINUOUS
10
5.04066
20
-7.94081
11
5.04816
21
-7.93706
0
LINE
8
BLACK
6
CONTINUOUS
10
5.04816
20
-7.93706
11
5.05941
21
-7.93706
0
LINE
8
BLACK
6
CONTINUOUS
10
5.05941
20
-7.93706
11
5.06691
21
-7.94081
0
LINE
8
BLACK
6
CONTINUOUS
10
5.06691
20
-7.94081
11
5.07066
21
-7.94831
0
LINE
8
BLACK
6
CONTINUOUS
10
5.07066
20
-7.94831
11
5.07066
21
-7.98956
0
LINE
8
BLACK
6
CONTINUOUS
10
5.07066
20
-7.94831
11
5.07441
21
-7.94081
0
LINE
8
BLACK
6
CONTINUOUS
10
5.07441
20
-7.94081
11
5.08191
21
-7.93706
0
LINE
8
BLACK
6
CONTINUOUS
10
5.08191
20
-7.93706
11
5.09316
21
-7.93706
0
LINE
8
BLACK
6
CONTINUOUS
10
5.09316
20
-7.93706
11
5.10066
21
-7.94081
0
LINE
8
BLACK
6
CONTINUOUS
10
5.10066
20
-7.94081
11
5.10441
21
-7.94831
0
LINE
8
BLACK
6
CONTINUOUS
10
5.10441
20
-7.94831
11
5.10441
21
-7.98956
0
LINE
8
BLACK
6
CONTINUOUS
10
5.1419
20
-7.98956
11
5.1419
21
-7.93706
0
LINE
8
BLACK
6
CONTINUOUS
10
5.1419
20
-7.94456
11
5.14565
21
-7.94081
0
LINE
8
BLACK
6
CONTINUOUS
10
5.14565
20
-7.94081
11
5.15315
21
-7.93706
0
LINE
8
BLACK
6
CONTINUOUS
10
5.15315
20
-7.93706
11
5.1644
21
-7.93706
0
LINE
8
BLACK
6
CONTINUOUS
10
5.1644
20
-7.93706
11
5.1719
21
-7.94081
0
LINE
8
BLACK
6
CONTINUOUS
10
5.1719
20
-7.94081
11
5.17565
21
-7.94831
0
LINE
8
BLACK
6
CONTINUOUS
10
5.17565
20
-7.94831
11
5.17565
21
-7.98956
0
LINE
8
BLACK
6
CONTINUOUS
10
5.17565
20
-7.94831
11
5.1794
21
-7.94081
0
LINE
8
BLACK
6
CONTINUOUS
10
5.1794
20
-7.94081
11
5.1869
21
-7.93706
0
LINE
8
BLACK
6
CONTINUOUS
10
5.1869
20
-7.93706
11
5.19814
21
-7.93706
0
LINE
8
BLACK
6
CONTINUOUS
10
5.19814
20
-7.93706
11
5.20564
21
-7.94081
0
LINE
8
BLACK
6
CONTINUOUS
10
5.20564
20
-7.94081
11
5.20939
21
-7.94831
0
LINE
8
BLACK
6
CONTINUOUS
10
5.20939
20
-7.94831
11
5.20939
21
-7.98956
0
LINE
8
BLACK
6
CONTINUOUS
10
5.36312
20
-7.90707
11
5.29563
21
-8.00831
0
LINE
8
BLACK
6
CONTINUOUS
10
5.46436
20
-7.91082
11
5.47186
21
-7.91082
0
LINE
8
BLACK
6
CONTINUOUS
10
5.47186
20
-7.91082
11
5.47936
21
-7.91457
0
LINE
8
BLACK
6
CONTINUOUS
10
5.47936
20
-7.91457
11
5.48311
21
-7.91832
0
LINE
8
BLACK
6
CONTINUOUS
10
5.48311
20
-7.91832
11
5.48686
21
-7.92582
0
LINE
8
BLACK
6
CONTINUOUS
10
5.48686
20
-7.92582
11
5.49061
21
-7.94081
0
LINE
8
BLACK
6
CONTINUOUS
10
5.49061
20
-7.94081
11
5.49061
21
-7.95956
0
LINE
8
BLACK
6
CONTINUOUS
10
5.49061
20
-7.95956
11
5.48686
21
-7.97456
0
LINE
8
BLACK
6
CONTINUOUS
10
5.48686
20
-7.97456
11
5.48311
21
-7.98206
0
LINE
8
BLACK
6
CONTINUOUS
10
5.48311
20
-7.98206
11
5.47936
21
-7.98581
0
LINE
8
BLACK
6
CONTINUOUS
10
5.47936
20
-7.98581
11
5.47186
21
-7.98956
0
LINE
8
BLACK
6
CONTINUOUS
10
5.47186
20
-7.98956
11
5.46436
21
-7.98956
0
LINE
8
BLACK
6
CONTINUOUS
10
5.46436
20
-7.98956
11
5.45686
21
-7.98581
0
LINE
8
BLACK
6
CONTINUOUS
10
5.45686
20
-7.98581
11
5.45311
21
-7.98206
0
LINE
8
BLACK
6
CONTINUOUS
10
5.45311
20
-7.98206
11
5.44936
21
-7.97456
0
LINE
8
BLACK
6
CONTINUOUS
10
5.44936
20
-7.97456
11
5.44561
21
-7.95956
0
LINE
8
BLACK
6
CONTINUOUS
10
5.44561
20
-7.95956
11
5.44561
21
-7.94081
0
LINE
8
BLACK
6
CONTINUOUS
10
5.44561
20
-7.94081
11
5.44936
21
-7.92582
0
LINE
8
BLACK
6
CONTINUOUS
10
5.44936
20
-7.92582
11
5.45311
21
-7.91832
0
LINE
8
BLACK
6
CONTINUOUS
10
5.45311
20
-7.91832
11
5.45686
21
-7.91457
0
LINE
8
BLACK
6
CONTINUOUS
10
5.45686
20
-7.91457
11
5.46436
21
-7.91082
0
LINE
8
BLACK
6
CONTINUOUS
10
5.52435
20
-7.98206
11
5.5281
21
-7.98581
0
LINE
8
BLACK
6
CONTINUOUS
10
5.5281
20
-7.98581
11
5.52435
21
-7.98956
0
LINE
8
BLACK
6
CONTINUOUS
10
5.52435
20
-7.98956
11
5.5206
21
-7.98581
0
LINE
8
BLACK
6
CONTINUOUS
10
5.5206
20
-7.98581
11
5.52435
21
-7.98206
0
LINE
8
BLACK
6
CONTINUOUS
10
5.52435
20
-7.98206
11
5.52435
21
-7.98956
0
LINE
8
BLACK
6
CONTINUOUS
10
5.57685
20
-7.91082
11
5.58435
21
-7.91082
0
LINE
8
BLACK
6
CONTINUOUS
10
5.58435
20
-7.91082
11
5.59184
21
-7.91457
0
LINE
8
BLACK
6
CONTINUOUS
10
5.59184
20
-7.91457
11
5.59559
21
-7.91832
0
LINE
8
BLACK
6
CONTINUOUS
10
5.59559
20
-7.91832
11
5.59934
21
-7.92582
0
LINE
8
BLACK
6
CONTINUOUS
10
5.59934
20
-7.92582
11
5.60309
21
-7.94081
0
LINE
8
BLACK
6
CONTINUOUS
10
5.60309
20
-7.94081
11
5.60309
21
-7.95956
0
LINE
8
BLACK
6
CONTINUOUS
10
5.60309
20
-7.95956
11
5.59934
21
-7.97456
0
LINE
8
BLACK
6
CONTINUOUS
10
5.59934
20
-7.97456
11
5.59559
21
-7.98206
0
LINE
8
BLACK
6
CONTINUOUS
10
5.59559
20
-7.98206
11
5.59184
21
-7.98581
0
LINE
8
BLACK
6
CONTINUOUS
10
5.59184
20
-7.98581
11
5.58435
21
-7.98956
0
LINE
8
BLACK
6
CONTINUOUS
10
5.58435
20
-7.98956
11
5.57685
21
-7.98956
0
LINE
8
BLACK
6
CONTINUOUS
10
5.57685
20
-7.98956
11
5.56935
21
-7.98581
0
LINE
8
BLACK
6
CONTINUOUS
10
5.56935
20
-7.98581
11
5.5656
21
-7.98206
0
LINE
8
BLACK
6
CONTINUOUS
10
5.5656
20
-7.98206
11
5.56185
21
-7.97456
0
LINE
8
BLACK
6
CONTINUOUS
10
5.56185
20
-7.97456
11
5.5581
21
-7.95956
0
LINE
8
BLACK
6
CONTINUOUS
10
5.5581
20
-7.95956
11
5.5581
21
-7.94081
0
LINE
8
BLACK
6
CONTINUOUS
10
5.5581
20
-7.94081
11
5.56185
21
-7.92582
0
LINE
8
BLACK
6
CONTINUOUS
10
5.56185
20
-7.92582
11
5.5656
21
-7.91832
0
LINE
8
BLACK
6
CONTINUOUS
10
5.5656
20
-7.91832
11
5.56935
21
-7.91457
0
LINE
8
BLACK
6
CONTINUOUS
10
5.56935
20
-7.91457
11
5.57685
21
-7.91082
0
LINE
8
BLACK
6
CONTINUOUS
10
5.67808
20
-7.98956
11
5.63309
21
-7.98956
0
LINE
8
BLACK
6
CONTINUOUS
10
5.65559
20
-7.98956
11
5.65559
21
-7.91082
0
LINE
8
BLACK
6
CONTINUOUS
10
5.65559
20
-7.91082
11
5.64809
21
-7.92207
0
LINE
8
BLACK
6
CONTINUOUS
10
5.64809
20
-7.92207
11
5.64059
21
-7.92957
0
LINE
8
BLACK
6
CONTINUOUS
10
5.64059
20
-7.92957
11
5.63309
21
-7.93331
0
LINE
8
BLACK
6
CONTINUOUS
10
5.74933
20
-7.91082
11
5.71183
21
-7.91082
0
LINE
8
BLACK
6
CONTINUOUS
10
5.71183
20
-7.91082
11
5.70808
21
-7.94831
0
LINE
8
BLACK
6
CONTINUOUS
10
5.70808
20
-7.94831
11
5.71183
21
-7.94456
0
LINE
8
BLACK
6
CONTINUOUS
10
5.71183
20
-7.94456
11
5.71933
21
-7.94081
0
LINE
8
BLACK
6
CONTINUOUS
10
5.71933
20
-7.94081
11
5.73808
21
-7.94081
0
LINE
8
BLACK
6
CONTINUOUS
10
5.73808
20
-7.94081
11
5.74558
21
-7.94456
0
LINE
8
BLACK
6
CONTINUOUS
10
5.74558
20
-7.94456
11
5.74933
21
-7.94831
0
LINE
8
BLACK
6
CONTINUOUS
10
5.74933
20
-7.94831
11
5.75307
21
-7.95581
0
LINE
8
BLACK
6
CONTINUOUS
10
5.75307
20
-7.95581
11
5.75307
21
-7.97456
0
LINE
8
BLACK
6
CONTINUOUS
10
5.75307
20
-7.97456
11
5.74933
21
-7.98206
0
LINE
8
BLACK
6
CONTINUOUS
10
5.74933
20
-7.98206
11
5.74558
21
-7.98581
0
LINE
8
BLACK
6
CONTINUOUS
10
5.74558
20
-7.98581
11
5.73808
21
-7.98956
0
LINE
8
BLACK
6
CONTINUOUS
10
5.73808
20
-7.98956
11
5.71933
21
-7.98956
0
LINE
8
BLACK
6
CONTINUOUS
10
5.71933
20
-7.98956
11
5.71183
21
-7.98581
0
LINE
8
BLACK
6
CONTINUOUS
10
5.71183
20
-7.98581
11
5.70808
21
-7.98206
0
LINE
8
BLACK
6
CONTINUOUS
10
5.77932
20
-7.91082
11
5.83181
21
-7.91082
0
LINE
8
BLACK
6
CONTINUOUS
10
5.83181
20
-7.91082
11
5.79807
21
-7.98956
0
LINE
8
BLACK
6
CONTINUOUS
10
5.85806
20
-7.91082
11
5.85806
21
-7.92582
0
LINE
8
BLACK
6
CONTINUOUS
10
5.88806
20
-7.91082
11
5.88806
21
-7.92582
0
LINE
8
BLACK
6
CONTINUOUS
10
6.00429
20
-8.01955
11
6.00054
21
-8.0158
0
LINE
8
BLACK
6
CONTINUOUS
10
6.00054
20
-8.0158
11
5.99304
21
-8.00456
0
LINE
8
BLACK
6
CONTINUOUS
10
5.99304
20
-8.00456
11
5.9893
21
-7.99706
0
LINE
8
BLACK
6
CONTINUOUS
10
5.9893
20
-7.99706
11
5.98555
21
-7.98581
0
LINE
8
BLACK
6
CONTINUOUS
10
5.98555
20
-7.98581
11
5.9818
21
-7.96706
0
LINE
8
BLACK
6
CONTINUOUS
10
5.9818
20
-7.96706
11
5.9818
21
-7.95206
0
LINE
8
BLACK
6
CONTINUOUS
10
5.9818
20
-7.95206
11
5.98555
21
-7.93331
0
LINE
8
BLACK
6
CONTINUOUS
10
5.98555
20
-7.93331
11
5.9893
21
-7.92207
0
LINE
8
BLACK
6
CONTINUOUS
10
5.9893
20
-7.92207
11
5.99304
21
-7.91457
0
LINE
8
BLACK
6
CONTINUOUS
10
5.99304
20
-7.91457
11
6.00054
21
-7.90332
0
LINE
8
BLACK
6
CONTINUOUS
10
6.00054
20
-7.90332
11
6.00429
21
-7.89957
0
LINE
8
BLACK
6
CONTINUOUS
10
6.02679
20
-7.91082
11
6.07553
21
-7.91082
0
LINE
8
BLACK
6
CONTINUOUS
10
6.07553
20
-7.91082
11
6.04929
21
-7.94081
0
LINE
8
BLACK
6
CONTINUOUS
10
6.04929
20
-7.94081
11
6.06054
21
-7.94081
0
LINE
8
BLACK
6
CONTINUOUS
10
6.06054
20
-7.94081
11
6.06804
21
-7.94456
0
LINE
8
BLACK
6
CONTINUOUS
10
6.06804
20
-7.94456
11
6.07178
21
-7.94831
0
LINE
8
BLACK
6
CONTINUOUS
10
6.07178
20
-7.94831
11
6.07553
21
-7.95581
0
LINE
8
BLACK
6
CONTINUOUS
10
6.07553
20
-7.95581
11
6.07553
21
-7.97456
0
LINE
8
BLACK
6
CONTINUOUS
10
6.07553
20
-7.97456
11
6.07178
21
-7.98206
0
LINE
8
BLACK
6
CONTINUOUS
10
6.07178
20
-7.98206
11
6.06804
21
-7.98581
0
LINE
8
BLACK
6
CONTINUOUS
10
6.06804
20
-7.98581
11
6.06054
21
-7.98956
0
LINE
8
BLACK
6
CONTINUOUS
10
6.06054
20
-7.98956
11
6.03804
21
-7.98956
0
LINE
8
BLACK
6
CONTINUOUS
10
6.03804
20
-7.98956
11
6.03054
21
-7.98581
0
LINE
8
BLACK
6
CONTINUOUS
10
6.03054
20
-7.98581
11
6.02679
21
-7.98206
0
LINE
8
BLACK
6
CONTINUOUS
10
6.14678
20
-7.91082
11
6.10928
21
-7.91082
0
LINE
8
BLACK
6
CONTINUOUS
10
6.10928
20
-7.91082
11
6.10553
21
-7.94831
0
LINE
8
BLACK
6
CONTINUOUS
10
6.10553
20
-7.94831
11
6.10928
21
-7.94456
0
LINE
8
BLACK
6
CONTINUOUS
10
6.10928
20
-7.94456
11
6.11678
21
-7.94081
0
LINE
8
BLACK
6
CONTINUOUS
10
6.11678
20
-7.94081
11
6.13553
21
-7.94081
0
LINE
8
BLACK
6
CONTINUOUS
10
6.13553
20
-7.94081
11
6.14303
21
-7.94456
0
LINE
8
BLACK
6
CONTINUOUS
10
6.14303
20
-7.94456
11
6.14678
21
-7.94831
0
LINE
8
BLACK
6
CONTINUOUS
10
6.14678
20
-7.94831
11
6.15052
21
-7.95581
0
LINE
8
BLACK
6
CONTINUOUS
10
6.15052
20
-7.95581
11
6.15052
21
-7.97456
0
LINE
8
BLACK
6
CONTINUOUS
10
6.15052
20
-7.97456
11
6.14678
21
-7.98206
0
LINE
8
BLACK
6
CONTINUOUS
10
6.14678
20
-7.98206
11
6.14303
21
-7.98581
0
LINE
8
BLACK
6
CONTINUOUS
10
6.14303
20
-7.98581
11
6.13553
21
-7.98956
0
LINE
8
BLACK
6
CONTINUOUS
10
6.13553
20
-7.98956
11
6.11678
21
-7.98956
0
LINE
8
BLACK
6
CONTINUOUS
10
6.11678
20
-7.98956
11
6.10928
21
-7.98581
0
LINE
8
BLACK
6
CONTINUOUS
10
6.10928
20
-7.98581
11
6.10553
21
-7.98206
0
LINE
8
BLACK
6
CONTINUOUS
10
6.24426
20
-7.98956
11
6.24426
21
-7.91082
0
LINE
8
BLACK
6
CONTINUOUS
10
6.27801
20
-7.98956
11
6.27801
21
-7.94831
0
LINE
8
BLACK
6
CONTINUOUS
10
6.27801
20
-7.94831
11
6.27426
21
-7.94081
0
LINE
8
BLACK
6
CONTINUOUS
10
6.27426
20
-7.94081
11
6.26676
21
-7.93706
0
LINE
8
BLACK
6
CONTINUOUS
10
6.26676
20
-7.93706
11
6.25551
21
-7.93706
0
LINE
8
BLACK
6
CONTINUOUS
10
6.25551
20
-7.93706
11
6.24801
21
-7.94081
0
LINE
8
BLACK
6
CONTINUOUS
10
6.24801
20
-7.94081
11
6.24426
21
-7.94456
0
LINE
8
BLACK
6
CONTINUOUS
10
6.32675
20
-7.98956
11
6.31925
21
-7.98581
0
LINE
8
BLACK
6
CONTINUOUS
10
6.31925
20
-7.98581
11
6.3155
21
-7.98206
0
LINE
8
BLACK
6
CONTINUOUS
10
6.3155
20
-7.98206
11
6.31175
21
-7.97456
0
LINE
8
BLACK
6
CONTINUOUS
10
6.31175
20
-7.97456
11
6.31175
21
-7.95206
0
LINE
8
BLACK
6
CONTINUOUS
10
6.31175
20
-7.95206
11
6.3155
21
-7.94456
0
LINE
8
BLACK
6
CONTINUOUS
10
6.3155
20
-7.94456
11
6.31925
21
-7.94081
0
LINE
8
BLACK
6
CONTINUOUS
10
6.31925
20
-7.94081
11
6.32675
21
-7.93706
0
LINE
8
BLACK
6
CONTINUOUS
10
6.32675
20
-7.93706
11
6.338
21
-7.93706
0
LINE
8
BLACK
6
CONTINUOUS
10
6.338
20
-7.93706
11
6.3455
21
-7.94081
0
LINE
8
BLACK
6
CONTINUOUS
10
6.3455
20
-7.94081
11
6.34925
21
-7.94456
0
LINE
8
BLACK
6
CONTINUOUS
10
6.34925
20
-7.94456
11
6.353
21
-7.95206
0
LINE
8
BLACK
6
CONTINUOUS
10
6.353
20
-7.95206
11
6.353
21
-7.97456
0
LINE
8
BLACK
6
CONTINUOUS
10
6.353
20
-7.97456
11
6.34925
21
-7.98206
0
LINE
8
BLACK
6
CONTINUOUS
10
6.34925
20
-7.98206
11
6.3455
21
-7.98581
0
LINE
8
BLACK
6
CONTINUOUS
10
6.3455
20
-7.98581
11
6.338
21
-7.98956
0
LINE
8
BLACK
6
CONTINUOUS
10
6.338
20
-7.98956
11
6.32675
21
-7.98956
0
LINE
8
BLACK
6
CONTINUOUS
10
6.39799
20
-7.98956
11
6.39049
21
-7.98581
0
LINE
8
BLACK
6
CONTINUOUS
10
6.39049
20
-7.98581
11
6.38675
21
-7.97831
0
LINE
8
BLACK
6
CONTINUOUS
10
6.38675
20
-7.97831
11
6.38675
21
-7.91082
0
LINE
8
BLACK
6
CONTINUOUS
10
6.45799
20
-7.98581
11
6.45049
21
-7.98956
0
LINE
8
BLACK
6
CONTINUOUS
10
6.45049
20
-7.98956
11
6.43549
21
-7.98956
0
LINE
8
BLACK
6
CONTINUOUS
10
6.43549
20
-7.98956
11
6.42799
21
-7.98581
0
LINE
8
BLACK
6
CONTINUOUS
10
6.42799
20
-7.98581
11
6.42424
21
-7.97831
0
LINE
8
BLACK
6
CONTINUOUS
10
6.42424
20
-7.97831
11
6.42424
21
-7.94831
0
LINE
8
BLACK
6
CONTINUOUS
10
6.42424
20
-7.94831
11
6.42799
21
-7.94081
0
LINE
8
BLACK
6
CONTINUOUS
10
6.42799
20
-7.94081
11
6.43549
21
-7.93706
0
LINE
8
BLACK
6
CONTINUOUS
10
6.43549
20
-7.93706
11
6.45049
21
-7.93706
0
LINE
8
BLACK
6
CONTINUOUS
10
6.45049
20
-7.93706
11
6.45799
21
-7.94081
0
LINE
8
BLACK
6
CONTINUOUS
10
6.45799
20
-7.94081
11
6.46174
21
-7.94831
0
LINE
8
BLACK
6
CONTINUOUS
10
6.46174
20
-7.94831
11
6.46174
21
-7.95581
0
LINE
8
BLACK
6
CONTINUOUS
10
6.46174
20
-7.95581
11
6.42424
21
-7.96331
0
LINE
8
BLACK
6
CONTINUOUS
10
6.49173
20
-7.98581
11
6.49923
21
-7.98956
0
LINE
8
BLACK
6
CONTINUOUS
10
6.49923
20
-7.98956
11
6.51423
21
-7.98956
0
LINE
8
BLACK
6
CONTINUOUS
10
6.51423
20
-7.98956
11
6.52173
21
-7.98581
0
LINE
8
BLACK
6
CONTINUOUS
10
6.52173
20
-7.98581
11
6.52548
21
-7.97831
0
LINE
8
BLACK
6
CONTINUOUS
10
6.52548
20
-7.97831
11
6.52548
21
-7.97456
0
LINE
8
BLACK
6
CONTINUOUS
10
6.52548
20
-7.97456
11
6.52173
21
-7.96706
0
LINE
8
BLACK
6
CONTINUOUS
10
6.52173
20
-7.96706
11
6.51423
21
-7.96331
0
LINE
8
BLACK
6
CONTINUOUS
10
6.51423
20
-7.96331
11
6.50298
21
-7.96331
0
LINE
8
BLACK
6
CONTINUOUS
10
6.50298
20
-7.96331
11
6.49548
21
-7.95956
0
LINE
8
BLACK
6
CONTINUOUS
10
6.49548
20
-7.95956
11
6.49173
21
-7.95206
0
LINE
8
BLACK
6
CONTINUOUS
10
6.49173
20
-7.95206
11
6.49173
21
-7.94831
0
LINE
8
BLACK
6
CONTINUOUS
10
6.49173
20
-7.94831
11
6.49548
21
-7.94081
0
LINE
8
BLACK
6
CONTINUOUS
10
6.49548
20
-7.94081
11
6.50298
21
-7.93706
0
LINE
8
BLACK
6
CONTINUOUS
10
6.50298
20
-7.93706
11
6.51423
21
-7.93706
0
LINE
8
BLACK
6
CONTINUOUS
10
6.51423
20
-7.93706
11
6.52173
21
-7.94081
0
LINE
8
BLACK
6
CONTINUOUS
10
6.55172
20
-8.01955
11
6.55547
21
-8.0158
0
LINE
8
BLACK
6
CONTINUOUS
10
6.55547
20
-8.0158
11
6.56297
21
-8.00456
0
LINE
8
BLACK
6
CONTINUOUS
10
6.56297
20
-8.00456
11
6.56672
21
-7.99706
0
LINE
8
BLACK
6
CONTINUOUS
10
6.56672
20
-7.99706
11
6.57047
21
-7.98581
0
LINE
8
BLACK
6
CONTINUOUS
10
6.57047
20
-7.98581
11
6.57422
21
-7.96706
0
LINE
8
BLACK
6
CONTINUOUS
10
6.57422
20
-7.96706
11
6.57422
21
-7.95206
0
LINE
8
BLACK
6
CONTINUOUS
10
6.57422
20
-7.95206
11
6.57047
21
-7.93331
0
LINE
8
BLACK
6
CONTINUOUS
10
6.57047
20
-7.93331
11
6.56672
21
-7.92207
0
LINE
8
BLACK
6
CONTINUOUS
10
6.56672
20
-7.92207
11
6.56297
21
-7.91457
0
LINE
8
BLACK
6
CONTINUOUS
10
6.56297
20
-7.91457
11
6.55547
21
-7.90332
0
LINE
8
BLACK
6
CONTINUOUS
10
6.55547
20
-7.90332
11
6.55172
21
-7.89957
0
CIRCLE
8
BLACK
10
4.58622
20
-8.05787
40
0.011811
0
LINE
8
BLACK
6
CONTINUOUS
10
4.71445
20
-8.01475
11
4.72195
21
-8.01475
0
LINE
8
BLACK
6
CONTINUOUS
10
4.72195
20
-8.01475
11
4.72945
21
-8.0185
0
LINE
8
BLACK
6
CONTINUOUS
10
4.72945
20
-8.0185
11
4.7332
21
-8.02225
0
LINE
8
BLACK
6
CONTINUOUS
10
4.7332
20
-8.02225
11
4.73695
21
-8.02975
0
LINE
8
BLACK
6
CONTINUOUS
10
4.73695
20
-8.02975
11
4.7407
21
-8.04475
0
LINE
8
BLACK
6
CONTINUOUS
10
4.7407
20
-8.04475
11
4.7407
21
-8.0635
0
LINE
8
BLACK
6
CONTINUOUS
10
4.7407
20
-8.0635
11
4.73695
21
-8.0785
0
LINE
8
BLACK
6
CONTINUOUS
10
4.73695
20
-8.0785
11
4.7332
21
-8.086
0
LINE
8
BLACK
6
CONTINUOUS
10
4.7332
20
-8.086
11
4.72945
21
-8.08975
0
LINE
8
BLACK
6
CONTINUOUS
10
4.72945
20
-8.08975
11
4.72195
21
-8.09349
0
LINE
8
BLACK
6
CONTINUOUS
10
4.72195
20
-8.09349
11
4.71445
21
-8.09349
0
LINE
8
BLACK
6
CONTINUOUS
10
4.71445
20
-8.09349
11
4.70696
21
-8.08975
0
LINE
8
BLACK
6
CONTINUOUS
10
4.70696
20
-8.08975
11
4.70321
21
-8.086
0
LINE
8
BLACK
6
CONTINUOUS
10
4.70321
20
-8.086
11
4.69946
21
-8.0785
0
LINE
8
BLACK
6
CONTINUOUS
10
4.69946
20
-8.0785
11
4.69571
21
-8.0635
0
LINE
8
BLACK
6
CONTINUOUS
10
4.69571
20
-8.0635
11
4.69571
21
-8.04475
0
LINE
8
BLACK
6
CONTINUOUS
10
4.69571
20
-8.04475
11
4.69946
21
-8.02975
0
LINE
8
BLACK
6
CONTINUOUS
10
4.69946
20
-8.02975
11
4.70321
21
-8.02225
0
LINE
8
BLACK
6
CONTINUOUS
10
4.70321
20
-8.02225
11
4.70696
21
-8.0185
0
LINE
8
BLACK
6
CONTINUOUS
10
4.70696
20
-8.0185
11
4.71445
21
-8.01475
0
LINE
8
BLACK
6
CONTINUOUS
10
4.77445
20
-8.086
11
4.7782
21
-8.08975
0
LINE
8
BLACK
6
CONTINUOUS
10
4.7782
20
-8.08975
11
4.77445
21
-8.09349
0
LINE
8
BLACK
6
CONTINUOUS
10
4.77445
20
-8.09349
11
4.7707
21
-8.08975
0
LINE
8
BLACK
6
CONTINUOUS
10
4.7707
20
-8.08975
11
4.77445
21
-8.086
0
LINE
8
BLACK
6
CONTINUOUS
10
4.77445
20
-8.086
11
4.77445
21
-8.09349
0
LINE
8
BLACK
6
CONTINUOUS
10
4.84569
20
-8.01475
11
4.83069
21
-8.01475
0
LINE
8
BLACK
6
CONTINUOUS
10
4.83069
20
-8.01475
11
4.82319
21
-8.0185
0
LINE
8
BLACK
6
CONTINUOUS
10
4.82319
20
-8.0185
11
4.81944
21
-8.02225
0
LINE
8
BLACK
6
CONTINUOUS
10
4.81944
20
-8.02225
11
4.81194
21
-8.0335
0
LINE
8
BLACK
6
CONTINUOUS
10
4.81194
20
-8.0335
11
4.80819
21
-8.0485
0
LINE
8
BLACK
6
CONTINUOUS
10
4.80819
20
-8.0485
11
4.80819
21
-8.0785
0
LINE
8
BLACK
6
CONTINUOUS
10
4.80819
20
-8.0785
11
4.81194
21
-8.086
0
LINE
8
BLACK
6
CONTINUOUS
10
4.81194
20
-8.086
11
4.81569
21
-8.08975
0
LINE
8
BLACK
6
CONTINUOUS
10
4.81569
20
-8.08975
11
4.82319
21
-8.09349
0
LINE
8
BLACK
6
CONTINUOUS
10
4.82319
20
-8.09349
11
4.83819
21
-8.09349
0
LINE
8
BLACK
6
CONTINUOUS
10
4.83819
20
-8.09349
11
4.84569
21
-8.08975
0
LINE
8
BLACK
6
CONTINUOUS
10
4.84569
20
-8.08975
11
4.84944
21
-8.086
0
LINE
8
BLACK
6
CONTINUOUS
10
4.84944
20
-8.086
11
4.85319
21
-8.0785
0
LINE
8
BLACK
6
CONTINUOUS
10
4.85319
20
-8.0785
11
4.85319
21
-8.05975
0
LINE
8
BLACK
6
CONTINUOUS
10
4.85319
20
-8.05975
11
4.84944
21
-8.05225
0
LINE
8
BLACK
6
CONTINUOUS
10
4.84944
20
-8.05225
11
4.84569
21
-8.0485
0
LINE
8
BLACK
6
CONTINUOUS
10
4.84569
20
-8.0485
11
4.83819
21
-8.04475
0
LINE
8
BLACK
6
CONTINUOUS
10
4.83819
20
-8.04475
11
4.82319
21
-8.04475
0
LINE
8
BLACK
6
CONTINUOUS
10
4.82319
20
-8.04475
11
4.81569
21
-8.0485
0
LINE
8
BLACK
6
CONTINUOUS
10
4.81569
20
-8.0485
11
4.81194
21
-8.05225
0
LINE
8
BLACK
6
CONTINUOUS
10
4.81194
20
-8.05225
11
4.80819
21
-8.05975
0
LINE
8
BLACK
6
CONTINUOUS
10
4.90193
20
-8.01475
11
4.90943
21
-8.01475
0
LINE
8
BLACK
6
CONTINUOUS
10
4.90943
20
-8.01475
11
4.91693
21
-8.0185
0
LINE
8
BLACK
6
CONTINUOUS
10
4.91693
20
-8.0185
11
4.92068
21
-8.02225
0
LINE
8
BLACK
6
CONTINUOUS
10
4.92068
20
-8.02225
11
4.92443
21
-8.02975
0
LINE
8
BLACK
6
CONTINUOUS
10
4.92443
20
-8.02975
11
4.92818
21
-8.04475
0
LINE
8
BLACK
6
CONTINUOUS
10
4.92818
20
-8.04475
11
4.92818
21
-8.0635
0
LINE
8
BLACK
6
CONTINUOUS
10
4.92818
20
-8.0635
11
4.92443
21
-8.0785
0
LINE
8
BLACK
6
CONTINUOUS
10
4.92443
20
-8.0785
11
4.92068
21
-8.086
0
LINE
8
BLACK
6
CONTINUOUS
10
4.92068
20
-8.086
11
4.91693
21
-8.08975
0
LINE
8
BLACK
6
CONTINUOUS
10
4.91693
20
-8.08975
11
4.90943
21
-8.09349
0
LINE
8
BLACK
6
CONTINUOUS
10
4.90943
20
-8.09349
11
4.90193
21
-8.09349
0
LINE
8
BLACK
6
CONTINUOUS
10
4.90193
20
-8.09349
11
4.89443
21
-8.08975
0
LINE
8
BLACK
6
CONTINUOUS
10
4.89443
20
-8.08975
11
4.89068
21
-8.086
0
LINE
8
BLACK
6
CONTINUOUS
10
4.89068
20
-8.086
11
4.88693
21
-8.0785
0
LINE
8
BLACK
6
CONTINUOUS
10
4.88693
20
-8.0785
11
4.88318
21
-8.0635
0
LINE
8
BLACK
6
CONTINUOUS
10
4.88318
20
-8.0635
11
4.88318
21
-8.04475
0
LINE
8
BLACK
6
CONTINUOUS
10
4.88318
20
-8.04475
11
4.88693
21
-8.02975
0
LINE
8
BLACK
6
CONTINUOUS
10
4.88693
20
-8.02975
11
4.89068
21
-8.02225
0
LINE
8
BLACK
6
CONTINUOUS
10
4.89068
20
-8.02225
11
4.89443
21
-8.0185
0
LINE
8
BLACK
6
CONTINUOUS
10
4.89443
20
-8.0185
11
4.90193
21
-8.01475
0
LINE
8
BLACK
6
CONTINUOUS
10
4.97692
20
-8.01475
11
4.98442
21
-8.01475
0
LINE
8
BLACK
6
CONTINUOUS
10
4.98442
20
-8.01475
11
4.99192
21
-8.0185
0
LINE
8
BLACK
6
CONTINUOUS
10
4.99192
20
-8.0185
11
4.99567
21
-8.02225
0
LINE
8
BLACK
6
CONTINUOUS
10
4.99567
20
-8.02225
11
4.99942
21
-8.02975
0
LINE
8
BLACK
6
CONTINUOUS
10
4.99942
20
-8.02975
11
5.00317
21
-8.04475
0
LINE
8
BLACK
6
CONTINUOUS
10
5.00317
20
-8.04475
11
5.00317
21
-8.0635
0
LINE
8
BLACK
6
CONTINUOUS
10
5.00317
20
-8.0635
11
4.99942
21
-8.0785
0
LINE
8
BLACK
6
CONTINUOUS
10
4.99942
20
-8.0785
11
4.99567
21
-8.086
0
LINE
8
BLACK
6
CONTINUOUS
10
4.99567
20
-8.086
11
4.99192
21
-8.08975
0
LINE
8
BLACK
6
CONTINUOUS
10
4.99192
20
-8.08975
11
4.98442
21
-8.09349
0
LINE
8
BLACK
6
CONTINUOUS
10
4.98442
20
-8.09349
11
4.97692
21
-8.09349
0
LINE
8
BLACK
6
CONTINUOUS
10
4.97692
20
-8.09349
11
4.96942
21
-8.08975
0
LINE
8
BLACK
6
CONTINUOUS
10
4.96942
20
-8.08975
11
4.96567
21
-8.086
0
LINE
8
BLACK
6
CONTINUOUS
10
4.96567
20
-8.086
11
4.96192
21
-8.0785
0
LINE
8
BLACK
6
CONTINUOUS
10
4.96192
20
-8.0785
11
4.95817
21
-8.0635
0
LINE
8
BLACK
6
CONTINUOUS
10
4.95817
20
-8.0635
11
4.95817
21
-8.04475
0
LINE
8
BLACK
6
CONTINUOUS
10
4.95817
20
-8.04475
11
4.96192
21
-8.02975
0
LINE
8
BLACK
6
CONTINUOUS
10
4.96192
20
-8.02975
11
4.96567
21
-8.02225
0
LINE
8
BLACK
6
CONTINUOUS
10
4.96567
20
-8.02225
11
4.96942
21
-8.0185
0
LINE
8
BLACK
6
CONTINUOUS
10
4.96942
20
-8.0185
11
4.97692
21
-8.01475
0
LINE
8
BLACK
6
CONTINUOUS
10
5.03691
20
-8.09349
11
5.03691
21
-8.041
0
LINE
8
BLACK
6
CONTINUOUS
10
5.03691
20
-8.0485
11
5.04066
21
-8.04475
0
LINE
8
BLACK
6
CONTINUOUS
10
5.04066
20
-8.04475
11
5.04816
21
-8.041
0
LINE
8
BLACK
6
CONTINUOUS
10
5.04816
20
-8.041
11
5.05941
21
-8.041
0
LINE
8
BLACK
6
CONTINUOUS
10
5.05941
20
-8.041
11
5.06691
21
-8.04475
0
LINE
8
BLACK
6
CONTINUOUS
10
5.06691
20
-8.04475
11
5.07066
21
-8.05225
0
LINE
8
BLACK
6
CONTINUOUS
10
5.07066
20
-8.05225
11
5.07066
21
-8.09349
0
LINE
8
BLACK
6
CONTINUOUS
10
5.07066
20
-8.05225
11
5.07441
21
-8.04475
0
LINE
8
BLACK
6
CONTINUOUS
10
5.07441
20
-8.04475
11
5.08191
21
-8.041
0
LINE
8
BLACK
6
CONTINUOUS
10
5.08191
20
-8.041
11
5.09316
21
-8.041
0
LINE
8
BLACK
6
CONTINUOUS
10
5.09316
20
-8.041
11
5.10066
21
-8.04475
0
LINE
8
BLACK
6
CONTINUOUS
10
5.10066
20
-8.04475
11
5.10441
21
-8.05225
0
LINE
8
BLACK
6
CONTINUOUS
10
5.10441
20
-8.05225
11
5.10441
21
-8.09349
0
LINE
8
BLACK
6
CONTINUOUS
10
5.1419
20
-8.09349
11
5.1419
21
-8.041
0
LINE
8
BLACK
6
CONTINUOUS
10
5.1419
20
-8.0485
11
5.14565
21
-8.04475
0
LINE
8
BLACK
6
CONTINUOUS
10
5.14565
20
-8.04475
11
5.15315
21
-8.041
0
LINE
8
BLACK
6
CONTINUOUS
10
5.15315
20
-8.041
11
5.1644
21
-8.041
0
LINE
8
BLACK
6
CONTINUOUS
10
5.1644
20
-8.041
11
5.1719
21
-8.04475
0
LINE
8
BLACK
6
CONTINUOUS
10
5.1719
20
-8.04475
11
5.17565
21
-8.05225
0
LINE
8
BLACK
6
CONTINUOUS
10
5.17565
20
-8.05225
11
5.17565
21
-8.09349
0
LINE
8
BLACK
6
CONTINUOUS
10
5.17565
20
-8.05225
11
5.1794
21
-8.04475
0
LINE
8
BLACK
6
CONTINUOUS
10
5.1794
20
-8.04475
11
5.1869
21
-8.041
0
LINE
8
BLACK
6
CONTINUOUS
10
5.1869
20
-8.041
11
5.19814
21
-8.041
0
LINE
8
BLACK
6
CONTINUOUS
10
5.19814
20
-8.041
11
5.20564
21
-8.04475
0
LINE
8
BLACK
6
CONTINUOUS
10
5.20564
20
-8.04475
11
5.20939
21
-8.05225
0
LINE
8
BLACK
6
CONTINUOUS
10
5.20939
20
-8.05225
11
5.20939
21
-8.09349
0
LINE
8
BLACK
6
CONTINUOUS
10
5.36312
20
-8.011
11
5.29563
21
-8.11224
0
LINE
8
BLACK
6
CONTINUOUS
10
5.46436
20
-8.01475
11
5.47186
21
-8.01475
0
LINE
8
BLACK
6
CONTINUOUS
10
5.47186
20
-8.01475
11
5.47936
21
-8.0185
0
LINE
8
BLACK
6
CONTINUOUS
10
5.47936
20
-8.0185
11
5.48311
21
-8.02225
0
LINE
8
BLACK
6
CONTINUOUS
10
5.48311
20
-8.02225
11
5.48686
21
-8.02975
0
LINE
8
BLACK
6
CONTINUOUS
10
5.48686
20
-8.02975
11
5.49061
21
-8.04475
0
LINE
8
BLACK
6
CONTINUOUS
10
5.49061
20
-8.04475
11
5.49061
21
-8.0635
0
LINE
8
BLACK
6
CONTINUOUS
10
5.49061
20
-8.0635
11
5.48686
21
-8.0785
0
LINE
8
BLACK
6
CONTINUOUS
10
5.48686
20
-8.0785
11
5.48311
21
-8.086
0
LINE
8
BLACK
6
CONTINUOUS
10
5.48311
20
-8.086
11
5.47936
21
-8.08975
0
LINE
8
BLACK
6
CONTINUOUS
10
5.47936
20
-8.08975
11
5.47186
21
-8.09349
0
LINE
8
BLACK
6
CONTINUOUS
10
5.47186
20
-8.09349
11
5.46436
21
-8.09349
0
LINE
8
BLACK
6
CONTINUOUS
10
5.46436
20
-8.09349
11
5.45686
21
-8.08975
0
LINE
8
BLACK
6
CONTINUOUS
10
5.45686
20
-8.08975
11
5.45311
21
-8.086
0
LINE
8
BLACK
6
CONTINUOUS
10
5.45311
20
-8.086
11
5.44936
21
-8.0785
0
LINE
8
BLACK
6
CONTINUOUS
10
5.44936
20
-8.0785
11
5.44561
21
-8.0635
0
LINE
8
BLACK
6
CONTINUOUS
10
5.44561
20
-8.0635
11
5.44561
21
-8.04475
0
LINE
8
BLACK
6
CONTINUOUS
10
5.44561
20
-8.04475
11
5.44936
21
-8.02975
0
LINE
8
BLACK
6
CONTINUOUS
10
5.44936
20
-8.02975
11
5.45311
21
-8.02225
0
LINE
8
BLACK
6
CONTINUOUS
10
5.45311
20
-8.02225
11
5.45686
21
-8.0185
0
LINE
8
BLACK
6
CONTINUOUS
10
5.45686
20
-8.0185
11
5.46436
21
-8.01475
0
LINE
8
BLACK
6
CONTINUOUS
10
5.52435
20
-8.086
11
5.5281
21
-8.08975
0
LINE
8
BLACK
6
CONTINUOUS
10
5.5281
20
-8.08975
11
5.52435
21
-8.09349
0
LINE
8
BLACK
6
CONTINUOUS
10
5.52435
20
-8.09349
11
5.5206
21
-8.08975
0
LINE
8
BLACK
6
CONTINUOUS
10
5.5206
20
-8.08975
11
5.52435
21
-8.086
0
LINE
8
BLACK
6
CONTINUOUS
10
5.52435
20
-8.086
11
5.52435
21
-8.09349
0
LINE
8
BLACK
6
CONTINUOUS
10
5.57685
20
-8.01475
11
5.58435
21
-8.01475
0
LINE
8
BLACK
6
CONTINUOUS
10
5.58435
20
-8.01475
11
5.59184
21
-8.0185
0
LINE
8
BLACK
6
CONTINUOUS
10
5.59184
20
-8.0185
11
5.59559
21
-8.02225
0
LINE
8
BLACK
6
CONTINUOUS
10
5.59559
20
-8.02225
11
5.59934
21
-8.02975
0
LINE
8
BLACK
6
CONTINUOUS
10
5.59934
20
-8.02975
11
5.60309
21
-8.04475
0
LINE
8
BLACK
6
CONTINUOUS
10
5.60309
20
-8.04475
11
5.60309
21
-8.0635
0
LINE
8
BLACK
6
CONTINUOUS
10
5.60309
20
-8.0635
11
5.59934
21
-8.0785
0
LINE
8
BLACK
6
CONTINUOUS
10
5.59934
20
-8.0785
11
5.59559
21
-8.086
0
LINE
8
BLACK
6
CONTINUOUS
10
5.59559
20
-8.086
11
5.59184
21
-8.08975
0
LINE
8
BLACK
6
CONTINUOUS
10
5.59184
20
-8.08975
11
5.58435
21
-8.09349
0
LINE
8
BLACK
6
CONTINUOUS
10
5.58435
20
-8.09349
11
5.57685
21
-8.09349
0
LINE
8
BLACK
6
CONTINUOUS
10
5.57685
20
-8.09349
11
5.56935
21
-8.08975
0
LINE
8
BLACK
6
CONTINUOUS
10
5.56935
20
-8.08975
11
5.5656
21
-8.086
0
LINE
8
BLACK
6
CONTINUOUS
10
5.5656
20
-8.086
11
5.56185
21
-8.0785
0
LINE
8
BLACK
6
CONTINUOUS
10
5.56185
20
-8.0785
11
5.5581
21
-8.0635
0
LINE
8
BLACK
6
CONTINUOUS
10
5.5581
20
-8.0635
11
5.5581
21
-8.04475
0
LINE
8
BLACK
6
CONTINUOUS
10
5.5581
20
-8.04475
11
5.56185
21
-8.02975
0
LINE
8
BLACK
6
CONTINUOUS
10
5.56185
20
-8.02975
11
5.5656
21
-8.02225
0
LINE
8
BLACK
6
CONTINUOUS
10
5.5656
20
-8.02225
11
5.56935
21
-8.0185
0
LINE
8
BLACK
6
CONTINUOUS
10
5.56935
20
-8.0185
11
5.57685
21
-8.01475
0
LINE
8
BLACK
6
CONTINUOUS
10
5.63309
20
-8.02225
11
5.63684
21
-8.0185
0
LINE
8
BLACK
6
CONTINUOUS
10
5.63684
20
-8.0185
11
5.64434
21
-8.01475
0
LINE
8
BLACK
6
CONTINUOUS
10
5.64434
20
-8.01475
11
5.66309
21
-8.01475
0
LINE
8
BLACK
6
CONTINUOUS
10
5.66309
20
-8.01475
11
5.67058
21
-8.0185
0
LINE
8
BLACK
6
CONTINUOUS
10
5.67058
20
-8.0185
11
5.67433
21
-8.02225
0
LINE
8
BLACK
6
CONTINUOUS
10
5.67433
20
-8.02225
11
5.67808
21
-8.02975
0
LINE
8
BLACK
6
CONTINUOUS
10
5.67808
20
-8.02975
11
5.67808
21
-8.03725
0
LINE
8
BLACK
6
CONTINUOUS
10
5.67808
20
-8.03725
11
5.67433
21
-8.0485
0
LINE
8
BLACK
6
CONTINUOUS
10
5.67433
20
-8.0485
11
5.62934
21
-8.09349
0
LINE
8
BLACK
6
CONTINUOUS
10
5.62934
20
-8.09349
11
5.67808
21
-8.09349
0
LINE
8
BLACK
6
CONTINUOUS
10
5.70433
20
-8.01475
11
5.75307
21
-8.01475
0
LINE
8
BLACK
6
CONTINUOUS
10
5.75307
20
-8.01475
11
5.72683
21
-8.04475
0
LINE
8
BLACK
6
CONTINUOUS
10
5.72683
20
-8.04475
11
5.73808
21
-8.04475
0
LINE
8
BLACK
6
CONTINUOUS
10
5.73808
20
-8.04475
11
5.74558
21
-8.0485
0
LINE
8
BLACK
6
CONTINUOUS
10
5.74558
20
-8.0485
11
5.74933
21
-8.05225
0
LINE
8
BLACK
6
CONTINUOUS
10
5.74933
20
-8.05225
11
5.75307
21
-8.05975
0
LINE
8
BLACK
6
CONTINUOUS
10
5.75307
20
-8.05975
11
5.75307
21
-8.0785
0
LINE
8
BLACK
6
CONTINUOUS
10
5.75307
20
-8.0785
11
5.74933
21
-8.086
0
LINE
8
BLACK
6
CONTINUOUS
10
5.74933
20
-8.086
11
5.74558
21
-8.08975
0
LINE
8
BLACK
6
CONTINUOUS
10
5.74558
20
-8.08975
11
5.73808
21
-8.09349
0
LINE
8
BLACK
6
CONTINUOUS
10
5.73808
20
-8.09349
11
5.71558
21
-8.09349
0
LINE
8
BLACK
6
CONTINUOUS
10
5.71558
20
-8.09349
11
5.70808
21
-8.08975
0
LINE
8
BLACK
6
CONTINUOUS
10
5.70808
20
-8.08975
11
5.70433
21
-8.086
0
LINE
8
BLACK
6
CONTINUOUS
10
5.82057
20
-8.01475
11
5.80557
21
-8.01475
0
LINE
8
BLACK
6
CONTINUOUS
10
5.80557
20
-8.01475
11
5.79807
21
-8.0185
0
LINE
8
BLACK
6
CONTINUOUS
10
5.79807
20
-8.0185
11
5.79432
21
-8.02225
0
LINE
8
BLACK
6
CONTINUOUS
10
5.79432
20
-8.02225
11
5.78682
21
-8.0335
0
LINE
8
BLACK
6
CONTINUOUS
10
5.78682
20
-8.0335
11
5.78307
21
-8.0485
0
LINE
8
BLACK
6
CONTINUOUS
10
5.78307
20
-8.0485
11
5.78307
21
-8.0785
0
LINE
8
BLACK
6
CONTINUOUS
10
5.78307
20
-8.0785
11
5.78682
21
-8.086
0
LINE
8
BLACK
6
CONTINUOUS
10
5.78682
20
-8.086
11
5.79057
21
-8.08975
0
LINE
8
BLACK
6
CONTINUOUS
10
5.79057
20
-8.08975
11
5.79807
21
-8.09349
0
LINE
8
BLACK
6
CONTINUOUS
10
5.79807
20
-8.09349
11
5.81307
21
-8.09349
0
LINE
8
BLACK
6
CONTINUOUS
10
5.81307
20
-8.09349
11
5.82057
21
-8.08975
0
LINE
8
BLACK
6
CONTINUOUS
10
5.82057
20
-8.08975
11
5.82432
21
-8.086
0
LINE
8
BLACK
6
CONTINUOUS
10
5.82432
20
-8.086
11
5.82807
21
-8.0785
0
LINE
8
BLACK
6
CONTINUOUS
10
5.82807
20
-8.0785
11
5.82807
21
-8.05975
0
LINE
8
BLACK
6
CONTINUOUS
10
5.82807
20
-8.05975
11
5.82432
21
-8.05225
0
LINE
8
BLACK
6
CONTINUOUS
10
5.82432
20
-8.05225
11
5.82057
21
-8.0485
0
LINE
8
BLACK
6
CONTINUOUS
10
5.82057
20
-8.0485
11
5.81307
21
-8.04475
0
LINE
8
BLACK
6
CONTINUOUS
10
5.81307
20
-8.04475
11
5.79807
21
-8.04475
0
LINE
8
BLACK
6
CONTINUOUS
10
5.79807
20
-8.04475
11
5.79057
21
-8.0485
0
LINE
8
BLACK
6
CONTINUOUS
10
5.79057
20
-8.0485
11
5.78682
21
-8.05225
0
LINE
8
BLACK
6
CONTINUOUS
10
5.78682
20
-8.05225
11
5.78307
21
-8.05975
0
LINE
8
BLACK
6
CONTINUOUS
10
5.85806
20
-8.01475
11
5.85806
21
-8.02975
0
LINE
8
BLACK
6
CONTINUOUS
10
5.88806
20
-8.01475
11
5.88806
21
-8.02975
0
LINE
8
BLACK
6
CONTINUOUS
10
6.00429
20
-8.12349
11
6.00054
21
-8.11974
0
LINE
8
BLACK
6
CONTINUOUS
10
6.00054
20
-8.11974
11
5.99304
21
-8.10849
0
LINE
8
BLACK
6
CONTINUOUS
10
5.99304
20
-8.10849
11
5.9893
21
-8.10099
0
LINE
8
BLACK
6
CONTINUOUS
10
5.9893
20
-8.10099
11
5.98555
21
-8.08975
0
LINE
8
BLACK
6
CONTINUOUS
10
5.98555
20
-8.08975
11
5.9818
21
-8.071
0
LINE
8
BLACK
6
CONTINUOUS
10
5.9818
20
-8.071
11
5.9818
21
-8.056
0
LINE
8
BLACK
6
CONTINUOUS
10
5.9818
20
-8.056
11
5.98555
21
-8.03725
0
LINE
8
BLACK
6
CONTINUOUS
10
5.98555
20
-8.03725
11
5.9893
21
-8.026
0
LINE
8
BLACK
6
CONTINUOUS
10
5.9893
20
-8.026
11
5.99304
21
-8.0185
0
LINE
8
BLACK
6
CONTINUOUS
10
5.99304
20
-8.0185
11
6.00054
21
-8.00726
0
LINE
8
BLACK
6
CONTINUOUS
10
6.00054
20
-8.00726
11
6.00429
21
-8.00351
0
LINE
8
BLACK
6
CONTINUOUS
10
6.06804
20
-8.041
11
6.06804
21
-8.09349
0
LINE
8
BLACK
6
CONTINUOUS
10
6.04929
20
-8.011
11
6.03054
21
-8.06725
0
LINE
8
BLACK
6
CONTINUOUS
10
6.03054
20
-8.06725
11
6.07928
21
-8.06725
0
LINE
8
BLACK
6
CONTINUOUS
10
6.16927
20
-8.09349
11
6.16927
21
-8.01475
0
LINE
8
BLACK
6
CONTINUOUS
10
6.20302
20
-8.09349
11
6.20302
21
-8.05225
0
LINE
8
BLACK
6
CONTINUOUS
10
6.20302
20
-8.05225
11
6.19927
21
-8.04475
0
LINE
8
BLACK
6
CONTINUOUS
10
6.19927
20
-8.04475
11
6.19177
21
-8.041
0
LINE
8
BLACK
6
CONTINUOUS
10
6.19177
20
-8.041
11
6.18052
21
-8.041
0
LINE
8
BLACK
6
CONTINUOUS
10
6.18052
20
-8.041
11
6.17302
21
-8.04475
0
LINE
8
BLACK
6
CONTINUOUS
10
6.17302
20
-8.04475
11
6.16927
21
-8.0485
0
LINE
8
BLACK
6
CONTINUOUS
10
6.25176
20
-8.09349
11
6.24426
21
-8.08975
0
LINE
8
BLACK
6
CONTINUOUS
10
6.24426
20
-8.08975
11
6.24051
21
-8.086
0
LINE
8
BLACK
6
CONTINUOUS
10
6.24051
20
-8.086
11
6.23676
21
-8.0785
0
LINE
8
BLACK
6
CONTINUOUS
10
6.23676
20
-8.0785
11
6.23676
21
-8.056
0
LINE
8
BLACK
6
CONTINUOUS
10
6.23676
20
-8.056
11
6.24051
21
-8.0485
0
LINE
8
BLACK
6
CONTINUOUS
10
6.24051
20
-8.0485
11
6.24426
21
-8.04475
0
LINE
8
BLACK
6
CONTINUOUS
10
6.24426
20
-8.04475
11
6.25176
21
-8.041
0
LINE
8
BLACK
6
CONTINUOUS
10
6.25176
20
-8.041
11
6.26301
21
-8.041
0
LINE
8
BLACK
6
CONTINUOUS
10
6.26301
20
-8.041
11
6.27051
21
-8.04475
0
LINE
8
BLACK
6
CONTINUOUS
10
6.27051
20
-8.04475
11
6.27426
21
-8.0485
0
LINE
8
BLACK
6
CONTINUOUS
10
6.27426
20
-8.0485
11
6.27801
21
-8.056
0
LINE
8
BLACK
6
CONTINUOUS
10
6.27801
20
-8.056
11
6.27801
21
-8.0785
0
LINE
8
BLACK
6
CONTINUOUS
10
6.27801
20
-8.0785
11
6.27426
21
-8.086
0
LINE
8
BLACK
6
CONTINUOUS
10
6.27426
20
-8.086
11
6.27051
21
-8.08975
0
LINE
8
BLACK
6
CONTINUOUS
10
6.27051
20
-8.08975
11
6.26301
21
-8.09349
0
LINE
8
BLACK
6
CONTINUOUS
10
6.26301
20
-8.09349
11
6.25176
21
-8.09349
0
LINE
8
BLACK
6
CONTINUOUS
10
6.323
20
-8.09349
11
6.3155
21
-8.08975
0
LINE
8
BLACK
6
CONTINUOUS
10
6.3155
20
-8.08975
11
6.31175
21
-8.08225
0
LINE
8
BLACK
6
CONTINUOUS
10
6.31175
20
-8.08225
11
6.31175
21
-8.01475
0
LINE
8
BLACK
6
CONTINUOUS
10
6.383
20
-8.08975
11
6.3755
21
-8.09349
0
LINE
8
BLACK
6
CONTINUOUS
10
6.3755
20
-8.09349
11
6.3605
21
-8.09349
0
LINE
8
BLACK
6
CONTINUOUS
10
6.3605
20
-8.09349
11
6.353
21
-8.08975
0
LINE
8
BLACK
6
CONTINUOUS
10
6.353
20
-8.08975
11
6.34925
21
-8.08225
0
LINE
8
BLACK
6
CONTINUOUS
10
6.34925
20
-8.08225
11
6.34925
21
-8.05225
0
LINE
8
BLACK
6
CONTINUOUS
10
6.34925
20
-8.05225
11
6.353
21
-8.04475
0
LINE
8
BLACK
6
CONTINUOUS
10
6.353
20
-8.04475
11
6.3605
21
-8.041
0
LINE
8
BLACK
6
CONTINUOUS
10
6.3605
20
-8.041
11
6.3755
21
-8.041
0
LINE
8
BLACK
6
CONTINUOUS
10
6.3755
20
-8.041
11
6.383
21
-8.04475
0
LINE
8
BLACK
6
CONTINUOUS
10
6.383
20
-8.04475
11
6.38675
21
-8.05225
0
LINE
8
BLACK
6
CONTINUOUS
10
6.38675
20
-8.05225
11
6.38675
21
-8.05975
0
LINE
8
BLACK
6
CONTINUOUS
10
6.38675
20
-8.05975
11
6.34925
21
-8.06725
0
LINE
8
BLACK
6
CONTINUOUS
10
6.41674
20
-8.08975
11
6.42424
21
-8.09349
0
LINE
8
BLACK
6
CONTINUOUS
10
6.42424
20
-8.09349
11
6.43924
21
-8.09349
0
LINE
8
BLACK
6
CONTINUOUS
10
6.43924
20
-8.09349
11
6.44674
21
-8.08975
0
LINE
8
BLACK
6
CONTINUOUS
10
6.44674
20
-8.08975
11
6.45049
21
-8.08225
0
LINE
8
BLACK
6
CONTINUOUS
10
6.45049
20
-8.08225
11
6.45049
21
-8.0785
0
LINE
8
BLACK
6
CONTINUOUS
10
6.45049
20
-8.0785
11
6.44674
21
-8.071
0
LINE
8
BLACK
6
CONTINUOUS
10
6.44674
20
-8.071
11
6.43924
21
-8.06725
0
LINE
8
BLACK
6
CONTINUOUS
10
6.43924
20
-8.06725
11
6.42799
21
-8.06725
0
LINE
8
BLACK
6
CONTINUOUS
10
6.42799
20
-8.06725
11
6.42049
21
-8.0635
0
LINE
8
BLACK
6
CONTINUOUS
10
6.42049
20
-8.0635
11
6.41674
21
-8.056
0
LINE
8
BLACK
6
CONTINUOUS
10
6.41674
20
-8.056
11
6.41674
21
-8.05225
0
LINE
8
BLACK
6
CONTINUOUS
10
6.41674
20
-8.05225
11
6.42049
21
-8.04475
0
LINE
8
BLACK
6
CONTINUOUS
10
6.42049
20
-8.04475
11
6.42799
21
-8.041
0
LINE
8
BLACK
6
CONTINUOUS
10
6.42799
20
-8.041
11
6.43924
21
-8.041
0
LINE
8
BLACK
6
CONTINUOUS
10
6.43924
20
-8.041
11
6.44674
21
-8.04475
0
LINE
8
BLACK
6
CONTINUOUS
10
6.47673
20
-8.12349
11
6.48048
21
-8.11974
0
LINE
8
BLACK
6
CONTINUOUS
10
6.48048
20
-8.11974
11
6.48798
21
-8.10849
0
LINE
8
BLACK
6
CONTINUOUS
10
6.48798
20
-8.10849
11
6.49173
21
-8.10099
0
LINE
8
BLACK
6
CONTINUOUS
10
6.49173
20
-8.10099
11
6.49548
21
-8.08975
0
LINE
8
BLACK
6
CONTINUOUS
10
6.49548
20
-8.08975
11
6.49923
21
-8.071
0
LINE
8
BLACK
6
CONTINUOUS
10
6.49923
20
-8.071
11
6.49923
21
-8.056
0
LINE
8
BLACK
6
CONTINUOUS
10
6.49923
20
-8.056
11
6.49548
21
-8.03725
0
LINE
8
BLACK
6
CONTINUOUS
10
6.49548
20
-8.03725
11
6.49173
21
-8.026
0
LINE
8
BLACK
6
CONTINUOUS
10
6.49173
20
-8.026
11
6.48798
21
-8.0185
0
LINE
8
BLACK
6
CONTINUOUS
10
6.48798
20
-8.0185
11
6.48048
21
-8.00726
0
LINE
8
BLACK
6
CONTINUOUS
10
6.48048
20
-8.00726
11
6.47673
21
-8.00351
0
LINE
8
BLACK
6
CONTINUOUS
10
4.58228
20
-8.14606
11
4.58228
21
-8.17756
0
LINE
8
BLACK
6
CONTINUOUS
10
4.56654
20
-8.16181
11
4.59803
21
-8.16181
0
LINE
8
BLACK
6
CONTINUOUS
10
4.71445
20
-8.11869
11
4.72195
21
-8.11869
0
LINE
8
BLACK
6
CONTINUOUS
10
4.72195
20
-8.11869
11
4.72945
21
-8.12244
0
LINE
8
BLACK
6
CONTINUOUS
10
4.72945
20
-8.12244
11
4.7332
21
-8.12619
0
LINE
8
BLACK
6
CONTINUOUS
10
4.7332
20
-8.12619
11
4.73695
21
-8.13369
0
LINE
8
BLACK
6
CONTINUOUS
10
4.73695
20
-8.13369
11
4.7407
21
-8.14869
0
LINE
8
BLACK
6
CONTINUOUS
10
4.7407
20
-8.14869
11
4.7407
21
-8.16744
0
LINE
8
BLACK
6
CONTINUOUS
10
4.7407
20
-8.16744
11
4.73695
21
-8.18243
0
LINE
8
BLACK
6
CONTINUOUS
10
4.73695
20
-8.18243
11
4.7332
21
-8.18993
0
LINE
8
BLACK
6
CONTINUOUS
10
4.7332
20
-8.18993
11
4.72945
21
-8.19368
0
LINE
8
BLACK
6
CONTINUOUS
10
4.72945
20
-8.19368
11
4.72195
21
-8.19743
0
LINE
8
BLACK
6
CONTINUOUS
10
4.72195
20
-8.19743
11
4.71445
21
-8.19743
0
LINE
8
BLACK
6
CONTINUOUS
10
4.71445
20
-8.19743
11
4.70696
21
-8.19368
0
LINE
8
BLACK
6
CONTINUOUS
10
4.70696
20
-8.19368
11
4.70321
21
-8.18993
0
LINE
8
BLACK
6
CONTINUOUS
10
4.70321
20
-8.18993
11
4.69946
21
-8.18243
0
LINE
8
BLACK
6
CONTINUOUS
10
4.69946
20
-8.18243
11
4.69571
21
-8.16744
0
LINE
8
BLACK
6
CONTINUOUS
10
4.69571
20
-8.16744
11
4.69571
21
-8.14869
0
LINE
8
BLACK
6
CONTINUOUS
10
4.69571
20
-8.14869
11
4.69946
21
-8.13369
0
LINE
8
BLACK
6
CONTINUOUS
10
4.69946
20
-8.13369
11
4.70321
21
-8.12619
0
LINE
8
BLACK
6
CONTINUOUS
10
4.70321
20
-8.12619
11
4.70696
21
-8.12244
0
LINE
8
BLACK
6
CONTINUOUS
10
4.70696
20
-8.12244
11
4.71445
21
-8.11869
0
LINE
8
BLACK
6
CONTINUOUS
10
4.77445
20
-8.18993
11
4.7782
21
-8.19368
0
LINE
8
BLACK
6
CONTINUOUS
10
4.7782
20
-8.19368
11
4.77445
21
-8.19743
0
LINE
8
BLACK
6
CONTINUOUS
10
4.77445
20
-8.19743
11
4.7707
21
-8.19368
0
LINE
8
BLACK
6
CONTINUOUS
10
4.7707
20
-8.19368
11
4.77445
21
-8.18993
0
LINE
8
BLACK
6
CONTINUOUS
10
4.77445
20
-8.18993
11
4.77445
21
-8.19743
0
LINE
8
BLACK
6
CONTINUOUS
10
4.82319
20
-8.15244
11
4.81569
21
-8.14869
0
LINE
8
BLACK
6
CONTINUOUS
10
4.81569
20
-8.14869
11
4.81194
21
-8.14494
0
LINE
8
BLACK
6
CONTINUOUS
10
4.81194
20
-8.14494
11
4.80819
21
-8.13744
0
LINE
8
BLACK
6
CONTINUOUS
10
4.80819
20
-8.13744
11
4.80819
21
-8.13369
0
LINE
8
BLACK
6
CONTINUOUS
10
4.80819
20
-8.13369
11
4.81194
21
-8.12619
0
LINE
8
BLACK
6
CONTINUOUS
10
4.81194
20
-8.12619
11
4.81569
21
-8.12244
0
LINE
8
BLACK
6
CONTINUOUS
10
4.81569
20
-8.12244
11
4.82319
21
-8.11869
0
LINE
8
BLACK
6
CONTINUOUS
10
4.82319
20
-8.11869
11
4.83819
21
-8.11869
0
LINE
8
BLACK
6
CONTINUOUS
10
4.83819
20
-8.11869
11
4.84569
21
-8.12244
0
LINE
8
BLACK
6
CONTINUOUS
10
4.84569
20
-8.12244
11
4.84944
21
-8.12619
0
LINE
8
BLACK
6
CONTINUOUS
10
4.84944
20
-8.12619
11
4.85319
21
-8.13369
0
LINE
8
BLACK
6
CONTINUOUS
10
4.85319
20
-8.13369
11
4.85319
21
-8.13744
0
LINE
8
BLACK
6
CONTINUOUS
10
4.85319
20
-8.13744
11
4.84944
21
-8.14494
0
LINE
8
BLACK
6
CONTINUOUS
10
4.84944
20
-8.14494
11
4.84569
21
-8.14869
0
LINE
8
BLACK
6
CONTINUOUS
10
4.84569
20
-8.14869
11
4.83819
21
-8.15244
0
LINE
8
BLACK
6
CONTINUOUS
10
4.83819
20
-8.15244
11
4.82319
21
-8.15244
0
LINE
8
BLACK
6
CONTINUOUS
10
4.82319
20
-8.15244
11
4.81569
21
-8.15619
0
LINE
8
BLACK
6
CONTINUOUS
10
4.81569
20
-8.15619
11
4.81194
21
-8.15994
0
LINE
8
BLACK
6
CONTINUOUS
10
4.81194
20
-8.15994
11
4.80819
21
-8.16744
0
LINE
8
BLACK
6
CONTINUOUS
10
4.80819
20
-8.16744
11
4.80819
21
-8.18243
0
LINE
8
BLACK
6
CONTINUOUS
10
4.80819
20
-8.18243
11
4.81194
21
-8.18993
0
LINE
8
BLACK
6
CONTINUOUS
10
4.81194
20
-8.18993
11
4.81569
21
-8.19368
0
LINE
8
BLACK
6
CONTINUOUS
10
4.81569
20
-8.19368
11
4.82319
21
-8.19743
0
LINE
8
BLACK
6
CONTINUOUS
10
4.82319
20
-8.19743
11
4.83819
21
-8.19743
0
LINE
8
BLACK
6
CONTINUOUS
10
4.83819
20
-8.19743
11
4.84569
21
-8.19368
0
LINE
8
BLACK
6
CONTINUOUS
10
4.84569
20
-8.19368
11
4.84944
21
-8.18993
0
LINE
8
BLACK
6
CONTINUOUS
10
4.84944
20
-8.18993
11
4.85319
21
-8.18243
0
LINE
8
BLACK
6
CONTINUOUS
10
4.85319
20
-8.18243
11
4.85319
21
-8.16744
0
LINE
8
BLACK
6
CONTINUOUS
10
4.85319
20
-8.16744
11
4.84944
21
-8.15994
0
LINE
8
BLACK
6
CONTINUOUS
10
4.84944
20
-8.15994
11
4.84569
21
-8.15619
0
LINE
8
BLACK
6
CONTINUOUS
10
4.84569
20
-8.15619
11
4.83819
21
-8.15244
0
LINE
8
BLACK
6
CONTINUOUS
10
4.90193
20
-8.11869
11
4.90943
21
-8.11869
0
LINE
8
BLACK
6
CONTINUOUS
10
4.90943
20
-8.11869
11
4.91693
21
-8.12244
0
LINE
8
BLACK
6
CONTINUOUS
10
4.91693
20
-8.12244
11
4.92068
21
-8.12619
0
LINE
8
BLACK
6
CONTINUOUS
10
4.92068
20
-8.12619
11
4.92443
21
-8.13369
0
LINE
8
BLACK
6
CONTINUOUS
10
4.92443
20
-8.13369
11
4.92818
21
-8.14869
0
LINE
8
BLACK
6
CONTINUOUS
10
4.92818
20
-8.14869
11
4.92818
21
-8.16744
0
LINE
8
BLACK
6
CONTINUOUS
10
4.92818
20
-8.16744
11
4.92443
21
-8.18243
0
LINE
8
BLACK
6
CONTINUOUS
10
4.92443
20
-8.18243
11
4.92068
21
-8.18993
0
LINE
8
BLACK
6
CONTINUOUS
10
4.92068
20
-8.18993
11
4.91693
21
-8.19368
0
LINE
8
BLACK
6
CONTINUOUS
10
4.91693
20
-8.19368
11
4.90943
21
-8.19743
0
LINE
8
BLACK
6
CONTINUOUS
10
4.90943
20
-8.19743
11
4.90193
21
-8.19743
0
LINE
8
BLACK
6
CONTINUOUS
10
4.90193
20
-8.19743
11
4.89443
21
-8.19368
0
LINE
8
BLACK
6
CONTINUOUS
10
4.89443
20
-8.19368
11
4.89068
21
-8.18993
0
LINE
8
BLACK
6
CONTINUOUS
10
4.89068
20
-8.18993
11
4.88693
21
-8.18243
0
LINE
8
BLACK
6
CONTINUOUS
10
4.88693
20
-8.18243
11
4.88318
21
-8.16744
0
LINE
8
BLACK
6
CONTINUOUS
10
4.88318
20
-8.16744
11
4.88318
21
-8.14869
0
LINE
8
BLACK
6
CONTINUOUS
10
4.88318
20
-8.14869
11
4.88693
21
-8.13369
0
LINE
8
BLACK
6
CONTINUOUS
10
4.88693
20
-8.13369
11
4.89068
21
-8.12619
0
LINE
8
BLACK
6
CONTINUOUS
10
4.89068
20
-8.12619
11
4.89443
21
-8.12244
0
LINE
8
BLACK
6
CONTINUOUS
10
4.89443
20
-8.12244
11
4.90193
21
-8.11869
0
LINE
8
BLACK
6
CONTINUOUS
10
4.97692
20
-8.11869
11
4.98442
21
-8.11869
0
LINE
8
BLACK
6
CONTINUOUS
10
4.98442
20
-8.11869
11
4.99192
21
-8.12244
0
LINE
8
BLACK
6
CONTINUOUS
10
4.99192
20
-8.12244
11
4.99567
21
-8.12619
0
LINE
8
BLACK
6
CONTINUOUS
10
4.99567
20
-8.12619
11
4.99942
21
-8.13369
0
LINE
8
BLACK
6
CONTINUOUS
10
4.99942
20
-8.13369
11
5.00317
21
-8.14869
0
LINE
8
BLACK
6
CONTINUOUS
10
5.00317
20
-8.14869
11
5.00317
21
-8.16744
0
LINE
8
BLACK
6
CONTINUOUS
10
5.00317
20
-8.16744
11
4.99942
21
-8.18243
0
LINE
8
BLACK
6
CONTINUOUS
10
4.99942
20
-8.18243
11
4.99567
21
-8.18993
0
LINE
8
BLACK
6
CONTINUOUS
10
4.99567
20
-8.18993
11
4.99192
21
-8.19368
0
LINE
8
BLACK
6
CONTINUOUS
10
4.99192
20
-8.19368
11
4.98442
21
-8.19743
0
LINE
8
BLACK
6
CONTINUOUS
10
4.98442
20
-8.19743
11
4.97692
21
-8.19743
0
LINE
8
BLACK
6
CONTINUOUS
10
4.97692
20
-8.19743
11
4.96942
21
-8.19368
0
LINE
8
BLACK
6
CONTINUOUS
10
4.96942
20
-8.19368
11
4.96567
21
-8.18993
0
LINE
8
BLACK
6
CONTINUOUS
10
4.96567
20
-8.18993
11
4.96192
21
-8.18243
0
LINE
8
BLACK
6
CONTINUOUS
10
4.96192
20
-8.18243
11
4.95817
21
-8.16744
0
LINE
8
BLACK
6
CONTINUOUS
10
4.95817
20
-8.16744
11
4.95817
21
-8.14869
0
LINE
8
BLACK
6
CONTINUOUS
10
4.95817
20
-8.14869
11
4.96192
21
-8.13369
0
LINE
8
BLACK
6
CONTINUOUS
10
4.96192
20
-8.13369
11
4.96567
21
-8.12619
0
LINE
8
BLACK
6
CONTINUOUS
10
4.96567
20
-8.12619
11
4.96942
21
-8.12244
0
LINE
8
BLACK
6
CONTINUOUS
10
4.96942
20
-8.12244
11
4.97692
21
-8.11869
0
LINE
8
BLACK
6
CONTINUOUS
10
5.03691
20
-8.19743
11
5.03691
21
-8.14494
0
LINE
8
BLACK
6
CONTINUOUS
10
5.03691
20
-8.15244
11
5.04066
21
-8.14869
0
LINE
8
BLACK
6
CONTINUOUS
10
5.04066
20
-8.14869
11
5.04816
21
-8.14494
0
LINE
8
BLACK
6
CONTINUOUS
10
5.04816
20
-8.14494
11
5.05941
21
-8.14494
0
LINE
8
BLACK
6
CONTINUOUS
10
5.05941
20
-8.14494
11
5.06691
21
-8.14869
0
LINE
8
BLACK
6
CONTINUOUS
10
5.06691
20
-8.14869
11
5.07066
21
-8.15619
0
LINE
8
BLACK
6
CONTINUOUS
10
5.07066
20
-8.15619
11
5.07066
21
-8.19743
0
LINE
8
BLACK
6
CONTINUOUS
10
5.07066
20
-8.15619
11
5.07441
21
-8.14869
0
LINE
8
BLACK
6
CONTINUOUS
10
5.07441
20
-8.14869
11
5.08191
21
-8.14494
0
LINE
8
BLACK
6
CONTINUOUS
10
5.08191
20
-8.14494
11
5.09316
21
-8.14494
0
LINE
8
BLACK
6
CONTINUOUS
10
5.09316
20
-8.14494
11
5.10066
21
-8.14869
0
LINE
8
BLACK
6
CONTINUOUS
10
5.10066
20
-8.14869
11
5.10441
21
-8.15619
0
LINE
8
BLACK
6
CONTINUOUS
10
5.10441
20
-8.15619
11
5.10441
21
-8.19743
0
LINE
8
BLACK
6
CONTINUOUS
10
5.1419
20
-8.19743
11
5.1419
21
-8.14494
0
LINE
8
BLACK
6
CONTINUOUS
10
5.1419
20
-8.15244
11
5.14565
21
-8.14869
0
LINE
8
BLACK
6
CONTINUOUS
10
5.14565
20
-8.14869
11
5.15315
21
-8.14494
0
LINE
8
BLACK
6
CONTINUOUS
10
5.15315
20
-8.14494
11
5.1644
21
-8.14494
0
LINE
8
BLACK
6
CONTINUOUS
10
5.1644
20
-8.14494
11
5.1719
21
-8.14869
0
LINE
8
BLACK
6
CONTINUOUS
10
5.1719
20
-8.14869
11
5.17565
21
-8.15619
0
LINE
8
BLACK
6
CONTINUOUS
10
5.17565
20
-8.15619
11
5.17565
21
-8.19743
0
LINE
8
BLACK
6
CONTINUOUS
10
5.17565
20
-8.15619
11
5.1794
21
-8.14869
0
LINE
8
BLACK
6
CONTINUOUS
10
5.1794
20
-8.14869
11
5.1869
21
-8.14494
0
LINE
8
BLACK
6
CONTINUOUS
10
5.1869
20
-8.14494
11
5.19814
21
-8.14494
0
LINE
8
BLACK
6
CONTINUOUS
10
5.19814
20
-8.14494
11
5.20564
21
-8.14869
0
LINE
8
BLACK
6
CONTINUOUS
10
5.20564
20
-8.14869
11
5.20939
21
-8.15619
0
LINE
8
BLACK
6
CONTINUOUS
10
5.20939
20
-8.15619
11
5.20939
21
-8.19743
0
LINE
8
BLACK
6
CONTINUOUS
10
5.36312
20
-8.11494
11
5.29563
21
-8.21618
0
LINE
8
BLACK
6
CONTINUOUS
10
5.46436
20
-8.11869
11
5.47186
21
-8.11869
0
LINE
8
BLACK
6
CONTINUOUS
10
5.47186
20
-8.11869
11
5.47936
21
-8.12244
0
LINE
8
BLACK
6
CONTINUOUS
10
5.47936
20
-8.12244
11
5.48311
21
-8.12619
0
LINE
8
BLACK
6
CONTINUOUS
10
5.48311
20
-8.12619
11
5.48686
21
-8.13369
0
LINE
8
BLACK
6
CONTINUOUS
10
5.48686
20
-8.13369
11
5.49061
21
-8.14869
0
LINE
8
BLACK
6
CONTINUOUS
10
5.49061
20
-8.14869
11
5.49061
21
-8.16744
0
LINE
8
BLACK
6
CONTINUOUS
10
5.49061
20
-8.16744
11
5.48686
21
-8.18243
0
LINE
8
BLACK
6
CONTINUOUS
10
5.48686
20
-8.18243
11
5.48311
21
-8.18993
0
LINE
8
BLACK
6
CONTINUOUS
10
5.48311
20
-8.18993
11
5.47936
21
-8.19368
0
LINE
8
BLACK
6
CONTINUOUS
10
5.47936
20
-8.19368
11
5.47186
21
-8.19743
0
LINE
8
BLACK
6
CONTINUOUS
10
5.47186
20
-8.19743
11
5.46436
21
-8.19743
0
LINE
8
BLACK
6
CONTINUOUS
10
5.46436
20
-8.19743
11
5.45686
21
-8.19368
0
LINE
8
BLACK
6
CONTINUOUS
10
5.45686
20
-8.19368
11
5.45311
21
-8.18993
0
LINE
8
BLACK
6
CONTINUOUS
10
5.45311
20
-8.18993
11
5.44936
21
-8.18243
0
LINE
8
BLACK
6
CONTINUOUS
10
5.44936
20
-8.18243
11
5.44561
21
-8.16744
0
LINE
8
BLACK
6
CONTINUOUS
10
5.44561
20
-8.16744
11
5.44561
21
-8.14869
0
LINE
8
BLACK
6
CONTINUOUS
10
5.44561
20
-8.14869
11
5.44936
21
-8.13369
0
LINE
8
BLACK
6
CONTINUOUS
10
5.44936
20
-8.13369
11
5.45311
21
-8.12619
0
LINE
8
BLACK
6
CONTINUOUS
10
5.45311
20
-8.12619
11
5.45686
21
-8.12244
0
LINE
8
BLACK
6
CONTINUOUS
10
5.45686
20
-8.12244
11
5.46436
21
-8.11869
0
LINE
8
BLACK
6
CONTINUOUS
10
5.52435
20
-8.18993
11
5.5281
21
-8.19368
0
LINE
8
BLACK
6
CONTINUOUS
10
5.5281
20
-8.19368
11
5.52435
21
-8.19743
0
LINE
8
BLACK
6
CONTINUOUS
10
5.52435
20
-8.19743
11
5.5206
21
-8.19368
0
LINE
8
BLACK
6
CONTINUOUS
10
5.5206
20
-8.19368
11
5.52435
21
-8.18993
0
LINE
8
BLACK
6
CONTINUOUS
10
5.52435
20
-8.18993
11
5.52435
21
-8.19743
0
LINE
8
BLACK
6
CONTINUOUS
10
5.57685
20
-8.11869
11
5.58435
21
-8.11869
0
LINE
8
BLACK
6
CONTINUOUS
10
5.58435
20
-8.11869
11
5.59184
21
-8.12244
0
LINE
8
BLACK
6
CONTINUOUS
10
5.59184
20
-8.12244
11
5.59559
21
-8.12619
0
LINE
8
BLACK
6
CONTINUOUS
10
5.59559
20
-8.12619
11
5.59934
21
-8.13369
0
LINE
8
BLACK
6
CONTINUOUS
10
5.59934
20
-8.13369
11
5.60309
21
-8.14869
0
LINE
8
BLACK
6
CONTINUOUS
10
5.60309
20
-8.14869
11
5.60309
21
-8.16744
0
LINE
8
BLACK
6
CONTINUOUS
10
5.60309
20
-8.16744
11
5.59934
21
-8.18243
0
LINE
8
BLACK
6
CONTINUOUS
10
5.59934
20
-8.18243
11
5.59559
21
-8.18993
0
LINE
8
BLACK
6
CONTINUOUS
10
5.59559
20
-8.18993
11
5.59184
21
-8.19368
0
LINE
8
BLACK
6
CONTINUOUS
10
5.59184
20
-8.19368
11
5.58435
21
-8.19743
0
LINE
8
BLACK
6
CONTINUOUS
10
5.58435
20
-8.19743
11
5.57685
21
-8.19743
0
LINE
8
BLACK
6
CONTINUOUS
10
5.57685
20
-8.19743
11
5.56935
21
-8.19368
0
LINE
8
BLACK
6
CONTINUOUS
10
5.56935
20
-8.19368
11
5.5656
21
-8.18993
0
LINE
8
BLACK
6
CONTINUOUS
10
5.5656
20
-8.18993
11
5.56185
21
-8.18243
0
LINE
8
BLACK
6
CONTINUOUS
10
5.56185
20
-8.18243
11
5.5581
21
-8.16744
0
LINE
8
BLACK
6
CONTINUOUS
10
5.5581
20
-8.16744
11
5.5581
21
-8.14869
0
LINE
8
BLACK
6
CONTINUOUS
10
5.5581
20
-8.14869
11
5.56185
21
-8.13369
0
LINE
8
BLACK
6
CONTINUOUS
10
5.56185
20
-8.13369
11
5.5656
21
-8.12619
0
LINE
8
BLACK
6
CONTINUOUS
10
5.5656
20
-8.12619
11
5.56935
21
-8.12244
0
LINE
8
BLACK
6
CONTINUOUS
10
5.56935
20
-8.12244
11
5.57685
21
-8.11869
0
LINE
8
BLACK
6
CONTINUOUS
10
5.62934
20
-8.11869
11
5.67808
21
-8.11869
0
LINE
8
BLACK
6
CONTINUOUS
10
5.67808
20
-8.11869
11
5.65184
21
-8.14869
0
LINE
8
BLACK
6
CONTINUOUS
10
5.65184
20
-8.14869
11
5.66309
21
-8.14869
0
LINE
8
BLACK
6
CONTINUOUS
10
5.66309
20
-8.14869
11
5.67058
21
-8.15244
0
LINE
8
BLACK
6
CONTINUOUS
10
5.67058
20
-8.15244
11
5.67433
21
-8.15619
0
LINE
8
BLACK
6
CONTINUOUS
10
5.67433
20
-8.15619
11
5.67808
21
-8.16369
0
LINE
8
BLACK
6
CONTINUOUS
10
5.67808
20
-8.16369
11
5.67808
21
-8.18243
0
LINE
8
BLACK
6
CONTINUOUS
10
5.67808
20
-8.18243
11
5.67433
21
-8.18993
0
LINE
8
BLACK
6
CONTINUOUS
10
5.67433
20
-8.18993
11
5.67058
21
-8.19368
0
LINE
8
BLACK
6
CONTINUOUS
10
5.67058
20
-8.19368
11
5.66309
21
-8.19743
0
LINE
8
BLACK
6
CONTINUOUS
10
5.66309
20
-8.19743
11
5.64059
21
-8.19743
0
LINE
8
BLACK
6
CONTINUOUS
10
5.64059
20
-8.19743
11
5.63309
21
-8.19368
0
LINE
8
BLACK
6
CONTINUOUS
10
5.63309
20
-8.19368
11
5.62934
21
-8.18993
0
LINE
8
BLACK
6
CONTINUOUS
10
5.75307
20
-8.19743
11
5.70808
21
-8.19743
0
LINE
8
BLACK
6
CONTINUOUS
10
5.73058
20
-8.19743
11
5.73058
21
-8.11869
0
LINE
8
BLACK
6
CONTINUOUS
10
5.73058
20
-8.11869
11
5.72308
21
-8.12994
0
LINE
8
BLACK
6
CONTINUOUS
10
5.72308
20
-8.12994
11
5.71558
21
-8.13744
0
LINE
8
BLACK
6
CONTINUOUS
10
5.71558
20
-8.13744
11
5.70808
21
-8.14119
0
LINE
8
BLACK
6
CONTINUOUS
10
5.82432
20
-8.11869
11
5.78682
21
-8.11869
0
LINE
8
BLACK
6
CONTINUOUS
10
5.78682
20
-8.11869
11
5.78307
21
-8.15619
0
LINE
8
BLACK
6
CONTINUOUS
10
5.78307
20
-8.15619
11
5.78682
21
-8.15244
0
LINE
8
BLACK
6
CONTINUOUS
10
5.78682
20
-8.15244
11
5.79432
21
-8.14869
0
LINE
8
BLACK
6
CONTINUOUS
10
5.79432
20
-8.14869
11
5.81307
21
-8.14869
0
LINE
8
BLACK
6
CONTINUOUS
10
5.81307
20
-8.14869
11
5.82057
21
-8.15244
0
LINE
8
BLACK
6
CONTINUOUS
10
5.82057
20
-8.15244
11
5.82432
21
-8.15619
0
LINE
8
BLACK
6
CONTINUOUS
10
5.82432
20
-8.15619
11
5.82807
21
-8.16369
0
LINE
8
BLACK
6
CONTINUOUS
10
5.82807
20
-8.16369
11
5.82807
21
-8.18243
0
LINE
8
BLACK
6
CONTINUOUS
10
5.82807
20
-8.18243
11
5.82432
21
-8.18993
0
LINE
8
BLACK
6
CONTINUOUS
10
5.82432
20
-8.18993
11
5.82057
21
-8.19368
0
LINE
8
BLACK
6
CONTINUOUS
10
5.82057
20
-8.19368
11
5.81307
21
-8.19743
0
LINE
8
BLACK
6
CONTINUOUS
10
5.81307
20
-8.19743
11
5.79432
21
-8.19743
0
LINE
8
BLACK
6
CONTINUOUS
10
5.79432
20
-8.19743
11
5.78682
21
-8.19368
0
LINE
8
BLACK
6
CONTINUOUS
10
5.78682
20
-8.19368
11
5.78307
21
-8.18993
0
LINE
8
BLACK
6
CONTINUOUS
10
5.85806
20
-8.11869
11
5.85806
21
-8.13369
0
LINE
8
BLACK
6
CONTINUOUS
10
5.88806
20
-8.11869
11
5.88806
21
-8.13369
0
LINE
8
BLACK
6
CONTINUOUS
10
6.00429
20
-8.22743
11
6.00054
21
-8.22368
0
LINE
8
BLACK
6
CONTINUOUS
10
6.00054
20
-8.22368
11
5.99304
21
-8.21243
0
LINE
8
BLACK
6
CONTINUOUS
10
5.99304
20
-8.21243
11
5.9893
21
-8.20493
0
LINE
8
BLACK
6
CONTINUOUS
10
5.9893
20
-8.20493
11
5.98555
21
-8.19368
0
LINE
8
BLACK
6
CONTINUOUS
10
5.98555
20
-8.19368
11
5.9818
21
-8.17493
0
LINE
8
BLACK
6
CONTINUOUS
10
5.9818
20
-8.17493
11
5.9818
21
-8.15994
0
LINE
8
BLACK
6
CONTINUOUS
10
5.9818
20
-8.15994
11
5.98555
21
-8.14119
0
LINE
8
BLACK
6
CONTINUOUS
10
5.98555
20
-8.14119
11
5.9893
21
-8.12994
0
LINE
8
BLACK
6
CONTINUOUS
10
5.9893
20
-8.12994
11
5.99304
21
-8.12244
0
LINE
8
BLACK
6
CONTINUOUS
10
5.99304
20
-8.12244
11
6.00054
21
-8.11119
0
LINE
8
BLACK
6
CONTINUOUS
10
6.00054
20
-8.11119
11
6.00429
21
-8.10744
0
LINE
8
BLACK
6
CONTINUOUS
10
6.06804
20
-8.11869
11
6.05304
21
-8.11869
0
LINE
8
BLACK
6
CONTINUOUS
10
6.05304
20
-8.11869
11
6.04554
21
-8.12244
0
LINE
8
BLACK
6
CONTINUOUS
10
6.04554
20
-8.12244
11
6.04179
21
-8.12619
0
LINE
8
BLACK
6
CONTINUOUS
10
6.04179
20
-8.12619
11
6.03429
21
-8.13744
0
LINE
8
BLACK
6
CONTINUOUS
10
6.03429
20
-8.13744
11
6.03054
21
-8.15244
0
LINE
8
BLACK
6
CONTINUOUS
10
6.03054
20
-8.15244
11
6.03054
21
-8.18243
0
LINE
8
BLACK
6
CONTINUOUS
10
6.03054
20
-8.18243
11
6.03429
21
-8.18993
0
LINE
8
BLACK
6
CONTINUOUS
10
6.03429
20
-8.18993
11
6.03804
21
-8.19368
0
LINE
8
BLACK
6
CONTINUOUS
10
6.03804
20
-8.19368
11
6.04554
21
-8.19743
0
LINE
8
BLACK
6
CONTINUOUS
10
6.04554
20
-8.19743
11
6.06054
21
-8.19743
0
LINE
8
BLACK
6
CONTINUOUS
10
6.06054
20
-8.19743
11
6.06804
21
-8.19368
0
LINE
8
BLACK
6
CONTINUOUS
10
6.06804
20
-8.19368
11
6.07178
21
-8.18993
0
LINE
8
BLACK
6
CONTINUOUS
10
6.07178
20
-8.18993
11
6.07553
21
-8.18243
0
LINE
8
BLACK
6
CONTINUOUS
10
6.07553
20
-8.18243
11
6.07553
21
-8.16369
0
LINE
8
BLACK
6
CONTINUOUS
10
6.07553
20
-8.16369
11
6.07178
21
-8.15619
0
LINE
8
BLACK
6
CONTINUOUS
10
6.07178
20
-8.15619
11
6.06804
21
-8.15244
0
LINE
8
BLACK
6
CONTINUOUS
10
6.06804
20
-8.15244
11
6.06054
21
-8.14869
0
LINE
8
BLACK
6
CONTINUOUS
10
6.06054
20
-8.14869
11
6.04554
21
-8.14869
0
LINE
8
BLACK
6
CONTINUOUS
10
6.04554
20
-8.14869
11
6.03804
21
-8.15244
0
LINE
8
BLACK
6
CONTINUOUS
10
6.03804
20
-8.15244
11
6.03429
21
-8.15619
0
LINE
8
BLACK
6
CONTINUOUS
10
6.03429
20
-8.15619
11
6.03054
21
-8.16369
0
LINE
8
BLACK
6
CONTINUOUS
10
6.16927
20
-8.19743
11
6.16927
21
-8.11869
0
LINE
8
BLACK
6
CONTINUOUS
10
6.20302
20
-8.19743
11
6.20302
21
-8.15619
0
LINE
8
BLACK
6
CONTINUOUS
10
6.20302
20
-8.15619
11
6.19927
21
-8.14869
0
LINE
8
BLACK
6
CONTINUOUS
10
6.19927
20
-8.14869
11
6.19177
21
-8.14494
0
LINE
8
BLACK
6
CONTINUOUS
10
6.19177
20
-8.14494
11
6.18052
21
-8.14494
0
LINE
8
BLACK
6
CONTINUOUS
10
6.18052
20
-8.14494
11
6.17302
21
-8.14869
0
LINE
8
BLACK
6
CONTINUOUS
10
6.17302
20
-8.14869
11
6.16927
21
-8.15244
0
LINE
8
BLACK
6
CONTINUOUS
10
6.25176
20
-8.19743
11
6.24426
21
-8.19368
0
LINE
8
BLACK
6
CONTINUOUS
10
6.24426
20
-8.19368
11
6.24051
21
-8.18993
0
LINE
8
BLACK
6
CONTINUOUS
10
6.24051
20
-8.18993
11
6.23676
21
-8.18243
0
LINE
8
BLACK
6
CONTINUOUS
10
6.23676
20
-8.18243
11
6.23676
21
-8.15994
0
LINE
8
BLACK
6
CONTINUOUS
10
6.23676
20
-8.15994
11
6.24051
21
-8.15244
0
LINE
8
BLACK
6
CONTINUOUS
10
6.24051
20
-8.15244
11
6.24426
21
-8.14869
0
LINE
8
BLACK
6
CONTINUOUS
10
6.24426
20
-8.14869
11
6.25176
21
-8.14494
0
LINE
8
BLACK
6
CONTINUOUS
10
6.25176
20
-8.14494
11
6.26301
21
-8.14494
0
LINE
8
BLACK
6
CONTINUOUS
10
6.26301
20
-8.14494
11
6.27051
21
-8.14869
0
LINE
8
BLACK
6
CONTINUOUS
10
6.27051
20
-8.14869
11
6.27426
21
-8.15244
0
LINE
8
BLACK
6
CONTINUOUS
10
6.27426
20
-8.15244
11
6.27801
21
-8.15994
0
LINE
8
BLACK
6
CONTINUOUS
10
6.27801
20
-8.15994
11
6.27801
21
-8.18243
0
LINE
8
BLACK
6
CONTINUOUS
10
6.27801
20
-8.18243
11
6.27426
21
-8.18993
0
LINE
8
BLACK
6
CONTINUOUS
10
6.27426
20
-8.18993
11
6.27051
21
-8.19368
0
LINE
8
BLACK
6
CONTINUOUS
10
6.27051
20
-8.19368
11
6.26301
21
-8.19743
0
LINE
8
BLACK
6
CONTINUOUS
10
6.26301
20
-8.19743
11
6.25176
21
-8.19743
0
LINE
8
BLACK
6
CONTINUOUS
10
6.323
20
-8.19743
11
6.3155
21
-8.19368
0
LINE
8
BLACK
6
CONTINUOUS
10
6.3155
20
-8.19368
11
6.31175
21
-8.18618
0
LINE
8
BLACK
6
CONTINUOUS
10
6.31175
20
-8.18618
11
6.31175
21
-8.11869
0
LINE
8
BLACK
6
CONTINUOUS
10
6.383
20
-8.19368
11
6.3755
21
-8.19743
0
LINE
8
BLACK
6
CONTINUOUS
10
6.3755
20
-8.19743
11
6.3605
21
-8.19743
0
LINE
8
BLACK
6
CONTINUOUS
10
6.3605
20
-8.19743
11
6.353
21
-8.19368
0
LINE
8
BLACK
6
CONTINUOUS
10
6.353
20
-8.19368
11
6.34925
21
-8.18618
0
LINE
8
BLACK
6
CONTINUOUS
10
6.34925
20
-8.18618
11
6.34925
21
-8.15619
0
LINE
8
BLACK
6
CONTINUOUS
10
6.34925
20
-8.15619
11
6.353
21
-8.14869
0
LINE
8
BLACK
6
CONTINUOUS
10
6.353
20
-8.14869
11
6.3605
21
-8.14494
0
LINE
8
BLACK
6
CONTINUOUS
10
6.3605
20
-8.14494
11
6.3755
21
-8.14494
0
LINE
8
BLACK
6
CONTINUOUS
10
6.3755
20
-8.14494
11
6.383
21
-8.14869
0
LINE
8
BLACK
6
CONTINUOUS
10
6.383
20
-8.14869
11
6.38675
21
-8.15619
0
LINE
8
BLACK
6
CONTINUOUS
10
6.38675
20
-8.15619
11
6.38675
21
-8.16369
0
LINE
8
BLACK
6
CONTINUOUS
10
6.38675
20
-8.16369
11
6.34925
21
-8.17118
0
LINE
8
BLACK
6
CONTINUOUS
10
6.41674
20
-8.19368
11
6.42424
21
-8.19743
0
LINE
8
BLACK
6
CONTINUOUS
10
6.42424
20
-8.19743
11
6.43924
21
-8.19743
0
LINE
8
BLACK
6
CONTINUOUS
10
6.43924
20
-8.19743
11
6.44674
21
-8.19368
0
LINE
8
BLACK
6
CONTINUOUS
10
6.44674
20
-8.19368
11
6.45049
21
-8.18618
0
LINE
8
BLACK
6
CONTINUOUS
10
6.45049
20
-8.18618
11
6.45049
21
-8.18243
0
LINE
8
BLACK
6
CONTINUOUS
10
6.45049
20
-8.18243
11
6.44674
21
-8.17493
0
LINE
8
BLACK
6
CONTINUOUS
10
6.44674
20
-8.17493
11
6.43924
21
-8.17118
0
LINE
8
BLACK
6
CONTINUOUS
10
6.43924
20
-8.17118
11
6.42799
21
-8.17118
0
LINE
8
BLACK
6
CONTINUOUS
10
6.42799
20
-8.17118
11
6.42049
21
-8.16744
0
LINE
8
BLACK
6
CONTINUOUS
10
6.42049
20
-8.16744
11
6.41674
21
-8.15994
0
LINE
8
BLACK
6
CONTINUOUS
10
6.41674
20
-8.15994
11
6.41674
21
-8.15619
0
LINE
8
BLACK
6
CONTINUOUS
10
6.41674
20
-8.15619
11
6.42049
21
-8.14869
0
LINE
8
BLACK
6
CONTINUOUS
10
6.42049
20
-8.14869
11
6.42799
21
-8.14494
0
LINE
8
BLACK
6
CONTINUOUS
10
6.42799
20
-8.14494
11
6.43924
21
-8.14494
0
LINE
8
BLACK
6
CONTINUOUS
10
6.43924
20
-8.14494
11
6.44674
21
-8.14869
0
LINE
8
BLACK
6
CONTINUOUS
10
6.47673
20
-8.22743
11
6.48048
21
-8.22368
0
LINE
8
BLACK
6
CONTINUOUS
10
6.48048
20
-8.22368
11
6.48798
21
-8.21243
0
LINE
8
BLACK
6
CONTINUOUS
10
6.48798
20
-8.21243
11
6.49173
21
-8.20493
0
LINE
8
BLACK
6
CONTINUOUS
10
6.49173
20
-8.20493
11
6.49548
21
-8.19368
0
LINE
8
BLACK
6
CONTINUOUS
10
6.49548
20
-8.19368
11
6.49923
21
-8.17493
0
LINE
8
BLACK
6
CONTINUOUS
10
6.49923
20
-8.17493
11
6.49923
21
-8.15994
0
LINE
8
BLACK
6
CONTINUOUS
10
6.49923
20
-8.15994
11
6.49548
21
-8.14119
0
LINE
8
BLACK
6
CONTINUOUS
10
6.49548
20
-8.14119
11
6.49173
21
-8.12994
0
LINE
8
BLACK
6
CONTINUOUS
10
6.49173
20
-8.12994
11
6.48798
21
-8.12244
0
LINE
8
BLACK
6
CONTINUOUS
10
6.48798
20
-8.12244
11
6.48048
21
-8.11119
0
LINE
8
BLACK
6
CONTINUOUS
10
6.48048
20
-8.11119
11
6.47673
21
-8.10744
0
LINE
8
BLACK
6
CONTINUOUS
10
4.59169
20
-8.28106
11
4.59169
21
-8.25044
0
LINE
8
BLACK
6
CONTINUOUS
10
4.59169
20
-8.25044
11
4.56107
21
-8.25044
0
LINE
8
BLACK
6
CONTINUOUS
10
4.56107
20
-8.25044
11
4.56107
21
-8.28106
0
LINE
8
BLACK
6
CONTINUOUS
10
4.56107
20
-8.28106
11
4.59169
21
-8.28106
0
LINE
8
BLACK
6
CONTINUOUS
10
4.7407
20
-8.30137
11
4.69571
21
-8.30137
0
LINE
8
BLACK
6
CONTINUOUS
10
4.7182
20
-8.30137
11
4.7182
21
-8.22263
0
LINE
8
BLACK
6
CONTINUOUS
10
4.7182
20
-8.22263
11
4.7107
21
-8.23388
0
LINE
8
BLACK
6
CONTINUOUS
10
4.7107
20
-8.23388
11
4.70321
21
-8.24138
0
LINE
8
BLACK
6
CONTINUOUS
10
4.70321
20
-8.24138
11
4.69571
21
-8.24513
0
LINE
8
BLACK
6
CONTINUOUS
10
4.77445
20
-8.29387
11
4.7782
21
-8.29762
0
LINE
8
BLACK
6
CONTINUOUS
10
4.7782
20
-8.29762
11
4.77445
21
-8.30137
0
LINE
8
BLACK
6
CONTINUOUS
10
4.77445
20
-8.30137
11
4.7707
21
-8.29762
0
LINE
8
BLACK
6
CONTINUOUS
10
4.7707
20
-8.29762
11
4.77445
21
-8.29387
0
LINE
8
BLACK
6
CONTINUOUS
10
4.77445
20
-8.29387
11
4.77445
21
-8.30137
0
LINE
8
BLACK
6
CONTINUOUS
10
4.85319
20
-8.30137
11
4.80819
21
-8.30137
0
LINE
8
BLACK
6
CONTINUOUS
10
4.83069
20
-8.30137
11
4.83069
21
-8.22263
0
LINE
8
BLACK
6
CONTINUOUS
10
4.83069
20
-8.22263
11
4.82319
21
-8.23388
0
LINE
8
BLACK
6
CONTINUOUS
10
4.82319
20
-8.23388
11
4.81569
21
-8.24138
0
LINE
8
BLACK
6
CONTINUOUS
10
4.81569
20
-8.24138
11
4.80819
21
-8.24513
0
LINE
8
BLACK
6
CONTINUOUS
10
4.90193
20
-8.22263
11
4.90943
21
-8.22263
0
LINE
8
BLACK
6
CONTINUOUS
10
4.90943
20
-8.22263
11
4.91693
21
-8.22638
0
LINE
8
BLACK
6
CONTINUOUS
10
4.91693
20
-8.22638
11
4.92068
21
-8.23013
0
LINE
8
BLACK
6
CONTINUOUS
10
4.92068
20
-8.23013
11
4.92443
21
-8.23763
0
LINE
8
BLACK
6
CONTINUOUS
10
4.92443
20
-8.23763
11
4.92818
21
-8.25262
0
LINE
8
BLACK
6
CONTINUOUS
10
4.92818
20
-8.25262
11
4.92818
21
-8.27137
0
LINE
8
BLACK
6
CONTINUOUS
10
4.92818
20
-8.27137
11
4.92443
21
-8.28637
0
LINE
8
BLACK
6
CONTINUOUS
10
4.92443
20
-8.28637
11
4.92068
21
-8.29387
0
LINE
8
BLACK
6
CONTINUOUS
10
4.92068
20
-8.29387
11
4.91693
21
-8.29762
0
LINE
8
BLACK
6
CONTINUOUS
10
4.91693
20
-8.29762
11
4.90943
21
-8.30137
0
LINE
8
BLACK
6
CONTINUOUS
10
4.90943
20
-8.30137
11
4.90193
21
-8.30137
0
LINE
8
BLACK
6
CONTINUOUS
10
4.90193
20
-8.30137
11
4.89443
21
-8.29762
0
LINE
8
BLACK
6
CONTINUOUS
10
4.89443
20
-8.29762
11
4.89068
21
-8.29387
0
LINE
8
BLACK
6
CONTINUOUS
10
4.89068
20
-8.29387
11
4.88693
21
-8.28637
0
LINE
8
BLACK
6
CONTINUOUS
10
4.88693
20
-8.28637
11
4.88318
21
-8.27137
0
LINE
8
BLACK
6
CONTINUOUS
10
4.88318
20
-8.27137
11
4.88318
21
-8.25262
0
LINE
8
BLACK
6
CONTINUOUS
10
4.88318
20
-8.25262
11
4.88693
21
-8.23763
0
LINE
8
BLACK
6
CONTINUOUS
10
4.88693
20
-8.23763
11
4.89068
21
-8.23013
0
LINE
8
BLACK
6
CONTINUOUS
10
4.89068
20
-8.23013
11
4.89443
21
-8.22638
0
LINE
8
BLACK
6
CONTINUOUS
10
4.89443
20
-8.22638
11
4.90193
21
-8.22263
0
LINE
8
BLACK
6
CONTINUOUS
10
4.97692
20
-8.22263
11
4.98442
21
-8.22263
0
LINE
8
BLACK
6
CONTINUOUS
10
4.98442
20
-8.22263
11
4.99192
21
-8.22638
0
LINE
8
BLACK
6
CONTINUOUS
10
4.99192
20
-8.22638
11
4.99567
21
-8.23013
0
LINE
8
BLACK
6
CONTINUOUS
10
4.99567
20
-8.23013
11
4.99942
21
-8.23763
0
LINE
8
BLACK
6
CONTINUOUS
10
4.99942
20
-8.23763
11
5.00317
21
-8.25262
0
LINE
8
BLACK
6
CONTINUOUS
10
5.00317
20
-8.25262
11
5.00317
21
-8.27137
0
LINE
8
BLACK
6
CONTINUOUS
10
5.00317
20
-8.27137
11
4.99942
21
-8.28637
0
LINE
8
BLACK
6
CONTINUOUS
10
4.99942
20
-8.28637
11
4.99567
21
-8.29387
0
LINE
8
BLACK
6
CONTINUOUS
10
4.99567
20
-8.29387
11
4.99192
21
-8.29762
0
LINE
8
BLACK
6
CONTINUOUS
10
4.99192
20
-8.29762
11
4.98442
21
-8.30137
0
LINE
8
BLACK
6
CONTINUOUS
10
4.98442
20
-8.30137
11
4.97692
21
-8.30137
0
LINE
8
BLACK
6
CONTINUOUS
10
4.97692
20
-8.30137
11
4.96942
21
-8.29762
0
LINE
8
BLACK
6
CONTINUOUS
10
4.96942
20
-8.29762
11
4.96567
21
-8.29387
0
LINE
8
BLACK
6
CONTINUOUS
10
4.96567
20
-8.29387
11
4.96192
21
-8.28637
0
LINE
8
BLACK
6
CONTINUOUS
10
4.96192
20
-8.28637
11
4.95817
21
-8.27137
0
LINE
8
BLACK
6
CONTINUOUS
10
4.95817
20
-8.27137
11
4.95817
21
-8.25262
0
LINE
8
BLACK
6
CONTINUOUS
10
4.95817
20
-8.25262
11
4.96192
21
-8.23763
0
LINE
8
BLACK
6
CONTINUOUS
10
4.96192
20
-8.23763
11
4.96567
21
-8.23013
0
LINE
8
BLACK
6
CONTINUOUS
10
4.96567
20
-8.23013
11
4.96942
21
-8.22638
0
LINE
8
BLACK
6
CONTINUOUS
10
4.96942
20
-8.22638
11
4.97692
21
-8.22263
0
LINE
8
BLACK
6
CONTINUOUS
10
5.03691
20
-8.30137
11
5.03691
21
-8.24888
0
LINE
8
BLACK
6
CONTINUOUS
10
5.03691
20
-8.25637
11
5.04066
21
-8.25262
0
LINE
8
BLACK
6
CONTINUOUS
10
5.04066
20
-8.25262
11
5.04816
21
-8.24888
0
LINE
8
BLACK
6
CONTINUOUS
10
5.04816
20
-8.24888
11
5.05941
21
-8.24888
0
LINE
8
BLACK
6
CONTINUOUS
10
5.05941
20
-8.24888
11
5.06691
21
-8.25262
0
LINE
8
BLACK
6
CONTINUOUS
10
5.06691
20
-8.25262
11
5.07066
21
-8.26012
0
LINE
8
BLACK
6
CONTINUOUS
10
5.07066
20
-8.26012
11
5.07066
21
-8.30137
0
LINE
8
BLACK
6
CONTINUOUS
10
5.07066
20
-8.26012
11
5.07441
21
-8.25262
0
LINE
8
BLACK
6
CONTINUOUS
10
5.07441
20
-8.25262
11
5.08191
21
-8.24888
0
LINE
8
BLACK
6
CONTINUOUS
10
5.08191
20
-8.24888
11
5.09316
21
-8.24888
0
LINE
8
BLACK
6
CONTINUOUS
10
5.09316
20
-8.24888
11
5.10066
21
-8.25262
0
LINE
8
BLACK
6
CONTINUOUS
10
5.10066
20
-8.25262
11
5.10441
21
-8.26012
0
LINE
8
BLACK
6
CONTINUOUS
10
5.10441
20
-8.26012
11
5.10441
21
-8.30137
0
LINE
8
BLACK
6
CONTINUOUS
10
5.1419
20
-8.30137
11
5.1419
21
-8.24888
0
LINE
8
BLACK
6
CONTINUOUS
10
5.1419
20
-8.25637
11
5.14565
21
-8.25262
0
LINE
8
BLACK
6
CONTINUOUS
10
5.14565
20
-8.25262
11
5.15315
21
-8.24888
0
LINE
8
BLACK
6
CONTINUOUS
10
5.15315
20
-8.24888
11
5.1644
21
-8.24888
0
LINE
8
BLACK
6
CONTINUOUS
10
5.1644
20
-8.24888
11
5.1719
21
-8.25262
0
LINE
8
BLACK
6
CONTINUOUS
10
5.1719
20
-8.25262
11
5.17565
21
-8.26012
0
LINE
8
BLACK
6
CONTINUOUS
10
5.17565
20
-8.26012
11
5.17565
21
-8.30137
0
LINE
8
BLACK
6
CONTINUOUS
10
5.17565
20
-8.26012
11
5.1794
21
-8.25262
0
LINE
8
BLACK
6
CONTINUOUS
10
5.1794
20
-8.25262
11
5.1869
21
-8.24888
0
LINE
8
BLACK
6
CONTINUOUS
10
5.1869
20
-8.24888
11
5.19814
21
-8.24888
0
LINE
8
BLACK
6
CONTINUOUS
10
5.19814
20
-8.24888
11
5.20564
21
-8.25262
0
LINE
8
BLACK
6
CONTINUOUS
10
5.20564
20
-8.25262
11
5.20939
21
-8.26012
0
LINE
8
BLACK
6
CONTINUOUS
10
5.20939
20
-8.26012
11
5.20939
21
-8.30137
0
LINE
8
BLACK
6
CONTINUOUS
10
5.36312
20
-8.21888
11
5.29563
21
-8.32012
0
LINE
8
BLACK
6
CONTINUOUS
10
5.46436
20
-8.22263
11
5.47186
21
-8.22263
0
LINE
8
BLACK
6
CONTINUOUS
10
5.47186
20
-8.22263
11
5.47936
21
-8.22638
0
LINE
8
BLACK
6
CONTINUOUS
10
5.47936
20
-8.22638
11
5.48311
21
-8.23013
0
LINE
8
BLACK
6
CONTINUOUS
10
5.48311
20
-8.23013
11
5.48686
21
-8.23763
0
LINE
8
BLACK
6
CONTINUOUS
10
5.48686
20
-8.23763
11
5.49061
21
-8.25262
0
LINE
8
BLACK
6
CONTINUOUS
10
5.49061
20
-8.25262
11
5.49061
21
-8.27137
0
LINE
8
BLACK
6
CONTINUOUS
10
5.49061
20
-8.27137
11
5.48686
21
-8.28637
0
LINE
8
BLACK
6
CONTINUOUS
10
5.48686
20
-8.28637
11
5.48311
21
-8.29387
0
LINE
8
BLACK
6
CONTINUOUS
10
5.48311
20
-8.29387
11
5.47936
21
-8.29762
0
LINE
8
BLACK
6
CONTINUOUS
10
5.47936
20
-8.29762
11
5.47186
21
-8.30137
0
LINE
8
BLACK
6
CONTINUOUS
10
5.47186
20
-8.30137
11
5.46436
21
-8.30137
0
LINE
8
BLACK
6
CONTINUOUS
10
5.46436
20
-8.30137
11
5.45686
21
-8.29762
0
LINE
8
BLACK
6
CONTINUOUS
10
5.45686
20
-8.29762
11
5.45311
21
-8.29387
0
LINE
8
BLACK
6
CONTINUOUS
10
5.45311
20
-8.29387
11
5.44936
21
-8.28637
0
LINE
8
BLACK
6
CONTINUOUS
10
5.44936
20
-8.28637
11
5.44561
21
-8.27137
0
LINE
8
BLACK
6
CONTINUOUS
10
5.44561
20
-8.27137
11
5.44561
21
-8.25262
0
LINE
8
BLACK
6
CONTINUOUS
10
5.44561
20
-8.25262
11
5.44936
21
-8.23763
0
LINE
8
BLACK
6
CONTINUOUS
10
5.44936
20
-8.23763
11
5.45311
21
-8.23013
0
LINE
8
BLACK
6
CONTINUOUS
10
5.45311
20
-8.23013
11
5.45686
21
-8.22638
0
LINE
8
BLACK
6
CONTINUOUS
10
5.45686
20
-8.22638
11
5.46436
21
-8.22263
0
LINE
8
BLACK
6
CONTINUOUS
10
5.52435
20
-8.29387
11
5.5281
21
-8.29762
0
LINE
8
BLACK
6
CONTINUOUS
10
5.5281
20
-8.29762
11
5.52435
21
-8.30137
0
LINE
8
BLACK
6
CONTINUOUS
10
5.52435
20
-8.30137
11
5.5206
21
-8.29762
0
LINE
8
BLACK
6
CONTINUOUS
10
5.5206
20
-8.29762
11
5.52435
21
-8.29387
0
LINE
8
BLACK
6
CONTINUOUS
10
5.52435
20
-8.29387
11
5.52435
21
-8.30137
0
LINE
8
BLACK
6
CONTINUOUS
10
5.57685
20
-8.22263
11
5.58435
21
-8.22263
0
LINE
8
BLACK
6
CONTINUOUS
10
5.58435
20
-8.22263
11
5.59184
21
-8.22638
0
LINE
8
BLACK
6
CONTINUOUS
10
5.59184
20
-8.22638
11
5.59559
21
-8.23013
0
LINE
8
BLACK
6
CONTINUOUS
10
5.59559
20
-8.23013
11
5.59934
21
-8.23763
0
LINE
8
BLACK
6
CONTINUOUS
10
5.59934
20
-8.23763
11
5.60309
21
-8.25262
0
LINE
8
BLACK
6
CONTINUOUS
10
5.60309
20
-8.25262
11
5.60309
21
-8.27137
0
LINE
8
BLACK
6
CONTINUOUS
10
5.60309
20
-8.27137
11
5.59934
21
-8.28637
0
LINE
8
BLACK
6
CONTINUOUS
10
5.59934
20
-8.28637
11
5.59559
21
-8.29387
0
LINE
8
BLACK
6
CONTINUOUS
10
5.59559
20
-8.29387
11
5.59184
21
-8.29762
0
LINE
8
BLACK
6
CONTINUOUS
10
5.59184
20
-8.29762
11
5.58435
21
-8.30137
0
LINE
8
BLACK
6
CONTINUOUS
10
5.58435
20
-8.30137
11
5.57685
21
-8.30137
0
LINE
8
BLACK
6
CONTINUOUS
10
5.57685
20
-8.30137
11
5.56935
21
-8.29762
0
LINE
8
BLACK
6
CONTINUOUS
10
5.56935
20
-8.29762
11
5.5656
21
-8.29387
0
LINE
8
BLACK
6
CONTINUOUS
10
5.5656
20
-8.29387
11
5.56185
21
-8.28637
0
LINE
8
BLACK
6
CONTINUOUS
10
5.56185
20
-8.28637
11
5.5581
21
-8.27137
0
LINE
8
BLACK
6
CONTINUOUS
10
5.5581
20
-8.27137
11
5.5581
21
-8.25262
0
LINE
8
BLACK
6
CONTINUOUS
10
5.5581
20
-8.25262
11
5.56185
21
-8.23763
0
LINE
8
BLACK
6
CONTINUOUS
10
5.56185
20
-8.23763
11
5.5656
21
-8.23013
0
LINE
8
BLACK
6
CONTINUOUS
10
5.5656
20
-8.23013
11
5.56935
21
-8.22638
0
LINE
8
BLACK
6
CONTINUOUS
10
5.56935
20
-8.22638
11
5.57685
21
-8.22263
0
LINE
8
BLACK
6
CONTINUOUS
10
5.67058
20
-8.24888
11
5.67058
21
-8.30137
0
LINE
8
BLACK
6
CONTINUOUS
10
5.65184
20
-8.21888
11
5.63309
21
-8.27512
0
LINE
8
BLACK
6
CONTINUOUS
10
5.63309
20
-8.27512
11
5.68183
21
-8.27512
0
LINE
8
BLACK
6
CONTINUOUS
10
5.70433
20
-8.22263
11
5.75307
21
-8.22263
0
LINE
8
BLACK
6
CONTINUOUS
10
5.75307
20
-8.22263
11
5.72683
21
-8.25262
0
LINE
8
BLACK
6
CONTINUOUS
10
5.72683
20
-8.25262
11
5.73808
21
-8.25262
0
LINE
8
BLACK
6
CONTINUOUS
10
5.73808
20
-8.25262
11
5.74558
21
-8.25637
0
LINE
8
BLACK
6
CONTINUOUS
10
5.74558
20
-8.25637
11
5.74933
21
-8.26012
0
LINE
8
BLACK
6
CONTINUOUS
10
5.74933
20
-8.26012
11
5.75307
21
-8.26762
0
LINE
8
BLACK
6
CONTINUOUS
10
5.75307
20
-8.26762
11
5.75307
21
-8.28637
0
LINE
8
BLACK
6
CONTINUOUS
10
5.75307
20
-8.28637
11
5.74933
21
-8.29387
0
LINE
8
BLACK
6
CONTINUOUS
10
5.74933
20
-8.29387
11
5.74558
21
-8.29762
0
LINE
8
BLACK
6
CONTINUOUS
10
5.74558
20
-8.29762
11
5.73808
21
-8.30137
0
LINE
8
BLACK
6
CONTINUOUS
10
5.73808
20
-8.30137
11
5.71558
21
-8.30137
0
LINE
8
BLACK
6
CONTINUOUS
10
5.71558
20
-8.30137
11
5.70808
21
-8.29762
0
LINE
8
BLACK
6
CONTINUOUS
10
5.70808
20
-8.29762
11
5.70433
21
-8.29387
0
LINE
8
BLACK
6
CONTINUOUS
10
5.77932
20
-8.22263
11
5.82807
21
-8.22263
0
LINE
8
BLACK
6
CONTINUOUS
10
5.82807
20
-8.22263
11
5.80182
21
-8.25262
0
LINE
8
BLACK
6
CONTINUOUS
10
5.80182
20
-8.25262
11
5.81307
21
-8.25262
0
LINE
8
BLACK
6
CONTINUOUS
10
5.81307
20
-8.25262
11
5.82057
21
-8.25637
0
LINE
8
BLACK
6
CONTINUOUS
10
5.82057
20
-8.25637
11
5.82432
21
-8.26012
0
LINE
8
BLACK
6
CONTINUOUS
10
5.82432
20
-8.26012
11
5.82807
21
-8.26762
0
LINE
8
BLACK
6
CONTINUOUS
10
5.82807
20
-8.26762
11
5.82807
21
-8.28637
0
LINE
8
BLACK
6
CONTINUOUS
10
5.82807
20
-8.28637
11
5.82432
21
-8.29387
0
LINE
8
BLACK
6
CONTINUOUS
10
5.82432
20
-8.29387
11
5.82057
21
-8.29762
0
LINE
8
BLACK
6
CONTINUOUS
10
5.82057
20
-8.29762
11
5.81307
21
-8.30137
0
LINE
8
BLACK
6
CONTINUOUS
10
5.81307
20
-8.30137
11
5.79057
21
-8.30137
0
LINE
8
BLACK
6
CONTINUOUS
10
5.79057
20
-8.30137
11
5.78307
21
-8.29762
0
LINE
8
BLACK
6
CONTINUOUS
10
5.78307
20
-8.29762
11
5.77932
21
-8.29387
0
LINE
8
BLACK
6
CONTINUOUS
10
5.85806
20
-8.22263
11
5.85806
21
-8.23763
0
LINE
8
BLACK
6
CONTINUOUS
10
5.88806
20
-8.22263
11
5.88806
21
-8.23763
0
LINE
8
BLACK
6
CONTINUOUS
10
6.00429
20
-8.33136
11
6.00054
21
-8.32762
0
LINE
8
BLACK
6
CONTINUOUS
10
6.00054
20
-8.32762
11
5.99304
21
-8.31637
0
LINE
8
BLACK
6
CONTINUOUS
10
5.99304
20
-8.31637
11
5.9893
21
-8.30887
0
LINE
8
BLACK
6
CONTINUOUS
10
5.9893
20
-8.30887
11
5.98555
21
-8.29762
0
LINE
8
BLACK
6
CONTINUOUS
10
5.98555
20
-8.29762
11
5.9818
21
-8.27887
0
LINE
8
BLACK
6
CONTINUOUS
10
5.9818
20
-8.27887
11
5.9818
21
-8.26387
0
LINE
8
BLACK
6
CONTINUOUS
10
5.9818
20
-8.26387
11
5.98555
21
-8.24513
0
LINE
8
BLACK
6
CONTINUOUS
10
5.98555
20
-8.24513
11
5.9893
21
-8.23388
0
LINE
8
BLACK
6
CONTINUOUS
10
5.9893
20
-8.23388
11
5.99304
21
-8.22638
0
LINE
8
BLACK
6
CONTINUOUS
10
5.99304
20
-8.22638
11
6.00054
21
-8.21513
0
LINE
8
BLACK
6
CONTINUOUS
10
6.00054
20
-8.21513
11
6.00429
21
-8.21138
0
LINE
8
BLACK
6
CONTINUOUS
10
6.02679
20
-8.22263
11
6.07553
21
-8.22263
0
LINE
8
BLACK
6
CONTINUOUS
10
6.07553
20
-8.22263
11
6.04929
21
-8.25262
0
LINE
8
BLACK
6
CONTINUOUS
10
6.04929
20
-8.25262
11
6.06054
21
-8.25262
0
LINE
8
BLACK
6
CONTINUOUS
10
6.06054
20
-8.25262
11
6.06804
21
-8.25637
0
LINE
8
BLACK
6
CONTINUOUS
10
6.06804
20
-8.25637
11
6.07178
21
-8.26012
0
LINE
8
BLACK
6
CONTINUOUS
10
6.07178
20
-8.26012
11
6.07553
21
-8.26762
0
LINE
8
BLACK
6
CONTINUOUS
10
6.07553
20
-8.26762
11
6.07553
21
-8.28637
0
LINE
8
BLACK
6
CONTINUOUS
10
6.07553
20
-8.28637
11
6.07178
21
-8.29387
0
LINE
8
BLACK
6
CONTINUOUS
10
6.07178
20
-8.29387
11
6.06804
21
-8.29762
0
LINE
8
BLACK
6
CONTINUOUS
10
6.06804
20
-8.29762
11
6.06054
21
-8.30137
0
LINE
8
BLACK
6
CONTINUOUS
10
6.06054
20
-8.30137
11
6.03804
21
-8.30137
0
LINE
8
BLACK
6
CONTINUOUS
10
6.03804
20
-8.30137
11
6.03054
21
-8.29762
0
LINE
8
BLACK
6
CONTINUOUS
10
6.03054
20
-8.29762
11
6.02679
21
-8.29387
0
LINE
8
BLACK
6
CONTINUOUS
10
6.16927
20
-8.30137
11
6.16927
21
-8.22263
0
LINE
8
BLACK
6
CONTINUOUS
10
6.20302
20
-8.30137
11
6.20302
21
-8.26012
0
LINE
8
BLACK
6
CONTINUOUS
10
6.20302
20
-8.26012
11
6.19927
21
-8.25262
0
LINE
8
BLACK
6
CONTINUOUS
10
6.19927
20
-8.25262
11
6.19177
21
-8.24888
0
LINE
8
BLACK
6
CONTINUOUS
10
6.19177
20
-8.24888
11
6.18052
21
-8.24888
0
LINE
8
BLACK
6
CONTINUOUS
10
6.18052
20
-8.24888
11
6.17302
21
-8.25262
0
LINE
8
BLACK
6
CONTINUOUS
10
6.17302
20
-8.25262
11
6.16927
21
-8.25637
0
LINE
8
BLACK
6
CONTINUOUS
10
6.25176
20
-8.30137
11
6.24426
21
-8.29762
0
LINE
8
BLACK
6
CONTINUOUS
10
6.24426
20
-8.29762
11
6.24051
21
-8.29387
0
LINE
8
BLACK
6
CONTINUOUS
10
6.24051
20
-8.29387
11
6.23676
21
-8.28637
0
LINE
8
BLACK
6
CONTINUOUS
10
6.23676
20
-8.28637
11
6.23676
21
-8.26387
0
LINE
8
BLACK
6
CONTINUOUS
10
6.23676
20
-8.26387
11
6.24051
21
-8.25637
0
LINE
8
BLACK
6
CONTINUOUS
10
6.24051
20
-8.25637
11
6.24426
21
-8.25262
0
LINE
8
BLACK
6
CONTINUOUS
10
6.24426
20
-8.25262
11
6.25176
21
-8.24888
0
LINE
8
BLACK
6
CONTINUOUS
10
6.25176
20
-8.24888
11
6.26301
21
-8.24888
0
LINE
8
BLACK
6
CONTINUOUS
10
6.26301
20
-8.24888
11
6.27051
21
-8.25262
0
LINE
8
BLACK
6
CONTINUOUS
10
6.27051
20
-8.25262
11
6.27426
21
-8.25637
0
LINE
8
BLACK
6
CONTINUOUS
10
6.27426
20
-8.25637
11
6.27801
21
-8.26387
0
LINE
8
BLACK
6
CONTINUOUS
10
6.27801
20
-8.26387
11
6.27801
21
-8.28637
0
LINE
8
BLACK
6
CONTINUOUS
10
6.27801
20
-8.28637
11
6.27426
21
-8.29387
0
LINE
8
BLACK
6
CONTINUOUS
10
6.27426
20
-8.29387
11
6.27051
21
-8.29762
0
LINE
8
BLACK
6
CONTINUOUS
10
6.27051
20
-8.29762
11
6.26301
21
-8.30137
0
LINE
8
BLACK
6
CONTINUOUS
10
6.26301
20
-8.30137
11
6.25176
21
-8.30137
0
LINE
8
BLACK
6
CONTINUOUS
10
6.323
20
-8.30137
11
6.3155
21
-8.29762
0
LINE
8
BLACK
6
CONTINUOUS
10
6.3155
20
-8.29762
11
6.31175
21
-8.29012
0
LINE
8
BLACK
6
CONTINUOUS
10
6.31175
20
-8.29012
11
6.31175
21
-8.22263
0
LINE
8
BLACK
6
CONTINUOUS
10
6.383
20
-8.29762
11
6.3755
21
-8.30137
0
LINE
8
BLACK
6
CONTINUOUS
10
6.3755
20
-8.30137
11
6.3605
21
-8.30137
0
LINE
8
BLACK
6
CONTINUOUS
10
6.3605
20
-8.30137
11
6.353
21
-8.29762
0
LINE
8
BLACK
6
CONTINUOUS
10
6.353
20
-8.29762
11
6.34925
21
-8.29012
0
LINE
8
BLACK
6
CONTINUOUS
10
6.34925
20
-8.29012
11
6.34925
21
-8.26012
0
LINE
8
BLACK
6
CONTINUOUS
10
6.34925
20
-8.26012
11
6.353
21
-8.25262
0
LINE
8
BLACK
6
CONTINUOUS
10
6.353
20
-8.25262
11
6.3605
21
-8.24888
0
LINE
8
BLACK
6
CONTINUOUS
10
6.3605
20
-8.24888
11
6.3755
21
-8.24888
0
LINE
8
BLACK
6
CONTINUOUS
10
6.3755
20
-8.24888
11
6.383
21
-8.25262
0
LINE
8
BLACK
6
CONTINUOUS
10
6.383
20
-8.25262
11
6.38675
21
-8.26012
0
LINE
8
BLACK
6
CONTINUOUS
10
6.38675
20
-8.26012
11
6.38675
21
-8.26762
0
LINE
8
BLACK
6
CONTINUOUS
10
6.38675
20
-8.26762
11
6.34925
21
-8.27512
0
LINE
8
BLACK
6
CONTINUOUS
10
6.41674
20
-8.29762
11
6.42424
21
-8.30137
0
LINE
8
BLACK
6
CONTINUOUS
10
6.42424
20
-8.30137
11
6.43924
21
-8.30137
0
LINE
8
BLACK
6
CONTINUOUS
10
6.43924
20
-8.30137
11
6.44674
21
-8.29762
0
LINE
8
BLACK
6
CONTINUOUS
10
6.44674
20
-8.29762
11
6.45049
21
-8.29012
0
LINE
8
BLACK
6
CONTINUOUS
10
6.45049
20
-8.29012
11
6.45049
21
-8.28637
0
LINE
8
BLACK
6
CONTINUOUS
10
6.45049
20
-8.28637
11
6.44674
21
-8.27887
0
LINE
8
BLACK
6
CONTINUOUS
10
6.44674
20
-8.27887
11
6.43924
21
-8.27512
0
LINE
8
BLACK
6
CONTINUOUS
10
6.43924
20
-8.27512
11
6.42799
21
-8.27512
0
LINE
8
BLACK
6
CONTINUOUS
10
6.42799
20
-8.27512
11
6.42049
21
-8.27137
0
LINE
8
BLACK
6
CONTINUOUS
10
6.42049
20
-8.27137
11
6.41674
21
-8.26387
0
LINE
8
BLACK
6
CONTINUOUS
10
6.41674
20
-8.26387
11
6.41674
21
-8.26012
0
LINE
8
BLACK
6
CONTINUOUS
10
6.41674
20
-8.26012
11
6.42049
21
-8.25262
0
LINE
8
BLACK
6
CONTINUOUS
10
6.42049
20
-8.25262
11
6.42799
21
-8.24888
0
LINE
8
BLACK
6
CONTINUOUS
10
6.42799
20
-8.24888
11
6.43924
21
-8.24888
0
LINE
8
BLACK
6
CONTINUOUS
10
6.43924
20
-8.24888
11
6.44674
21
-8.25262
0
LINE
8
BLACK
6
CONTINUOUS
10
6.47673
20
-8.33136
11
6.48048
21
-8.32762
0
LINE
8
BLACK
6
CONTINUOUS
10
6.48048
20
-8.32762
11
6.48798
21
-8.31637
0
LINE
8
BLACK
6
CONTINUOUS
10
6.48798
20
-8.31637
11
6.49173
21
-8.30887
0
LINE
8
BLACK
6
CONTINUOUS
10
6.49173
20
-8.30887
11
6.49548
21
-8.29762
0
LINE
8
BLACK
6
CONTINUOUS
10
6.49548
20
-8.29762
11
6.49923
21
-8.27887
0
LINE
8
BLACK
6
CONTINUOUS
10
6.49923
20
-8.27887
11
6.49923
21
-8.26387
0
LINE
8
BLACK
6
CONTINUOUS
10
6.49923
20
-8.26387
11
6.49548
21
-8.24513
0
LINE
8
BLACK
6
CONTINUOUS
10
6.49548
20
-8.24513
11
6.49173
21
-8.23388
0
LINE
8
BLACK
6
CONTINUOUS
10
6.49173
20
-8.23388
11
6.48798
21
-8.22638
0
LINE
8
BLACK
6
CONTINUOUS
10
6.48798
20
-8.22638
11
6.48048
21
-8.21513
0
LINE
8
BLACK
6
CONTINUOUS
10
6.48048
20
-8.21513
11
6.47673
21
-8.21138
0
LINE
8
BLACK
6
CONTINUOUS
10
4.55866
20
-8.40906
11
4.59803
21
-8.36969
0
LINE
8
BLACK
6
CONTINUOUS
10
4.59803
20
-8.36969
11
4.55866
21
-8.33031
0
LINE
8
BLACK
6
CONTINUOUS
10
4.55866
20
-8.33031
11
4.51929
21
-8.36969
0
LINE
8
BLACK
6
CONTINUOUS
10
4.51929
20
-8.36969
11
4.55866
21
-8.40906
0
LINE
8
BLACK
6
CONTINUOUS
10
4.69571
20
-8.33406
11
4.69946
21
-8.33031
0
LINE
8
BLACK
6
CONTINUOUS
10
4.69946
20
-8.33031
11
4.70696
21
-8.32657
0
LINE
8
BLACK
6
CONTINUOUS
10
4.70696
20
-8.32657
11
4.7257
21
-8.32657
0
LINE
8
BLACK
6
CONTINUOUS
10
4.7257
20
-8.32657
11
4.7332
21
-8.33031
0
LINE
8
BLACK
6
CONTINUOUS
10
4.7332
20
-8.33031
11
4.73695
21
-8.33406
0
LINE
8
BLACK
6
CONTINUOUS
10
4.73695
20
-8.33406
11
4.7407
21
-8.34156
0
LINE
8
BLACK
6
CONTINUOUS
10
4.7407
20
-8.34156
11
4.7407
21
-8.34906
0
LINE
8
BLACK
6
CONTINUOUS
10
4.7407
20
-8.34906
11
4.73695
21
-8.36031
0
LINE
8
BLACK
6
CONTINUOUS
10
4.73695
20
-8.36031
11
4.69196
21
-8.40531
0
LINE
8
BLACK
6
CONTINUOUS
10
4.69196
20
-8.40531
11
4.7407
21
-8.40531
0
LINE
8
BLACK
6
CONTINUOUS
10
4.77445
20
-8.39781
11
4.7782
21
-8.40156
0
LINE
8
BLACK
6
CONTINUOUS
10
4.7782
20
-8.40156
11
4.77445
21
-8.40531
0
LINE
8
BLACK
6
CONTINUOUS
10
4.77445
20
-8.40531
11
4.7707
21
-8.40156
0
LINE
8
BLACK
6
CONTINUOUS
10
4.7707
20
-8.40156
11
4.77445
21
-8.39781
0
LINE
8
BLACK
6
CONTINUOUS
10
4.77445
20
-8.39781
11
4.77445
21
-8.40531
0
LINE
8
BLACK
6
CONTINUOUS
10
4.82694
20
-8.32657
11
4.83444
21
-8.32657
0
LINE
8
BLACK
6
CONTINUOUS
10
4.83444
20
-8.32657
11
4.84194
21
-8.33031
0
LINE
8
BLACK
6
CONTINUOUS
10
4.84194
20
-8.33031
11
4.84569
21
-8.33406
0
LINE
8
BLACK
6
CONTINUOUS
10
4.84569
20
-8.33406
11
4.84944
21
-8.34156
0
LINE
8
BLACK
6
CONTINUOUS
10
4.84944
20
-8.34156
11
4.85319
21
-8.35656
0
LINE
8
BLACK
6
CONTINUOUS
10
4.85319
20
-8.35656
11
4.85319
21
-8.37531
0
LINE
8
BLACK
6
CONTINUOUS
10
4.85319
20
-8.37531
11
4.84944
21
-8.39031
0
LINE
8
BLACK
6
CONTINUOUS
10
4.84944
20
-8.39031
11
4.84569
21
-8.39781
0
LINE
8
BLACK
6
CONTINUOUS
10
4.84569
20
-8.39781
11
4.84194
21
-8.40156
0
LINE
8
BLACK
6
CONTINUOUS
10
4.84194
20
-8.40156
11
4.83444
21
-8.40531
0
LINE
8
BLACK
6
CONTINUOUS
10
4.83444
20
-8.40531
11
4.82694
21
-8.40531
0
LINE
8
BLACK
6
CONTINUOUS
10
4.82694
20
-8.40531
11
4.81944
21
-8.40156
0
LINE
8
BLACK
6
CONTINUOUS
10
4.81944
20
-8.40156
11
4.81569
21
-8.39781
0
LINE
8
BLACK
6
CONTINUOUS
10
4.81569
20
-8.39781
11
4.81194
21
-8.39031
0
LINE
8
BLACK
6
CONTINUOUS
10
4.81194
20
-8.39031
11
4.80819
21
-8.37531
0
LINE
8
BLACK
6
CONTINUOUS
10
4.80819
20
-8.37531
11
4.80819
21
-8.35656
0
LINE
8
BLACK
6
CONTINUOUS
10
4.80819
20
-8.35656
11
4.81194
21
-8.34156
0
LINE
8
BLACK
6
CONTINUOUS
10
4.81194
20
-8.34156
11
4.81569
21
-8.33406
0
LINE
8
BLACK
6
CONTINUOUS
10
4.81569
20
-8.33406
11
4.81944
21
-8.33031
0
LINE
8
BLACK
6
CONTINUOUS
10
4.81944
20
-8.33031
11
4.82694
21
-8.32657
0
LINE
8
BLACK
6
CONTINUOUS
10
4.90193
20
-8.32657
11
4.90943
21
-8.32657
0
LINE
8
BLACK
6
CONTINUOUS
10
4.90943
20
-8.32657
11
4.91693
21
-8.33031
0
LINE
8
BLACK
6
CONTINUOUS
10
4.91693
20
-8.33031
11
4.92068
21
-8.33406
0
LINE
8
BLACK
6
CONTINUOUS
10
4.92068
20
-8.33406
11
4.92443
21
-8.34156
0
LINE
8
BLACK
6
CONTINUOUS
10
4.92443
20
-8.34156
11
4.92818
21
-8.35656
0
LINE
8
BLACK
6
CONTINUOUS
10
4.92818
20
-8.35656
11
4.92818
21
-8.37531
0
LINE
8
BLACK
6
CONTINUOUS
10
4.92818
20
-8.37531
11
4.92443
21
-8.39031
0
LINE
8
BLACK
6
CONTINUOUS
10
4.92443
20
-8.39031
11
4.92068
21
-8.39781
0
LINE
8
BLACK
6
CONTINUOUS
10
4.92068
20
-8.39781
11
4.91693
21
-8.40156
0
LINE
8
BLACK
6
CONTINUOUS
10
4.91693
20
-8.40156
11
4.90943
21
-8.40531
0
LINE
8
BLACK
6
CONTINUOUS
10
4.90943
20
-8.40531
11
4.90193
21
-8.40531
0
LINE
8
BLACK
6
CONTINUOUS
10
4.90193
20
-8.40531
11
4.89443
21
-8.40156
0
LINE
8
BLACK
6
CONTINUOUS
10
4.89443
20
-8.40156
11
4.89068
21
-8.39781
0
LINE
8
BLACK
6
CONTINUOUS
10
4.89068
20
-8.39781
11
4.88693
21
-8.39031
0
LINE
8
BLACK
6
CONTINUOUS
10
4.88693
20
-8.39031
11
4.88318
21
-8.37531
0
LINE
8
BLACK
6
CONTINUOUS
10
4.88318
20
-8.37531
11
4.88318
21
-8.35656
0
LINE
8
BLACK
6
CONTINUOUS
10
4.88318
20
-8.35656
11
4.88693
21
-8.34156
0
LINE
8
BLACK
6
CONTINUOUS
10
4.88693
20
-8.34156
11
4.89068
21
-8.33406
0
LINE
8
BLACK
6
CONTINUOUS
10
4.89068
20
-8.33406
11
4.89443
21
-8.33031
0
LINE
8
BLACK
6
CONTINUOUS
10
4.89443
20
-8.33031
11
4.90193
21
-8.32657
0
LINE
8
BLACK
6
CONTINUOUS
10
4.97692
20
-8.32657
11
4.98442
21
-8.32657
0
LINE
8
BLACK
6
CONTINUOUS
10
4.98442
20
-8.32657
11
4.99192
21
-8.33031
0
LINE
8
BLACK
6
CONTINUOUS
10
4.99192
20
-8.33031
11
4.99567
21
-8.33406
0
LINE
8
BLACK
6
CONTINUOUS
10
4.99567
20
-8.33406
11
4.99942
21
-8.34156
0
LINE
8
BLACK
6
CONTINUOUS
10
4.99942
20
-8.34156
11
5.00317
21
-8.35656
0
LINE
8
BLACK
6
CONTINUOUS
10
5.00317
20
-8.35656
11
5.00317
21
-8.37531
0
LINE
8
BLACK
6
CONTINUOUS
10
5.00317
20
-8.37531
11
4.99942
21
-8.39031
0
LINE
8
BLACK
6
CONTINUOUS
10
4.99942
20
-8.39031
11
4.99567
21
-8.39781
0
LINE
8
BLACK
6
CONTINUOUS
10
4.99567
20
-8.39781
11
4.99192
21
-8.40156
0
LINE
8
BLACK
6
CONTINUOUS
10
4.99192
20
-8.40156
11
4.98442
21
-8.40531
0
LINE
8
BLACK
6
CONTINUOUS
10
4.98442
20
-8.40531
11
4.97692
21
-8.40531
0
LINE
8
BLACK
6
CONTINUOUS
10
4.97692
20
-8.40531
11
4.96942
21
-8.40156
0
LINE
8
BLACK
6
CONTINUOUS
10
4.96942
20
-8.40156
11
4.96567
21
-8.39781
0
LINE
8
BLACK
6
CONTINUOUS
10
4.96567
20
-8.39781
11
4.96192
21
-8.39031
0
LINE
8
BLACK
6
CONTINUOUS
10
4.96192
20
-8.39031
11
4.95817
21
-8.37531
0
LINE
8
BLACK
6
CONTINUOUS
10
4.95817
20
-8.37531
11
4.95817
21
-8.35656
0
LINE
8
BLACK
6
CONTINUOUS
10
4.95817
20
-8.35656
11
4.96192
21
-8.34156
0
LINE
8
BLACK
6
CONTINUOUS
10
4.96192
20
-8.34156
11
4.96567
21
-8.33406
0
LINE
8
BLACK
6
CONTINUOUS
10
4.96567
20
-8.33406
11
4.96942
21
-8.33031
0
LINE
8
BLACK
6
CONTINUOUS
10
4.96942
20
-8.33031
11
4.97692
21
-8.32657
0
LINE
8
BLACK
6
CONTINUOUS
10
5.03691
20
-8.40531
11
5.03691
21
-8.35281
0
LINE
8
BLACK
6
CONTINUOUS
10
5.03691
20
-8.36031
11
5.04066
21
-8.35656
0
LINE
8
BLACK
6
CONTINUOUS
10
5.04066
20
-8.35656
11
5.04816
21
-8.35281
0
LINE
8
BLACK
6
CONTINUOUS
10
5.04816
20
-8.35281
11
5.05941
21
-8.35281
0
LINE
8
BLACK
6
CONTINUOUS
10
5.05941
20
-8.35281
11
5.06691
21
-8.35656
0
LINE
8
BLACK
6
CONTINUOUS
10
5.06691
20
-8.35656
11
5.07066
21
-8.36406
0
LINE
8
BLACK
6
CONTINUOUS
10
5.07066
20
-8.36406
11
5.07066
21
-8.40531
0
LINE
8
BLACK
6
CONTINUOUS
10
5.07066
20
-8.36406
11
5.07441
21
-8.35656
0
LINE
8
BLACK
6
CONTINUOUS
10
5.07441
20
-8.35656
11
5.08191
21
-8.35281
0
LINE
8
BLACK
6
CONTINUOUS
10
5.08191
20
-8.35281
11
5.09316
21
-8.35281
0
LINE
8
BLACK
6
CONTINUOUS
10
5.09316
20
-8.35281
11
5.10066
21
-8.35656
0
LINE
8
BLACK
6
CONTINUOUS
10
5.10066
20
-8.35656
11
5.10441
21
-8.36406
0
LINE
8
BLACK
6
CONTINUOUS
10
5.10441
20
-8.36406
11
5.10441
21
-8.40531
0
LINE
8
BLACK
6
CONTINUOUS
10
5.1419
20
-8.40531
11
5.1419
21
-8.35281
0
LINE
8
BLACK
6
CONTINUOUS
10
5.1419
20
-8.36031
11
5.14565
21
-8.35656
0
LINE
8
BLACK
6
CONTINUOUS
10
5.14565
20
-8.35656
11
5.15315
21
-8.35281
0
LINE
8
BLACK
6
CONTINUOUS
10
5.15315
20
-8.35281
11
5.1644
21
-8.35281
0
LINE
8
BLACK
6
CONTINUOUS
10
5.1644
20
-8.35281
11
5.1719
21
-8.35656
0
LINE
8
BLACK
6
CONTINUOUS
10
5.1719
20
-8.35656
11
5.17565
21
-8.36406
0
LINE
8
BLACK
6
CONTINUOUS
10
5.17565
20
-8.36406
11
5.17565
21
-8.40531
0
LINE
8
BLACK
6
CONTINUOUS
10
5.17565
20
-8.36406
11
5.1794
21
-8.35656
0
LINE
8
BLACK
6
CONTINUOUS
10
5.1794
20
-8.35656
11
5.1869
21
-8.35281
0
LINE
8
BLACK
6
CONTINUOUS
10
5.1869
20
-8.35281
11
5.19814
21
-8.35281
0
LINE
8
BLACK
6
CONTINUOUS
10
5.19814
20
-8.35281
11
5.20564
21
-8.35656
0
LINE
8
BLACK
6
CONTINUOUS
10
5.20564
20
-8.35656
11
5.20939
21
-8.36406
0
LINE
8
BLACK
6
CONTINUOUS
10
5.20939
20
-8.36406
11
5.20939
21
-8.40531
0
LINE
8
BLACK
6
CONTINUOUS
10
5.36312
20
-8.32282
11
5.29563
21
-8.42405
0
LINE
8
BLACK
6
CONTINUOUS
10
5.46436
20
-8.32657
11
5.47186
21
-8.32657
0
LINE
8
BLACK
6
CONTINUOUS
10
5.47186
20
-8.32657
11
5.47936
21
-8.33031
0
LINE
8
BLACK
6
CONTINUOUS
10
5.47936
20
-8.33031
11
5.48311
21
-8.33406
0
LINE
8
BLACK
6
CONTINUOUS
10
5.48311
20
-8.33406
11
5.48686
21
-8.34156
0
LINE
8
BLACK
6
CONTINUOUS
10
5.48686
20
-8.34156
11
5.49061
21
-8.35656
0
LINE
8
BLACK
6
CONTINUOUS
10
5.49061
20
-8.35656
11
5.49061
21
-8.37531
0
LINE
8
BLACK
6
CONTINUOUS
10
5.49061
20
-8.37531
11
5.48686
21
-8.39031
0
LINE
8
BLACK
6
CONTINUOUS
10
5.48686
20
-8.39031
11
5.48311
21
-8.39781
0
LINE
8
BLACK
6
CONTINUOUS
10
5.48311
20
-8.39781
11
5.47936
21
-8.40156
0
LINE
8
BLACK
6
CONTINUOUS
10
5.47936
20
-8.40156
11
5.47186
21
-8.40531
0
LINE
8
BLACK
6
CONTINUOUS
10
5.47186
20
-8.40531
11
5.46436
21
-8.40531
0
LINE
8
BLACK
6
CONTINUOUS
10
5.46436
20
-8.40531
11
5.45686
21
-8.40156
0
LINE
8
BLACK
6
CONTINUOUS
10
5.45686
20
-8.40156
11
5.45311
21
-8.39781
0
LINE
8
BLACK
6
CONTINUOUS
10
5.45311
20
-8.39781
11
5.44936
21
-8.39031
0
LINE
8
BLACK
6
CONTINUOUS
10
5.44936
20
-8.39031
11
5.44561
21
-8.37531
0
LINE
8
BLACK
6
CONTINUOUS
10
5.44561
20
-8.37531
11
5.44561
21
-8.35656
0
LINE
8
BLACK
6
CONTINUOUS
10
5.44561
20
-8.35656
11
5.44936
21
-8.34156
0
LINE
8
BLACK
6
CONTINUOUS
10
5.44936
20
-8.34156
11
5.45311
21
-8.33406
0
LINE
8
BLACK
6
CONTINUOUS
10
5.45311
20
-8.33406
11
5.45686
21
-8.33031
0
LINE
8
BLACK
6
CONTINUOUS
10
5.45686
20
-8.33031
11
5.46436
21
-8.32657
0
LINE
8
BLACK
6
CONTINUOUS
10
5.52435
20
-8.39781
11
5.5281
21
-8.40156
0
LINE
8
BLACK
6
CONTINUOUS
10
5.5281
20
-8.40156
11
5.52435
21
-8.40531
0
LINE
8
BLACK
6
CONTINUOUS
10
5.52435
20
-8.40531
11
5.5206
21
-8.40156
0
LINE
8
BLACK
6
CONTINUOUS
10
5.5206
20
-8.40156
11
5.52435
21
-8.39781
0
LINE
8
BLACK
6
CONTINUOUS
10
5.52435
20
-8.39781
11
5.52435
21
-8.40531
0
LINE
8
BLACK
6
CONTINUOUS
10
5.57685
20
-8.32657
11
5.58435
21
-8.32657
0
LINE
8
BLACK
6
CONTINUOUS
10
5.58435
20
-8.32657
11
5.59184
21
-8.33031
0
LINE
8
BLACK
6
CONTINUOUS
10
5.59184
20
-8.33031
11
5.59559
21
-8.33406
0
LINE
8
BLACK
6
CONTINUOUS
10
5.59559
20
-8.33406
11
5.59934
21
-8.34156
0
LINE
8
BLACK
6
CONTINUOUS
10
5.59934
20
-8.34156
11
5.60309
21
-8.35656
0
LINE
8
BLACK
6
CONTINUOUS
10
5.60309
20
-8.35656
11
5.60309
21
-8.37531
0
LINE
8
BLACK
6
CONTINUOUS
10
5.60309
20
-8.37531
11
5.59934
21
-8.39031
0
LINE
8
BLACK
6
CONTINUOUS
10
5.59934
20
-8.39031
11
5.59559
21
-8.39781
0
LINE
8
BLACK
6
CONTINUOUS
10
5.59559
20
-8.39781
11
5.59184
21
-8.40156
0
LINE
8
BLACK
6
CONTINUOUS
10
5.59184
20
-8.40156
11
5.58435
21
-8.40531
0
LINE
8
BLACK
6
CONTINUOUS
10
5.58435
20
-8.40531
11
5.57685
21
-8.40531
0
LINE
8
BLACK
6
CONTINUOUS
10
5.57685
20
-8.40531
11
5.56935
21
-8.40156
0
LINE
8
BLACK
6
CONTINUOUS
10
5.56935
20
-8.40156
11
5.5656
21
-8.39781
0
LINE
8
BLACK
6
CONTINUOUS
10
5.5656
20
-8.39781
11
5.56185
21
-8.39031
0
LINE
8
BLACK
6
CONTINUOUS
10
5.56185
20
-8.39031
11
5.5581
21
-8.37531
0
LINE
8
BLACK
6
CONTINUOUS
10
5.5581
20
-8.37531
11
5.5581
21
-8.35656
0
LINE
8
BLACK
6
CONTINUOUS
10
5.5581
20
-8.35656
11
5.56185
21
-8.34156
0
LINE
8
BLACK
6
CONTINUOUS
10
5.56185
20
-8.34156
11
5.5656
21
-8.33406
0
LINE
8
BLACK
6
CONTINUOUS
10
5.5656
20
-8.33406
11
5.56935
21
-8.33031
0
LINE
8
BLACK
6
CONTINUOUS
10
5.56935
20
-8.33031
11
5.57685
21
-8.32657
0
LINE
8
BLACK
6
CONTINUOUS
10
5.62934
20
-8.32657
11
5.68183
21
-8.32657
0
LINE
8
BLACK
6
CONTINUOUS
10
5.68183
20
-8.32657
11
5.64809
21
-8.40531
0
LINE
8
BLACK
6
CONTINUOUS
10
5.72308
20
-8.36031
11
5.71558
21
-8.35656
0
LINE
8
BLACK
6
CONTINUOUS
10
5.71558
20
-8.35656
11
5.71183
21
-8.35281
0
LINE
8
BLACK
6
CONTINUOUS
10
5.71183
20
-8.35281
11
5.70808
21
-8.34531
0
LINE
8
BLACK
6
CONTINUOUS
10
5.70808
20
-8.34531
11
5.70808
21
-8.34156
0
LINE
8
BLACK
6
CONTINUOUS
10
5.70808
20
-8.34156
11
5.71183
21
-8.33406
0
LINE
8
BLACK
6
CONTINUOUS
10
5.71183
20
-8.33406
11
5.71558
21
-8.33031
0
LINE
8
BLACK
6
CONTINUOUS
10
5.71558
20
-8.33031
11
5.72308
21
-8.32657
0
LINE
8
BLACK
6
CONTINUOUS
10
5.72308
20
-8.32657
11
5.73808
21
-8.32657
0
LINE
8
BLACK
6
CONTINUOUS
10
5.73808
20
-8.32657
11
5.74558
21
-8.33031
0
LINE
8
BLACK
6
CONTINUOUS
10
5.74558
20
-8.33031
11
5.74933
21
-8.33406
0
LINE
8
BLACK
6
CONTINUOUS
10
5.74933
20
-8.33406
11
5.75307
21
-8.34156
0
LINE
8
BLACK
6
CONTINUOUS
10
5.75307
20
-8.34156
11
5.75307
21
-8.34531
0
LINE
8
BLACK
6
CONTINUOUS
10
5.75307
20
-8.34531
11
5.74933
21
-8.35281
0
LINE
8
BLACK
6
CONTINUOUS
10
5.74933
20
-8.35281
11
5.74558
21
-8.35656
0
LINE
8
BLACK
6
CONTINUOUS
10
5.74558
20
-8.35656
11
5.73808
21
-8.36031
0
LINE
8
BLACK
6
CONTINUOUS
10
5.73808
20
-8.36031
11
5.72308
21
-8.36031
0
LINE
8
BLACK
6
CONTINUOUS
10
5.72308
20
-8.36031
11
5.71558
21
-8.36406
0
LINE
8
BLACK
6
CONTINUOUS
10
5.71558
20
-8.36406
11
5.71183
21
-8.36781
0
LINE
8
BLACK
6
CONTINUOUS
10
5.71183
20
-8.36781
11
5.70808
21
-8.37531
0
LINE
8
BLACK
6
CONTINUOUS
10
5.70808
20
-8.37531
11
5.70808
21
-8.39031
0
LINE
8
BLACK
6
CONTINUOUS
10
5.70808
20
-8.39031
11
5.71183
21
-8.39781
0
LINE
8
BLACK
6
CONTINUOUS
10
5.71183
20
-8.39781
11
5.71558
21
-8.40156
0
LINE
8
BLACK
6
CONTINUOUS
10
5.71558
20
-8.40156
11
5.72308
21
-8.40531
0
LINE
8
BLACK
6
CONTINUOUS
10
5.72308
20
-8.40531
11
5.73808
21
-8.40531
0
LINE
8
BLACK
6
CONTINUOUS
10
5.73808
20
-8.40531
11
5.74558
21
-8.40156
0
LINE
8
BLACK
6
CONTINUOUS
10
5.74558
20
-8.40156
11
5.74933
21
-8.39781
0
LINE
8
BLACK
6
CONTINUOUS
10
5.74933
20
-8.39781
11
5.75307
21
-8.39031
0
LINE
8
BLACK
6
CONTINUOUS
10
5.75307
20
-8.39031
11
5.75307
21
-8.37531
0
LINE
8
BLACK
6
CONTINUOUS
10
5.75307
20
-8.37531
11
5.74933
21
-8.36781
0
LINE
8
BLACK
6
CONTINUOUS
10
5.74933
20
-8.36781
11
5.74558
21
-8.36406
0
LINE
8
BLACK
6
CONTINUOUS
10
5.74558
20
-8.36406
11
5.73808
21
-8.36031
0
LINE
8
BLACK
6
CONTINUOUS
10
5.77932
20
-8.32657
11
5.83181
21
-8.32657
0
LINE
8
BLACK
6
CONTINUOUS
10
5.83181
20
-8.32657
11
5.79807
21
-8.40531
0
LINE
8
BLACK
6
CONTINUOUS
10
5.85806
20
-8.32657
11
5.85806
21
-8.34156
0
LINE
8
BLACK
6
CONTINUOUS
10
5.88806
20
-8.32657
11
5.88806
21
-8.34156
0
LINE
8
BLACK
6
CONTINUOUS
10
6.00429
20
-8.4353
11
6.00054
21
-8.43155
0
LINE
8
BLACK
6
CONTINUOUS
10
6.00054
20
-8.43155
11
5.99304
21
-8.4203
0
LINE
8
BLACK
6
CONTINUOUS
10
5.99304
20
-8.4203
11
5.9893
21
-8.4128
0
LINE
8
BLACK
6
CONTINUOUS
10
5.9893
20
-8.4128
11
5.98555
21
-8.40156
0
LINE
8
BLACK
6
CONTINUOUS
10
5.98555
20
-8.40156
11
5.9818
21
-8.38281
0
LINE
8
BLACK
6
CONTINUOUS
10
5.9818
20
-8.38281
11
5.9818
21
-8.36781
0
LINE
8
BLACK
6
CONTINUOUS
10
5.9818
20
-8.36781
11
5.98555
21
-8.34906
0
LINE
8
BLACK
6
CONTINUOUS
10
5.98555
20
-8.34906
11
5.9893
21
-8.33781
0
LINE
8
BLACK
6
CONTINUOUS
10
5.9893
20
-8.33781
11
5.99304
21
-8.33031
0
LINE
8
BLACK
6
CONTINUOUS
10
5.99304
20
-8.33031
11
6.00054
21
-8.31907
0
LINE
8
BLACK
6
CONTINUOUS
10
6.00054
20
-8.31907
11
6.00429
21
-8.31532
0
LINE
8
BLACK
6
CONTINUOUS
10
6.03054
20
-8.33406
11
6.03429
21
-8.33031
0
LINE
8
BLACK
6
CONTINUOUS
10
6.03429
20
-8.33031
11
6.04179
21
-8.32657
0
LINE
8
BLACK
6
CONTINUOUS
10
6.04179
20
-8.32657
11
6.06054
21
-8.32657
0
LINE
8
BLACK
6
CONTINUOUS
10
6.06054
20
-8.32657
11
6.06804
21
-8.33031
0
LINE
8
BLACK
6
CONTINUOUS
10
6.06804
20
-8.33031
11
6.07178
21
-8.33406
0
LINE
8
BLACK
6
CONTINUOUS
10
6.07178
20
-8.33406
11
6.07553
21
-8.34156
0
LINE
8
BLACK
6
CONTINUOUS
10
6.07553
20
-8.34156
11
6.07553
21
-8.34906
0
LINE
8
BLACK
6
CONTINUOUS
10
6.07553
20
-8.34906
11
6.07178
21
-8.36031
0
LINE
8
BLACK
6
CONTINUOUS
10
6.07178
20
-8.36031
11
6.02679
21
-8.40531
0
LINE
8
BLACK
6
CONTINUOUS
10
6.02679
20
-8.40531
11
6.07553
21
-8.40531
0
LINE
8
BLACK
6
CONTINUOUS
10
6.16927
20
-8.40531
11
6.16927
21
-8.32657
0
LINE
8
BLACK
6
CONTINUOUS
10
6.20302
20
-8.40531
11
6.20302
21
-8.36406
0
LINE
8
BLACK
6
CONTINUOUS
10
6.20302
20
-8.36406
11
6.19927
21
-8.35656
0
LINE
8
BLACK
6
CONTINUOUS
10
6.19927
20
-8.35656
11
6.19177
21
-8.35281
0
LINE
8
BLACK
6
CONTINUOUS
10
6.19177
20
-8.35281
11
6.18052
21
-8.35281
0
LINE
8
BLACK
6
CONTINUOUS
10
6.18052
20
-8.35281
11
6.17302
21
-8.35656
0
LINE
8
BLACK
6
CONTINUOUS
10
6.17302
20
-8.35656
11
6.16927
21
-8.36031
0
LINE
8
BLACK
6
CONTINUOUS
10
6.25176
20
-8.40531
11
6.24426
21
-8.40156
0
LINE
8
BLACK
6
CONTINUOUS
10
6.24426
20
-8.40156
11
6.24051
21
-8.39781
0
LINE
8
BLACK
6
CONTINUOUS
10
6.24051
20
-8.39781
11
6.23676
21
-8.39031
0
LINE
8
BLACK
6
CONTINUOUS
10
6.23676
20
-8.39031
11
6.23676
21
-8.36781
0
LINE
8
BLACK
6
CONTINUOUS
10
6.23676
20
-8.36781
11
6.24051
21
-8.36031
0
LINE
8
BLACK
6
CONTINUOUS
10
6.24051
20
-8.36031
11
6.24426
21
-8.35656
0
LINE
8
BLACK
6
CONTINUOUS
10
6.24426
20
-8.35656
11
6.25176
21
-8.35281
0
LINE
8
BLACK
6
CONTINUOUS
10
6.25176
20
-8.35281
11
6.26301
21
-8.35281
0
LINE
8
BLACK
6
CONTINUOUS
10
6.26301
20
-8.35281
11
6.27051
21
-8.35656
0
LINE
8
BLACK
6
CONTINUOUS
10
6.27051
20
-8.35656
11
6.27426
21
-8.36031
0
LINE
8
BLACK
6
CONTINUOUS
10
6.27426
20
-8.36031
11
6.27801
21
-8.36781
0
LINE
8
BLACK
6
CONTINUOUS
10
6.27801
20
-8.36781
11
6.27801
21
-8.39031
0
LINE
8
BLACK
6
CONTINUOUS
10
6.27801
20
-8.39031
11
6.27426
21
-8.39781
0
LINE
8
BLACK
6
CONTINUOUS
10
6.27426
20
-8.39781
11
6.27051
21
-8.40156
0
LINE
8
BLACK
6
CONTINUOUS
10
6.27051
20
-8.40156
11
6.26301
21
-8.40531
0
LINE
8
BLACK
6
CONTINUOUS
10
6.26301
20
-8.40531
11
6.25176
21
-8.40531
0
LINE
8
BLACK
6
CONTINUOUS
10
6.323
20
-8.40531
11
6.3155
21
-8.40156
0
LINE
8
BLACK
6
CONTINUOUS
10
6.3155
20
-8.40156
11
6.31175
21
-8.39406
0
LINE
8
BLACK
6
CONTINUOUS
10
6.31175
20
-8.39406
11
6.31175
21
-8.32657
0
LINE
8
BLACK
6
CONTINUOUS
10
6.383
20
-8.40156
11
6.3755
21
-8.40531
0
LINE
8
BLACK
6
CONTINUOUS
10
6.3755
20
-8.40531
11
6.3605
21
-8.40531
0
LINE
8
BLACK
6
CONTINUOUS
10
6.3605
20
-8.40531
11
6.353
21
-8.40156
0
LINE
8
BLACK
6
CONTINUOUS
10
6.353
20
-8.40156
11
6.34925
21
-8.39406
0
LINE
8
BLACK
6
CONTINUOUS
10
6.34925
20
-8.39406
11
6.34925
21
-8.36406
0
LINE
8
BLACK
6
CONTINUOUS
10
6.34925
20
-8.36406
11
6.353
21
-8.35656
0
LINE
8
BLACK
6
CONTINUOUS
10
6.353
20
-8.35656
11
6.3605
21
-8.35281
0
LINE
8
BLACK
6
CONTINUOUS
10
6.3605
20
-8.35281
11
6.3755
21
-8.35281
0
LINE
8
BLACK
6
CONTINUOUS
10
6.3755
20
-8.35281
11
6.383
21
-8.35656
0
LINE
8
BLACK
6
CONTINUOUS
10
6.383
20
-8.35656
11
6.38675
21
-8.36406
0
LINE
8
BLACK
6
CONTINUOUS
10
6.38675
20
-8.36406
11
6.38675
21
-8.37156
0
LINE
8
BLACK
6
CONTINUOUS
10
6.38675
20
-8.37156
11
6.34925
21
-8.37906
0
LINE
8
BLACK
6
CONTINUOUS
10
6.41674
20
-8.40156
11
6.42424
21
-8.40531
0
LINE
8
BLACK
6
CONTINUOUS
10
6.42424
20
-8.40531
11
6.43924
21
-8.40531
0
LINE
8
BLACK
6
CONTINUOUS
10
6.43924
20
-8.40531
11
6.44674
21
-8.40156
0
LINE
8
BLACK
6
CONTINUOUS
10
6.44674
20
-8.40156
11
6.45049
21
-8.39406
0
LINE
8
BLACK
6
CONTINUOUS
10
6.45049
20
-8.39406
11
6.45049
21
-8.39031
0
LINE
8
BLACK
6
CONTINUOUS
10
6.45049
20
-8.39031
11
6.44674
21
-8.38281
0
LINE
8
BLACK
6
CONTINUOUS
10
6.44674
20
-8.38281
11
6.43924
21
-8.37906
0
LINE
8
BLACK
6
CONTINUOUS
10
6.43924
20
-8.37906
11
6.42799
21
-8.37906
0
LINE
8
BLACK
6
CONTINUOUS
10
6.42799
20
-8.37906
11
6.42049
21
-8.37531
0
LINE
8
BLACK
6
CONTINUOUS
10
6.42049
20
-8.37531
11
6.41674
21
-8.36781
0
LINE
8
BLACK
6
CONTINUOUS
10
6.41674
20
-8.36781
11
6.41674
21
-8.36406
0
LINE
8
BLACK
6
CONTINUOUS
10
6.41674
20
-8.36406
11
6.42049
21
-8.35656
0
LINE
8
BLACK
6
CONTINUOUS
10
6.42049
20
-8.35656
11
6.42799
21
-8.35281
0
LINE
8
BLACK
6
CONTINUOUS
10
6.42799
20
-8.35281
11
6.43924
21
-8.35281
0
LINE
8
BLACK
6
CONTINUOUS
10
6.43924
20
-8.35281
11
6.44674
21
-8.35656
0
LINE
8
BLACK
6
CONTINUOUS
10
6.47673
20
-8.4353
11
6.48048
21
-8.43155
0
LINE
8
BLACK
6
CONTINUOUS
10
6.48048
20
-8.43155
11
6.48798
21
-8.4203
0
LINE
8
BLACK
6
CONTINUOUS
10
6.48798
20
-8.4203
11
6.49173
21
-8.4128
0
LINE
8
BLACK
6
CONTINUOUS
10
6.49173
20
-8.4128
11
6.49548
21
-8.40156
0
LINE
8
BLACK
6
CONTINUOUS
10
6.49548
20
-8.40156
11
6.49923
21
-8.38281
0
LINE
8
BLACK
6
CONTINUOUS
10
6.49923
20
-8.38281
11
6.49923
21
-8.36781
0
LINE
8
BLACK
6
CONTINUOUS
10
6.49923
20
-8.36781
11
6.49548
21
-8.34906
0
LINE
8
BLACK
6
CONTINUOUS
10
6.49548
20
-8.34906
11
6.49173
21
-8.33781
0
LINE
8
BLACK
6
CONTINUOUS
10
6.49173
20
-8.33781
11
6.48798
21
-8.33031
0
LINE
8
BLACK
6
CONTINUOUS
10
6.48798
20
-8.33031
11
6.48048
21
-8.31907
0
LINE
8
BLACK
6
CONTINUOUS
10
6.48048
20
-8.31907
11
6.47673
21
-8.31532
0
LINE
8
BLACK
6
CONTINUOUS
10
4.51929
20
-8.4563
11
4.59803
21
-8.53504
0
LINE
8
BLACK
6
CONTINUOUS
10
4.59803
20
-8.4563
11
4.51929
21
-8.53504
0
CIRCLE
8
BLACK
10
4.55866
20
-8.49567
40
0.0393701
0
LINE
8
BLACK
6
CONTINUOUS
10
4.69571
20
-8.46005
11
4.69946
21
-8.4563
0
LINE
8
BLACK
6
CONTINUOUS
10
4.69946
20
-8.4563
11
4.70696
21
-8.45255
0
LINE
8
BLACK
6
CONTINUOUS
10
4.70696
20
-8.45255
11
4.7257
21
-8.45255
0
LINE
8
BLACK
6
CONTINUOUS
10
4.7257
20
-8.45255
11
4.7332
21
-8.4563
0
LINE
8
BLACK
6
CONTINUOUS
10
4.7332
20
-8.4563
11
4.73695
21
-8.46005
0
LINE
8
BLACK
6
CONTINUOUS
10
4.73695
20
-8.46005
11
4.7407
21
-8.46755
0
LINE
8
BLACK
6
CONTINUOUS
10
4.7407
20
-8.46755
11
4.7407
21
-8.47505
0
LINE
8
BLACK
6
CONTINUOUS
10
4.7407
20
-8.47505
11
4.73695
21
-8.4863
0
LINE
8
BLACK
6
CONTINUOUS
10
4.73695
20
-8.4863
11
4.69196
21
-8.53129
0
LINE
8
BLACK
6
CONTINUOUS
10
4.69196
20
-8.53129
11
4.7407
21
-8.53129
0
LINE
8
BLACK
6
CONTINUOUS
10
4.77445
20
-8.52379
11
4.7782
21
-8.52754
0
LINE
8
BLACK
6
CONTINUOUS
10
4.7782
20
-8.52754
11
4.77445
21
-8.53129
0
LINE
8
BLACK
6
CONTINUOUS
10
4.77445
20
-8.53129
11
4.7707
21
-8.52754
0
LINE
8
BLACK
6
CONTINUOUS
10
4.7707
20
-8.52754
11
4.77445
21
-8.52379
0
LINE
8
BLACK
6
CONTINUOUS
10
4.77445
20
-8.52379
11
4.77445
21
-8.53129
0
LINE
8
BLACK
6
CONTINUOUS
10
4.80819
20
-8.46005
11
4.81194
21
-8.4563
0
LINE
8
BLACK
6
CONTINUOUS
10
4.81194
20
-8.4563
11
4.81944
21
-8.45255
0
LINE
8
BLACK
6
CONTINUOUS
10
4.81944
20
-8.45255
11
4.83819
21
-8.45255
0
LINE
8
BLACK
6
CONTINUOUS
10
4.83819
20
-8.45255
11
4.84569
21
-8.4563
0
LINE
8
BLACK
6
CONTINUOUS
10
4.84569
20
-8.4563
11
4.84944
21
-8.46005
0
LINE
8
BLACK
6
CONTINUOUS
10
4.84944
20
-8.46005
11
4.85319
21
-8.46755
0
LINE
8
BLACK
6
CONTINUOUS
10
4.85319
20
-8.46755
11
4.85319
21
-8.47505
0
LINE
8
BLACK
6
CONTINUOUS
10
4.85319
20
-8.47505
11
4.84944
21
-8.4863
0
LINE
8
BLACK
6
CONTINUOUS
10
4.84944
20
-8.4863
11
4.80444
21
-8.53129
0
LINE
8
BLACK
6
CONTINUOUS
10
4.80444
20
-8.53129
11
4.85319
21
-8.53129
0
LINE
8
BLACK
6
CONTINUOUS
10
4.90193
20
-8.45255
11
4.90943
21
-8.45255
0
LINE
8
BLACK
6
CONTINUOUS
10
4.90943
20
-8.45255
11
4.91693
21
-8.4563
0
LINE
8
BLACK
6
CONTINUOUS
10
4.91693
20
-8.4563
11
4.92068
21
-8.46005
0
LINE
8
BLACK
6
CONTINUOUS
10
4.92068
20
-8.46005
11
4.92443
21
-8.46755
0
LINE
8
BLACK
6
CONTINUOUS
10
4.92443
20
-8.46755
11
4.92818
21
-8.48255
0
LINE
8
BLACK
6
CONTINUOUS
10
4.92818
20
-8.48255
11
4.92818
21
-8.50129
0
LINE
8
BLACK
6
CONTINUOUS
10
4.92818
20
-8.50129
11
4.92443
21
-8.51629
0
LINE
8
BLACK
6
CONTINUOUS
10
4.92443
20
-8.51629
11
4.92068
21
-8.52379
0
LINE
8
BLACK
6
CONTINUOUS
10
4.92068
20
-8.52379
11
4.91693
21
-8.52754
0
LINE
8
BLACK
6
CONTINUOUS
10
4.91693
20
-8.52754
11
4.90943
21
-8.53129
0
LINE
8
BLACK
6
CONTINUOUS
10
4.90943
20
-8.53129
11
4.90193
21
-8.53129
0
LINE
8
BLACK
6
CONTINUOUS
10
4.90193
20
-8.53129
11
4.89443
21
-8.52754
0
LINE
8
BLACK
6
CONTINUOUS
10
4.89443
20
-8.52754
11
4.89068
21
-8.52379
0
LINE
8
BLACK
6
CONTINUOUS
10
4.89068
20
-8.52379
11
4.88693
21
-8.51629
0
LINE
8
BLACK
6
CONTINUOUS
10
4.88693
20
-8.51629
11
4.88318
21
-8.50129
0
LINE
8
BLACK
6
CONTINUOUS
10
4.88318
20
-8.50129
11
4.88318
21
-8.48255
0
LINE
8
BLACK
6
CONTINUOUS
10
4.88318
20
-8.48255
11
4.88693
21
-8.46755
0
LINE
8
BLACK
6
CONTINUOUS
10
4.88693
20
-8.46755
11
4.89068
21
-8.46005
0
LINE
8
BLACK
6
CONTINUOUS
10
4.89068
20
-8.46005
11
4.89443
21
-8.4563
0
LINE
8
BLACK
6
CONTINUOUS
10
4.89443
20
-8.4563
11
4.90193
21
-8.45255
0
LINE
8
BLACK
6
CONTINUOUS
10
4.97692
20
-8.45255
11
4.98442
21
-8.45255
0
LINE
8
BLACK
6
CONTINUOUS
10
4.98442
20
-8.45255
11
4.99192
21
-8.4563
0
LINE
8
BLACK
6
CONTINUOUS
10
4.99192
20
-8.4563
11
4.99567
21
-8.46005
0
LINE
8
BLACK
6
CONTINUOUS
10
4.99567
20
-8.46005
11
4.99942
21
-8.46755
0
LINE
8
BLACK
6
CONTINUOUS
10
4.99942
20
-8.46755
11
5.00317
21
-8.48255
0
LINE
8
BLACK
6
CONTINUOUS
10
5.00317
20
-8.48255
11
5.00317
21
-8.50129
0
LINE
8
BLACK
6
CONTINUOUS
10
5.00317
20
-8.50129
11
4.99942
21
-8.51629
0
LINE
8
BLACK
6
CONTINUOUS
10
4.99942
20
-8.51629
11
4.99567
21
-8.52379
0
LINE
8
BLACK
6
CONTINUOUS
10
4.99567
20
-8.52379
11
4.99192
21
-8.52754
0
LINE
8
BLACK
6
CONTINUOUS
10
4.99192
20
-8.52754
11
4.98442
21
-8.53129
0
LINE
8
BLACK
6
CONTINUOUS
10
4.98442
20
-8.53129
11
4.97692
21
-8.53129
0
LINE
8
BLACK
6
CONTINUOUS
10
4.97692
20
-8.53129
11
4.96942
21
-8.52754
0
LINE
8
BLACK
6
CONTINUOUS
10
4.96942
20
-8.52754
11
4.96567
21
-8.52379
0
LINE
8
BLACK
6
CONTINUOUS
10
4.96567
20
-8.52379
11
4.96192
21
-8.51629
0
LINE
8
BLACK
6
CONTINUOUS
10
4.96192
20
-8.51629
11
4.95817
21
-8.50129
0
LINE
8
BLACK
6
CONTINUOUS
10
4.95817
20
-8.50129
11
4.95817
21
-8.48255
0
LINE
8
BLACK
6
CONTINUOUS
10
4.95817
20
-8.48255
11
4.96192
21
-8.46755
0
LINE
8
BLACK
6
CONTINUOUS
10
4.96192
20
-8.46755
11
4.96567
21
-8.46005
0
LINE
8
BLACK
6
CONTINUOUS
10
4.96567
20
-8.46005
11
4.96942
21
-8.4563
0
LINE
8
BLACK
6
CONTINUOUS
10
4.96942
20
-8.4563
11
4.97692
21
-8.45255
0
LINE
8
BLACK
6
CONTINUOUS
10
5.03691
20
-8.53129
11
5.03691
21
-8.4788
0
LINE
8
BLACK
6
CONTINUOUS
10
5.03691
20
-8.4863
11
5.04066
21
-8.48255
0
LINE
8
BLACK
6
CONTINUOUS
10
5.04066
20
-8.48255
11
5.04816
21
-8.4788
0
LINE
8
BLACK
6
CONTINUOUS
10
5.04816
20
-8.4788
11
5.05941
21
-8.4788
0
LINE
8
BLACK
6
CONTINUOUS
10
5.05941
20
-8.4788
11
5.06691
21
-8.48255
0
LINE
8
BLACK
6
CONTINUOUS
10
5.06691
20
-8.48255
11
5.07066
21
-8.49004
0
LINE
8
BLACK
6
CONTINUOUS
10
5.07066
20
-8.49004
11
5.07066
21
-8.53129
0
LINE
8
BLACK
6
CONTINUOUS
10
5.07066
20
-8.49004
11
5.07441
21
-8.48255
0
LINE
8
BLACK
6
CONTINUOUS
10
5.07441
20
-8.48255
11
5.08191
21
-8.4788
0
LINE
8
BLACK
6
CONTINUOUS
10
5.08191
20
-8.4788
11
5.09316
21
-8.4788
0
LINE
8
BLACK
6
CONTINUOUS
10
5.09316
20
-8.4788
11
5.10066
21
-8.48255
0
LINE
8
BLACK
6
CONTINUOUS
10
5.10066
20
-8.48255
11
5.10441
21
-8.49004
0
LINE
8
BLACK
6
CONTINUOUS
10
5.10441
20
-8.49004
11
5.10441
21
-8.53129
0
LINE
8
BLACK
6
CONTINUOUS
10
5.1419
20
-8.53129
11
5.1419
21
-8.4788
0
LINE
8
BLACK
6
CONTINUOUS
10
5.1419
20
-8.4863
11
5.14565
21
-8.48255
0
LINE
8
BLACK
6
CONTINUOUS
10
5.14565
20
-8.48255
11
5.15315
21
-8.4788
0
LINE
8
BLACK
6
CONTINUOUS
10
5.15315
20
-8.4788
11
5.1644
21
-8.4788
0
LINE
8
BLACK
6
CONTINUOUS
10
5.1644
20
-8.4788
11
5.1719
21
-8.48255
0
LINE
8
BLACK
6
CONTINUOUS
10
5.1719
20
-8.48255
11
5.17565
21
-8.49004
0
LINE
8
BLACK
6
CONTINUOUS
10
5.17565
20
-8.49004
11
5.17565
21
-8.53129
0
LINE
8
BLACK
6
CONTINUOUS
10
5.17565
20
-8.49004
11
5.1794
21
-8.48255
0
LINE
8
BLACK
6
CONTINUOUS
10
5.1794
20
-8.48255
11
5.1869
21
-8.4788
0
LINE
8
BLACK
6
CONTINUOUS
10
5.1869
20
-8.4788
11
5.19814
21
-8.4788
0
LINE
8
BLACK
6
CONTINUOUS
10
5.19814
20
-8.4788
11
5.20564
21
-8.48255
0
LINE
8
BLACK
6
CONTINUOUS
10
5.20564
20
-8.48255
11
5.20939
21
-8.49004
0
LINE
8
BLACK
6
CONTINUOUS
10
5.20939
20
-8.49004
11
5.20939
21
-8.53129
0
LINE
8
BLACK
6
CONTINUOUS
10
5.36312
20
-8.4488
11
5.29563
21
-8.55004
0
LINE
8
BLACK
6
CONTINUOUS
10
5.46436
20
-8.45255
11
5.47186
21
-8.45255
0
LINE
8
BLACK
6
CONTINUOUS
10
5.47186
20
-8.45255
11
5.47936
21
-8.4563
0
LINE
8
BLACK
6
CONTINUOUS
10
5.47936
20
-8.4563
11
5.48311
21
-8.46005
0
LINE
8
BLACK
6
CONTINUOUS
10
5.48311
20
-8.46005
11
5.48686
21
-8.46755
0
LINE
8
BLACK
6
CONTINUOUS
10
5.48686
20
-8.46755
11
5.49061
21
-8.48255
0
LINE
8
BLACK
6
CONTINUOUS
10
5.49061
20
-8.48255
11
5.49061
21
-8.50129
0
LINE
8
BLACK
6
CONTINUOUS
10
5.49061
20
-8.50129
11
5.48686
21
-8.51629
0
LINE
8
BLACK
6
CONTINUOUS
10
5.48686
20
-8.51629
11
5.48311
21
-8.52379
0
LINE
8
BLACK
6
CONTINUOUS
10
5.48311
20
-8.52379
11
5.47936
21
-8.52754
0
LINE
8
BLACK
6
CONTINUOUS
10
5.47936
20
-8.52754
11
5.47186
21
-8.53129
0
LINE
8
BLACK
6
CONTINUOUS
10
5.47186
20
-8.53129
11
5.46436
21
-8.53129
0
LINE
8
BLACK
6
CONTINUOUS
10
5.46436
20
-8.53129
11
5.45686
21
-8.52754
0
LINE
8
BLACK
6
CONTINUOUS
10
5.45686
20
-8.52754
11
5.45311
21
-8.52379
0
LINE
8
BLACK
6
CONTINUOUS
10
5.45311
20
-8.52379
11
5.44936
21
-8.51629
0
LINE
8
BLACK
6
CONTINUOUS
10
5.44936
20
-8.51629
11
5.44561
21
-8.50129
0
LINE
8
BLACK
6
CONTINUOUS
10
5.44561
20
-8.50129
11
5.44561
21
-8.48255
0
LINE
8
BLACK
6
CONTINUOUS
10
5.44561
20
-8.48255
11
5.44936
21
-8.46755
0
LINE
8
BLACK
6
CONTINUOUS
10
5.44936
20
-8.46755
11
5.45311
21
-8.46005
0
LINE
8
BLACK
6
CONTINUOUS
10
5.45311
20
-8.46005
11
5.45686
21
-8.4563
0
LINE
8
BLACK
6
CONTINUOUS
10
5.45686
20
-8.4563
11
5.46436
21
-8.45255
0
LINE
8
BLACK
6
CONTINUOUS
10
5.52435
20
-8.52379
11
5.5281
21
-8.52754
0
LINE
8
BLACK
6
CONTINUOUS
10
5.5281
20
-8.52754
11
5.52435
21
-8.53129
0
LINE
8
BLACK
6
CONTINUOUS
10
5.52435
20
-8.53129
11
5.5206
21
-8.52754
0
LINE
8
BLACK
6
CONTINUOUS
10
5.5206
20
-8.52754
11
5.52435
21
-8.52379
0
LINE
8
BLACK
6
CONTINUOUS
10
5.52435
20
-8.52379
11
5.52435
21
-8.53129
0
LINE
8
BLACK
6
CONTINUOUS
10
5.57685
20
-8.45255
11
5.58435
21
-8.45255
0
LINE
8
BLACK
6
CONTINUOUS
10
5.58435
20
-8.45255
11
5.59184
21
-8.4563
0
LINE
8
BLACK
6
CONTINUOUS
10
5.59184
20
-8.4563
11
5.59559
21
-8.46005
0
LINE
8
BLACK
6
CONTINUOUS
10
5.59559
20
-8.46005
11
5.59934
21
-8.46755
0
LINE
8
BLACK
6
CONTINUOUS
10
5.59934
20
-8.46755
11
5.60309
21
-8.48255
0
LINE
8
BLACK
6
CONTINUOUS
10
5.60309
20
-8.48255
11
5.60309
21
-8.50129
0
LINE
8
BLACK
6
CONTINUOUS
10
5.60309
20
-8.50129
11
5.59934
21
-8.51629
0
LINE
8
BLACK
6
CONTINUOUS
10
5.59934
20
-8.51629
11
5.59559
21
-8.52379
0
LINE
8
BLACK
6
CONTINUOUS
10
5.59559
20
-8.52379
11
5.59184
21
-8.52754
0
LINE
8
BLACK
6
CONTINUOUS
10
5.59184
20
-8.52754
11
5.58435
21
-8.53129
0
LINE
8
BLACK
6
CONTINUOUS
10
5.58435
20
-8.53129
11
5.57685
21
-8.53129
0
LINE
8
BLACK
6
CONTINUOUS
10
5.57685
20
-8.53129
11
5.56935
21
-8.52754
0
LINE
8
BLACK
6
CONTINUOUS
10
5.56935
20
-8.52754
11
5.5656
21
-8.52379
0
LINE
8
BLACK
6
CONTINUOUS
10
5.5656
20
-8.52379
11
5.56185
21
-8.51629
0
LINE
8
BLACK
6
CONTINUOUS
10
5.56185
20
-8.51629
11
5.5581
21
-8.50129
0
LINE
8
BLACK
6
CONTINUOUS
10
5.5581
20
-8.50129
11
5.5581
21
-8.48255
0
LINE
8
BLACK
6
CONTINUOUS
10
5.5581
20
-8.48255
11
5.56185
21
-8.46755
0
LINE
8
BLACK
6
CONTINUOUS
10
5.56185
20
-8.46755
11
5.5656
21
-8.46005
0
LINE
8
BLACK
6
CONTINUOUS
10
5.5656
20
-8.46005
11
5.56935
21
-8.4563
0
LINE
8
BLACK
6
CONTINUOUS
10
5.56935
20
-8.4563
11
5.57685
21
-8.45255
0
LINE
8
BLACK
6
CONTINUOUS
10
5.64809
20
-8.4863
11
5.64059
21
-8.48255
0
LINE
8
BLACK
6
CONTINUOUS
10
5.64059
20
-8.48255
11
5.63684
21
-8.4788
0
LINE
8
BLACK
6
CONTINUOUS
10
5.63684
20
-8.4788
11
5.63309
21
-8.4713
0
LINE
8
BLACK
6
CONTINUOUS
10
5.63309
20
-8.4713
11
5.63309
21
-8.46755
0
LINE
8
BLACK
6
CONTINUOUS
10
5.63309
20
-8.46755
11
5.63684
21
-8.46005
0
LINE
8
BLACK
6
CONTINUOUS
10
5.63684
20
-8.46005
11
5.64059
21
-8.4563
0
LINE
8
BLACK
6
CONTINUOUS
10
5.64059
20
-8.4563
11
5.64809
21
-8.45255
0
LINE
8
BLACK
6
CONTINUOUS
10
5.64809
20
-8.45255
11
5.66309
21
-8.45255
0
LINE
8
BLACK
6
CONTINUOUS
10
5.66309
20
-8.45255
11
5.67058
21
-8.4563
0
LINE
8
BLACK
6
CONTINUOUS
10
5.67058
20
-8.4563
11
5.67433
21
-8.46005
0
LINE
8
BLACK
6
CONTINUOUS
10
5.67433
20
-8.46005
11
5.67808
21
-8.46755
0
LINE
8
BLACK
6
CONTINUOUS
10
5.67808
20
-8.46755
11
5.67808
21
-8.4713
0
LINE
8
BLACK
6
CONTINUOUS
10
5.67808
20
-8.4713
11
5.67433
21
-8.4788
0
LINE
8
BLACK
6
CONTINUOUS
10
5.67433
20
-8.4788
11
5.67058
21
-8.48255
0
LINE
8
BLACK
6
CONTINUOUS
10
5.67058
20
-8.48255
11
5.66309
21
-8.4863
0
LINE
8
BLACK
6
CONTINUOUS
10
5.66309
20
-8.4863
11
5.64809
21
-8.4863
0
LINE
8
BLACK
6
CONTINUOUS
10
5.64809
20
-8.4863
11
5.64059
21
-8.49004
0
LINE
8
BLACK
6
CONTINUOUS
10
5.64059
20
-8.49004
11
5.63684
21
-8.49379
0
LINE
8
BLACK
6
CONTINUOUS
10
5.63684
20
-8.49379
11
5.63309
21
-8.50129
0
LINE
8
BLACK
6
CONTINUOUS
10
5.63309
20
-8.50129
11
5.63309
21
-8.51629
0
LINE
8
BLACK
6
CONTINUOUS
10
5.63309
20
-8.51629
11
5.63684
21
-8.52379
0
LINE
8
BLACK
6
CONTINUOUS
10
5.63684
20
-8.52379
11
5.64059
21
-8.52754
0
LINE
8
BLACK
6
CONTINUOUS
10
5.64059
20
-8.52754
11
5.64809
21
-8.53129
0
LINE
8
BLACK
6
CONTINUOUS
10
5.64809
20
-8.53129
11
5.66309
21
-8.53129
0
LINE
8
BLACK
6
CONTINUOUS
10
5.66309
20
-8.53129
11
5.67058
21
-8.52754
0
LINE
8
BLACK
6
CONTINUOUS
10
5.67058
20
-8.52754
11
5.67433
21
-8.52379
0
LINE
8
BLACK
6
CONTINUOUS
10
5.67433
20
-8.52379
11
5.67808
21
-8.51629
0
LINE
8
BLACK
6
CONTINUOUS
10
5.67808
20
-8.51629
11
5.67808
21
-8.50129
0
LINE
8
BLACK
6
CONTINUOUS
10
5.67808
20
-8.50129
11
5.67433
21
-8.49379
0
LINE
8
BLACK
6
CONTINUOUS
10
5.67433
20
-8.49379
11
5.67058
21
-8.49004
0
LINE
8
BLACK
6
CONTINUOUS
10
5.67058
20
-8.49004
11
5.66309
21
-8.4863
0
LINE
8
BLACK
6
CONTINUOUS
10
5.74558
20
-8.45255
11
5.73058
21
-8.45255
0
LINE
8
BLACK
6
CONTINUOUS
10
5.73058
20
-8.45255
11
5.72308
21
-8.4563
0
LINE
8
BLACK
6
CONTINUOUS
10
5.72308
20
-8.4563
11
5.71933
21
-8.46005
0
LINE
8
BLACK
6
CONTINUOUS
10
5.71933
20
-8.46005
11
5.71183
21
-8.4713
0
LINE
8
BLACK
6
CONTINUOUS
10
5.71183
20
-8.4713
11
5.70808
21
-8.4863
0
LINE
8
BLACK
6
CONTINUOUS
10
5.70808
20
-8.4863
11
5.70808
21
-8.51629
0
LINE
8
BLACK
6
CONTINUOUS
10
5.70808
20
-8.51629
11
5.71183
21
-8.52379
0
LINE
8
BLACK
6
CONTINUOUS
10
5.71183
20
-8.52379
11
5.71558
21
-8.52754
0
LINE
8
BLACK
6
CONTINUOUS
10
5.71558
20
-8.52754
11
5.72308
21
-8.53129
0
LINE
8
BLACK
6
CONTINUOUS
10
5.72308
20
-8.53129
11
5.73808
21
-8.53129
0
LINE
8
BLACK
6
CONTINUOUS
10
5.73808
20
-8.53129
11
5.74558
21
-8.52754
0
LINE
8
BLACK
6
CONTINUOUS
10
5.74558
20
-8.52754
11
5.74933
21
-8.52379
0
LINE
8
BLACK
6
CONTINUOUS
10
5.74933
20
-8.52379
11
5.75307
21
-8.51629
0
LINE
8
BLACK
6
CONTINUOUS
10
5.75307
20
-8.51629
11
5.75307
21
-8.49754
0
LINE
8
BLACK
6
CONTINUOUS
10
5.75307
20
-8.49754
11
5.74933
21
-8.49004
0
LINE
8
BLACK
6
CONTINUOUS
10
5.74933
20
-8.49004
11
5.74558
21
-8.4863
0
LINE
8
BLACK
6
CONTINUOUS
10
5.74558
20
-8.4863
11
5.73808
21
-8.48255
0
LINE
8
BLACK
6
CONTINUOUS
10
5.73808
20
-8.48255
11
5.72308
21
-8.48255
0
LINE
8
BLACK
6
CONTINUOUS
10
5.72308
20
-8.48255
11
5.71558
21
-8.4863
0
LINE
8
BLACK
6
CONTINUOUS
10
5.71558
20
-8.4863
11
5.71183
21
-8.49004
0
LINE
8
BLACK
6
CONTINUOUS
10
5.71183
20
-8.49004
11
5.70808
21
-8.49754
0
LINE
8
BLACK
6
CONTINUOUS
10
5.82057
20
-8.45255
11
5.80557
21
-8.45255
0
LINE
8
BLACK
6
CONTINUOUS
10
5.80557
20
-8.45255
11
5.79807
21
-8.4563
0
LINE
8
BLACK
6
CONTINUOUS
10
5.79807
20
-8.4563
11
5.79432
21
-8.46005
0
LINE
8
BLACK
6
CONTINUOUS
10
5.79432
20
-8.46005
11
5.78682
21
-8.4713
0
LINE
8
BLACK
6
CONTINUOUS
10
5.78682
20
-8.4713
11
5.78307
21
-8.4863
0
LINE
8
BLACK
6
CONTINUOUS
10
5.78307
20
-8.4863
11
5.78307
21
-8.51629
0
LINE
8
BLACK
6
CONTINUOUS
10
5.78307
20
-8.51629
11
5.78682
21
-8.52379
0
LINE
8
BLACK
6
CONTINUOUS
10
5.78682
20
-8.52379
11
5.79057
21
-8.52754
0
LINE
8
BLACK
6
CONTINUOUS
10
5.79057
20
-8.52754
11
5.79807
21
-8.53129
0
LINE
8
BLACK
6
CONTINUOUS
10
5.79807
20
-8.53129
11
5.81307
21
-8.53129
0
LINE
8
BLACK
6
CONTINUOUS
10
5.81307
20
-8.53129
11
5.82057
21
-8.52754
0
LINE
8
BLACK
6
CONTINUOUS
10
5.82057
20
-8.52754
11
5.82432
21
-8.52379
0
LINE
8
BLACK
6
CONTINUOUS
10
5.82432
20
-8.52379
11
5.82807
21
-8.51629
0
LINE
8
BLACK
6
CONTINUOUS
10
5.82807
20
-8.51629
11
5.82807
21
-8.49754
0
LINE
8
BLACK
6
CONTINUOUS
10
5.82807
20
-8.49754
11
5.82432
21
-8.49004
0
LINE
8
BLACK
6
CONTINUOUS
10
5.82432
20
-8.49004
11
5.82057
21
-8.4863
0
LINE
8
BLACK
6
CONTINUOUS
10
5.82057
20
-8.4863
11
5.81307
21
-8.48255
0
LINE
8
BLACK
6
CONTINUOUS
10
5.81307
20
-8.48255
11
5.79807
21
-8.48255
0
LINE
8
BLACK
6
CONTINUOUS
10
5.79807
20
-8.48255
11
5.79057
21
-8.4863
0
LINE
8
BLACK
6
CONTINUOUS
10
5.79057
20
-8.4863
11
5.78682
21
-8.49004
0
LINE
8
BLACK
6
CONTINUOUS
10
5.78682
20
-8.49004
11
5.78307
21
-8.49754
0
LINE
8
BLACK
6
CONTINUOUS
10
5.85806
20
-8.45255
11
5.85806
21
-8.46755
0
LINE
8
BLACK
6
CONTINUOUS
10
5.88806
20
-8.45255
11
5.88806
21
-8.46755
0
LINE
8
BLACK
6
CONTINUOUS
10
6.00429
20
-8.56129
11
6.00054
21
-8.55754
0
LINE
8
BLACK
6
CONTINUOUS
10
6.00054
20
-8.55754
11
5.99304
21
-8.54629
0
LINE
8
BLACK
6
CONTINUOUS
10
5.99304
20
-8.54629
11
5.9893
21
-8.53879
0
LINE
8
BLACK
6
CONTINUOUS
10
5.9893
20
-8.53879
11
5.98555
21
-8.52754
0
LINE
8
BLACK
6
CONTINUOUS
10
5.98555
20
-8.52754
11
5.9818
21
-8.50879
0
LINE
8
BLACK
6
CONTINUOUS
10
5.9818
20
-8.50879
11
5.9818
21
-8.49379
0
LINE
8
BLACK
6
CONTINUOUS
10
5.9818
20
-8.49379
11
5.98555
21
-8.47505
0
LINE
8
BLACK
6
CONTINUOUS
10
5.98555
20
-8.47505
11
5.9893
21
-8.4638
0
LINE
8
BLACK
6
CONTINUOUS
10
5.9893
20
-8.4638
11
5.99304
21
-8.4563
0
LINE
8
BLACK
6
CONTINUOUS
10
5.99304
20
-8.4563
11
6.00054
21
-8.44505
0
LINE
8
BLACK
6
CONTINUOUS
10
6.00054
20
-8.44505
11
6.00429
21
-8.4413
0
LINE
8
BLACK
6
CONTINUOUS
10
6.02679
20
-8.45255
11
6.07928
21
-8.45255
0
LINE
8
BLACK
6
CONTINUOUS
10
6.07928
20
-8.45255
11
6.04554
21
-8.53129
0
LINE
8
BLACK
6
CONTINUOUS
10
6.16927
20
-8.53129
11
6.16927
21
-8.45255
0
LINE
8
BLACK
6
CONTINUOUS
10
6.20302
20
-8.53129
11
6.20302
21
-8.49004
0
LINE
8
BLACK
6
CONTINUOUS
10
6.20302
20
-8.49004
11
6.19927
21
-8.48255
0
LINE
8
BLACK
6
CONTINUOUS
10
6.19927
20
-8.48255
11
6.19177
21
-8.4788
0
LINE
8
BLACK
6
CONTINUOUS
10
6.19177
20
-8.4788
11
6.18052
21
-8.4788
0
LINE
8
BLACK
6
CONTINUOUS
10
6.18052
20
-8.4788
11
6.17302
21
-8.48255
0
LINE
8
BLACK
6
CONTINUOUS
10
6.17302
20
-8.48255
11
6.16927
21
-8.4863
0
LINE
8
BLACK
6
CONTINUOUS
10
6.25176
20
-8.53129
11
6.24426
21
-8.52754
0
LINE
8
BLACK
6
CONTINUOUS
10
6.24426
20
-8.52754
11
6.24051
21
-8.52379
0
LINE
8
BLACK
6
CONTINUOUS
10
6.24051
20
-8.52379
11
6.23676
21
-8.51629
0
LINE
8
BLACK
6
CONTINUOUS
10
6.23676
20
-8.51629
11
6.23676
21
-8.49379
0
LINE
8
BLACK
6
CONTINUOUS
10
6.23676
20
-8.49379
11
6.24051
21
-8.4863
0
LINE
8
BLACK
6
CONTINUOUS
10
6.24051
20
-8.4863
11
6.24426
21
-8.48255
0
LINE
8
BLACK
6
CONTINUOUS
10
6.24426
20
-8.48255
11
6.25176
21
-8.4788
0
LINE
8
BLACK
6
CONTINUOUS
10
6.25176
20
-8.4788
11
6.26301
21
-8.4788
0
LINE
8
BLACK
6
CONTINUOUS
10
6.26301
20
-8.4788
11
6.27051
21
-8.48255
0
LINE
8
BLACK
6
CONTINUOUS
10
6.27051
20
-8.48255
11
6.27426
21
-8.4863
0
LINE
8
BLACK
6
CONTINUOUS
10
6.27426
20
-8.4863
11
6.27801
21
-8.49379
0
LINE
8
BLACK
6
CONTINUOUS
10
6.27801
20
-8.49379
11
6.27801
21
-8.51629
0
LINE
8
BLACK
6
CONTINUOUS
10
6.27801
20
-8.51629
11
6.27426
21
-8.52379
0
LINE
8
BLACK
6
CONTINUOUS
10
6.27426
20
-8.52379
11
6.27051
21
-8.52754
0
LINE
8
BLACK
6
CONTINUOUS
10
6.27051
20
-8.52754
11
6.26301
21
-8.53129
0
LINE
8
BLACK
6
CONTINUOUS
10
6.26301
20
-8.53129
11
6.25176
21
-8.53129
0
LINE
8
BLACK
6
CONTINUOUS
10
6.323
20
-8.53129
11
6.3155
21
-8.52754
0
LINE
8
BLACK
6
CONTINUOUS
10
6.3155
20
-8.52754
11
6.31175
21
-8.52004
0
LINE
8
BLACK
6
CONTINUOUS
10
6.31175
20
-8.52004
11
6.31175
21
-8.45255
0
LINE
8
BLACK
6
CONTINUOUS
10
6.383
20
-8.52754
11
6.3755
21
-8.53129
0
LINE
8
BLACK
6
CONTINUOUS
10
6.3755
20
-8.53129
11
6.3605
21
-8.53129
0
LINE
8
BLACK
6
CONTINUOUS
10
6.3605
20
-8.53129
11
6.353
21
-8.52754
0
LINE
8
BLACK
6
CONTINUOUS
10
6.353
20
-8.52754
11
6.34925
21
-8.52004
0
LINE
8
BLACK
6
CONTINUOUS
10
6.34925
20
-8.52004
11
6.34925
21
-8.49004
0
LINE
8
BLACK
6
CONTINUOUS
10
6.34925
20
-8.49004
11
6.353
21
-8.48255
0
LINE
8
BLACK
6
CONTINUOUS
10
6.353
20
-8.48255
11
6.3605
21
-8.4788
0
LINE
8
BLACK
6
CONTINUOUS
10
6.3605
20
-8.4788
11
6.3755
21
-8.4788
0
LINE
8
BLACK
6
CONTINUOUS
10
6.3755
20
-8.4788
11
6.383
21
-8.48255
0
LINE
8
BLACK
6
CONTINUOUS
10
6.383
20
-8.48255
11
6.38675
21
-8.49004
0
LINE
8
BLACK
6
CONTINUOUS
10
6.38675
20
-8.49004
11
6.38675
21
-8.49754
0
LINE
8
BLACK
6
CONTINUOUS
10
6.38675
20
-8.49754
11
6.34925
21
-8.50504
0
LINE
8
BLACK
6
CONTINUOUS
10
6.41674
20
-8.52754
11
6.42424
21
-8.53129
0
LINE
8
BLACK
6
CONTINUOUS
10
6.42424
20
-8.53129
11
6.43924
21
-8.53129
0
LINE
8
BLACK
6
CONTINUOUS
10
6.43924
20
-8.53129
11
6.44674
21
-8.52754
0
LINE
8
BLACK
6
CONTINUOUS
10
6.44674
20
-8.52754
11
6.45049
21
-8.52004
0
LINE
8
BLACK
6
CONTINUOUS
10
6.45049
20
-8.52004
11
6.45049
21
-8.51629
0
LINE
8
BLACK
6
CONTINUOUS
10
6.45049
20
-8.51629
11
6.44674
21
-8.50879
0
LINE
8
BLACK
6
CONTINUOUS
10
6.44674
20
-8.50879
11
6.43924
21
-8.50504
0
LINE
8
BLACK
6
CONTINUOUS
10
6.43924
20
-8.50504
11
6.42799
21
-8.50504
0
LINE
8
BLACK
6
CONTINUOUS
10
6.42799
20
-8.50504
11
6.42049
21
-8.50129
0
LINE
8
BLACK
6
CONTINUOUS
10
6.42049
20
-8.50129
11
6.41674
21
-8.49379
0
LINE
8
BLACK
6
CONTINUOUS
10
6.41674
20
-8.49379
11
6.41674
21
-8.49004
0
LINE
8
BLACK
6
CONTINUOUS
10
6.41674
20
-8.49004
11
6.42049
21
-8.48255
0
LINE
8
BLACK
6
CONTINUOUS
10
6.42049
20
-8.48255
11
6.42799
21
-8.4788
0
LINE
8
BLACK
6
CONTINUOUS
10
6.42799
20
-8.4788
11
6.43924
21
-8.4788
0
LINE
8
BLACK
6
CONTINUOUS
10
6.43924
20
-8.4788
11
6.44674
21
-8.48255
0
LINE
8
BLACK
6
CONTINUOUS
10
6.47673
20
-8.56129
11
6.48048
21
-8.55754
0
LINE
8
BLACK
6
CONTINUOUS
10
6.48048
20
-8.55754
11
6.48798
21
-8.54629
0
LINE
8
BLACK
6
CONTINUOUS
10
6.48798
20
-8.54629
11
6.49173
21
-8.53879
0
LINE
8
BLACK
6
CONTINUOUS
10
6.49173
20
-8.53879
11
6.49548
21
-8.52754
0
LINE
8
BLACK
6
CONTINUOUS
10
6.49548
20
-8.52754
11
6.49923
21
-8.50879
0
LINE
8
BLACK
6
CONTINUOUS
10
6.49923
20
-8.50879
11
6.49923
21
-8.49379
0
LINE
8
BLACK
6
CONTINUOUS
10
6.49923
20
-8.49379
11
6.49548
21
-8.47505
0
LINE
8
BLACK
6
CONTINUOUS
10
6.49548
20
-8.47505
11
6.49173
21
-8.4638
0
LINE
8
BLACK
6
CONTINUOUS
10
6.49173
20
-8.4638
11
6.48798
21
-8.4563
0
LINE
8
BLACK
6
CONTINUOUS
10
6.48798
20
-8.4563
11
6.48048
21
-8.44505
0
LINE
8
BLACK
6
CONTINUOUS
10
6.48048
20
-8.44505
11
6.47673
21
-8.4413
0
LINE
8
BLACK
6
CONTINUOUS
10
4.51929
20
-8.58228
11
4.59803
21
-8.66102
0
LINE
8
BLACK
6
CONTINUOUS
10
4.59803
20
-8.58228
11
4.51929
21
-8.66102
0
LINE
8
BLACK
6
CONTINUOUS
10
4.55866
20
-8.58228
11
4.55866
21
-8.66102
0
LINE
8
BLACK
6
CONTINUOUS
10
4.51929
20
-8.62165
11
4.59803
21
-8.62165
0
LINE
8
BLACK
6
CONTINUOUS
10
4.69196
20
-8.57853
11
4.7407
21
-8.57853
0
LINE
8
BLACK
6
CONTINUOUS
10
4.7407
20
-8.57853
11
4.71445
21
-8.60853
0
LINE
8
BLACK
6
CONTINUOUS
10
4.71445
20
-8.60853
11
4.7257
21
-8.60853
0
LINE
8
BLACK
6
CONTINUOUS
10
4.7257
20
-8.60853
11
4.7332
21
-8.61228
0
LINE
8
BLACK
6
CONTINUOUS
10
4.7332
20
-8.61228
11
4.73695
21
-8.61603
0
LINE
8
BLACK
6
CONTINUOUS
10
4.73695
20
-8.61603
11
4.7407
21
-8.62353
0
LINE
8
BLACK
6
CONTINUOUS
10
4.7407
20
-8.62353
11
4.7407
21
-8.64228
0
LINE
8
BLACK
6
CONTINUOUS
10
4.7407
20
-8.64228
11
4.73695
21
-8.64977
0
LINE
8
BLACK
6
CONTINUOUS
10
4.73695
20
-8.64977
11
4.7332
21
-8.65352
0
LINE
8
BLACK
6
CONTINUOUS
10
4.7332
20
-8.65352
11
4.7257
21
-8.65727
0
LINE
8
BLACK
6
CONTINUOUS
10
4.7257
20
-8.65727
11
4.70321
21
-8.65727
0
LINE
8
BLACK
6
CONTINUOUS
10
4.70321
20
-8.65727
11
4.69571
21
-8.65352
0
LINE
8
BLACK
6
CONTINUOUS
10
4.69571
20
-8.65352
11
4.69196
21
-8.64977
0
LINE
8
BLACK
6
CONTINUOUS
10
4.77445
20
-8.64977
11
4.7782
21
-8.65352
0
LINE
8
BLACK
6
CONTINUOUS
10
4.7782
20
-8.65352
11
4.77445
21
-8.65727
0
LINE
8
BLACK
6
CONTINUOUS
10
4.77445
20
-8.65727
11
4.7707
21
-8.65352
0
LINE
8
BLACK
6
CONTINUOUS
10
4.7707
20
-8.65352
11
4.77445
21
-8.64977
0
LINE
8
BLACK
6
CONTINUOUS
10
4.77445
20
-8.64977
11
4.77445
21
-8.65727
0
LINE
8
BLACK
6
CONTINUOUS
10
4.80819
20
-8.58603
11
4.81194
21
-8.58228
0
LINE
8
BLACK
6
CONTINUOUS
10
4.81194
20
-8.58228
11
4.81944
21
-8.57853
0
LINE
8
BLACK
6
CONTINUOUS
10
4.81944
20
-8.57853
11
4.83819
21
-8.57853
0
LINE
8
BLACK
6
CONTINUOUS
10
4.83819
20
-8.57853
11
4.84569
21
-8.58228
0
LINE
8
BLACK
6
CONTINUOUS
10
4.84569
20
-8.58228
11
4.84944
21
-8.58603
0
LINE
8
BLACK
6
CONTINUOUS
10
4.84944
20
-8.58603
11
4.85319
21
-8.59353
0
LINE
8
BLACK
6
CONTINUOUS
10
4.85319
20
-8.59353
11
4.85319
21
-8.60103
0
LINE
8
BLACK
6
CONTINUOUS
10
4.85319
20
-8.60103
11
4.84944
21
-8.61228
0
LINE
8
BLACK
6
CONTINUOUS
10
4.84944
20
-8.61228
11
4.80444
21
-8.65727
0
LINE
8
BLACK
6
CONTINUOUS
10
4.80444
20
-8.65727
11
4.85319
21
-8.65727
0
LINE
8
BLACK
6
CONTINUOUS
10
4.90193
20
-8.57853
11
4.90943
21
-8.57853
0
LINE
8
BLACK
6
CONTINUOUS
10
4.90943
20
-8.57853
11
4.91693
21
-8.58228
0
LINE
8
BLACK
6
CONTINUOUS
10
4.91693
20
-8.58228
11
4.92068
21
-8.58603
0
LINE
8
BLACK
6
CONTINUOUS
10
4.92068
20
-8.58603
11
4.92443
21
-8.59353
0
LINE
8
BLACK
6
CONTINUOUS
10
4.92443
20
-8.59353
11
4.92818
21
-8.60853
0
LINE
8
BLACK
6
CONTINUOUS
10
4.92818
20
-8.60853
11
4.92818
21
-8.62728
0
LINE
8
BLACK
6
CONTINUOUS
10
4.92818
20
-8.62728
11
4.92443
21
-8.64228
0
LINE
8
BLACK
6
CONTINUOUS
10
4.92443
20
-8.64228
11
4.92068
21
-8.64977
0
LINE
8
BLACK
6
CONTINUOUS
10
4.92068
20
-8.64977
11
4.91693
21
-8.65352
0
LINE
8
BLACK
6
CONTINUOUS
10
4.91693
20
-8.65352
11
4.90943
21
-8.65727
0
LINE
8
BLACK
6
CONTINUOUS
10
4.90943
20
-8.65727
11
4.90193
21
-8.65727
0
LINE
8
BLACK
6
CONTINUOUS
10
4.90193
20
-8.65727
11
4.89443
21
-8.65352
0
LINE
8
BLACK
6
CONTINUOUS
10
4.89443
20
-8.65352
11
4.89068
21
-8.64977
0
LINE
8
BLACK
6
CONTINUOUS
10
4.89068
20
-8.64977
11
4.88693
21
-8.64228
0
LINE
8
BLACK
6
CONTINUOUS
10
4.88693
20
-8.64228
11
4.88318
21
-8.62728
0
LINE
8
BLACK
6
CONTINUOUS
10
4.88318
20
-8.62728
11
4.88318
21
-8.60853
0
LINE
8
BLACK
6
CONTINUOUS
10
4.88318
20
-8.60853
11
4.88693
21
-8.59353
0
LINE
8
BLACK
6
CONTINUOUS
10
4.88693
20
-8.59353
11
4.89068
21
-8.58603
0
LINE
8
BLACK
6
CONTINUOUS
10
4.89068
20
-8.58603
11
4.89443
21
-8.58228
0
LINE
8
BLACK
6
CONTINUOUS
10
4.89443
20
-8.58228
11
4.90193
21
-8.57853
0
LINE
8
BLACK
6
CONTINUOUS
10
4.97692
20
-8.57853
11
4.98442
21
-8.57853
0
LINE
8
BLACK
6
CONTINUOUS
10
4.98442
20
-8.57853
11
4.99192
21
-8.58228
0
LINE
8
BLACK
6
CONTINUOUS
10
4.99192
20
-8.58228
11
4.99567
21
-8.58603
0
LINE
8
BLACK
6
CONTINUOUS
10
4.99567
20
-8.58603
11
4.99942
21
-8.59353
0
LINE
8
BLACK
6
CONTINUOUS
10
4.99942
20
-8.59353
11
5.00317
21
-8.60853
0
LINE
8
BLACK
6
CONTINUOUS
10
5.00317
20
-8.60853
11
5.00317
21
-8.62728
0
LINE
8
BLACK
6
CONTINUOUS
10
5.00317
20
-8.62728
11
4.99942
21
-8.64228
0
LINE
8
BLACK
6
CONTINUOUS
10
4.99942
20
-8.64228
11
4.99567
21
-8.64977
0
LINE
8
BLACK
6
CONTINUOUS
10
4.99567
20
-8.64977
11
4.99192
21
-8.65352
0
LINE
8
BLACK
6
CONTINUOUS
10
4.99192
20
-8.65352
11
4.98442
21
-8.65727
0
LINE
8
BLACK
6
CONTINUOUS
10
4.98442
20
-8.65727
11
4.97692
21
-8.65727
0
LINE
8
BLACK
6
CONTINUOUS
10
4.97692
20
-8.65727
11
4.96942
21
-8.65352
0
LINE
8
BLACK
6
CONTINUOUS
10
4.96942
20
-8.65352
11
4.96567
21
-8.64977
0
LINE
8
BLACK
6
CONTINUOUS
10
4.96567
20
-8.64977
11
4.96192
21
-8.64228
0
LINE
8
BLACK
6
CONTINUOUS
10
4.96192
20
-8.64228
11
4.95817
21
-8.62728
0
LINE
8
BLACK
6
CONTINUOUS
10
4.95817
20
-8.62728
11
4.95817
21
-8.60853
0
LINE
8
BLACK
6
CONTINUOUS
10
4.95817
20
-8.60853
11
4.96192
21
-8.59353
0
LINE
8
BLACK
6
CONTINUOUS
10
4.96192
20
-8.59353
11
4.96567
21
-8.58603
0
LINE
8
BLACK
6
CONTINUOUS
10
4.96567
20
-8.58603
11
4.96942
21
-8.58228
0
LINE
8
BLACK
6
CONTINUOUS
10
4.96942
20
-8.58228
11
4.97692
21
-8.57853
0
LINE
8
BLACK
6
CONTINUOUS
10
5.03691
20
-8.65727
11
5.03691
21
-8.60478
0
LINE
8
BLACK
6
CONTINUOUS
10
5.03691
20
-8.61228
11
5.04066
21
-8.60853
0
LINE
8
BLACK
6
CONTINUOUS
10
5.04066
20
-8.60853
11
5.04816
21
-8.60478
0
LINE
8
BLACK
6
CONTINUOUS
10
5.04816
20
-8.60478
11
5.05941
21
-8.60478
0
LINE
8
BLACK
6
CONTINUOUS
10
5.05941
20
-8.60478
11
5.06691
21
-8.60853
0
LINE
8
BLACK
6
CONTINUOUS
10
5.06691
20
-8.60853
11
5.07066
21
-8.61603
0
LINE
8
BLACK
6
CONTINUOUS
10
5.07066
20
-8.61603
11
5.07066
21
-8.65727
0
LINE
8
BLACK
6
CONTINUOUS
10
5.07066
20
-8.61603
11
5.07441
21
-8.60853
0
LINE
8
BLACK
6
CONTINUOUS
10
5.07441
20
-8.60853
11
5.08191
21
-8.60478
0
LINE
8
BLACK
6
CONTINUOUS
10
5.08191
20
-8.60478
11
5.09316
21
-8.60478
0
LINE
8
BLACK
6
CONTINUOUS
10
5.09316
20
-8.60478
11
5.10066
21
-8.60853
0
LINE
8
BLACK
6
CONTINUOUS
10
5.10066
20
-8.60853
11
5.10441
21
-8.61603
0
LINE
8
BLACK
6
CONTINUOUS
10
5.10441
20
-8.61603
11
5.10441
21
-8.65727
0
LINE
8
BLACK
6
CONTINUOUS
10
5.1419
20
-8.65727
11
5.1419
21
-8.60478
0
LINE
8
BLACK
6
CONTINUOUS
10
5.1419
20
-8.61228
11
5.14565
21
-8.60853
0
LINE
8
BLACK
6
CONTINUOUS
10
5.14565
20
-8.60853
11
5.15315
21
-8.60478
0
LINE
8
BLACK
6
CONTINUOUS
10
5.15315
20
-8.60478
11
5.1644
21
-8.60478
0
LINE
8
BLACK
6
CONTINUOUS
10
5.1644
20
-8.60478
11
5.1719
21
-8.60853
0
LINE
8
BLACK
6
CONTINUOUS
10
5.1719
20
-8.60853
11
5.17565
21
-8.61603
0
LINE
8
BLACK
6
CONTINUOUS
10
5.17565
20
-8.61603
11
5.17565
21
-8.65727
0
LINE
8
BLACK
6
CONTINUOUS
10
5.17565
20
-8.61603
11
5.1794
21
-8.60853
0
LINE
8
BLACK
6
CONTINUOUS
10
5.1794
20
-8.60853
11
5.1869
21
-8.60478
0
LINE
8
BLACK
6
CONTINUOUS
10
5.1869
20
-8.60478
11
5.19814
21
-8.60478
0
LINE
8
BLACK
6
CONTINUOUS
10
5.19814
20
-8.60478
11
5.20564
21
-8.60853
0
LINE
8
BLACK
6
CONTINUOUS
10
5.20564
20
-8.60853
11
5.20939
21
-8.61603
0
LINE
8
BLACK
6
CONTINUOUS
10
5.20939
20
-8.61603
11
5.20939
21
-8.65727
0
LINE
8
BLACK
6
CONTINUOUS
10
5.36312
20
-8.57478
11
5.29563
21
-8.67602
0
LINE
8
BLACK
6
CONTINUOUS
10
5.46436
20
-8.57853
11
5.47186
21
-8.57853
0
LINE
8
BLACK
6
CONTINUOUS
10
5.47186
20
-8.57853
11
5.47936
21
-8.58228
0
LINE
8
BLACK
6
CONTINUOUS
10
5.47936
20
-8.58228
11
5.48311
21
-8.58603
0
LINE
8
BLACK
6
CONTINUOUS
10
5.48311
20
-8.58603
11
5.48686
21
-8.59353
0
LINE
8
BLACK
6
CONTINUOUS
10
5.48686
20
-8.59353
11
5.49061
21
-8.60853
0
LINE
8
BLACK
6
CONTINUOUS
10
5.49061
20
-8.60853
11
5.49061
21
-8.62728
0
LINE
8
BLACK
6
CONTINUOUS
10
5.49061
20
-8.62728
11
5.48686
21
-8.64228
0
LINE
8
BLACK
6
CONTINUOUS
10
5.48686
20
-8.64228
11
5.48311
21
-8.64977
0
LINE
8
BLACK
6
CONTINUOUS
10
5.48311
20
-8.64977
11
5.47936
21
-8.65352
0
LINE
8
BLACK
6
CONTINUOUS
10
5.47936
20
-8.65352
11
5.47186
21
-8.65727
0
LINE
8
BLACK
6
CONTINUOUS
10
5.47186
20
-8.65727
11
5.46436
21
-8.65727
0
LINE
8
BLACK
6
CONTINUOUS
10
5.46436
20
-8.65727
11
5.45686
21
-8.65352
0
LINE
8
BLACK
6
CONTINUOUS
10
5.45686
20
-8.65352
11
5.45311
21
-8.64977
0
LINE
8
BLACK
6
CONTINUOUS
10
5.45311
20
-8.64977
11
5.44936
21
-8.64228
0
LINE
8
BLACK
6
CONTINUOUS
10
5.44936
20
-8.64228
11
5.44561
21
-8.62728
0
LINE
8
BLACK
6
CONTINUOUS
10
5.44561
20
-8.62728
11
5.44561
21
-8.60853
0
LINE
8
BLACK
6
CONTINUOUS
10
5.44561
20
-8.60853
11
5.44936
21
-8.59353
0
LINE
8
BLACK
6
CONTINUOUS
10
5.44936
20
-8.59353
11
5.45311
21
-8.58603
0
LINE
8
BLACK
6
CONTINUOUS
10
5.45311
20
-8.58603
11
5.45686
21
-8.58228
0
LINE
8
BLACK
6
CONTINUOUS
10
5.45686
20
-8.58228
11
5.46436
21
-8.57853
0
LINE
8
BLACK
6
CONTINUOUS
10
5.52435
20
-8.64977
11
5.5281
21
-8.65352
0
LINE
8
BLACK
6
CONTINUOUS
10
5.5281
20
-8.65352
11
5.52435
21
-8.65727
0
LINE
8
BLACK
6
CONTINUOUS
10
5.52435
20
-8.65727
11
5.5206
21
-8.65352
0
LINE
8
BLACK
6
CONTINUOUS
10
5.5206
20
-8.65352
11
5.52435
21
-8.64977
0
LINE
8
BLACK
6
CONTINUOUS
10
5.52435
20
-8.64977
11
5.52435
21
-8.65727
0
LINE
8
BLACK
6
CONTINUOUS
10
5.60309
20
-8.65727
11
5.5581
21
-8.65727
0
LINE
8
BLACK
6
CONTINUOUS
10
5.5806
20
-8.65727
11
5.5806
21
-8.57853
0
LINE
8
BLACK
6
CONTINUOUS
10
5.5806
20
-8.57853
11
5.5731
21
-8.58978
0
LINE
8
BLACK
6
CONTINUOUS
10
5.5731
20
-8.58978
11
5.5656
21
-8.59728
0
LINE
8
BLACK
6
CONTINUOUS
10
5.5656
20
-8.59728
11
5.5581
21
-8.60103
0
LINE
8
BLACK
6
CONTINUOUS
10
5.63309
20
-8.58603
11
5.63684
21
-8.58228
0
LINE
8
BLACK
6
CONTINUOUS
10
5.63684
20
-8.58228
11
5.64434
21
-8.57853
0
LINE
8
BLACK
6
CONTINUOUS
10
5.64434
20
-8.57853
11
5.66309
21
-8.57853
0
LINE
8
BLACK
6
CONTINUOUS
10
5.66309
20
-8.57853
11
5.67058
21
-8.58228
0
LINE
8
BLACK
6
CONTINUOUS
10
5.67058
20
-8.58228
11
5.67433
21
-8.58603
0
LINE
8
BLACK
6
CONTINUOUS
10
5.67433
20
-8.58603
11
5.67808
21
-8.59353
0
LINE
8
BLACK
6
CONTINUOUS
10
5.67808
20
-8.59353
11
5.67808
21
-8.60103
0
LINE
8
BLACK
6
CONTINUOUS
10
5.67808
20
-8.60103
11
5.67433
21
-8.61228
0
LINE
8
BLACK
6
CONTINUOUS
10
5.67433
20
-8.61228
11
5.62934
21
-8.65727
0
LINE
8
BLACK
6
CONTINUOUS
10
5.62934
20
-8.65727
11
5.67808
21
-8.65727
0
LINE
8
BLACK
6
CONTINUOUS
10
5.74558
20
-8.57853
11
5.73058
21
-8.57853
0
LINE
8
BLACK
6
CONTINUOUS
10
5.73058
20
-8.57853
11
5.72308
21
-8.58228
0
LINE
8
BLACK
6
CONTINUOUS
10
5.72308
20
-8.58228
11
5.71933
21
-8.58603
0
LINE
8
BLACK
6
CONTINUOUS
10
5.71933
20
-8.58603
11
5.71183
21
-8.59728
0
LINE
8
BLACK
6
CONTINUOUS
10
5.71183
20
-8.59728
11
5.70808
21
-8.61228
0
LINE
8
BLACK
6
CONTINUOUS
10
5.70808
20
-8.61228
11
5.70808
21
-8.64228
0
LINE
8
BLACK
6
CONTINUOUS
10
5.70808
20
-8.64228
11
5.71183
21
-8.64977
0
LINE
8
BLACK
6
CONTINUOUS
10
5.71183
20
-8.64977
11
5.71558
21
-8.65352
0
LINE
8
BLACK
6
CONTINUOUS
10
5.71558
20
-8.65352
11
5.72308
21
-8.65727
0
LINE
8
BLACK
6
CONTINUOUS
10
5.72308
20
-8.65727
11
5.73808
21
-8.65727
0
LINE
8
BLACK
6
CONTINUOUS
10
5.73808
20
-8.65727
11
5.74558
21
-8.65352
0
LINE
8
BLACK
6
CONTINUOUS
10
5.74558
20
-8.65352
11
5.74933
21
-8.64977
0
LINE
8
BLACK
6
CONTINUOUS
10
5.74933
20
-8.64977
11
5.75307
21
-8.64228
0
LINE
8
BLACK
6
CONTINUOUS
10
5.75307
20
-8.64228
11
5.75307
21
-8.62353
0
LINE
8
BLACK
6
CONTINUOUS
10
5.75307
20
-8.62353
11
5.74933
21
-8.61603
0
LINE
8
BLACK
6
CONTINUOUS
10
5.74933
20
-8.61603
11
5.74558
21
-8.61228
0
LINE
8
BLACK
6
CONTINUOUS
10
5.74558
20
-8.61228
11
5.73808
21
-8.60853
0
LINE
8
BLACK
6
CONTINUOUS
10
5.73808
20
-8.60853
11
5.72308
21
-8.60853
0
LINE
8
BLACK
6
CONTINUOUS
10
5.72308
20
-8.60853
11
5.71558
21
-8.61228
0
LINE
8
BLACK
6
CONTINUOUS
10
5.71558
20
-8.61228
11
5.71183
21
-8.61603
0
LINE
8
BLACK
6
CONTINUOUS
10
5.71183
20
-8.61603
11
5.70808
21
-8.62353
0
LINE
8
BLACK
6
CONTINUOUS
10
5.80182
20
-8.57853
11
5.80932
21
-8.57853
0
LINE
8
BLACK
6
CONTINUOUS
10
5.80932
20
-8.57853
11
5.81682
21
-8.58228
0
LINE
8
BLACK
6
CONTINUOUS
10
5.81682
20
-8.58228
11
5.82057
21
-8.58603
0
LINE
8
BLACK
6
CONTINUOUS
10
5.82057
20
-8.58603
11
5.82432
21
-8.59353
0
LINE
8
BLACK
6
CONTINUOUS
10
5.82432
20
-8.59353
11
5.82807
21
-8.60853
0
LINE
8
BLACK
6
CONTINUOUS
10
5.82807
20
-8.60853
11
5.82807
21
-8.62728
0
LINE
8
BLACK
6
CONTINUOUS
10
5.82807
20
-8.62728
11
5.82432
21
-8.64228
0
LINE
8
BLACK
6
CONTINUOUS
10
5.82432
20
-8.64228
11
5.82057
21
-8.64977
0
LINE
8
BLACK
6
CONTINUOUS
10
5.82057
20
-8.64977
11
5.81682
21
-8.65352
0
LINE
8
BLACK
6
CONTINUOUS
10
5.81682
20
-8.65352
11
5.80932
21
-8.65727
0
LINE
8
BLACK
6
CONTINUOUS
10
5.80932
20
-8.65727
11
5.80182
21
-8.65727
0
LINE
8
BLACK
6
CONTINUOUS
10
5.80182
20
-8.65727
11
5.79432
21
-8.65352
0
LINE
8
BLACK
6
CONTINUOUS
10
5.79432
20
-8.65352
11
5.79057
21
-8.64977
0
LINE
8
BLACK
6
CONTINUOUS
10
5.79057
20
-8.64977
11
5.78682
21
-8.64228
0
LINE
8
BLACK
6
CONTINUOUS
10
5.78682
20
-8.64228
11
5.78307
21
-8.62728
0
LINE
8
BLACK
6
CONTINUOUS
10
5.78307
20
-8.62728
11
5.78307
21
-8.60853
0
LINE
8
BLACK
6
CONTINUOUS
10
5.78307
20
-8.60853
11
5.78682
21
-8.59353
0
LINE
8
BLACK
6
CONTINUOUS
10
5.78682
20
-8.59353
11
5.79057
21
-8.58603
0
LINE
8
BLACK
6
CONTINUOUS
10
5.79057
20
-8.58603
11
5.79432
21
-8.58228
0
LINE
8
BLACK
6
CONTINUOUS
10
5.79432
20
-8.58228
11
5.80182
21
-8.57853
0
LINE
8
BLACK
6
CONTINUOUS
10
5.85806
20
-8.57853
11
5.85806
21
-8.59353
0
LINE
8
BLACK
6
CONTINUOUS
10
5.88806
20
-8.57853
11
5.88806
21
-8.59353
0
LINE
8
BLACK
6
CONTINUOUS
10
6.00429
20
-8.68727
11
6.00054
21
-8.68352
0
LINE
8
BLACK
6
CONTINUOUS
10
6.00054
20
-8.68352
11
5.99304
21
-8.67227
0
LINE
8
BLACK
6
CONTINUOUS
10
5.99304
20
-8.67227
11
5.9893
21
-8.66477
0
LINE
8
BLACK
6
CONTINUOUS
10
5.9893
20
-8.66477
11
5.98555
21
-8.65352
0
LINE
8
BLACK
6
CONTINUOUS
10
5.98555
20
-8.65352
11
5.9818
21
-8.63478
0
LINE
8
BLACK
6
CONTINUOUS
10
5.9818
20
-8.63478
11
5.9818
21
-8.61978
0
LINE
8
BLACK
6
CONTINUOUS
10
5.9818
20
-8.61978
11
5.98555
21
-8.60103
0
LINE
8
BLACK
6
CONTINUOUS
10
5.98555
20
-8.60103
11
5.9893
21
-8.58978
0
LINE
8
BLACK
6
CONTINUOUS
10
5.9893
20
-8.58978
11
5.99304
21
-8.58228
0
LINE
8
BLACK
6
CONTINUOUS
10
5.99304
20
-8.58228
11
6.00054
21
-8.57103
0
LINE
8
BLACK
6
CONTINUOUS
10
6.00054
20
-8.57103
11
6.00429
21
-8.56729
0
LINE
8
BLACK
6
CONTINUOUS
10
6.03054
20
-8.58603
11
6.03429
21
-8.58228
0
LINE
8
BLACK
6
CONTINUOUS
10
6.03429
20
-8.58228
11
6.04179
21
-8.57853
0
LINE
8
BLACK
6
CONTINUOUS
10
6.04179
20
-8.57853
11
6.06054
21
-8.57853
0
LINE
8
BLACK
6
CONTINUOUS
10
6.06054
20
-8.57853
11
6.06804
21
-8.58228
0
LINE
8
BLACK
6
CONTINUOUS
10
6.06804
20
-8.58228
11
6.07178
21
-8.58603
0
LINE
8
BLACK
6
CONTINUOUS
10
6.07178
20
-8.58603
11
6.07553
21
-8.59353
0
LINE
8
BLACK
6
CONTINUOUS
10
6.07553
20
-8.59353
11
6.07553
21
-8.60103
0
LINE
8
BLACK
6
CONTINUOUS
10
6.07553
20
-8.60103
11
6.07178
21
-8.61228
0
LINE
8
BLACK
6
CONTINUOUS
10
6.07178
20
-8.61228
11
6.02679
21
-8.65727
0
LINE
8
BLACK
6
CONTINUOUS
10
6.02679
20
-8.65727
11
6.07553
21
-8.65727
0
LINE
8
BLACK
6
CONTINUOUS
10
6.16927
20
-8.65727
11
6.16927
21
-8.57853
0
LINE
8
BLACK
6
CONTINUOUS
10
6.20302
20
-8.65727
11
6.20302
21
-8.61603
0
LINE
8
BLACK
6
CONTINUOUS
10
6.20302
20
-8.61603
11
6.19927
21
-8.60853
0
LINE
8
BLACK
6
CONTINUOUS
10
6.19927
20
-8.60853
11
6.19177
21
-8.60478
0
LINE
8
BLACK
6
CONTINUOUS
10
6.19177
20
-8.60478
11
6.18052
21
-8.60478
0
LINE
8
BLACK
6
CONTINUOUS
10
6.18052
20
-8.60478
11
6.17302
21
-8.60853
0
LINE
8
BLACK
6
CONTINUOUS
10
6.17302
20
-8.60853
11
6.16927
21
-8.61228
0
LINE
8
BLACK
6
CONTINUOUS
10
6.25176
20
-8.65727
11
6.24426
21
-8.65352
0
LINE
8
BLACK
6
CONTINUOUS
10
6.24426
20
-8.65352
11
6.24051
21
-8.64977
0
LINE
8
BLACK
6
CONTINUOUS
10
6.24051
20
-8.64977
11
6.23676
21
-8.64228
0
LINE
8
BLACK
6
CONTINUOUS
10
6.23676
20
-8.64228
11
6.23676
21
-8.61978
0
LINE
8
BLACK
6
CONTINUOUS
10
6.23676
20
-8.61978
11
6.24051
21
-8.61228
0
LINE
8
BLACK
6
CONTINUOUS
10
6.24051
20
-8.61228
11
6.24426
21
-8.60853
0
LINE
8
BLACK
6
CONTINUOUS
10
6.24426
20
-8.60853
11
6.25176
21
-8.60478
0
LINE
8
BLACK
6
CONTINUOUS
10
6.25176
20
-8.60478
11
6.26301
21
-8.60478
0
LINE
8
BLACK
6
CONTINUOUS
10
6.26301
20
-8.60478
11
6.27051
21
-8.60853
0
LINE
8
BLACK
6
CONTINUOUS
10
6.27051
20
-8.60853
11
6.27426
21
-8.61228
0
LINE
8
BLACK
6
CONTINUOUS
10
6.27426
20
-8.61228
11
6.27801
21
-8.61978
0
LINE
8
BLACK
6
CONTINUOUS
10
6.27801
20
-8.61978
11
6.27801
21
-8.64228
0
LINE
8
BLACK
6
CONTINUOUS
10
6.27801
20
-8.64228
11
6.27426
21
-8.64977
0
LINE
8
BLACK
6
CONTINUOUS
10
6.27426
20
-8.64977
11
6.27051
21
-8.65352
0
LINE
8
BLACK
6
CONTINUOUS
10
6.27051
20
-8.65352
11
6.26301
21
-8.65727
0
LINE
8
BLACK
6
CONTINUOUS
10
6.26301
20
-8.65727
11
6.25176
21
-8.65727
0
LINE
8
BLACK
6
CONTINUOUS
10
6.323
20
-8.65727
11
6.3155
21
-8.65352
0
LINE
8
BLACK
6
CONTINUOUS
10
6.3155
20
-8.65352
11
6.31175
21
-8.64603
0
LINE
8
BLACK
6
CONTINUOUS
10
6.31175
20
-8.64603
11
6.31175
21
-8.57853
0
LINE
8
BLACK
6
CONTINUOUS
10
6.383
20
-8.65352
11
6.3755
21
-8.65727
0
LINE
8
BLACK
6
CONTINUOUS
10
6.3755
20
-8.65727
11
6.3605
21
-8.65727
0
LINE
8
BLACK
6
CONTINUOUS
10
6.3605
20
-8.65727
11
6.353
21
-8.65352
0
LINE
8
BLACK
6
CONTINUOUS
10
6.353
20
-8.65352
11
6.34925
21
-8.64603
0
LINE
8
BLACK
6
CONTINUOUS
10
6.34925
20
-8.64603
11
6.34925
21
-8.61603
0
LINE
8
BLACK
6
CONTINUOUS
10
6.34925
20
-8.61603
11
6.353
21
-8.60853
0
LINE
8
BLACK
6
CONTINUOUS
10
6.353
20
-8.60853
11
6.3605
21
-8.60478
0
LINE
8
BLACK
6
CONTINUOUS
10
6.3605
20
-8.60478
11
6.3755
21
-8.60478
0
LINE
8
BLACK
6
CONTINUOUS
10
6.3755
20
-8.60478
11
6.383
21
-8.60853
0
LINE
8
BLACK
6
CONTINUOUS
10
6.383
20
-8.60853
11
6.38675
21
-8.61603
0
LINE
8
BLACK
6
CONTINUOUS
10
6.38675
20
-8.61603
11
6.38675
21
-8.62353
0
LINE
8
BLACK
6
CONTINUOUS
10
6.38675
20
-8.62353
11
6.34925
21
-8.63103
0
LINE
8
BLACK
6
CONTINUOUS
10
6.41674
20
-8.65352
11
6.42424
21
-8.65727
0
LINE
8
BLACK
6
CONTINUOUS
10
6.42424
20
-8.65727
11
6.43924
21
-8.65727
0
LINE
8
BLACK
6
CONTINUOUS
10
6.43924
20
-8.65727
11
6.44674
21
-8.65352
0
LINE
8
BLACK
6
CONTINUOUS
10
6.44674
20
-8.65352
11
6.45049
21
-8.64603
0
LINE
8
BLACK
6
CONTINUOUS
10
6.45049
20
-8.64603
11
6.45049
21
-8.64228
0
LINE
8
BLACK
6
CONTINUOUS
10
6.45049
20
-8.64228
11
6.44674
21
-8.63478
0
LINE
8
BLACK
6
CONTINUOUS
10
6.44674
20
-8.63478
11
6.43924
21
-8.63103
0
LINE
8
BLACK
6
CONTINUOUS
10
6.43924
20
-8.63103
11
6.42799
21
-8.63103
0
LINE
8
BLACK
6
CONTINUOUS
10
6.42799
20
-8.63103
11
6.42049
21
-8.62728
0
LINE
8
BLACK
6
CONTINUOUS
10
6.42049
20
-8.62728
11
6.41674
21
-8.61978
0
LINE
8
BLACK
6
CONTINUOUS
10
6.41674
20
-8.61978
11
6.41674
21
-8.61603
0
LINE
8
BLACK
6
CONTINUOUS
10
6.41674
20
-8.61603
11
6.42049
21
-8.60853
0
LINE
8
BLACK
6
CONTINUOUS
10
6.42049
20
-8.60853
11
6.42799
21
-8.60478
0
LINE
8
BLACK
6
CONTINUOUS
10
6.42799
20
-8.60478
11
6.43924
21
-8.60478
0
LINE
8
BLACK
6
CONTINUOUS
10
6.43924
20
-8.60478
11
6.44674
21
-8.60853
0
LINE
8
BLACK
6
CONTINUOUS
10
6.47673
20
-8.68727
11
6.48048
21
-8.68352
0
LINE
8
BLACK
6
CONTINUOUS
10
6.48048
20
-8.68352
11
6.48798
21
-8.67227
0
LINE
8
BLACK
6
CONTINUOUS
10
6.48798
20
-8.67227
11
6.49173
21
-8.66477
0
LINE
8
BLACK
6
CONTINUOUS
10
6.49173
20
-8.66477
11
6.49548
21
-8.65352
0
LINE
8
BLACK
6
CONTINUOUS
10
6.49548
20
-8.65352
11
6.49923
21
-8.63478
0
LINE
8
BLACK
6
CONTINUOUS
10
6.49923
20
-8.63478
11
6.49923
21
-8.61978
0
LINE
8
BLACK
6
CONTINUOUS
10
6.49923
20
-8.61978
11
6.49548
21
-8.60103
0
LINE
8
BLACK
6
CONTINUOUS
10
6.49548
20
-8.60103
11
6.49173
21
-8.58978
0
LINE
8
BLACK
6
CONTINUOUS
10
6.49173
20
-8.58978
11
6.48798
21
-8.58228
0
LINE
8
BLACK
6
CONTINUOUS
10
6.48798
20
-8.58228
11
6.48048
21
-8.57103
0
LINE
8
BLACK
6
CONTINUOUS
10
6.48048
20
-8.57103
11
6.47673
21
-8.56729
  0
ENDSEC
  0
EOF
