M48
; DRILL file {KiCad (6.0.10)} date Thu May  4 16:05:09 2023
; FORMAT={2:4/ absolute / inch / suppress leading zeros}
; #@! TF.CreationDate,2023-05-04T16:05:09+10:00
; #@! TF.GenerationSoftware,Kicad,Pcbnew,(6.0.10)
; #@! TF.FileFunction,Plated,1,2,PTH
FMAT,2
INCH,TZ
; #@! TA.AperFunction,Plated,PTH,ViaDrill
T1C0.0157
; #@! TA.AperFunction,Plated,PTH,ComponentDrill
T2C0.0236
; #@! TA.AperFunction,Plated,PTH,ComponentDrill
T3C0.0315
; #@! TA.AperFunction,Plated,PTH,ComponentDrill
T4C0.0433
; #@! TA.AperFunction,Plated,PTH,ComponentDrill
T5C0.0787
; #@! TA.AperFunction,Plated,PTH,ComponentDrill
T6C0.0866
; #@! TA.AperFunction,Plated,PTH,ComponentDrill
T7C0.1260
%
G90
G05
T1
X54874Y-68500
X54874Y-69000
X55274Y-68500
X55274Y-69000
X55674Y-68500
X55674Y-69000
X56074Y-68500
X56074Y-69000
X56474Y-68500
X56474Y-69000
X56600Y-67700
X56600Y-69700
X58900Y-32600
X58900Y-37800
X59600Y-32600
X59600Y-37800
X60300Y-32600
X60300Y-37800
X60900Y-32600
X60900Y-37800
X61800Y-14300
X61800Y-15000
X61800Y-15700
X61800Y-16300
X61800Y-17000
X62500Y-14300
X62500Y-15000
X62500Y-15700
X62500Y-16300
X62500Y-17000
X63200Y-14300
X63200Y-15000
X63200Y-15700
X63200Y-16300
X63200Y-17000
T2
X56713Y-59300
X56713Y-61800
X57500Y-59300
X57500Y-61800
T3
X52288Y-56400
X53272Y-56400
X56073Y-56300
X56122Y-64700
X57451Y-56300
X57500Y-64700
T4
X60900Y-34200
X60900Y-35200
X60900Y-36200
T5
X50400Y-12800
X58400Y-12800
T6
X47028Y-17100
X50012Y-17091
X60844Y-57863
X60844Y-59463
X60844Y-61063
X60844Y-62663
X60844Y-64263
T7
X60700Y-27000
X60700Y-43500
T0
M30
