%TF.GenerationSoftware,KiCad,Pcbnew,(6.0.10)*%
%TF.CreationDate,2023-05-04T16:05:14+10:00*%
%TF.ProjectId,LinearSaturn,4c696e65-6172-4536-9174-75726e2e6b69,rev?*%
%TF.SameCoordinates,Original*%
%TF.FileFunction,Copper,L2,Bot*%
%TF.FilePolarity,Positive*%
%FSLAX46Y46*%
G04 Gerber Fmt 4.6, Leading zero omitted, Abs format (unit mm)*
G04 Created by KiCad (PCBNEW (6.0.10)) date 2023-05-04 16:05:14*
%MOMM*%
%LPD*%
G01*
G04 APERTURE LIST*
%TA.AperFunction,ComponentPad*%
%ADD10R,1.600000X1.600000*%
%TD*%
%TA.AperFunction,ComponentPad*%
%ADD11C,1.600000*%
%TD*%
%TA.AperFunction,ComponentPad*%
%ADD12C,3.600000*%
%TD*%
%TA.AperFunction,ComponentPad*%
%ADD13O,2.000000X1.905000*%
%TD*%
%TA.AperFunction,ComponentPad*%
%ADD14C,2.600000*%
%TD*%
%TA.AperFunction,ComponentPad*%
%ADD15R,2.000000X1.905000*%
%TD*%
%TA.AperFunction,ComponentPad*%
%ADD16C,1.200000*%
%TD*%
%TA.AperFunction,ComponentPad*%
%ADD17C,4.000000*%
%TD*%
%TA.AperFunction,ComponentPad*%
%ADD18O,4.000000X4.000000*%
%TD*%
%TA.AperFunction,ViaPad*%
%ADD19C,0.800000*%
%TD*%
%TA.AperFunction,Conductor*%
%ADD20C,1.000000*%
%TD*%
%TA.AperFunction,Conductor*%
%ADD21C,2.000000*%
%TD*%
%TA.AperFunction,Conductor*%
%ADD22C,0.250000*%
%TD*%
%TA.AperFunction,Conductor*%
%ADD23C,1.250000*%
%TD*%
G04 APERTURE END LIST*
D10*
%TO.P,25v 220uF,1*%
%TO.N,3.3v*%
X146050000Y-164338000D03*
D11*
%TO.P,25v 220uF,GND*%
%TO.N,GND*%
X142550000Y-164338000D03*
%TD*%
D12*
%TO.P,,*%
%TO.N,*%
X154178000Y-68580000D03*
%TD*%
D13*
%TO.P,,3*%
%TO.N,N/C*%
X154686000Y-91948000D03*
%TD*%
D12*
%TO.P,,*%
%TO.N,*%
X154178000Y-110490000D03*
%TD*%
D14*
%TO.P,,*%
%TO.N,*%
X154544000Y-146972000D03*
%TD*%
D15*
%TO.P,,1*%
%TO.N,5v*%
X154686000Y-89408000D03*
%TD*%
D16*
%TO.P,50v 0.1uF,*%
%TO.N,GND*%
X144050000Y-150622000D03*
%TO.P,50v 0.1uF,1*%
%TO.N,5v*%
X146050000Y-150622000D03*
%TD*%
D14*
%TO.P,,*%
%TO.N,GND*%
X154544000Y-159164000D03*
%TD*%
D11*
%TO.P,35v 100uF,*%
%TO.N,GND*%
X132810379Y-143256000D03*
D10*
%TO.P,35v 100uF,1*%
%TO.N,N/C*%
X135310379Y-143256000D03*
%TD*%
D14*
%TO.P,,*%
%TO.N,5v*%
X154544000Y-151036000D03*
%TD*%
%TO.P,,*%
%TO.N,GND*%
X154544000Y-163228000D03*
%TD*%
D11*
%TO.P,25v 220uF,*%
%TO.N,GND*%
X142424651Y-143002000D03*
D10*
%TO.P,25v 220uF,5v*%
%TO.N,5v*%
X145924651Y-143002000D03*
%TD*%
D16*
%TO.P,50v 0.1uF,*%
%TO.N,GND*%
X144050000Y-156972000D03*
%TO.P,50v 0.1uF,1*%
%TO.N,3.3v*%
X146050000Y-156972000D03*
%TD*%
D14*
%TO.P,,*%
%TO.N,3.3v*%
X154544000Y-155100000D03*
%TD*%
%TO.P,,1*%
%TO.N,N/C*%
X119452000Y-43434000D03*
%TD*%
D13*
%TO.P,,GND*%
%TO.N,GND*%
X154686000Y-86868000D03*
%TD*%
D17*
%TO.P,1N5822,1*%
%TO.N,N/C*%
X128016000Y-32512000D03*
D18*
%TO.P,1N5822,2*%
X148336000Y-32512000D03*
%TD*%
D14*
%TO.P,,1*%
%TO.N,N/C*%
X127030000Y-43410000D03*
%TD*%
D19*
%TO.N,*%
X143764000Y-171958000D03*
%TO.N,GND*%
X158750000Y-41402000D03*
X160528000Y-43180000D03*
X140395000Y-175260000D03*
X156972000Y-43180000D03*
X154686000Y-96012000D03*
X160528000Y-41402000D03*
X156972000Y-36322000D03*
X151384000Y-96012000D03*
X158750000Y-43180000D03*
X141411000Y-175260000D03*
X139379000Y-175260000D03*
X140395000Y-173990000D03*
X142427000Y-175260000D03*
X143443000Y-173990000D03*
X142427000Y-173990000D03*
X160528000Y-36322000D03*
X156972000Y-39878000D03*
X149606000Y-82804000D03*
X158750000Y-36322000D03*
X160528000Y-38100000D03*
X141411000Y-173990000D03*
X139379000Y-173990000D03*
X156972000Y-38100000D03*
X153162000Y-96012000D03*
X156972000Y-41402000D03*
X154686000Y-82804000D03*
X153162000Y-82804000D03*
X160528000Y-39878000D03*
X143443000Y-175260000D03*
X158750000Y-38100000D03*
X149606000Y-96012000D03*
X158750000Y-39878000D03*
X151384000Y-82804000D03*
%TO.N,3.3v*%
X143764000Y-177038000D03*
%TD*%
D20*
%TO.N,*%
X135310379Y-143223447D02*
X135310379Y-143256000D01*
D21*
X132274466Y-138116466D02*
X133845913Y-139687913D01*
D20*
X135310379Y-143256000D02*
X136358932Y-143256000D01*
D21*
X127030000Y-43410000D02*
X127030000Y-36550000D01*
D22*
X135128000Y-143256000D02*
X135310379Y-143256000D01*
D21*
X127030000Y-36550000D02*
X128016000Y-35564000D01*
X120916466Y-49796466D02*
X129345534Y-58225534D01*
X119452000Y-43434000D02*
X119452000Y-46260932D01*
X143450466Y-95563534D02*
X145601534Y-93412466D01*
D22*
X138430000Y-143256000D02*
X140521534Y-141164466D01*
D21*
X130810000Y-61761068D02*
X130810000Y-134580932D01*
X149137068Y-91948000D02*
X154686000Y-91948000D01*
X135310379Y-143256000D02*
X135310379Y-159362243D01*
X138239311Y-166433311D02*
X143764000Y-171958000D01*
X128016000Y-32512000D02*
X128016000Y-35564000D01*
X139894466Y-141791534D02*
X140521534Y-141164466D01*
X141986000Y-137628932D02*
X141986000Y-99099068D01*
X145601550Y-93412482D02*
G75*
G02*
X149137068Y-91948000I3535550J-3535518D01*
G01*
X141986022Y-137628932D02*
G75*
G02*
X140521533Y-141164465I-5000022J32D01*
G01*
X141985978Y-99099068D02*
G75*
G02*
X143450467Y-95563535I5000022J-32D01*
G01*
X135310352Y-143223447D02*
G75*
G03*
X133845913Y-139687913I-4999952J47D01*
G01*
X139894450Y-141791518D02*
G75*
G02*
X136358932Y-143256000I-3535550J3535518D01*
G01*
X135310355Y-159362243D02*
G75*
G03*
X138239311Y-166433311I10000045J43D01*
G01*
X130809978Y-134580932D02*
G75*
G03*
X132274467Y-138116465I5000022J32D01*
G01*
X119451978Y-46260932D02*
G75*
G03*
X120916467Y-49796465I5000022J32D01*
G01*
X130810022Y-61761068D02*
G75*
G03*
X129345533Y-58225535I-5000022J-32D01*
G01*
D20*
%TO.N,GND*%
X132810379Y-143256000D02*
X132810379Y-143009447D01*
D23*
%TO.N,3.3v*%
X154544000Y-155100000D02*
X147922000Y-155100000D01*
X143764000Y-177038000D02*
X146050000Y-174752000D01*
X147922000Y-155100000D02*
X146050000Y-156972000D01*
X146050000Y-156972000D02*
X146050000Y-164338000D01*
X146050000Y-174752000D02*
X146050000Y-165437511D01*
%TO.N,5v*%
X144272000Y-144654651D02*
X145924651Y-143002000D01*
X146478564Y-151036000D02*
X144272000Y-148829436D01*
X154544000Y-151036000D02*
X146478564Y-151036000D01*
X144272000Y-148844000D02*
X144272000Y-144654651D01*
D22*
X145780000Y-150622000D02*
X145542000Y-150622000D01*
D23*
X144272000Y-148829436D02*
X144272000Y-144654651D01*
D21*
X149019864Y-143002000D02*
X146558000Y-143002000D01*
X159004000Y-93765068D02*
X159004000Y-135088932D01*
D23*
X151732000Y-151036000D02*
X146464000Y-151036000D01*
D21*
X157539534Y-138624466D02*
X156090932Y-140073068D01*
D23*
X154544000Y-151036000D02*
X151732000Y-151036000D01*
X146050000Y-150622000D02*
X144272000Y-148844000D01*
D20*
X156718000Y-89408000D02*
X157539534Y-90229534D01*
D21*
X154686000Y-89408000D02*
X156718000Y-89408000D01*
X157539518Y-138624450D02*
G75*
G03*
X159004000Y-135088932I-3535518J3535550D01*
G01*
X157539518Y-90229550D02*
G75*
G02*
X159004000Y-93765068I-3535518J-3535550D01*
G01*
X149019864Y-143001974D02*
G75*
G03*
X156090931Y-140073067I36J9999974D01*
G01*
%TD*%
%TA.AperFunction,Conductor*%
%TO.N,GND*%
G36*
X161993621Y-28928502D02*
G01*
X162040114Y-28982158D01*
X162051500Y-29034500D01*
X162051500Y-179959500D01*
X162031498Y-180027621D01*
X161977842Y-180074114D01*
X161925500Y-180085500D01*
X152539800Y-180085500D01*
X152503699Y-180080217D01*
X152484539Y-180074487D01*
X152484536Y-180074487D01*
X152475934Y-180071914D01*
X152466958Y-180071859D01*
X152466957Y-180071859D01*
X152405644Y-180071485D01*
X152330279Y-180071024D01*
X152190229Y-180111051D01*
X152067042Y-180188776D01*
X151970622Y-180297951D01*
X151908719Y-180429800D01*
X151907339Y-180438664D01*
X151907338Y-180438667D01*
X151899623Y-180488221D01*
X151895840Y-180504939D01*
X151891914Y-180518066D01*
X151891859Y-180527040D01*
X151891859Y-180527041D01*
X151891797Y-180537295D01*
X151891729Y-180538913D01*
X151891500Y-180540386D01*
X151891500Y-180585377D01*
X151891498Y-180586147D01*
X151891024Y-180663721D01*
X151891408Y-180665065D01*
X151891500Y-180666410D01*
X151891500Y-194945500D01*
X151871498Y-195013621D01*
X151817842Y-195060114D01*
X151765500Y-195071500D01*
X117474500Y-195071500D01*
X117406379Y-195051498D01*
X117359886Y-194997842D01*
X117348500Y-194945500D01*
X117348500Y-189706000D01*
X124232540Y-189706000D01*
X124252359Y-190021020D01*
X124311505Y-190331072D01*
X124409044Y-190631266D01*
X124410731Y-190634852D01*
X124410733Y-190634856D01*
X124541750Y-190913283D01*
X124541754Y-190913290D01*
X124543438Y-190916869D01*
X124712568Y-191183375D01*
X124913767Y-191426582D01*
X125143860Y-191642654D01*
X125399221Y-191828184D01*
X125675821Y-191980247D01*
X125679490Y-191981700D01*
X125679495Y-191981702D01*
X125965628Y-192094990D01*
X125969298Y-192096443D01*
X126275025Y-192174940D01*
X126588179Y-192214500D01*
X126903821Y-192214500D01*
X127216975Y-192174940D01*
X127522702Y-192096443D01*
X127526372Y-192094990D01*
X127812505Y-191981702D01*
X127812510Y-191981700D01*
X127816179Y-191980247D01*
X128092779Y-191828184D01*
X128348140Y-191642654D01*
X128578233Y-191426582D01*
X128779432Y-191183375D01*
X128948562Y-190916869D01*
X128950246Y-190913290D01*
X128950250Y-190913283D01*
X129081267Y-190634856D01*
X129081269Y-190634852D01*
X129082956Y-190631266D01*
X129180495Y-190331072D01*
X129239641Y-190021020D01*
X129259460Y-189706000D01*
X129239641Y-189390980D01*
X129180495Y-189080928D01*
X129082956Y-188780734D01*
X129076667Y-188767369D01*
X128950250Y-188498717D01*
X128950246Y-188498710D01*
X128948562Y-188495131D01*
X128779432Y-188228625D01*
X128578233Y-187985418D01*
X128348140Y-187769346D01*
X128092779Y-187583816D01*
X127816179Y-187431753D01*
X127812510Y-187430300D01*
X127812505Y-187430298D01*
X127526372Y-187317010D01*
X127526371Y-187317010D01*
X127522702Y-187315557D01*
X127216975Y-187237060D01*
X126903821Y-187197500D01*
X126588179Y-187197500D01*
X126275025Y-187237060D01*
X125969298Y-187315557D01*
X125965629Y-187317010D01*
X125965628Y-187317010D01*
X125679495Y-187430298D01*
X125679490Y-187430300D01*
X125675821Y-187431753D01*
X125399221Y-187583816D01*
X125143860Y-187769346D01*
X124913767Y-187985418D01*
X124712568Y-188228625D01*
X124543438Y-188495131D01*
X124541754Y-188498710D01*
X124541750Y-188498717D01*
X124415333Y-188767369D01*
X124409044Y-188780734D01*
X124311505Y-189080928D01*
X124252359Y-189390980D01*
X124234833Y-189669559D01*
X124232540Y-189706000D01*
X117348500Y-189706000D01*
X117348500Y-143261475D01*
X131497862Y-143261475D01*
X131516851Y-143478519D01*
X131518754Y-143489312D01*
X131575143Y-143699761D01*
X131578889Y-143710053D01*
X131670965Y-143907511D01*
X131676448Y-143917006D01*
X131712888Y-143969048D01*
X131723367Y-143977424D01*
X131736813Y-143970356D01*
X132438357Y-143268812D01*
X132445971Y-143254868D01*
X132445840Y-143253035D01*
X132441589Y-143246420D01*
X131736092Y-142540923D01*
X131724317Y-142534493D01*
X131712302Y-142543789D01*
X131676448Y-142594994D01*
X131670965Y-142604489D01*
X131578889Y-142801947D01*
X131575143Y-142812239D01*
X131518754Y-143022688D01*
X131516851Y-143033481D01*
X131497862Y-143250525D01*
X131497862Y-143261475D01*
X117348500Y-143261475D01*
X117348500Y-86214500D01*
X117368502Y-86146379D01*
X117422158Y-86099886D01*
X117474500Y-86088500D01*
X121831377Y-86088500D01*
X121832148Y-86088502D01*
X121909721Y-86088976D01*
X121938152Y-86080850D01*
X121954915Y-86077272D01*
X121984187Y-86073080D01*
X122007564Y-86062451D01*
X122025087Y-86056004D01*
X122049771Y-86048949D01*
X122057365Y-86044157D01*
X122057368Y-86044156D01*
X122074780Y-86033170D01*
X122089865Y-86025030D01*
X122116782Y-86012792D01*
X122136235Y-85996030D01*
X122151239Y-85984927D01*
X122172958Y-85971224D01*
X122178897Y-85964499D01*
X122178901Y-85964496D01*
X122192532Y-85949062D01*
X122204724Y-85937018D01*
X122220327Y-85923573D01*
X122220329Y-85923570D01*
X122227127Y-85917713D01*
X122239161Y-85899148D01*
X122241094Y-85896165D01*
X122252385Y-85881291D01*
X122263431Y-85868783D01*
X122263432Y-85868782D01*
X122269378Y-85862049D01*
X122281943Y-85835287D01*
X122290263Y-85820309D01*
X122301471Y-85803017D01*
X122301473Y-85803012D01*
X122306352Y-85795485D01*
X122308922Y-85786892D01*
X122308924Y-85786887D01*
X122313711Y-85770880D01*
X122320372Y-85753436D01*
X122327467Y-85738324D01*
X122327468Y-85738322D01*
X122331281Y-85730200D01*
X122335830Y-85700983D01*
X122339613Y-85684268D01*
X122345515Y-85664534D01*
X122345516Y-85664528D01*
X122348086Y-85655934D01*
X122348296Y-85621494D01*
X122348329Y-85620711D01*
X122348500Y-85619614D01*
X122348500Y-85588623D01*
X122348502Y-85587853D01*
X122348952Y-85514215D01*
X122348952Y-85514214D01*
X122348976Y-85510279D01*
X122348592Y-85508935D01*
X122348500Y-85507590D01*
X122348500Y-78588623D01*
X122348502Y-78587853D01*
X122348921Y-78519254D01*
X122348976Y-78510279D01*
X122340850Y-78481847D01*
X122337272Y-78465085D01*
X122334352Y-78444698D01*
X122333080Y-78435813D01*
X122322451Y-78412436D01*
X122316004Y-78394913D01*
X122311416Y-78378862D01*
X122308949Y-78370229D01*
X122304156Y-78362632D01*
X122293170Y-78345220D01*
X122285030Y-78330135D01*
X122272792Y-78303218D01*
X122256030Y-78283765D01*
X122244927Y-78268761D01*
X122231224Y-78247042D01*
X122224499Y-78241103D01*
X122224496Y-78241099D01*
X122209062Y-78227468D01*
X122197018Y-78215276D01*
X122183573Y-78199673D01*
X122183570Y-78199671D01*
X122177713Y-78192873D01*
X122156165Y-78178906D01*
X122141291Y-78167615D01*
X122128783Y-78156569D01*
X122128782Y-78156568D01*
X122122049Y-78150622D01*
X122095287Y-78138057D01*
X122080309Y-78129737D01*
X122063017Y-78118529D01*
X122063012Y-78118527D01*
X122055485Y-78113648D01*
X122046892Y-78111078D01*
X122046887Y-78111076D01*
X122030880Y-78106289D01*
X122013436Y-78099628D01*
X121998324Y-78092533D01*
X121998322Y-78092532D01*
X121990200Y-78088719D01*
X121981333Y-78087338D01*
X121981332Y-78087338D01*
X121971690Y-78085837D01*
X121960983Y-78084170D01*
X121944268Y-78080387D01*
X121924534Y-78074485D01*
X121924528Y-78074484D01*
X121915934Y-78071914D01*
X121906963Y-78071859D01*
X121906962Y-78071859D01*
X121896903Y-78071798D01*
X121881494Y-78071704D01*
X121880711Y-78071671D01*
X121879614Y-78071500D01*
X121848623Y-78071500D01*
X121847853Y-78071498D01*
X121774215Y-78071048D01*
X121774214Y-78071048D01*
X121770279Y-78071024D01*
X121768935Y-78071408D01*
X121767590Y-78071500D01*
X117474500Y-78071500D01*
X117406379Y-78051498D01*
X117359886Y-77997842D01*
X117348500Y-77945500D01*
X117348500Y-43386526D01*
X117639050Y-43386526D01*
X117639274Y-43391192D01*
X117639274Y-43391197D01*
X117640329Y-43413160D01*
X117651947Y-43655019D01*
X117704388Y-43918656D01*
X117795220Y-44171646D01*
X117797432Y-44175762D01*
X117797433Y-44175765D01*
X117920241Y-44404321D01*
X117920245Y-44404327D01*
X117922450Y-44408431D01*
X117923932Y-44410415D01*
X117943500Y-44477555D01*
X117943500Y-46196708D01*
X117943112Y-46206593D01*
X117938835Y-46260942D01*
X117939224Y-46265880D01*
X117939525Y-46269706D01*
X117939834Y-46275099D01*
X117955924Y-46725549D01*
X118005623Y-47187789D01*
X118020177Y-47268453D01*
X118080478Y-47602665D01*
X118088171Y-47645305D01*
X118203147Y-48095767D01*
X118203853Y-48097888D01*
X118203855Y-48097895D01*
X118329674Y-48475911D01*
X118349966Y-48536879D01*
X118527880Y-48966394D01*
X118735981Y-49382121D01*
X118737122Y-49384044D01*
X118737128Y-49384055D01*
X118933731Y-49715409D01*
X118973209Y-49781944D01*
X118974491Y-49783790D01*
X118974492Y-49783792D01*
X119237064Y-50161964D01*
X119237072Y-50161974D01*
X119238356Y-50163824D01*
X119530071Y-50525816D01*
X119836863Y-50855331D01*
X119840416Y-50859315D01*
X119846502Y-50866440D01*
X119850257Y-50869647D01*
X119887954Y-50901843D01*
X119895219Y-50908560D01*
X128233453Y-59246795D01*
X128240168Y-59254058D01*
X128275570Y-59295508D01*
X128297282Y-59314052D01*
X128308801Y-59325237D01*
X128504815Y-59541503D01*
X128512660Y-59551061D01*
X128709404Y-59816337D01*
X128716265Y-59826606D01*
X128886063Y-60109893D01*
X128891883Y-60120783D01*
X129033094Y-60419346D01*
X129037822Y-60430759D01*
X129149085Y-60741714D01*
X129152675Y-60753547D01*
X129232926Y-61073917D01*
X129235337Y-61086039D01*
X129266550Y-61296451D01*
X129283799Y-61412728D01*
X129285011Y-61425034D01*
X129299325Y-61716368D01*
X129299089Y-61732430D01*
X129296835Y-61761078D01*
X129297224Y-61766017D01*
X129301111Y-61815403D01*
X129301500Y-61825290D01*
X129301500Y-134516708D01*
X129301112Y-134526593D01*
X129296835Y-134580942D01*
X129297224Y-134585880D01*
X129297525Y-134589706D01*
X129297834Y-134595099D01*
X129313924Y-135045549D01*
X129314165Y-135047789D01*
X129314165Y-135047791D01*
X129319118Y-135093853D01*
X129363623Y-135507789D01*
X129372284Y-135555790D01*
X129438478Y-135922665D01*
X129446171Y-135965305D01*
X129561147Y-136415767D01*
X129561853Y-136417888D01*
X129561855Y-136417895D01*
X129687674Y-136795911D01*
X129707966Y-136856879D01*
X129885880Y-137286394D01*
X129886883Y-137288399D01*
X129886885Y-137288402D01*
X129988353Y-137491106D01*
X130093981Y-137702121D01*
X130095122Y-137704044D01*
X130095128Y-137704055D01*
X130149915Y-137796392D01*
X130331209Y-138101944D01*
X130332491Y-138103790D01*
X130332492Y-138103792D01*
X130595064Y-138481964D01*
X130595072Y-138481974D01*
X130596356Y-138483824D01*
X130888071Y-138845816D01*
X131194863Y-139175331D01*
X131198416Y-139179315D01*
X131204502Y-139186440D01*
X131208257Y-139189647D01*
X131245954Y-139221843D01*
X131253219Y-139228560D01*
X132733820Y-140709161D01*
X132740537Y-140716426D01*
X132775940Y-140757878D01*
X132779696Y-140761086D01*
X132797651Y-140776421D01*
X132809180Y-140787616D01*
X132964190Y-140958643D01*
X133005181Y-141003870D01*
X133013023Y-141013425D01*
X133209761Y-141278699D01*
X133216628Y-141288978D01*
X133381922Y-141564756D01*
X133386412Y-141572248D01*
X133392239Y-141583149D01*
X133524401Y-141862586D01*
X133533443Y-141881703D01*
X133538175Y-141893128D01*
X133547725Y-141919820D01*
X133551840Y-141990697D01*
X133516983Y-142052548D01*
X133454220Y-142085734D01*
X133383479Y-142079721D01*
X133375840Y-142076461D01*
X133264432Y-142024510D01*
X133254140Y-142020764D01*
X133043691Y-141964375D01*
X133032898Y-141962472D01*
X132815854Y-141943483D01*
X132804904Y-141943483D01*
X132587860Y-141962472D01*
X132577067Y-141964375D01*
X132366618Y-142020764D01*
X132356326Y-142024510D01*
X132158868Y-142116586D01*
X132149373Y-142122069D01*
X132097331Y-142158509D01*
X132088955Y-142168988D01*
X132096023Y-142182434D01*
X133080494Y-143166905D01*
X133114520Y-143229217D01*
X133109455Y-143300032D01*
X133080494Y-143345095D01*
X132095302Y-144330287D01*
X132088872Y-144342062D01*
X132098168Y-144354077D01*
X132149373Y-144389931D01*
X132158868Y-144395414D01*
X132356326Y-144487490D01*
X132366618Y-144491236D01*
X132577067Y-144547625D01*
X132587860Y-144549528D01*
X132804904Y-144568517D01*
X132815854Y-144568517D01*
X133032898Y-144549528D01*
X133043691Y-144547625D01*
X133254140Y-144491236D01*
X133264432Y-144487490D01*
X133461890Y-144395414D01*
X133471386Y-144389931D01*
X133603608Y-144297348D01*
X133670882Y-144274660D01*
X133739743Y-144291945D01*
X133788327Y-144343715D01*
X133801879Y-144400561D01*
X133801879Y-159298018D01*
X133801491Y-159307904D01*
X133797214Y-159362250D01*
X133797388Y-159364461D01*
X133797497Y-159368347D01*
X133805483Y-159652917D01*
X133815441Y-160007790D01*
X133869723Y-160651300D01*
X133960001Y-161290754D01*
X134085992Y-161924139D01*
X134086428Y-161925829D01*
X134086430Y-161925838D01*
X134243042Y-162532964D01*
X134247298Y-162549464D01*
X134443413Y-163164761D01*
X134673719Y-163768094D01*
X134674431Y-163769685D01*
X134674433Y-163769690D01*
X134933024Y-164347580D01*
X134937492Y-164357564D01*
X134938295Y-164359119D01*
X134938304Y-164359137D01*
X135091248Y-164655186D01*
X135233902Y-164931317D01*
X135234794Y-164932829D01*
X135234795Y-164932831D01*
X135505590Y-165391891D01*
X135562016Y-165487547D01*
X135562991Y-165489006D01*
X135562994Y-165489011D01*
X135919817Y-166023032D01*
X135920802Y-166024506D01*
X136309130Y-166540502D01*
X136725780Y-167033912D01*
X137167579Y-167501216D01*
X137169343Y-167503282D01*
X137173105Y-167506495D01*
X137173109Y-167506499D01*
X137210802Y-167538691D01*
X137218067Y-167545408D01*
X142740464Y-173067805D01*
X142742374Y-173069431D01*
X142742381Y-173069437D01*
X142841538Y-173153826D01*
X142878720Y-173185470D01*
X143086358Y-173311221D01*
X143311429Y-173402155D01*
X143316360Y-173403275D01*
X143316359Y-173403275D01*
X143543213Y-173454815D01*
X143543216Y-173454816D01*
X143548144Y-173455935D01*
X143553191Y-173456253D01*
X143553194Y-173456253D01*
X143785358Y-173470860D01*
X143790412Y-173471178D01*
X143977745Y-173452809D01*
X144026975Y-173447982D01*
X144026976Y-173447982D01*
X144032002Y-173447489D01*
X144266696Y-173385481D01*
X144488456Y-173286746D01*
X144691578Y-173153826D01*
X144695312Y-173150417D01*
X144695319Y-173150411D01*
X144705539Y-173141079D01*
X144769331Y-173109916D01*
X144839844Y-173118189D01*
X144894690Y-173163270D01*
X144916500Y-173234125D01*
X144916500Y-174230299D01*
X144896498Y-174298420D01*
X144879595Y-174319394D01*
X142924282Y-176274707D01*
X142922385Y-176277005D01*
X142922377Y-176277013D01*
X142864567Y-176347018D01*
X142821124Y-176399625D01*
X142717421Y-176589435D01*
X142651481Y-176795432D01*
X142625684Y-177010180D01*
X142640960Y-177225933D01*
X142696758Y-177434903D01*
X142791066Y-177629554D01*
X142920478Y-177802859D01*
X143080328Y-177948565D01*
X143085438Y-177951691D01*
X143085443Y-177951694D01*
X143259732Y-178058290D01*
X143259738Y-178058293D01*
X143264846Y-178061417D01*
X143467375Y-178137341D01*
X143527664Y-178147592D01*
X143674689Y-178172592D01*
X143674692Y-178172592D01*
X143680607Y-178173598D01*
X143743353Y-178172229D01*
X143890850Y-178169010D01*
X143890851Y-178169010D01*
X143896848Y-178168879D01*
X143902708Y-178167617D01*
X143902711Y-178167617D01*
X144043337Y-178137341D01*
X144108295Y-178123356D01*
X144307320Y-178038671D01*
X144312291Y-178035324D01*
X144312297Y-178035321D01*
X144482970Y-177920416D01*
X144486740Y-177917878D01*
X144490956Y-177914055D01*
X146776291Y-175628720D01*
X146784776Y-175621556D01*
X146784592Y-175621343D01*
X146789128Y-175617428D01*
X146794021Y-175613957D01*
X146859605Y-175545447D01*
X146861528Y-175543483D01*
X146889718Y-175515293D01*
X146894607Y-175509373D01*
X146900739Y-175502479D01*
X146939437Y-175462054D01*
X146939440Y-175462050D01*
X146943590Y-175457715D01*
X146962260Y-175428800D01*
X146970958Y-175416916D01*
X146989059Y-175394997D01*
X146992876Y-175390375D01*
X147022594Y-175335981D01*
X147027307Y-175328061D01*
X147057659Y-175281054D01*
X147057661Y-175281050D01*
X147060916Y-175276009D01*
X147073784Y-175244080D01*
X147080072Y-175230778D01*
X147093703Y-175205829D01*
X147096579Y-175200565D01*
X147115471Y-175141545D01*
X147118605Y-175132865D01*
X147139524Y-175080959D01*
X147141766Y-175075396D01*
X147148363Y-175041615D01*
X147152025Y-175027351D01*
X147160693Y-175000273D01*
X147160693Y-175000271D01*
X147162519Y-174994568D01*
X147163234Y-174988620D01*
X147163235Y-174988613D01*
X147169911Y-174933044D01*
X147171347Y-174923924D01*
X147182353Y-174867562D01*
X147183222Y-174863113D01*
X147183500Y-174857429D01*
X147183500Y-174827456D01*
X147184399Y-174812428D01*
X147187602Y-174785768D01*
X147187602Y-174785764D01*
X147188316Y-174779821D01*
X147183815Y-174716250D01*
X147183500Y-174707351D01*
X147183500Y-165581413D01*
X147203502Y-165513292D01*
X147213102Y-165501380D01*
X147213261Y-165501261D01*
X147231134Y-165477414D01*
X147262553Y-165435491D01*
X147300615Y-165384705D01*
X147351745Y-165248316D01*
X147358500Y-165186134D01*
X147358500Y-164672906D01*
X153463839Y-164672906D01*
X153472553Y-164684427D01*
X153579452Y-164762809D01*
X153587351Y-164767745D01*
X153816905Y-164888519D01*
X153825454Y-164892236D01*
X154070327Y-164977749D01*
X154079336Y-164980163D01*
X154334166Y-165028544D01*
X154343423Y-165029598D01*
X154602607Y-165039783D01*
X154611921Y-165039457D01*
X154869753Y-165011220D01*
X154878930Y-165009519D01*
X155129758Y-164943481D01*
X155138574Y-164940445D01*
X155376880Y-164838062D01*
X155385167Y-164833748D01*
X155605718Y-164697266D01*
X155613268Y-164691780D01*
X155618559Y-164687301D01*
X155626997Y-164674497D01*
X155620935Y-164664145D01*
X154556812Y-163600022D01*
X154542868Y-163592408D01*
X154541035Y-163592539D01*
X154534420Y-163596790D01*
X153470497Y-164660713D01*
X153463839Y-164672906D01*
X147358500Y-164672906D01*
X147358500Y-163489866D01*
X147351745Y-163427684D01*
X147300615Y-163291295D01*
X147221109Y-163185211D01*
X152731775Y-163185211D01*
X152744220Y-163444288D01*
X152745356Y-163453543D01*
X152795961Y-163707945D01*
X152798449Y-163716917D01*
X152886095Y-163961033D01*
X152889895Y-163969568D01*
X153012658Y-164198042D01*
X153017666Y-164205904D01*
X153087720Y-164299716D01*
X153098979Y-164308165D01*
X153111397Y-164301393D01*
X154171978Y-163240812D01*
X154179592Y-163226868D01*
X154179461Y-163225035D01*
X154175210Y-163218420D01*
X153109816Y-162153026D01*
X153096507Y-162145758D01*
X153086472Y-162152878D01*
X153070937Y-162171556D01*
X153065531Y-162179135D01*
X152930965Y-162400891D01*
X152926736Y-162409192D01*
X152826432Y-162648389D01*
X152823471Y-162657239D01*
X152759628Y-162908625D01*
X152758006Y-162917822D01*
X152732020Y-163175885D01*
X152731775Y-163185211D01*
X147221109Y-163185211D01*
X147213261Y-163174739D01*
X147214865Y-163173537D01*
X147186379Y-163121370D01*
X147183500Y-163094587D01*
X147183500Y-161780689D01*
X153461102Y-161780689D01*
X153465675Y-161790465D01*
X154531188Y-162855978D01*
X154545132Y-162863592D01*
X154546965Y-162863461D01*
X154553580Y-162859210D01*
X155618349Y-161794441D01*
X155624733Y-161782751D01*
X155615321Y-161770641D01*
X155468045Y-161668471D01*
X155460010Y-161663738D01*
X155227376Y-161549016D01*
X155218743Y-161545528D01*
X154971703Y-161466450D01*
X154962643Y-161464274D01*
X154706630Y-161422580D01*
X154697343Y-161421768D01*
X154437992Y-161418373D01*
X154428681Y-161418943D01*
X154171682Y-161453919D01*
X154162546Y-161455860D01*
X153913543Y-161528439D01*
X153904800Y-161531707D01*
X153669252Y-161640296D01*
X153661097Y-161644816D01*
X153470240Y-161769947D01*
X153461102Y-161780689D01*
X147183500Y-161780689D01*
X147183500Y-160608906D01*
X153463839Y-160608906D01*
X153472553Y-160620427D01*
X153579452Y-160698809D01*
X153587351Y-160703745D01*
X153816905Y-160824519D01*
X153825454Y-160828236D01*
X154070327Y-160913749D01*
X154079336Y-160916163D01*
X154334166Y-160964544D01*
X154343423Y-160965598D01*
X154602607Y-160975783D01*
X154611921Y-160975457D01*
X154869753Y-160947220D01*
X154878930Y-160945519D01*
X155129758Y-160879481D01*
X155138574Y-160876445D01*
X155376880Y-160774062D01*
X155385167Y-160769748D01*
X155605718Y-160633266D01*
X155613268Y-160627780D01*
X155618559Y-160623301D01*
X155626997Y-160610497D01*
X155620935Y-160600145D01*
X154556812Y-159536022D01*
X154542868Y-159528408D01*
X154541035Y-159528539D01*
X154534420Y-159532790D01*
X153470497Y-160596713D01*
X153463839Y-160608906D01*
X147183500Y-160608906D01*
X147183500Y-159121211D01*
X152731775Y-159121211D01*
X152744220Y-159380288D01*
X152745356Y-159389543D01*
X152795961Y-159643945D01*
X152798449Y-159652917D01*
X152886095Y-159897033D01*
X152889895Y-159905568D01*
X153012658Y-160134042D01*
X153017666Y-160141904D01*
X153087720Y-160235716D01*
X153098979Y-160244165D01*
X153111397Y-160237393D01*
X154171978Y-159176812D01*
X154179592Y-159162868D01*
X154179461Y-159161035D01*
X154175210Y-159154420D01*
X153109816Y-158089026D01*
X153096507Y-158081758D01*
X153086472Y-158088878D01*
X153070937Y-158107556D01*
X153065531Y-158115135D01*
X152930965Y-158336891D01*
X152926736Y-158345192D01*
X152826432Y-158584389D01*
X152823471Y-158593239D01*
X152759628Y-158844625D01*
X152758006Y-158853822D01*
X152732020Y-159111885D01*
X152731775Y-159121211D01*
X147183500Y-159121211D01*
X147183500Y-157716689D01*
X153461102Y-157716689D01*
X153465675Y-157726465D01*
X154531188Y-158791978D01*
X154545132Y-158799592D01*
X154546965Y-158799461D01*
X154553580Y-158795210D01*
X155618349Y-157730441D01*
X155624733Y-157718751D01*
X155615321Y-157706641D01*
X155468045Y-157604471D01*
X155460010Y-157599738D01*
X155227376Y-157485016D01*
X155218743Y-157481528D01*
X154971703Y-157402450D01*
X154962643Y-157400274D01*
X154706630Y-157358580D01*
X154697343Y-157357768D01*
X154437992Y-157354373D01*
X154428681Y-157354943D01*
X154171682Y-157389919D01*
X154162546Y-157391860D01*
X153913543Y-157464439D01*
X153904800Y-157467707D01*
X153669252Y-157576296D01*
X153661097Y-157580816D01*
X153470240Y-157705947D01*
X153461102Y-157716689D01*
X147183500Y-157716689D01*
X147183500Y-157493701D01*
X147203502Y-157425580D01*
X147220405Y-157404606D01*
X148354606Y-156270405D01*
X148416918Y-156236379D01*
X148443701Y-156233500D01*
X153070067Y-156233500D01*
X153138188Y-156253502D01*
X153169374Y-156282571D01*
X153169415Y-156282535D01*
X153169755Y-156282926D01*
X153171022Y-156284107D01*
X153175281Y-156289810D01*
X153178590Y-156293090D01*
X153178595Y-156293096D01*
X153362863Y-156475762D01*
X153366180Y-156479050D01*
X153369942Y-156481808D01*
X153369945Y-156481811D01*
X153535513Y-156603210D01*
X153582954Y-156637995D01*
X153587089Y-156640171D01*
X153587093Y-156640173D01*
X153816698Y-156760975D01*
X153820840Y-156763154D01*
X154074613Y-156851775D01*
X154079206Y-156852647D01*
X154334109Y-156901042D01*
X154334112Y-156901042D01*
X154338698Y-156901913D01*
X154466370Y-156906929D01*
X154602625Y-156912283D01*
X154602630Y-156912283D01*
X154607293Y-156912466D01*
X154711607Y-156901042D01*
X154869844Y-156883713D01*
X154869850Y-156883712D01*
X154874497Y-156883203D01*
X154879021Y-156882012D01*
X155129918Y-156815956D01*
X155129920Y-156815955D01*
X155134441Y-156814765D01*
X155179198Y-156795536D01*
X155377120Y-156710502D01*
X155377122Y-156710501D01*
X155381414Y-156708657D01*
X155500071Y-156635230D01*
X155606017Y-156569669D01*
X155606021Y-156569666D01*
X155609990Y-156567210D01*
X155782729Y-156420976D01*
X155847644Y-156392228D01*
X155917797Y-156403139D01*
X155962474Y-156438362D01*
X156036313Y-156530528D01*
X156074968Y-156567210D01*
X156221428Y-156706195D01*
X156244851Y-156728423D01*
X156478317Y-156896186D01*
X156714629Y-157021307D01*
X156765469Y-157070857D01*
X156781451Y-157140032D01*
X156757497Y-157206865D01*
X156713457Y-157244625D01*
X156545702Y-157331210D01*
X156497188Y-157356250D01*
X156493687Y-157358711D01*
X156493683Y-157358713D01*
X156483584Y-157365811D01*
X156261977Y-157521559D01*
X156051378Y-157717260D01*
X155869287Y-157939732D01*
X155719073Y-158184858D01*
X155603517Y-158448102D01*
X155603198Y-158447962D01*
X155575315Y-158491895D01*
X154916022Y-159151188D01*
X154908408Y-159165132D01*
X154908539Y-159166965D01*
X154912790Y-159173580D01*
X155577316Y-159838106D01*
X155604118Y-159877766D01*
X155708923Y-160123476D01*
X155856561Y-160370161D01*
X156036313Y-160594528D01*
X156146202Y-160698809D01*
X156225503Y-160774062D01*
X156244851Y-160792423D01*
X156478317Y-160960186D01*
X156714629Y-161085307D01*
X156765469Y-161134857D01*
X156781451Y-161204032D01*
X156757497Y-161270865D01*
X156713457Y-161308625D01*
X156500995Y-161418285D01*
X156497188Y-161420250D01*
X156493687Y-161422711D01*
X156493683Y-161422713D01*
X156483584Y-161429811D01*
X156261977Y-161585559D01*
X156051378Y-161781260D01*
X155869287Y-162003732D01*
X155719073Y-162248858D01*
X155603517Y-162512102D01*
X155603198Y-162511962D01*
X155575315Y-162555895D01*
X154916022Y-163215188D01*
X154908408Y-163229132D01*
X154908539Y-163230965D01*
X154912790Y-163237580D01*
X155577316Y-163902106D01*
X155604118Y-163941766D01*
X155708923Y-164187476D01*
X155719952Y-164205904D01*
X155810719Y-164357564D01*
X155856561Y-164434161D01*
X156036313Y-164658528D01*
X156146202Y-164762809D01*
X156225503Y-164838062D01*
X156244851Y-164856423D01*
X156478317Y-165024186D01*
X156482112Y-165026195D01*
X156482113Y-165026196D01*
X156523346Y-165048028D01*
X156732392Y-165158712D01*
X157002373Y-165257511D01*
X157283264Y-165318755D01*
X157311841Y-165321004D01*
X157506282Y-165336307D01*
X157506291Y-165336307D01*
X157508739Y-165336500D01*
X157664271Y-165336500D01*
X157666407Y-165336354D01*
X157666418Y-165336354D01*
X157874548Y-165322165D01*
X157874554Y-165322164D01*
X157878825Y-165321873D01*
X157883020Y-165321004D01*
X157883022Y-165321004D01*
X158019584Y-165292723D01*
X158160342Y-165263574D01*
X158431343Y-165167607D01*
X158640944Y-165059424D01*
X158683005Y-165037715D01*
X158683006Y-165037715D01*
X158686812Y-165035750D01*
X158690313Y-165033289D01*
X158690317Y-165033287D01*
X158804418Y-164953095D01*
X158922023Y-164870441D01*
X159132622Y-164674740D01*
X159314713Y-164452268D01*
X159464927Y-164207142D01*
X159580483Y-163943898D01*
X159659244Y-163667406D01*
X159699751Y-163382784D01*
X159700187Y-163299703D01*
X159701235Y-163099583D01*
X159701235Y-163099576D01*
X159701257Y-163095297D01*
X159663732Y-162810266D01*
X159587871Y-162532964D01*
X159577296Y-162508171D01*
X159476763Y-162272476D01*
X159476761Y-162272472D01*
X159475077Y-162268524D01*
X159327439Y-162021839D01*
X159147687Y-161797472D01*
X158939149Y-161599577D01*
X158705683Y-161431814D01*
X158469371Y-161306693D01*
X158418531Y-161257143D01*
X158402549Y-161187968D01*
X158426503Y-161121135D01*
X158470543Y-161083375D01*
X158683005Y-160973715D01*
X158683006Y-160973715D01*
X158686812Y-160971750D01*
X158690313Y-160969289D01*
X158690317Y-160969287D01*
X158804418Y-160889095D01*
X158922023Y-160806441D01*
X159037849Y-160698809D01*
X159129479Y-160613661D01*
X159129481Y-160613658D01*
X159132622Y-160610740D01*
X159314713Y-160388268D01*
X159464927Y-160143142D01*
X159563930Y-159917608D01*
X159578757Y-159883830D01*
X159580483Y-159879898D01*
X159659244Y-159603406D01*
X159699751Y-159318784D01*
X159699809Y-159307896D01*
X159701235Y-159035583D01*
X159701235Y-159035576D01*
X159701257Y-159031297D01*
X159663732Y-158746266D01*
X159587871Y-158468964D01*
X159577296Y-158444171D01*
X159476763Y-158208476D01*
X159476761Y-158208472D01*
X159475077Y-158204524D01*
X159369433Y-158028005D01*
X159329643Y-157961521D01*
X159329640Y-157961517D01*
X159327439Y-157957839D01*
X159147687Y-157733472D01*
X158982058Y-157576296D01*
X158942258Y-157538527D01*
X158942255Y-157538525D01*
X158939149Y-157535577D01*
X158705683Y-157367814D01*
X158469371Y-157242693D01*
X158418531Y-157193143D01*
X158402549Y-157123968D01*
X158426503Y-157057135D01*
X158470543Y-157019375D01*
X158683005Y-156909715D01*
X158683006Y-156909715D01*
X158686812Y-156907750D01*
X158690313Y-156905289D01*
X158690317Y-156905287D01*
X158892551Y-156763154D01*
X158922023Y-156742441D01*
X159000403Y-156669606D01*
X159129479Y-156549661D01*
X159129481Y-156549658D01*
X159132622Y-156546740D01*
X159314713Y-156324268D01*
X159464927Y-156079142D01*
X159559913Y-155862759D01*
X159578757Y-155819830D01*
X159580483Y-155815898D01*
X159659244Y-155539406D01*
X159699751Y-155254784D01*
X159701257Y-154967297D01*
X159663732Y-154682266D01*
X159587871Y-154404964D01*
X159519699Y-154245138D01*
X159476763Y-154144476D01*
X159476761Y-154144472D01*
X159475077Y-154140524D01*
X159372494Y-153969120D01*
X159329643Y-153897521D01*
X159329640Y-153897517D01*
X159327439Y-153893839D01*
X159147687Y-153669472D01*
X159006305Y-153535306D01*
X158942258Y-153474527D01*
X158942255Y-153474525D01*
X158939149Y-153471577D01*
X158738462Y-153327368D01*
X158709172Y-153306321D01*
X158709171Y-153306320D01*
X158705683Y-153303814D01*
X158469371Y-153178693D01*
X158418531Y-153129143D01*
X158402549Y-153059968D01*
X158426503Y-152993135D01*
X158470543Y-152955375D01*
X158683005Y-152845715D01*
X158683006Y-152845715D01*
X158686812Y-152843750D01*
X158690313Y-152841289D01*
X158690317Y-152841287D01*
X158892551Y-152699154D01*
X158922023Y-152678441D01*
X159037396Y-152571230D01*
X159129479Y-152485661D01*
X159129481Y-152485658D01*
X159132622Y-152482740D01*
X159314713Y-152260268D01*
X159464927Y-152015142D01*
X159580483Y-151751898D01*
X159659244Y-151475406D01*
X159696431Y-151214115D01*
X159699146Y-151195036D01*
X159699146Y-151195034D01*
X159699751Y-151190784D01*
X159699792Y-151183086D01*
X159701235Y-150907583D01*
X159701235Y-150907576D01*
X159701257Y-150903297D01*
X159663732Y-150618266D01*
X159587871Y-150340964D01*
X159475077Y-150076524D01*
X159370926Y-149902500D01*
X159329643Y-149833521D01*
X159329640Y-149833517D01*
X159327439Y-149829839D01*
X159147687Y-149605472D01*
X158993494Y-149459148D01*
X158942258Y-149410527D01*
X158942255Y-149410525D01*
X158939149Y-149407577D01*
X158738462Y-149263368D01*
X158709172Y-149242321D01*
X158709171Y-149242320D01*
X158705683Y-149239814D01*
X158469371Y-149114693D01*
X158418531Y-149065143D01*
X158402549Y-148995968D01*
X158426503Y-148929135D01*
X158470543Y-148891375D01*
X158683005Y-148781715D01*
X158683006Y-148781715D01*
X158686812Y-148779750D01*
X158690313Y-148777289D01*
X158690317Y-148777287D01*
X158892551Y-148635154D01*
X158922023Y-148614441D01*
X159037396Y-148507230D01*
X159129479Y-148421661D01*
X159129481Y-148421658D01*
X159132622Y-148418740D01*
X159314713Y-148196268D01*
X159464927Y-147951142D01*
X159580483Y-147687898D01*
X159659244Y-147411406D01*
X159699751Y-147126784D01*
X159700787Y-146929197D01*
X159701235Y-146843583D01*
X159701235Y-146843576D01*
X159701257Y-146839297D01*
X159663732Y-146554266D01*
X159587871Y-146276964D01*
X159578607Y-146255246D01*
X159476763Y-146016476D01*
X159476761Y-146016472D01*
X159475077Y-146012524D01*
X159327439Y-145765839D01*
X159147687Y-145541472D01*
X159006305Y-145407306D01*
X158942258Y-145346527D01*
X158942255Y-145346525D01*
X158939149Y-145343577D01*
X158738462Y-145199368D01*
X158709172Y-145178321D01*
X158709171Y-145178320D01*
X158705683Y-145175814D01*
X158683843Y-145164250D01*
X158660654Y-145151972D01*
X158451608Y-145041288D01*
X158181627Y-144942489D01*
X157900736Y-144881245D01*
X157869685Y-144878801D01*
X157677718Y-144863693D01*
X157677709Y-144863693D01*
X157675261Y-144863500D01*
X157519729Y-144863500D01*
X157517593Y-144863646D01*
X157517582Y-144863646D01*
X157309452Y-144877835D01*
X157309446Y-144877836D01*
X157305175Y-144878127D01*
X157300980Y-144878996D01*
X157300978Y-144878996D01*
X157164417Y-144907276D01*
X157023658Y-144936426D01*
X156752657Y-145032393D01*
X156748848Y-145034359D01*
X156501912Y-145161812D01*
X156497188Y-145164250D01*
X156493687Y-145166711D01*
X156493683Y-145166713D01*
X156432145Y-145209963D01*
X156261977Y-145329559D01*
X156051378Y-145525260D01*
X156023007Y-145559923D01*
X155960380Y-145636438D01*
X155901755Y-145676484D01*
X155830787Y-145678477D01*
X155776543Y-145648407D01*
X155688726Y-145565797D01*
X155688719Y-145565792D01*
X155685317Y-145562591D01*
X155464457Y-145409374D01*
X155460264Y-145407306D01*
X155227564Y-145292551D01*
X155227561Y-145292550D01*
X155223376Y-145290486D01*
X155175745Y-145275239D01*
X155121621Y-145257914D01*
X154967370Y-145208538D01*
X154962763Y-145207788D01*
X154962760Y-145207787D01*
X154706674Y-145166081D01*
X154706675Y-145166081D01*
X154702063Y-145165330D01*
X154571719Y-145163624D01*
X154437961Y-145161873D01*
X154437958Y-145161873D01*
X154433284Y-145161812D01*
X154166937Y-145198060D01*
X153908874Y-145273278D01*
X153664763Y-145385815D01*
X153660854Y-145388378D01*
X153443881Y-145530631D01*
X153443876Y-145530635D01*
X153439968Y-145533197D01*
X153410024Y-145559923D01*
X153324297Y-145636438D01*
X153239426Y-145712188D01*
X153067544Y-145918854D01*
X152928096Y-146148656D01*
X152926287Y-146152970D01*
X152926285Y-146152974D01*
X152825957Y-146392231D01*
X152824148Y-146396545D01*
X152757981Y-146657077D01*
X152731050Y-146924526D01*
X152743947Y-147193019D01*
X152796388Y-147456656D01*
X152887220Y-147709646D01*
X153014450Y-147946431D01*
X153017241Y-147950168D01*
X153017245Y-147950175D01*
X153129720Y-148100796D01*
X153175281Y-148161810D01*
X153178590Y-148165090D01*
X153178595Y-148165096D01*
X153307597Y-148292976D01*
X153366180Y-148351050D01*
X153369942Y-148353808D01*
X153369945Y-148353811D01*
X153462481Y-148421661D01*
X153582954Y-148509995D01*
X153587089Y-148512171D01*
X153587093Y-148512173D01*
X153816698Y-148632975D01*
X153820840Y-148635154D01*
X154074613Y-148723775D01*
X154079206Y-148724647D01*
X154334109Y-148773042D01*
X154334112Y-148773042D01*
X154338698Y-148773913D01*
X154466370Y-148778929D01*
X154602625Y-148784283D01*
X154602630Y-148784283D01*
X154607293Y-148784466D01*
X154711607Y-148773042D01*
X154869844Y-148755713D01*
X154869850Y-148755712D01*
X154874497Y-148755203D01*
X154909289Y-148746043D01*
X155129918Y-148687956D01*
X155129920Y-148687955D01*
X155134441Y-148686765D01*
X155138738Y-148684919D01*
X155377120Y-148582502D01*
X155377122Y-148582501D01*
X155381414Y-148580657D01*
X155500071Y-148507230D01*
X155606017Y-148441669D01*
X155606021Y-148441666D01*
X155609990Y-148439210D01*
X155782729Y-148292976D01*
X155847644Y-148264228D01*
X155917797Y-148275139D01*
X155962474Y-148310362D01*
X156036313Y-148402528D01*
X156074968Y-148439210D01*
X156221428Y-148578195D01*
X156244851Y-148600423D01*
X156362439Y-148684919D01*
X156455855Y-148752045D01*
X156478317Y-148768186D01*
X156714629Y-148893307D01*
X156765469Y-148942857D01*
X156781451Y-149012032D01*
X156757497Y-149078865D01*
X156713457Y-149116625D01*
X156501793Y-149225873D01*
X156497188Y-149228250D01*
X156493687Y-149230711D01*
X156493683Y-149230713D01*
X156432145Y-149273963D01*
X156261977Y-149393559D01*
X156191395Y-149459148D01*
X156069905Y-149572044D01*
X156051378Y-149589260D01*
X156023007Y-149623923D01*
X155960380Y-149700438D01*
X155901755Y-149740484D01*
X155830787Y-149742477D01*
X155776543Y-149712407D01*
X155688726Y-149629797D01*
X155688719Y-149629792D01*
X155685317Y-149626591D01*
X155464457Y-149473374D01*
X155435610Y-149459148D01*
X155227564Y-149356551D01*
X155227561Y-149356550D01*
X155223376Y-149354486D01*
X155175745Y-149339239D01*
X155121621Y-149321914D01*
X154967370Y-149272538D01*
X154962763Y-149271788D01*
X154962760Y-149271787D01*
X154706674Y-149230081D01*
X154706675Y-149230081D01*
X154702063Y-149229330D01*
X154571719Y-149227624D01*
X154437961Y-149225873D01*
X154437958Y-149225873D01*
X154433284Y-149225812D01*
X154166937Y-149262060D01*
X154162451Y-149263368D01*
X154162449Y-149263368D01*
X154133565Y-149271787D01*
X153908874Y-149337278D01*
X153664763Y-149449815D01*
X153660854Y-149452378D01*
X153443881Y-149594631D01*
X153443876Y-149594635D01*
X153439968Y-149597197D01*
X153353993Y-149673933D01*
X153324297Y-149700438D01*
X153239426Y-149776188D01*
X153236433Y-149779787D01*
X153172158Y-149857069D01*
X153113221Y-149896653D01*
X153075284Y-149902500D01*
X147000265Y-149902500D01*
X146932144Y-149882498D01*
X146911170Y-149865595D01*
X145442405Y-148396830D01*
X145408379Y-148334518D01*
X145405500Y-148307735D01*
X145405500Y-145176352D01*
X145425502Y-145108231D01*
X145442405Y-145087257D01*
X146036820Y-144492842D01*
X146099132Y-144458816D01*
X146166938Y-144462803D01*
X146172663Y-144464774D01*
X146176844Y-144466214D01*
X146176848Y-144466215D01*
X146181631Y-144467862D01*
X146241408Y-144478187D01*
X146416926Y-144508504D01*
X146416932Y-144508505D01*
X146420836Y-144509179D01*
X146424797Y-144509359D01*
X146424798Y-144509359D01*
X146448506Y-144510436D01*
X146448525Y-144510436D01*
X146449925Y-144510500D01*
X148955632Y-144510500D01*
X148965519Y-144510888D01*
X149014926Y-144514777D01*
X149014929Y-144514777D01*
X149019859Y-144515165D01*
X149023058Y-144514913D01*
X149026699Y-144514811D01*
X149663622Y-144496943D01*
X149663627Y-144496943D01*
X149665399Y-144496893D01*
X149887178Y-144478187D01*
X150307156Y-144442764D01*
X150307164Y-144442763D01*
X150308908Y-144442616D01*
X150310641Y-144442371D01*
X150310644Y-144442371D01*
X150606807Y-144400561D01*
X150948361Y-144352343D01*
X151098122Y-144322554D01*
X151580025Y-144226699D01*
X151580041Y-144226695D01*
X151581747Y-144226356D01*
X151583443Y-144225918D01*
X151583454Y-144225916D01*
X152205355Y-144065497D01*
X152205358Y-144065496D01*
X152207072Y-144065054D01*
X152822370Y-143868944D01*
X153022125Y-143792694D01*
X153424038Y-143639277D01*
X153424051Y-143639271D01*
X153425703Y-143638641D01*
X154015174Y-143374872D01*
X154588928Y-143078466D01*
X154709276Y-143007475D01*
X155143646Y-142751249D01*
X155143659Y-142751241D01*
X155145159Y-142750356D01*
X155146611Y-142749386D01*
X155146625Y-142749377D01*
X155680663Y-142392545D01*
X155682118Y-142391573D01*
X156198116Y-142003248D01*
X156490005Y-141756771D01*
X156690176Y-141587743D01*
X156690183Y-141587737D01*
X156691528Y-141586601D01*
X156706710Y-141572248D01*
X157156028Y-141147456D01*
X157158833Y-141144804D01*
X157160899Y-141143040D01*
X157196315Y-141101573D01*
X157203021Y-141094320D01*
X158560781Y-139736560D01*
X158568046Y-139729843D01*
X158605734Y-139697655D01*
X158605736Y-139697653D01*
X158609498Y-139694440D01*
X158615904Y-139686939D01*
X158619486Y-139682923D01*
X158721212Y-139573663D01*
X158925912Y-139353802D01*
X159217626Y-138991811D01*
X159218910Y-138989961D01*
X159218918Y-138989951D01*
X159481496Y-138611770D01*
X159481498Y-138611767D01*
X159482772Y-138609932D01*
X159500928Y-138579333D01*
X159718846Y-138212056D01*
X159718846Y-138212055D01*
X159720000Y-138210111D01*
X159928100Y-137794384D01*
X160106013Y-137364872D01*
X160106725Y-137362734D01*
X160252123Y-136925890D01*
X160252128Y-136925874D01*
X160252831Y-136923761D01*
X160269373Y-136858954D01*
X160367249Y-136475487D01*
X160367807Y-136473301D01*
X160450355Y-136015786D01*
X160500054Y-135553548D01*
X160516127Y-135103594D01*
X160516435Y-135098210D01*
X160517165Y-135088942D01*
X160512888Y-135034593D01*
X160512500Y-135024708D01*
X160512500Y-93829292D01*
X160512888Y-93819407D01*
X160516777Y-93769992D01*
X160516777Y-93769988D01*
X160517165Y-93765058D01*
X160516434Y-93755771D01*
X160516126Y-93750397D01*
X160500054Y-93300452D01*
X160499056Y-93291165D01*
X160467675Y-92999302D01*
X160450355Y-92838214D01*
X160367807Y-92380699D01*
X160252831Y-91930239D01*
X160252128Y-91928126D01*
X160252123Y-91928110D01*
X160106725Y-91491266D01*
X160106721Y-91491256D01*
X160106013Y-91489128D01*
X159928100Y-91059616D01*
X159720000Y-90643889D01*
X159635459Y-90501404D01*
X159483917Y-90245997D01*
X159483911Y-90245988D01*
X159482772Y-90244068D01*
X159481496Y-90242230D01*
X159218918Y-89864049D01*
X159218910Y-89864039D01*
X159217626Y-89862189D01*
X158925912Y-89500198D01*
X158619477Y-89171067D01*
X158615904Y-89167061D01*
X158609498Y-89159560D01*
X158428944Y-89005354D01*
X158226490Y-88881291D01*
X158160690Y-88854036D01*
X158105409Y-88809488D01*
X158094713Y-88790876D01*
X158036040Y-88665051D01*
X158036040Y-88665050D01*
X158033901Y-88660464D01*
X157897456Y-88459693D01*
X157730668Y-88283319D01*
X157623796Y-88201609D01*
X157541846Y-88138953D01*
X157541842Y-88138950D01*
X157537826Y-88135880D01*
X157323891Y-88021169D01*
X157094369Y-87942138D01*
X156995022Y-87924978D01*
X156859074Y-87901496D01*
X156859068Y-87901495D01*
X156855164Y-87900821D01*
X156851203Y-87900641D01*
X156851202Y-87900641D01*
X156827494Y-87899564D01*
X156827475Y-87899564D01*
X156826075Y-87899500D01*
X156040072Y-87899500D01*
X155971951Y-87879498D01*
X155925458Y-87825842D01*
X155915354Y-87755568D01*
X155941191Y-87695407D01*
X155950944Y-87683058D01*
X155956650Y-87674469D01*
X156067714Y-87473278D01*
X156071944Y-87463866D01*
X156148659Y-87247232D01*
X156151293Y-87237261D01*
X156168647Y-87139837D01*
X156167187Y-87126540D01*
X156152630Y-87122000D01*
X153217904Y-87122000D01*
X153204560Y-87125918D01*
X153202573Y-87140194D01*
X153212110Y-87202515D01*
X153214499Y-87212543D01*
X153285898Y-87430988D01*
X153289895Y-87440497D01*
X153396011Y-87644344D01*
X153401500Y-87653061D01*
X153514902Y-87804099D01*
X153539807Y-87870584D01*
X153524814Y-87939980D01*
X153474684Y-87990253D01*
X153458375Y-87997732D01*
X153439295Y-88004885D01*
X153322739Y-88092239D01*
X153235385Y-88208795D01*
X153184255Y-88345184D01*
X153177500Y-88407366D01*
X153177500Y-89370188D01*
X153177370Y-89375903D01*
X153173514Y-89460817D01*
X153174095Y-89465837D01*
X153174095Y-89465841D01*
X153176665Y-89488050D01*
X153177500Y-89502532D01*
X153177500Y-90313500D01*
X153157498Y-90381621D01*
X153103842Y-90428114D01*
X153051500Y-90439500D01*
X149201292Y-90439500D01*
X149191407Y-90439112D01*
X149141992Y-90435223D01*
X149141988Y-90435223D01*
X149137058Y-90434835D01*
X149127771Y-90435566D01*
X149122406Y-90435873D01*
X148672452Y-90451946D01*
X148670212Y-90452187D01*
X148670210Y-90452187D01*
X148591997Y-90460596D01*
X148210214Y-90501645D01*
X147752699Y-90584193D01*
X147750512Y-90584751D01*
X147750513Y-90584751D01*
X147510893Y-90645912D01*
X147302239Y-90699169D01*
X147300126Y-90699872D01*
X147300110Y-90699877D01*
X146863266Y-90845275D01*
X146863256Y-90845279D01*
X146861128Y-90845987D01*
X146431616Y-91023900D01*
X146015889Y-91232000D01*
X146013945Y-91233154D01*
X146013944Y-91233154D01*
X145617997Y-91468083D01*
X145617988Y-91468089D01*
X145616068Y-91469228D01*
X145614233Y-91470502D01*
X145614230Y-91470504D01*
X145236049Y-91733082D01*
X145236039Y-91733090D01*
X145234189Y-91734374D01*
X144872198Y-92026088D01*
X144547633Y-92328272D01*
X144543077Y-92332514D01*
X144539061Y-92336096D01*
X144531560Y-92342502D01*
X144528347Y-92346264D01*
X144528345Y-92346266D01*
X144496157Y-92383954D01*
X144489440Y-92391219D01*
X142429219Y-94451440D01*
X142421953Y-94458157D01*
X142380502Y-94493560D01*
X142374416Y-94500685D01*
X142370863Y-94504669D01*
X142064071Y-94834184D01*
X141772356Y-95196176D01*
X141771072Y-95198026D01*
X141771064Y-95198036D01*
X141508492Y-95576208D01*
X141507209Y-95578056D01*
X141506061Y-95579991D01*
X141271128Y-95975945D01*
X141271122Y-95975956D01*
X141269981Y-95977879D01*
X141061880Y-96393606D01*
X140883966Y-96823121D01*
X140883258Y-96825249D01*
X140883254Y-96825259D01*
X140770302Y-97164619D01*
X140737147Y-97264233D01*
X140622171Y-97714695D01*
X140621775Y-97716890D01*
X140621773Y-97716899D01*
X140613467Y-97762935D01*
X140539623Y-98172211D01*
X140489924Y-98634451D01*
X140489844Y-98636701D01*
X140473834Y-99084901D01*
X140473525Y-99090294D01*
X140472835Y-99099058D01*
X140473223Y-99103988D01*
X140473223Y-99103992D01*
X140477112Y-99153407D01*
X140477500Y-99163292D01*
X140477500Y-137564710D01*
X140477111Y-137574593D01*
X140472835Y-137628922D01*
X140473951Y-137643099D01*
X140475089Y-137657564D01*
X140475325Y-137673629D01*
X140469392Y-137794384D01*
X140461011Y-137964966D01*
X140459799Y-137977269D01*
X140424971Y-138212056D01*
X140411338Y-138303956D01*
X140408926Y-138316083D01*
X140328675Y-138636453D01*
X140325085Y-138648286D01*
X140213822Y-138959241D01*
X140209094Y-138970654D01*
X140105518Y-139189647D01*
X140067885Y-139269214D01*
X140062063Y-139280107D01*
X139892265Y-139563394D01*
X139885404Y-139573663D01*
X139761182Y-139741156D01*
X139688660Y-139838939D01*
X139680815Y-139848497D01*
X139484801Y-140064763D01*
X139473282Y-140075948D01*
X139451570Y-140094492D01*
X139448356Y-140098255D01*
X139448355Y-140098256D01*
X139416163Y-140135948D01*
X139409447Y-140143212D01*
X138873212Y-140679447D01*
X138865949Y-140686162D01*
X138824492Y-140721570D01*
X138806070Y-140743140D01*
X138794876Y-140754668D01*
X138578483Y-140950798D01*
X138568924Y-140958643D01*
X138303654Y-141155382D01*
X138293373Y-141162251D01*
X138010107Y-141332036D01*
X137999203Y-141337865D01*
X137891863Y-141388634D01*
X137700647Y-141479074D01*
X137689227Y-141483804D01*
X137378279Y-141595064D01*
X137366449Y-141598654D01*
X137046071Y-141678907D01*
X137033953Y-141681317D01*
X137024560Y-141682710D01*
X136760961Y-141721812D01*
X136690643Y-141712022D01*
X136636780Y-141665769D01*
X136620387Y-141628336D01*
X136612812Y-141598654D01*
X136595586Y-141531164D01*
X136559766Y-141390815D01*
X136559763Y-141390806D01*
X136559209Y-141388634D01*
X136497806Y-141204141D01*
X136413107Y-140949656D01*
X136413106Y-140949654D01*
X136412396Y-140947520D01*
X136411540Y-140945453D01*
X136411535Y-140945440D01*
X136235351Y-140520088D01*
X136235349Y-140520083D01*
X136234488Y-140518005D01*
X136233482Y-140515995D01*
X136027393Y-140104274D01*
X136027388Y-140104265D01*
X136026392Y-140102275D01*
X135789168Y-139702450D01*
X135524025Y-139320568D01*
X135444469Y-139221843D01*
X135233722Y-138960320D01*
X135233719Y-138960317D01*
X135232314Y-138958573D01*
X135127335Y-138845816D01*
X134925526Y-138629057D01*
X134921935Y-138625030D01*
X134919106Y-138621718D01*
X134919105Y-138621717D01*
X134915886Y-138617948D01*
X134874429Y-138582540D01*
X134867166Y-138575825D01*
X133386553Y-137095212D01*
X133379837Y-137087948D01*
X133347645Y-137050256D01*
X133347644Y-137050255D01*
X133344430Y-137046492D01*
X133322718Y-137027948D01*
X133311199Y-137016763D01*
X133115185Y-136800497D01*
X133107340Y-136790939D01*
X132910596Y-136525663D01*
X132903735Y-136515394D01*
X132733937Y-136232107D01*
X132728115Y-136221214D01*
X132674700Y-136108279D01*
X132586906Y-135922654D01*
X132582178Y-135911241D01*
X132470915Y-135600286D01*
X132467325Y-135588453D01*
X132387074Y-135268083D01*
X132384662Y-135255956D01*
X132365298Y-135125416D01*
X132336201Y-134929269D01*
X132334989Y-134916966D01*
X132320675Y-134625632D01*
X132320911Y-134609564D01*
X132322050Y-134595099D01*
X132323165Y-134580922D01*
X132318889Y-134526593D01*
X132318500Y-134516710D01*
X132318500Y-86596163D01*
X153203353Y-86596163D01*
X153204813Y-86609460D01*
X153219370Y-86614000D01*
X154413885Y-86614000D01*
X154429124Y-86609525D01*
X154430329Y-86608135D01*
X154432000Y-86600452D01*
X154432000Y-86595885D01*
X154940000Y-86595885D01*
X154944475Y-86611124D01*
X154945865Y-86612329D01*
X154953548Y-86614000D01*
X156154096Y-86614000D01*
X156167440Y-86610082D01*
X156169427Y-86595806D01*
X156159890Y-86533485D01*
X156157501Y-86523457D01*
X156086102Y-86305012D01*
X156082105Y-86295503D01*
X155975989Y-86091656D01*
X155970495Y-86082931D01*
X155832507Y-85899148D01*
X155825664Y-85891441D01*
X155659509Y-85732661D01*
X155651499Y-85726174D01*
X155461653Y-85596670D01*
X155452679Y-85591571D01*
X155244231Y-85494813D01*
X155234544Y-85491250D01*
X155013092Y-85429835D01*
X155002970Y-85427904D01*
X154958013Y-85423099D01*
X154943392Y-85425747D01*
X154940000Y-85438124D01*
X154940000Y-86595885D01*
X154432000Y-86595885D01*
X154432000Y-85437588D01*
X154427675Y-85422859D01*
X154415889Y-85420798D01*
X154404296Y-85421751D01*
X154394134Y-85423433D01*
X154171229Y-85479422D01*
X154161481Y-85482741D01*
X153950711Y-85574385D01*
X153941636Y-85579251D01*
X153748673Y-85704085D01*
X153740502Y-85710378D01*
X153570520Y-85865050D01*
X153563494Y-85872583D01*
X153421055Y-86052944D01*
X153415350Y-86061531D01*
X153304286Y-86262722D01*
X153300056Y-86272134D01*
X153223341Y-86488768D01*
X153220707Y-86498739D01*
X153203353Y-86596163D01*
X132318500Y-86596163D01*
X132318500Y-68580000D01*
X151864547Y-68580000D01*
X151884339Y-68881966D01*
X151943376Y-69178766D01*
X152040648Y-69465320D01*
X152174491Y-69736726D01*
X152342614Y-69988341D01*
X152345328Y-69991435D01*
X152345332Y-69991441D01*
X152539433Y-70212769D01*
X152542142Y-70215858D01*
X152545231Y-70218567D01*
X152766559Y-70412668D01*
X152766565Y-70412672D01*
X152769659Y-70415386D01*
X152773085Y-70417675D01*
X152773090Y-70417679D01*
X152961371Y-70543484D01*
X153021273Y-70583509D01*
X153024972Y-70585333D01*
X153024977Y-70585336D01*
X153164308Y-70654046D01*
X153292680Y-70717352D01*
X153296585Y-70718677D01*
X153296586Y-70718678D01*
X153575327Y-70813298D01*
X153575330Y-70813299D01*
X153579234Y-70814624D01*
X153583273Y-70815427D01*
X153583279Y-70815429D01*
X153871991Y-70872857D01*
X153871994Y-70872857D01*
X153876034Y-70873661D01*
X153880145Y-70873930D01*
X153880149Y-70873931D01*
X154173881Y-70893183D01*
X154178000Y-70893453D01*
X154182119Y-70893183D01*
X154475851Y-70873931D01*
X154475855Y-70873930D01*
X154479966Y-70873661D01*
X154484006Y-70872857D01*
X154484009Y-70872857D01*
X154772721Y-70815429D01*
X154772727Y-70815427D01*
X154776766Y-70814624D01*
X154780670Y-70813299D01*
X154780673Y-70813298D01*
X155059414Y-70718678D01*
X155059415Y-70718677D01*
X155063320Y-70717352D01*
X155191692Y-70654046D01*
X155331023Y-70585336D01*
X155331028Y-70585333D01*
X155334727Y-70583509D01*
X155394629Y-70543484D01*
X155582910Y-70417679D01*
X155582915Y-70417675D01*
X155586341Y-70415386D01*
X155589435Y-70412672D01*
X155589441Y-70412668D01*
X155810769Y-70218567D01*
X155813858Y-70215858D01*
X155816567Y-70212769D01*
X156010668Y-69991441D01*
X156010672Y-69991435D01*
X156013386Y-69988341D01*
X156181509Y-69736726D01*
X156315352Y-69465320D01*
X156412624Y-69178766D01*
X156471661Y-68881966D01*
X156491453Y-68580000D01*
X156471661Y-68278034D01*
X156412624Y-67981234D01*
X156315352Y-67694680D01*
X156181509Y-67423274D01*
X156013386Y-67171659D01*
X156010672Y-67168565D01*
X156010668Y-67168559D01*
X155816567Y-66947231D01*
X155813858Y-66944142D01*
X155810769Y-66941433D01*
X155589441Y-66747332D01*
X155589435Y-66747328D01*
X155586341Y-66744614D01*
X155582911Y-66742322D01*
X155582910Y-66742321D01*
X155338160Y-66578785D01*
X155334727Y-66576491D01*
X155331028Y-66574667D01*
X155331023Y-66574664D01*
X155191692Y-66505954D01*
X155063320Y-66442648D01*
X155059414Y-66441322D01*
X154780673Y-66346702D01*
X154780670Y-66346701D01*
X154776766Y-66345376D01*
X154772727Y-66344573D01*
X154772721Y-66344571D01*
X154484009Y-66287143D01*
X154484006Y-66287143D01*
X154479966Y-66286339D01*
X154475855Y-66286070D01*
X154475851Y-66286069D01*
X154182119Y-66266817D01*
X154178000Y-66266547D01*
X154173881Y-66266817D01*
X153880149Y-66286069D01*
X153880145Y-66286070D01*
X153876034Y-66286339D01*
X153871994Y-66287143D01*
X153871991Y-66287143D01*
X153583279Y-66344571D01*
X153583273Y-66344573D01*
X153579234Y-66345376D01*
X153575330Y-66346701D01*
X153575327Y-66346702D01*
X153296586Y-66441322D01*
X153292680Y-66442648D01*
X153164442Y-66505888D01*
X153024978Y-66574664D01*
X153024973Y-66574667D01*
X153021274Y-66576491D01*
X152769659Y-66744614D01*
X152766565Y-66747328D01*
X152766559Y-66747332D01*
X152545231Y-66941433D01*
X152542142Y-66944142D01*
X152539433Y-66947231D01*
X152345332Y-67168559D01*
X152345328Y-67168565D01*
X152342614Y-67171659D01*
X152174491Y-67423274D01*
X152040648Y-67694680D01*
X151943376Y-67981234D01*
X151884339Y-68278034D01*
X151864547Y-68580000D01*
X132318500Y-68580000D01*
X132318500Y-61825292D01*
X132318888Y-61815407D01*
X132322777Y-61765992D01*
X132322777Y-61765988D01*
X132323165Y-61761058D01*
X132322475Y-61752294D01*
X132322166Y-61746901D01*
X132306156Y-61298701D01*
X132306076Y-61296451D01*
X132256377Y-60834211D01*
X132182533Y-60424935D01*
X132174227Y-60378899D01*
X132174225Y-60378890D01*
X132173829Y-60376695D01*
X132058853Y-59926233D01*
X132025698Y-59826619D01*
X131912746Y-59487259D01*
X131912742Y-59487249D01*
X131912034Y-59485121D01*
X131734120Y-59055606D01*
X131526019Y-58639879D01*
X131524878Y-58637956D01*
X131524872Y-58637945D01*
X131289939Y-58241991D01*
X131288791Y-58240056D01*
X131287508Y-58238208D01*
X131024936Y-57860036D01*
X131024928Y-57860026D01*
X131023644Y-57858176D01*
X130731929Y-57496184D01*
X130425137Y-57166669D01*
X130421584Y-57162685D01*
X130415498Y-57155560D01*
X130374047Y-57120157D01*
X130366781Y-57113440D01*
X122028553Y-48775212D01*
X122021837Y-48767948D01*
X121989645Y-48730256D01*
X121989644Y-48730255D01*
X121986430Y-48726492D01*
X121964718Y-48707948D01*
X121953199Y-48696763D01*
X121757185Y-48480497D01*
X121749340Y-48470939D01*
X121552596Y-48205663D01*
X121545735Y-48195394D01*
X121375937Y-47912107D01*
X121370115Y-47901214D01*
X121250104Y-47647475D01*
X121228906Y-47602654D01*
X121224178Y-47591241D01*
X121112915Y-47280286D01*
X121109325Y-47268453D01*
X121029074Y-46948083D01*
X121026662Y-46935956D01*
X120995783Y-46727791D01*
X120978201Y-46609269D01*
X120976989Y-46596966D01*
X120962675Y-46305632D01*
X120962911Y-46289564D01*
X120964050Y-46275099D01*
X120965165Y-46260922D01*
X120960889Y-46206593D01*
X120960500Y-46196710D01*
X120960500Y-44468994D01*
X120980529Y-44400831D01*
X121043269Y-44303291D01*
X121045797Y-44299361D01*
X121156199Y-44054278D01*
X121193209Y-43923051D01*
X121227893Y-43800072D01*
X121227894Y-43800069D01*
X121229163Y-43795568D01*
X121247043Y-43655019D01*
X121262688Y-43532045D01*
X121262688Y-43532041D01*
X121263086Y-43528915D01*
X121263633Y-43508045D01*
X121265488Y-43437160D01*
X121265571Y-43434000D01*
X121260259Y-43362526D01*
X125217050Y-43362526D01*
X125229947Y-43631019D01*
X125282388Y-43894656D01*
X125373220Y-44147646D01*
X125500450Y-44384431D01*
X125503241Y-44388168D01*
X125503245Y-44388175D01*
X125539421Y-44436620D01*
X125661281Y-44599810D01*
X125664590Y-44603090D01*
X125664595Y-44603096D01*
X125848863Y-44785762D01*
X125852180Y-44789050D01*
X125855942Y-44791808D01*
X125855945Y-44791811D01*
X125968299Y-44874192D01*
X126068954Y-44947995D01*
X126073089Y-44950171D01*
X126073093Y-44950173D01*
X126302698Y-45070975D01*
X126306840Y-45073154D01*
X126560613Y-45161775D01*
X126565206Y-45162647D01*
X126820109Y-45211042D01*
X126820112Y-45211042D01*
X126824698Y-45211913D01*
X126952370Y-45216929D01*
X127088625Y-45222283D01*
X127088630Y-45222283D01*
X127093293Y-45222466D01*
X127197607Y-45211042D01*
X127355844Y-45193713D01*
X127355850Y-45193712D01*
X127360497Y-45193203D01*
X127365021Y-45192012D01*
X127615918Y-45125956D01*
X127615920Y-45125955D01*
X127620441Y-45124765D01*
X127624738Y-45122919D01*
X127863120Y-45020502D01*
X127863122Y-45020501D01*
X127867414Y-45018657D01*
X127986071Y-44945230D01*
X128092017Y-44879669D01*
X128092021Y-44879666D01*
X128095990Y-44877210D01*
X128301149Y-44703530D01*
X128478382Y-44501434D01*
X128493742Y-44477555D01*
X128621269Y-44279291D01*
X128623797Y-44275361D01*
X128734199Y-44030278D01*
X128771209Y-43899051D01*
X128805893Y-43776072D01*
X128805894Y-43776069D01*
X128807163Y-43771568D01*
X128825043Y-43631019D01*
X128840688Y-43508045D01*
X128840688Y-43508041D01*
X128841086Y-43504915D01*
X128843571Y-43410000D01*
X128839697Y-43357872D01*
X128823996Y-43146592D01*
X128823996Y-43146591D01*
X128823650Y-43141937D01*
X128822619Y-43137379D01*
X128765361Y-42884331D01*
X128765360Y-42884326D01*
X128764327Y-42879763D01*
X128666902Y-42629238D01*
X128555107Y-42433637D01*
X128538500Y-42371114D01*
X128538500Y-37227031D01*
X128558502Y-37158910D01*
X128575405Y-37137936D01*
X129065666Y-36647675D01*
X129068188Y-36645221D01*
X129137012Y-36580138D01*
X129137014Y-36580135D01*
X129140681Y-36576668D01*
X129188411Y-36514239D01*
X129192552Y-36509108D01*
X129240191Y-36453133D01*
X129240192Y-36453132D01*
X129243470Y-36449280D01*
X129246089Y-36444955D01*
X129246093Y-36444950D01*
X129260491Y-36421176D01*
X129268163Y-36409929D01*
X129288120Y-36383826D01*
X129325243Y-36314592D01*
X129328507Y-36308868D01*
X129366601Y-36245968D01*
X129369221Y-36241642D01*
X129371116Y-36236953D01*
X129371119Y-36236946D01*
X129381533Y-36211172D01*
X129387312Y-36198836D01*
X129400440Y-36174351D01*
X129400442Y-36174347D01*
X129402831Y-36169891D01*
X129428405Y-36095619D01*
X129430715Y-36089439D01*
X129458263Y-36021257D01*
X129458264Y-36021254D01*
X129460156Y-36016571D01*
X129467436Y-35984529D01*
X129471169Y-35971425D01*
X129480216Y-35945149D01*
X129481862Y-35940369D01*
X129482722Y-35935389D01*
X129482725Y-35935378D01*
X129495238Y-35862935D01*
X129496530Y-35856467D01*
X129512815Y-35784788D01*
X129512816Y-35784779D01*
X129513935Y-35779855D01*
X129515999Y-35747049D01*
X129517586Y-35733545D01*
X129523179Y-35701164D01*
X129524500Y-35672075D01*
X129524500Y-35615892D01*
X129524749Y-35607980D01*
X129528860Y-35542641D01*
X129529178Y-35537587D01*
X129525101Y-35496006D01*
X129524500Y-35483711D01*
X129524500Y-34580887D01*
X129544502Y-34512766D01*
X129576438Y-34478952D01*
X129618140Y-34448654D01*
X129848233Y-34232582D01*
X130049432Y-33989375D01*
X130218562Y-33722869D01*
X130220246Y-33719290D01*
X130220250Y-33719283D01*
X130351267Y-33440856D01*
X130351269Y-33440852D01*
X130352956Y-33437266D01*
X130450495Y-33137072D01*
X130509641Y-32827020D01*
X130529460Y-32512000D01*
X145822540Y-32512000D01*
X145842359Y-32827020D01*
X145901505Y-33137072D01*
X145999044Y-33437266D01*
X146000731Y-33440852D01*
X146000733Y-33440856D01*
X146131750Y-33719283D01*
X146131754Y-33719290D01*
X146133438Y-33722869D01*
X146302568Y-33989375D01*
X146503767Y-34232582D01*
X146733860Y-34448654D01*
X146989221Y-34634184D01*
X147265821Y-34786247D01*
X147269490Y-34787700D01*
X147269495Y-34787702D01*
X147520215Y-34886969D01*
X147559298Y-34902443D01*
X147865025Y-34980940D01*
X148178179Y-35020500D01*
X148493821Y-35020500D01*
X148806975Y-34980940D01*
X149112702Y-34902443D01*
X149151785Y-34886969D01*
X149402505Y-34787702D01*
X149402510Y-34787700D01*
X149406179Y-34786247D01*
X149682779Y-34634184D01*
X149938140Y-34448654D01*
X150168233Y-34232582D01*
X150369432Y-33989375D01*
X150538562Y-33722869D01*
X150540246Y-33719290D01*
X150540250Y-33719283D01*
X150671267Y-33440856D01*
X150671269Y-33440852D01*
X150672956Y-33437266D01*
X150770495Y-33137072D01*
X150829641Y-32827020D01*
X150849460Y-32512000D01*
X150829641Y-32196980D01*
X150770495Y-31886928D01*
X150672956Y-31586734D01*
X150671267Y-31583144D01*
X150540250Y-31304717D01*
X150540246Y-31304710D01*
X150538562Y-31301131D01*
X150369432Y-31034625D01*
X150168233Y-30791418D01*
X149938140Y-30575346D01*
X149682779Y-30389816D01*
X149406179Y-30237753D01*
X149402510Y-30236300D01*
X149402505Y-30236298D01*
X149116372Y-30123010D01*
X149116371Y-30123010D01*
X149112702Y-30121557D01*
X148806975Y-30043060D01*
X148493821Y-30003500D01*
X148178179Y-30003500D01*
X147865025Y-30043060D01*
X147559298Y-30121557D01*
X147555629Y-30123010D01*
X147555628Y-30123010D01*
X147269495Y-30236298D01*
X147269490Y-30236300D01*
X147265821Y-30237753D01*
X146989221Y-30389816D01*
X146733860Y-30575346D01*
X146503767Y-30791418D01*
X146302568Y-31034625D01*
X146133438Y-31301131D01*
X146131754Y-31304710D01*
X146131750Y-31304717D01*
X146000733Y-31583144D01*
X145999044Y-31586734D01*
X145901505Y-31886928D01*
X145842359Y-32196980D01*
X145822540Y-32512000D01*
X130529460Y-32512000D01*
X130509641Y-32196980D01*
X130450495Y-31886928D01*
X130352956Y-31586734D01*
X130351267Y-31583144D01*
X130220250Y-31304717D01*
X130220246Y-31304710D01*
X130218562Y-31301131D01*
X130049432Y-31034625D01*
X129848233Y-30791418D01*
X129618140Y-30575346D01*
X129362779Y-30389816D01*
X129086179Y-30237753D01*
X129082510Y-30236300D01*
X129082505Y-30236298D01*
X128796372Y-30123010D01*
X128796371Y-30123010D01*
X128792702Y-30121557D01*
X128486975Y-30043060D01*
X128173821Y-30003500D01*
X127858179Y-30003500D01*
X127545025Y-30043060D01*
X127239298Y-30121557D01*
X127235629Y-30123010D01*
X127235628Y-30123010D01*
X126949495Y-30236298D01*
X126949490Y-30236300D01*
X126945821Y-30237753D01*
X126669221Y-30389816D01*
X126413860Y-30575346D01*
X126183767Y-30791418D01*
X125982568Y-31034625D01*
X125813438Y-31301131D01*
X125811754Y-31304710D01*
X125811750Y-31304717D01*
X125680733Y-31583144D01*
X125679044Y-31586734D01*
X125581505Y-31886928D01*
X125522359Y-32196980D01*
X125502540Y-32512000D01*
X125522359Y-32827020D01*
X125581505Y-33137072D01*
X125679044Y-33437266D01*
X125680731Y-33440852D01*
X125680733Y-33440856D01*
X125811750Y-33719283D01*
X125811754Y-33719290D01*
X125813438Y-33722869D01*
X125982568Y-33989375D01*
X126183767Y-34232582D01*
X126413860Y-34448654D01*
X126455561Y-34478951D01*
X126498914Y-34535172D01*
X126507500Y-34580887D01*
X126507500Y-34886969D01*
X126487498Y-34955090D01*
X126470595Y-34976064D01*
X125980334Y-35466325D01*
X125977812Y-35468779D01*
X125910375Y-35532551D01*
X125905319Y-35537332D01*
X125902252Y-35541344D01*
X125857592Y-35599757D01*
X125853448Y-35604892D01*
X125802530Y-35664720D01*
X125799911Y-35669045D01*
X125799907Y-35669050D01*
X125785509Y-35692824D01*
X125777837Y-35704071D01*
X125757880Y-35730174D01*
X125755490Y-35734632D01*
X125755489Y-35734633D01*
X125720761Y-35799401D01*
X125717496Y-35805126D01*
X125676779Y-35872358D01*
X125674884Y-35877049D01*
X125664473Y-35902817D01*
X125658693Y-35915158D01*
X125643169Y-35944109D01*
X125641523Y-35948890D01*
X125641521Y-35948894D01*
X125617588Y-36018401D01*
X125615278Y-36024579D01*
X125585845Y-36097429D01*
X125584723Y-36102368D01*
X125578568Y-36129460D01*
X125574837Y-36142559D01*
X125564138Y-36173631D01*
X125550757Y-36251100D01*
X125549477Y-36257504D01*
X125532065Y-36334144D01*
X125530001Y-36366953D01*
X125528415Y-36380453D01*
X125522821Y-36412836D01*
X125521500Y-36441925D01*
X125521500Y-36498108D01*
X125521251Y-36506019D01*
X125516822Y-36576413D01*
X125517316Y-36581448D01*
X125520899Y-36617992D01*
X125521500Y-36630288D01*
X125521500Y-42374421D01*
X125503219Y-42439787D01*
X125414096Y-42586656D01*
X125412287Y-42590970D01*
X125412285Y-42590974D01*
X125404032Y-42610656D01*
X125310148Y-42834545D01*
X125243981Y-43095077D01*
X125217050Y-43362526D01*
X121260259Y-43362526D01*
X121245650Y-43165937D01*
X121241273Y-43146592D01*
X121187361Y-42908331D01*
X121187360Y-42908326D01*
X121186327Y-42903763D01*
X121088902Y-42653238D01*
X120955518Y-42419864D01*
X120789105Y-42208769D01*
X120593317Y-42024591D01*
X120372457Y-41871374D01*
X120368264Y-41869306D01*
X120135564Y-41754551D01*
X120135561Y-41754550D01*
X120131376Y-41752486D01*
X120083745Y-41737239D01*
X120029621Y-41719914D01*
X119875370Y-41670538D01*
X119870763Y-41669788D01*
X119870760Y-41669787D01*
X119614674Y-41628081D01*
X119614675Y-41628081D01*
X119610063Y-41627330D01*
X119479719Y-41625624D01*
X119345961Y-41623873D01*
X119345958Y-41623873D01*
X119341284Y-41623812D01*
X119074937Y-41660060D01*
X118816874Y-41735278D01*
X118572763Y-41847815D01*
X118568854Y-41850378D01*
X118351881Y-41992631D01*
X118351876Y-41992635D01*
X118347968Y-41995197D01*
X118147426Y-42174188D01*
X117975544Y-42380854D01*
X117836096Y-42610656D01*
X117732148Y-42858545D01*
X117665981Y-43119077D01*
X117639050Y-43386526D01*
X117348500Y-43386526D01*
X117348500Y-29034500D01*
X117368502Y-28966379D01*
X117422158Y-28919886D01*
X117474500Y-28908500D01*
X161925500Y-28908500D01*
X161993621Y-28928502D01*
G37*
%TD.AperFunction*%
%TA.AperFunction,Conductor*%
G36*
X156188854Y-90936502D02*
G01*
X156228164Y-90976663D01*
X156315362Y-91118955D01*
X156469570Y-91299508D01*
X156491140Y-91317930D01*
X156502668Y-91329124D01*
X156698798Y-91545517D01*
X156706643Y-91555076D01*
X156903382Y-91820346D01*
X156910251Y-91830627D01*
X157080036Y-92113893D01*
X157085865Y-92124797D01*
X157147712Y-92255559D01*
X157210216Y-92387709D01*
X157227072Y-92423348D01*
X157231804Y-92434773D01*
X157343064Y-92745721D01*
X157346654Y-92757551D01*
X157366860Y-92838214D01*
X157426905Y-93077920D01*
X157429316Y-93090043D01*
X157458457Y-93286490D01*
X157477777Y-93416730D01*
X157478989Y-93429031D01*
X157481165Y-93473315D01*
X157493312Y-93720537D01*
X157493076Y-93736601D01*
X157490835Y-93765078D01*
X157491224Y-93770017D01*
X157495111Y-93819403D01*
X157495500Y-93829290D01*
X157495500Y-135024710D01*
X157495111Y-135034593D01*
X157490835Y-135088922D01*
X157491991Y-135103603D01*
X157493076Y-135117392D01*
X157493312Y-135133463D01*
X157478989Y-135424965D01*
X157477777Y-135437267D01*
X157455351Y-135588453D01*
X157429317Y-135763952D01*
X157426907Y-135776071D01*
X157366303Y-136018006D01*
X157346654Y-136096448D01*
X157343064Y-136108279D01*
X157231804Y-136419227D01*
X157227074Y-136430647D01*
X157182134Y-136525663D01*
X157085865Y-136729203D01*
X157080036Y-136740107D01*
X156910251Y-137023373D01*
X156903382Y-137033654D01*
X156706643Y-137298924D01*
X156698798Y-137308483D01*
X156502668Y-137524876D01*
X156491140Y-137536070D01*
X156469570Y-137554492D01*
X156466356Y-137558255D01*
X156466355Y-137558256D01*
X156434163Y-137595948D01*
X156427447Y-137603212D01*
X155069689Y-138960970D01*
X155062424Y-138967687D01*
X155020965Y-139003096D01*
X154998248Y-139029695D01*
X154988581Y-139039814D01*
X154743652Y-139269214D01*
X154621717Y-139383418D01*
X154615518Y-139388854D01*
X154192352Y-139736136D01*
X154185817Y-139741152D01*
X153963327Y-139900584D01*
X153740843Y-140060013D01*
X153733987Y-140064594D01*
X153545338Y-140181903D01*
X153269106Y-140353674D01*
X153261985Y-140357785D01*
X153020588Y-140486814D01*
X152779200Y-140615837D01*
X152771805Y-140619484D01*
X152273174Y-140845409D01*
X152265556Y-140848564D01*
X151753242Y-141041383D01*
X151745435Y-141044034D01*
X151221574Y-141202944D01*
X151213609Y-141205078D01*
X150680486Y-141329383D01*
X150672399Y-141330991D01*
X150132299Y-141420160D01*
X150124125Y-141421236D01*
X149846371Y-141448592D01*
X149579344Y-141474891D01*
X149571139Y-141475429D01*
X149341460Y-141482947D01*
X149068508Y-141491881D01*
X149054502Y-141491560D01*
X149024801Y-141489223D01*
X149024799Y-141489223D01*
X149019869Y-141488835D01*
X149014939Y-141489223D01*
X148965523Y-141493112D01*
X148955637Y-141493500D01*
X146496999Y-141493500D01*
X146494491Y-141493702D01*
X146494486Y-141493702D01*
X146321076Y-141507654D01*
X146321071Y-141507655D01*
X146316035Y-141508060D01*
X146311127Y-141509266D01*
X146311124Y-141509266D01*
X146219284Y-141531824D01*
X146080294Y-141565963D01*
X146075642Y-141567938D01*
X146075638Y-141567939D01*
X146003279Y-141598654D01*
X145856844Y-141660812D01*
X145852564Y-141663508D01*
X145852557Y-141663511D01*
X145835713Y-141674119D01*
X145768569Y-141693500D01*
X145076517Y-141693500D01*
X145014335Y-141700255D01*
X144877946Y-141751385D01*
X144761390Y-141838739D01*
X144674036Y-141955295D01*
X144622906Y-142091684D01*
X144616151Y-142153866D01*
X144616151Y-142655299D01*
X144596149Y-142723420D01*
X144579246Y-142744394D01*
X143912604Y-143411036D01*
X143850292Y-143445062D01*
X143779477Y-143439997D01*
X143722641Y-143397450D01*
X143697830Y-143330930D01*
X143701803Y-143289329D01*
X143716275Y-143235320D01*
X143718179Y-143224519D01*
X143737168Y-143007475D01*
X143737168Y-142996525D01*
X143718179Y-142779481D01*
X143716276Y-142768688D01*
X143659887Y-142558239D01*
X143656141Y-142547947D01*
X143564065Y-142350489D01*
X143558582Y-142340994D01*
X143522142Y-142288952D01*
X143511663Y-142280576D01*
X143498217Y-142287644D01*
X141709574Y-144076287D01*
X141703144Y-144088062D01*
X141712440Y-144100077D01*
X141763645Y-144135931D01*
X141773140Y-144141414D01*
X141970598Y-144233490D01*
X141980890Y-144237236D01*
X142191339Y-144293625D01*
X142202132Y-144295528D01*
X142419176Y-144314517D01*
X142430126Y-144314517D01*
X142647170Y-144295528D01*
X142657963Y-144293625D01*
X142868412Y-144237236D01*
X142878704Y-144233490D01*
X143009345Y-144172571D01*
X143079537Y-144161910D01*
X143144349Y-144190890D01*
X143183206Y-144250310D01*
X143183406Y-144322554D01*
X143182477Y-144325689D01*
X143180234Y-144331255D01*
X143179085Y-144337140D01*
X143179083Y-144337146D01*
X143173637Y-144365036D01*
X143169975Y-144379299D01*
X143159481Y-144412083D01*
X143158766Y-144418032D01*
X143158765Y-144418038D01*
X143152089Y-144473606D01*
X143150653Y-144482726D01*
X143144388Y-144514811D01*
X143138778Y-144543538D01*
X143138500Y-144549222D01*
X143138500Y-144579196D01*
X143137601Y-144594224D01*
X143134480Y-144620207D01*
X143133684Y-144626831D01*
X143134107Y-144632807D01*
X143134107Y-144632810D01*
X143138185Y-144690402D01*
X143138500Y-144699301D01*
X143138500Y-148723069D01*
X143137567Y-148734128D01*
X143137847Y-148734149D01*
X143137408Y-148740125D01*
X143136402Y-148746043D01*
X143136533Y-148752044D01*
X143136533Y-148752045D01*
X143136647Y-148757271D01*
X143136590Y-148759505D01*
X143136402Y-148760607D01*
X143136475Y-148763954D01*
X143136475Y-148763956D01*
X143138470Y-148855370D01*
X143138500Y-148858119D01*
X143138500Y-148898041D01*
X143139231Y-148905705D01*
X143139769Y-148914901D01*
X143141121Y-148976848D01*
X143146431Y-149001511D01*
X143148365Y-149010494D01*
X143150617Y-149025044D01*
X143153887Y-149059315D01*
X143155577Y-149065075D01*
X143155577Y-149065076D01*
X143171329Y-149118768D01*
X143173603Y-149127717D01*
X143186644Y-149188295D01*
X143188992Y-149193814D01*
X143188993Y-149193816D01*
X143200120Y-149219966D01*
X143205083Y-149233827D01*
X143214774Y-149266860D01*
X143217518Y-149272187D01*
X143217518Y-149272188D01*
X143243139Y-149321934D01*
X143247061Y-149330286D01*
X143271329Y-149387320D01*
X143277495Y-149396478D01*
X143290556Y-149415879D01*
X143298052Y-149428554D01*
X143313809Y-149459148D01*
X143352083Y-149507874D01*
X143357506Y-149515324D01*
X143392122Y-149566740D01*
X143395945Y-149570956D01*
X143417138Y-149592149D01*
X143427130Y-149603412D01*
X143445249Y-149626479D01*
X143462513Y-149655954D01*
X143476273Y-149689062D01*
X144050000Y-150262790D01*
X144980236Y-151193025D01*
X145018860Y-151214115D01*
X145035514Y-151217739D01*
X145064217Y-151239228D01*
X145286707Y-151461718D01*
X145289025Y-151463632D01*
X145289027Y-151463634D01*
X145365691Y-151526943D01*
X145374556Y-151535003D01*
X145551732Y-151712179D01*
X145565407Y-151728374D01*
X145602043Y-151780021D01*
X145758285Y-151929590D01*
X145763320Y-151932841D01*
X145934954Y-152043664D01*
X145934957Y-152043665D01*
X145939991Y-152046916D01*
X146140604Y-152127766D01*
X146146487Y-152128915D01*
X146146491Y-152128916D01*
X146211734Y-152141657D01*
X146225993Y-152145318D01*
X146230279Y-152146690D01*
X146230290Y-152146692D01*
X146235996Y-152148519D01*
X146259676Y-152151364D01*
X146268791Y-152152799D01*
X146305775Y-152160022D01*
X146348441Y-152168354D01*
X146348444Y-152168354D01*
X146352887Y-152169222D01*
X146358571Y-152169500D01*
X146403109Y-152169500D01*
X146418137Y-152170399D01*
X146444797Y-152173602D01*
X146444801Y-152173602D01*
X146450744Y-152174316D01*
X146456720Y-152173893D01*
X146456723Y-152173893D01*
X146514319Y-152169815D01*
X146523217Y-152169500D01*
X153070067Y-152169500D01*
X153138188Y-152189502D01*
X153169374Y-152218571D01*
X153169415Y-152218535D01*
X153169755Y-152218926D01*
X153171022Y-152220107D01*
X153175281Y-152225810D01*
X153178590Y-152229090D01*
X153178595Y-152229096D01*
X153307597Y-152356976D01*
X153366180Y-152415050D01*
X153369942Y-152417808D01*
X153369945Y-152417811D01*
X153462481Y-152485661D01*
X153582954Y-152573995D01*
X153587089Y-152576171D01*
X153587093Y-152576173D01*
X153816698Y-152696975D01*
X153820840Y-152699154D01*
X154074613Y-152787775D01*
X154079206Y-152788647D01*
X154334109Y-152837042D01*
X154334112Y-152837042D01*
X154338698Y-152837913D01*
X154466370Y-152842929D01*
X154602625Y-152848283D01*
X154602630Y-152848283D01*
X154607293Y-152848466D01*
X154711607Y-152837042D01*
X154869844Y-152819713D01*
X154869850Y-152819712D01*
X154874497Y-152819203D01*
X154879021Y-152818012D01*
X155129918Y-152751956D01*
X155129920Y-152751955D01*
X155134441Y-152750765D01*
X155138738Y-152748919D01*
X155377120Y-152646502D01*
X155377122Y-152646501D01*
X155381414Y-152644657D01*
X155500071Y-152571230D01*
X155606017Y-152505669D01*
X155606021Y-152505666D01*
X155609990Y-152503210D01*
X155782729Y-152356976D01*
X155847644Y-152328228D01*
X155917797Y-152339139D01*
X155962474Y-152374362D01*
X156036313Y-152466528D01*
X156074968Y-152503210D01*
X156221428Y-152642195D01*
X156244851Y-152664423D01*
X156478317Y-152832186D01*
X156714629Y-152957307D01*
X156765469Y-153006857D01*
X156781451Y-153076032D01*
X156757497Y-153142865D01*
X156713457Y-153180625D01*
X156501793Y-153289873D01*
X156497188Y-153292250D01*
X156493687Y-153294711D01*
X156493683Y-153294713D01*
X156432145Y-153337963D01*
X156261977Y-153457559D01*
X156051378Y-153653260D01*
X156023007Y-153687923D01*
X155960380Y-153764438D01*
X155901755Y-153804484D01*
X155830787Y-153806477D01*
X155776543Y-153776407D01*
X155688726Y-153693797D01*
X155688719Y-153693792D01*
X155685317Y-153690591D01*
X155464457Y-153537374D01*
X155460264Y-153535306D01*
X155227564Y-153420551D01*
X155227561Y-153420550D01*
X155223376Y-153418486D01*
X155175745Y-153403239D01*
X155121621Y-153385914D01*
X154967370Y-153336538D01*
X154962763Y-153335788D01*
X154962760Y-153335787D01*
X154706674Y-153294081D01*
X154706675Y-153294081D01*
X154702063Y-153293330D01*
X154571719Y-153291624D01*
X154437961Y-153289873D01*
X154437958Y-153289873D01*
X154433284Y-153289812D01*
X154166937Y-153326060D01*
X153908874Y-153401278D01*
X153664763Y-153513815D01*
X153660854Y-153516378D01*
X153443881Y-153658631D01*
X153443876Y-153658635D01*
X153439968Y-153661197D01*
X153410024Y-153687923D01*
X153324297Y-153764438D01*
X153239426Y-153840188D01*
X153236433Y-153843787D01*
X153172158Y-153921069D01*
X153113221Y-153960653D01*
X153075284Y-153966500D01*
X148028367Y-153966500D01*
X148017306Y-153965567D01*
X148017285Y-153965847D01*
X148011312Y-153965408D01*
X148005393Y-153964402D01*
X147910610Y-153966470D01*
X147907862Y-153966500D01*
X147867959Y-153966500D01*
X147860311Y-153967230D01*
X147851104Y-153967769D01*
X147827782Y-153968277D01*
X147795146Y-153968989D01*
X147795143Y-153968989D01*
X147789152Y-153969120D01*
X147755504Y-153976365D01*
X147740952Y-153978618D01*
X147706685Y-153981887D01*
X147700937Y-153983573D01*
X147700928Y-153983575D01*
X147647217Y-153999332D01*
X147638270Y-154001604D01*
X147599570Y-154009936D01*
X147577705Y-154014644D01*
X147572190Y-154016991D01*
X147572189Y-154016991D01*
X147546034Y-154028120D01*
X147532173Y-154033083D01*
X147499140Y-154042774D01*
X147493816Y-154045516D01*
X147444054Y-154071145D01*
X147435697Y-154075068D01*
X147408315Y-154086720D01*
X147378681Y-154099329D01*
X147373704Y-154102680D01*
X147350125Y-154118554D01*
X147337449Y-154126050D01*
X147306852Y-154141809D01*
X147302135Y-154145515D01*
X147302134Y-154145515D01*
X147258133Y-154180079D01*
X147250669Y-154185512D01*
X147199260Y-154220122D01*
X147195044Y-154223945D01*
X147173851Y-154245138D01*
X147162590Y-154255128D01*
X147136761Y-154275417D01*
X147132830Y-154279947D01*
X147132829Y-154279948D01*
X147094981Y-154323564D01*
X147088911Y-154330078D01*
X145323709Y-156095280D01*
X145315224Y-156102444D01*
X145315408Y-156102657D01*
X145310872Y-156106572D01*
X145305979Y-156110043D01*
X145301833Y-156114374D01*
X145240395Y-156178553D01*
X145238472Y-156180517D01*
X145210282Y-156208707D01*
X145208373Y-156211019D01*
X145208370Y-156211022D01*
X145205396Y-156214624D01*
X145199261Y-156221521D01*
X145160563Y-156261946D01*
X145160560Y-156261950D01*
X145156410Y-156266285D01*
X145153157Y-156271324D01*
X145153154Y-156271327D01*
X145137740Y-156295200D01*
X145129042Y-156307083D01*
X145107124Y-156333625D01*
X145105590Y-156336433D01*
X145051564Y-156381028D01*
X144998763Y-156389868D01*
X144982449Y-156398762D01*
X144050000Y-157331210D01*
X143479262Y-157901949D01*
X143473067Y-157913294D01*
X143482949Y-157925784D01*
X143514239Y-157946691D01*
X143524349Y-157952181D01*
X143700835Y-158028005D01*
X143711778Y-158031560D01*
X143899120Y-158073952D01*
X143910530Y-158075454D01*
X144102469Y-158082995D01*
X144113951Y-158082393D01*
X144304045Y-158054832D01*
X144315240Y-158052144D01*
X144497131Y-157990400D01*
X144507628Y-157985726D01*
X144675233Y-157891863D01*
X144684698Y-157885358D01*
X144709931Y-157864372D01*
X144775096Y-157836192D01*
X144845151Y-157847716D01*
X144897855Y-157895285D01*
X144916500Y-157961247D01*
X144916500Y-163094587D01*
X144896498Y-163162708D01*
X144886898Y-163174620D01*
X144886739Y-163174739D01*
X144885905Y-163175852D01*
X144885900Y-163175858D01*
X144864757Y-163204069D01*
X144799385Y-163291295D01*
X144748255Y-163427684D01*
X144741500Y-163489866D01*
X144741500Y-165186134D01*
X144748255Y-165248316D01*
X144799385Y-165384705D01*
X144837447Y-165435491D01*
X144886739Y-165501261D01*
X144885135Y-165502463D01*
X144913621Y-165554630D01*
X144916500Y-165581413D01*
X144916500Y-170672969D01*
X144896498Y-170741090D01*
X144842842Y-170787583D01*
X144772568Y-170797687D01*
X144707988Y-170768193D01*
X144701405Y-170762064D01*
X139363403Y-165424062D01*
X141828493Y-165424062D01*
X141837789Y-165436077D01*
X141888994Y-165471931D01*
X141898489Y-165477414D01*
X142095947Y-165569490D01*
X142106239Y-165573236D01*
X142316688Y-165629625D01*
X142327481Y-165631528D01*
X142544525Y-165650517D01*
X142555475Y-165650517D01*
X142772519Y-165631528D01*
X142783312Y-165629625D01*
X142993761Y-165573236D01*
X143004053Y-165569490D01*
X143201511Y-165477414D01*
X143211006Y-165471931D01*
X143263048Y-165435491D01*
X143271424Y-165425012D01*
X143264356Y-165411566D01*
X142562812Y-164710022D01*
X142548868Y-164702408D01*
X142547035Y-164702539D01*
X142540420Y-164706790D01*
X141834923Y-165412287D01*
X141828493Y-165424062D01*
X139363403Y-165424062D01*
X139351399Y-165412058D01*
X139344683Y-165404793D01*
X139312492Y-165367102D01*
X139309279Y-165363340D01*
X139282678Y-165340621D01*
X139272559Y-165330955D01*
X138928938Y-164964077D01*
X138923508Y-164957884D01*
X138909197Y-164940445D01*
X138576233Y-164534729D01*
X138571213Y-164528187D01*
X138438850Y-164343475D01*
X141237483Y-164343475D01*
X141256472Y-164560519D01*
X141258375Y-164571312D01*
X141314764Y-164781761D01*
X141318510Y-164792053D01*
X141410586Y-164989511D01*
X141416069Y-164999006D01*
X141452509Y-165051048D01*
X141462988Y-165059424D01*
X141476434Y-165052356D01*
X142177978Y-164350812D01*
X142184356Y-164339132D01*
X142914408Y-164339132D01*
X142914539Y-164340965D01*
X142918790Y-164347580D01*
X143624287Y-165053077D01*
X143636062Y-165059507D01*
X143648077Y-165050211D01*
X143683931Y-164999006D01*
X143689414Y-164989511D01*
X143781490Y-164792053D01*
X143785236Y-164781761D01*
X143841625Y-164571312D01*
X143843528Y-164560519D01*
X143862517Y-164343475D01*
X143862517Y-164332525D01*
X143843528Y-164115481D01*
X143841625Y-164104688D01*
X143785236Y-163894239D01*
X143781490Y-163883947D01*
X143689414Y-163686489D01*
X143683931Y-163676994D01*
X143647491Y-163624952D01*
X143637012Y-163616576D01*
X143623566Y-163623644D01*
X142922022Y-164325188D01*
X142914408Y-164339132D01*
X142184356Y-164339132D01*
X142185592Y-164336868D01*
X142185461Y-164335035D01*
X142181210Y-164328420D01*
X141475713Y-163622923D01*
X141463938Y-163616493D01*
X141451923Y-163625789D01*
X141416069Y-163676994D01*
X141410586Y-163686489D01*
X141318510Y-163883947D01*
X141314764Y-163894239D01*
X141258375Y-164104688D01*
X141256472Y-164115481D01*
X141237483Y-164332525D01*
X141237483Y-164343475D01*
X138438850Y-164343475D01*
X138431003Y-164332525D01*
X138252346Y-164083210D01*
X138247768Y-164076358D01*
X138134519Y-163894239D01*
X137958696Y-163611495D01*
X137954573Y-163604354D01*
X137765694Y-163250988D01*
X141828576Y-163250988D01*
X141835644Y-163264434D01*
X142537188Y-163965978D01*
X142551132Y-163973592D01*
X142552965Y-163973461D01*
X142559580Y-163969210D01*
X143265077Y-163263713D01*
X143271507Y-163251938D01*
X143262211Y-163239923D01*
X143211006Y-163204069D01*
X143201511Y-163198586D01*
X143004053Y-163106510D01*
X142993761Y-163102764D01*
X142783312Y-163046375D01*
X142772519Y-163044472D01*
X142555475Y-163025483D01*
X142544525Y-163025483D01*
X142327481Y-163044472D01*
X142316688Y-163046375D01*
X142106239Y-163102764D01*
X142095947Y-163106510D01*
X141898489Y-163198586D01*
X141888994Y-163204069D01*
X141836952Y-163240509D01*
X141828576Y-163250988D01*
X137765694Y-163250988D01*
X137696521Y-163121575D01*
X137692874Y-163114180D01*
X137466947Y-162615553D01*
X137463792Y-162607936D01*
X137270960Y-162095597D01*
X137268310Y-162087789D01*
X137141109Y-161668471D01*
X137109400Y-161563939D01*
X137107268Y-161555984D01*
X137105644Y-161549016D01*
X136982962Y-161022870D01*
X136981353Y-161014784D01*
X136947361Y-160808904D01*
X136892175Y-160474654D01*
X136891101Y-160466494D01*
X136883037Y-160384614D01*
X136837442Y-159921713D01*
X136836903Y-159913495D01*
X136836644Y-159905568D01*
X136828372Y-159652917D01*
X136820463Y-159411324D01*
X136820784Y-159397318D01*
X136823156Y-159367169D01*
X136823156Y-159367167D01*
X136823544Y-159362236D01*
X136819267Y-159307895D01*
X136818879Y-159298009D01*
X136818879Y-156948638D01*
X142938012Y-156948638D01*
X142950575Y-157140304D01*
X142952376Y-157151674D01*
X142999657Y-157337843D01*
X143003498Y-157348690D01*
X143083916Y-157523130D01*
X143089664Y-157533086D01*
X143095788Y-157541751D01*
X143106377Y-157550140D01*
X143119676Y-157543113D01*
X143677979Y-156984811D01*
X143685592Y-156970868D01*
X143685461Y-156969034D01*
X143681210Y-156962420D01*
X143118538Y-156399749D01*
X143106163Y-156392992D01*
X143100197Y-156397458D01*
X143024645Y-156541058D01*
X143020242Y-156551691D01*
X142963281Y-156735132D01*
X142960891Y-156746376D01*
X142938313Y-156937137D01*
X142938012Y-156948638D01*
X136818879Y-156948638D01*
X136818879Y-156030675D01*
X143472788Y-156030675D01*
X143476275Y-156039064D01*
X144037189Y-156599979D01*
X144051132Y-156607592D01*
X144052966Y-156607461D01*
X144059580Y-156603210D01*
X144620285Y-156042504D01*
X144627042Y-156030129D01*
X144621012Y-156022073D01*
X144560061Y-155983616D01*
X144549813Y-155978395D01*
X144371401Y-155907216D01*
X144360373Y-155903949D01*
X144171982Y-155866476D01*
X144160535Y-155865273D01*
X143968477Y-155862759D01*
X143956997Y-155863662D01*
X143767697Y-155896190D01*
X143756577Y-155899170D01*
X143576365Y-155965653D01*
X143565991Y-155970601D01*
X143482385Y-156020342D01*
X143472788Y-156030675D01*
X136818879Y-156030675D01*
X136818879Y-151563294D01*
X143473066Y-151563294D01*
X143482948Y-151575783D01*
X143514239Y-151596691D01*
X143524349Y-151602181D01*
X143700835Y-151678005D01*
X143711778Y-151681560D01*
X143899120Y-151723952D01*
X143910530Y-151725454D01*
X144102469Y-151732995D01*
X144113951Y-151732393D01*
X144304045Y-151704832D01*
X144315240Y-151702144D01*
X144497131Y-151640400D01*
X144507628Y-151635726D01*
X144618032Y-151573898D01*
X144627895Y-151563821D01*
X144624940Y-151556151D01*
X144062811Y-150994021D01*
X144048868Y-150986408D01*
X144047034Y-150986539D01*
X144040420Y-150990790D01*
X143479259Y-151551952D01*
X143473066Y-151563294D01*
X136818879Y-151563294D01*
X136818879Y-150598638D01*
X142938012Y-150598638D01*
X142950575Y-150790304D01*
X142952376Y-150801674D01*
X142999657Y-150987843D01*
X143003498Y-150998690D01*
X143083916Y-151173130D01*
X143089664Y-151183086D01*
X143095788Y-151191751D01*
X143106377Y-151200140D01*
X143119676Y-151193113D01*
X143677979Y-150634811D01*
X143685592Y-150620868D01*
X143685461Y-150619034D01*
X143681210Y-150612420D01*
X143118538Y-150049749D01*
X143106163Y-150042992D01*
X143100197Y-150047458D01*
X143024645Y-150191058D01*
X143020242Y-150201691D01*
X142963281Y-150385132D01*
X142960891Y-150396376D01*
X142938313Y-150587137D01*
X142938012Y-150598638D01*
X136818879Y-150598638D01*
X136818879Y-144865735D01*
X136838881Y-144797614D01*
X136892537Y-144751121D01*
X136931409Y-144740457D01*
X136956858Y-144737721D01*
X137285786Y-144702355D01*
X137743301Y-144619807D01*
X138013763Y-144550774D01*
X138191587Y-144505386D01*
X138191590Y-144505385D01*
X138193761Y-144504831D01*
X138195874Y-144504128D01*
X138195890Y-144504123D01*
X138632734Y-144358725D01*
X138632744Y-144358721D01*
X138634872Y-144358013D01*
X139064384Y-144180100D01*
X139480111Y-143972000D01*
X139588800Y-143907511D01*
X139878003Y-143735917D01*
X139878012Y-143735911D01*
X139879932Y-143734772D01*
X140019427Y-143637918D01*
X140259951Y-143470918D01*
X140259961Y-143470910D01*
X140261811Y-143469626D01*
X140623802Y-143177912D01*
X140900275Y-142920504D01*
X140963762Y-142888724D01*
X141034352Y-142896313D01*
X141089633Y-142940861D01*
X141108853Y-143002245D01*
X141111655Y-143002000D01*
X141131123Y-143224519D01*
X141133026Y-143235312D01*
X141189415Y-143445761D01*
X141193161Y-143456053D01*
X141285237Y-143653511D01*
X141290720Y-143663006D01*
X141327160Y-143715048D01*
X141337639Y-143723424D01*
X141351085Y-143716356D01*
X143139728Y-141927713D01*
X143146158Y-141915938D01*
X143136862Y-141903923D01*
X143085657Y-141868069D01*
X143076162Y-141862586D01*
X142878704Y-141770510D01*
X142868412Y-141766764D01*
X142657963Y-141710375D01*
X142647170Y-141708472D01*
X142430126Y-141689483D01*
X142419176Y-141689483D01*
X142336694Y-141696699D01*
X142267090Y-141682710D01*
X142216097Y-141633310D01*
X142199907Y-141564184D01*
X142222214Y-141499317D01*
X142226523Y-141493112D01*
X142456246Y-141162251D01*
X142463508Y-141151792D01*
X142463509Y-141151790D01*
X142464791Y-141149944D01*
X142548739Y-141008458D01*
X142700872Y-140752055D01*
X142700878Y-140752044D01*
X142702019Y-140750121D01*
X142910120Y-140334394D01*
X143088034Y-139904879D01*
X143108327Y-139843911D01*
X143234145Y-139465895D01*
X143234147Y-139465888D01*
X143234853Y-139463767D01*
X143262921Y-139353802D01*
X143349275Y-139015475D01*
X143349829Y-139013305D01*
X143350992Y-139006862D01*
X143417823Y-138636453D01*
X143432377Y-138555789D01*
X143482076Y-138093549D01*
X143498166Y-137643099D01*
X143498475Y-137637706D01*
X143498776Y-137633880D01*
X143499165Y-137628942D01*
X143494888Y-137574593D01*
X143494500Y-137564708D01*
X143494500Y-110490000D01*
X151864547Y-110490000D01*
X151884339Y-110791966D01*
X151943376Y-111088766D01*
X152040648Y-111375320D01*
X152174491Y-111646726D01*
X152342614Y-111898341D01*
X152345328Y-111901435D01*
X152345332Y-111901441D01*
X152539433Y-112122769D01*
X152542142Y-112125858D01*
X152545231Y-112128567D01*
X152766559Y-112322668D01*
X152766565Y-112322672D01*
X152769659Y-112325386D01*
X152773085Y-112327675D01*
X152773090Y-112327679D01*
X152961371Y-112453484D01*
X153021273Y-112493509D01*
X153024972Y-112495333D01*
X153024977Y-112495336D01*
X153164308Y-112564046D01*
X153292680Y-112627352D01*
X153296585Y-112628677D01*
X153296586Y-112628678D01*
X153575327Y-112723298D01*
X153575330Y-112723299D01*
X153579234Y-112724624D01*
X153583273Y-112725427D01*
X153583279Y-112725429D01*
X153871991Y-112782857D01*
X153871994Y-112782857D01*
X153876034Y-112783661D01*
X153880145Y-112783930D01*
X153880149Y-112783931D01*
X154173881Y-112803183D01*
X154178000Y-112803453D01*
X154182119Y-112803183D01*
X154475851Y-112783931D01*
X154475855Y-112783930D01*
X154479966Y-112783661D01*
X154484006Y-112782857D01*
X154484009Y-112782857D01*
X154772721Y-112725429D01*
X154772727Y-112725427D01*
X154776766Y-112724624D01*
X154780670Y-112723299D01*
X154780673Y-112723298D01*
X155059414Y-112628678D01*
X155059415Y-112628677D01*
X155063320Y-112627352D01*
X155191692Y-112564046D01*
X155331023Y-112495336D01*
X155331028Y-112495333D01*
X155334727Y-112493509D01*
X155394629Y-112453484D01*
X155582910Y-112327679D01*
X155582915Y-112327675D01*
X155586341Y-112325386D01*
X155589435Y-112322672D01*
X155589441Y-112322668D01*
X155810769Y-112128567D01*
X155813858Y-112125858D01*
X155816567Y-112122769D01*
X156010668Y-111901441D01*
X156010672Y-111901435D01*
X156013386Y-111898341D01*
X156181509Y-111646726D01*
X156315352Y-111375320D01*
X156412624Y-111088766D01*
X156471661Y-110791966D01*
X156491453Y-110490000D01*
X156471661Y-110188034D01*
X156412624Y-109891234D01*
X156315352Y-109604680D01*
X156181509Y-109333274D01*
X156013386Y-109081659D01*
X156010672Y-109078565D01*
X156010668Y-109078559D01*
X155816567Y-108857231D01*
X155813858Y-108854142D01*
X155810769Y-108851433D01*
X155589441Y-108657332D01*
X155589435Y-108657328D01*
X155586341Y-108654614D01*
X155582911Y-108652322D01*
X155582910Y-108652321D01*
X155338160Y-108488785D01*
X155334727Y-108486491D01*
X155331028Y-108484667D01*
X155331023Y-108484664D01*
X155191692Y-108415954D01*
X155063320Y-108352648D01*
X155059414Y-108351322D01*
X154780673Y-108256702D01*
X154780670Y-108256701D01*
X154776766Y-108255376D01*
X154772727Y-108254573D01*
X154772721Y-108254571D01*
X154484009Y-108197143D01*
X154484006Y-108197143D01*
X154479966Y-108196339D01*
X154475855Y-108196070D01*
X154475851Y-108196069D01*
X154182119Y-108176817D01*
X154178000Y-108176547D01*
X154173881Y-108176817D01*
X153880149Y-108196069D01*
X153880145Y-108196070D01*
X153876034Y-108196339D01*
X153871994Y-108197143D01*
X153871991Y-108197143D01*
X153583279Y-108254571D01*
X153583273Y-108254573D01*
X153579234Y-108255376D01*
X153575330Y-108256701D01*
X153575327Y-108256702D01*
X153296586Y-108351322D01*
X153292680Y-108352648D01*
X153164442Y-108415888D01*
X153024978Y-108484664D01*
X153024973Y-108484667D01*
X153021274Y-108486491D01*
X152769659Y-108654614D01*
X152766565Y-108657328D01*
X152766559Y-108657332D01*
X152545231Y-108851433D01*
X152542142Y-108854142D01*
X152539433Y-108857231D01*
X152345332Y-109078559D01*
X152345328Y-109078565D01*
X152342614Y-109081659D01*
X152174491Y-109333274D01*
X152040648Y-109604680D01*
X151943376Y-109891234D01*
X151884339Y-110188034D01*
X151864547Y-110490000D01*
X143494500Y-110490000D01*
X143494500Y-99163290D01*
X143494889Y-99153403D01*
X143498776Y-99104017D01*
X143499165Y-99099078D01*
X143496911Y-99070430D01*
X143496675Y-99054368D01*
X143510989Y-98763034D01*
X143512201Y-98750728D01*
X143529450Y-98634451D01*
X143560663Y-98424039D01*
X143563074Y-98411917D01*
X143643325Y-98091547D01*
X143646915Y-98079714D01*
X143758178Y-97768759D01*
X143762906Y-97757346D01*
X143904117Y-97458783D01*
X143909937Y-97447893D01*
X144079735Y-97164606D01*
X144086596Y-97154337D01*
X144283340Y-96889061D01*
X144291185Y-96879503D01*
X144487199Y-96663237D01*
X144498718Y-96652052D01*
X144520430Y-96633508D01*
X144555838Y-96592051D01*
X144562553Y-96584788D01*
X146622788Y-94524553D01*
X146630052Y-94517837D01*
X146667744Y-94485645D01*
X146667745Y-94485644D01*
X146671508Y-94482430D01*
X146689930Y-94460860D01*
X146701124Y-94449332D01*
X146917517Y-94253202D01*
X146927076Y-94245357D01*
X147192346Y-94048618D01*
X147202627Y-94041749D01*
X147485893Y-93871964D01*
X147496797Y-93866135D01*
X147710502Y-93765058D01*
X147795353Y-93724926D01*
X147806773Y-93720196D01*
X148117721Y-93608936D01*
X148129552Y-93605346D01*
X148449929Y-93525093D01*
X148462043Y-93522684D01*
X148788733Y-93474223D01*
X148801031Y-93473011D01*
X149092543Y-93458688D01*
X149108601Y-93458924D01*
X149129523Y-93460570D01*
X149132147Y-93460777D01*
X149132148Y-93460777D01*
X149137078Y-93461165D01*
X149191403Y-93456889D01*
X149201290Y-93456500D01*
X154747001Y-93456500D01*
X154749509Y-93456298D01*
X154749514Y-93456298D01*
X154922924Y-93442346D01*
X154922929Y-93442345D01*
X154927965Y-93441940D01*
X154932873Y-93440734D01*
X154932876Y-93440734D01*
X155158792Y-93385244D01*
X155163706Y-93384037D01*
X155168358Y-93382062D01*
X155168362Y-93382061D01*
X155355319Y-93302702D01*
X155387156Y-93289188D01*
X155463646Y-93241019D01*
X155588288Y-93162528D01*
X155588291Y-93162526D01*
X155592567Y-93159833D01*
X155685480Y-93077920D01*
X155770858Y-93002650D01*
X155770861Y-93002647D01*
X155774655Y-92999302D01*
X155905130Y-92840458D01*
X155925526Y-92815628D01*
X155925528Y-92815625D01*
X155928734Y-92811722D01*
X156050841Y-92601922D01*
X156131722Y-92391219D01*
X156136018Y-92380028D01*
X156136020Y-92380021D01*
X156137833Y-92375298D01*
X156144250Y-92344582D01*
X156148813Y-92328292D01*
X156150870Y-92322485D01*
X156162140Y-92259220D01*
X156162848Y-92255559D01*
X156186439Y-92142634D01*
X156187474Y-92137680D01*
X156188360Y-92118160D01*
X156190182Y-92101791D01*
X156193001Y-92085963D01*
X156194146Y-91992274D01*
X156194267Y-91988099D01*
X156198257Y-91900238D01*
X156198257Y-91900231D01*
X156198486Y-91895183D01*
X156196557Y-91878509D01*
X156195731Y-91862489D01*
X156195873Y-91850906D01*
X156195873Y-91850904D01*
X156195936Y-91845737D01*
X156183282Y-91763038D01*
X156182669Y-91758479D01*
X156170585Y-91654044D01*
X156164037Y-91630905D01*
X156160729Y-91615663D01*
X156159596Y-91608256D01*
X156145719Y-91565798D01*
X156144253Y-91560990D01*
X156141173Y-91550103D01*
X156104490Y-91420468D01*
X156102356Y-91415892D01*
X156102354Y-91415886D01*
X156004038Y-91205046D01*
X156004036Y-91205042D01*
X156001901Y-91200464D01*
X155999063Y-91196288D01*
X155999059Y-91196281D01*
X155942680Y-91113323D01*
X155920934Y-91045738D01*
X155939178Y-90977126D01*
X155991621Y-90929269D01*
X156046892Y-90916500D01*
X156120733Y-90916500D01*
X156188854Y-90936502D01*
G37*
%TD.AperFunction*%
%TD*%
M02*
