  0
SECTION
  2
HEADER
  9
$ANGBASE
  50
0.0
  9
$ANGDIR
  70
1
  9
$MEASUREMENT
  70
0
  0
ENDSEC
  0
SECTION
  2
TABLES
  0
TABLE
  2
LTYPE
  70
4
  0
LTYPE
  5
40F
  2
CONTINUOUS
  70
0
  3
Solid line
  72
65
  73
0
  40
0.0
  0
LTYPE
  5
410
  2
DASHDOT
 70
0
  3
Dash Dot ____ _ ____ _
 72
65
 73
4
 40
2.0
 49
1.25
 49
-0.25
 49
0.25
 49
-0.25
  0
LTYPE
  5
411
  2
DASHED
 70
0
  3
Dashed __ __ __ __ __
 72
65
 73
2
 40
0.75
 49
0.5
 49
-0.25
  0
LTYPE
  5
43B
  2
DOTTED
 70
0
  3
Dotted .  .  .  .
 72
65
 73
2
 40
0.2
 49
0.0
 49
-0.2
  0
ENDTAB
  0
TABLE
  2
STYLE
  70
4
  0
STYLE
  2
KICAD
  70
0
  40
0
  41
1
  42
1
  50
0
  71
0
  3
isocp.shx
  0
STYLE
  2
KICADB
  70
0
  40
0
  41
1
  42
1
  50
0
  71
0
  3
isocp.shx
  0
STYLE
  2
KICADI
  70
0
  40
0
  41
1
  42
1
  50
15
  71
0
  3
isocp.shx
  0
STYLE
  2
KICADBI
  70
0
  40
0
  41
1
  42
1
  50
15
  71
0
  3
isocp.shx
  0
ENDTAB
  0
TABLE
  2
LAYER
  70
1
  0
LAYER
  2
BLACK
  70
0
  62
7
  6
CONTINUOUS
  0
ENDTAB
  0
ENDSEC
  0
SECTION
  2
ENTITIES
0
LINE
8
BLACK
6
CONTINUOUS
10
6
20
-7.10945
11
6
21
-7.7
0
LINE
8
BLACK
6
CONTINUOUS
10
6.4
20
-1.11811
11
6.4
21
-7.11
0
LINE
8
BLACK
6
CONTINUOUS
10
4.6
20
-3.36929
11
4.79685
21
-3.36929
0
LINE
8
BLACK
6
CONTINUOUS
10
4.79685
20
-3.0937
11
4.79685
21
-3.36929
0
LINE
8
BLACK
6
CONTINUOUS
10
6.4
20
-7.11
11
6
21
-7.11
0
CIRCLE
8
BLACK
10
4.99
20
-7.46874
40
0.0787402
0
LINE
8
BLACK
6
CONTINUOUS
10
4.6
20
-1.11811
11
4.6
21
-3.0937
0
LINE
8
BLACK
6
CONTINUOUS
10
4.6
20
-3.0937
11
4.79685
21
-3.0937
0
LINE
8
BLACK
6
CONTINUOUS
10
6.4
20
-1.11811
11
4.6
21
-1.11811
0
LINE
8
BLACK
6
CONTINUOUS
10
6
20
-7.7
11
4.6
21
-7.7
0
LINE
8
BLACK
6
CONTINUOUS
10
4.6
20
-3.36929
11
4.6
21
-7.7
0
LINE
8
BLACK
6
CONTINUOUS
10
6.14142
20
-5.72331
11
6.2674
21
-5.84929
0
LINE
8
BLACK
6
CONTINUOUS
10
6.2674
20
-5.72331
11
6.14142
21
-5.84929
0
LINE
8
BLACK
6
CONTINUOUS
10
6.14142
20
-5.88331
11
6.2674
21
-6.00929
0
LINE
8
BLACK
6
CONTINUOUS
10
6.2674
20
-5.88331
11
6.14142
21
-6.00929
0
LINE
8
BLACK
6
CONTINUOUS
10
6.14142
20
-6.04331
11
6.2674
21
-6.16929
0
LINE
8
BLACK
6
CONTINUOUS
10
6.2674
20
-6.04331
11
6.14142
21
-6.16929
0
LINE
8
BLACK
6
CONTINUOUS
10
6.14142
20
-6.20331
11
6.2674
21
-6.32929
0
LINE
8
BLACK
6
CONTINUOUS
10
6.2674
20
-6.20331
11
6.14142
21
-6.32929
0
LINE
8
BLACK
6
CONTINUOUS
10
6.14142
20
-6.36331
11
6.2674
21
-6.48929
0
LINE
8
BLACK
6
CONTINUOUS
10
6.2674
20
-6.36331
11
6.14142
21
-6.48929
0
LINE
8
BLACK
6
CONTINUOUS
10
4.69946
20
-7.8242
11
4.69946
21
-7.74546
0
LINE
8
BLACK
6
CONTINUOUS
10
4.69946
20
-7.74546
11
4.7182
21
-7.74546
0
LINE
8
BLACK
6
CONTINUOUS
10
4.7182
20
-7.74546
11
4.72945
21
-7.74921
0
LINE
8
BLACK
6
CONTINUOUS
10
4.72945
20
-7.74921
11
4.73695
21
-7.75671
0
LINE
8
BLACK
6
CONTINUOUS
10
4.73695
20
-7.75671
11
4.7407
21
-7.76421
0
LINE
8
BLACK
6
CONTINUOUS
10
4.7407
20
-7.76421
11
4.74445
21
-7.77921
0
LINE
8
BLACK
6
CONTINUOUS
10
4.74445
20
-7.77921
11
4.74445
21
-7.79046
0
LINE
8
BLACK
6
CONTINUOUS
10
4.74445
20
-7.79046
11
4.7407
21
-7.80546
0
LINE
8
BLACK
6
CONTINUOUS
10
4.7407
20
-7.80546
11
4.73695
21
-7.81295
0
LINE
8
BLACK
6
CONTINUOUS
10
4.73695
20
-7.81295
11
4.72945
21
-7.82045
0
LINE
8
BLACK
6
CONTINUOUS
10
4.72945
20
-7.82045
11
4.7182
21
-7.8242
0
LINE
8
BLACK
6
CONTINUOUS
10
4.7182
20
-7.8242
11
4.69946
21
-7.8242
0
LINE
8
BLACK
6
CONTINUOUS
10
4.7782
20
-7.8242
11
4.7782
21
-7.77171
0
LINE
8
BLACK
6
CONTINUOUS
10
4.7782
20
-7.78671
11
4.78195
21
-7.77921
0
LINE
8
BLACK
6
CONTINUOUS
10
4.78195
20
-7.77921
11
4.7857
21
-7.77546
0
LINE
8
BLACK
6
CONTINUOUS
10
4.7857
20
-7.77546
11
4.79319
21
-7.77171
0
LINE
8
BLACK
6
CONTINUOUS
10
4.79319
20
-7.77171
11
4.80069
21
-7.77171
0
LINE
8
BLACK
6
CONTINUOUS
10
4.82694
20
-7.8242
11
4.82694
21
-7.77171
0
LINE
8
BLACK
6
CONTINUOUS
10
4.82694
20
-7.74546
11
4.82319
21
-7.74921
0
LINE
8
BLACK
6
CONTINUOUS
10
4.82319
20
-7.74921
11
4.82694
21
-7.75296
0
LINE
8
BLACK
6
CONTINUOUS
10
4.82694
20
-7.75296
11
4.83069
21
-7.74921
0
LINE
8
BLACK
6
CONTINUOUS
10
4.83069
20
-7.74921
11
4.82694
21
-7.74546
0
LINE
8
BLACK
6
CONTINUOUS
10
4.82694
20
-7.74546
11
4.82694
21
-7.75296
0
LINE
8
BLACK
6
CONTINUOUS
10
4.87568
20
-7.8242
11
4.86819
21
-7.82045
0
LINE
8
BLACK
6
CONTINUOUS
10
4.86819
20
-7.82045
11
4.86444
21
-7.81295
0
LINE
8
BLACK
6
CONTINUOUS
10
4.86444
20
-7.81295
11
4.86444
21
-7.74546
0
LINE
8
BLACK
6
CONTINUOUS
10
4.91693
20
-7.8242
11
4.90943
21
-7.82045
0
LINE
8
BLACK
6
CONTINUOUS
10
4.90943
20
-7.82045
11
4.90568
21
-7.81295
0
LINE
8
BLACK
6
CONTINUOUS
10
4.90568
20
-7.81295
11
4.90568
21
-7.74546
0
LINE
8
BLACK
6
CONTINUOUS
10
5.00692
20
-7.8242
11
5.00692
21
-7.74546
0
LINE
8
BLACK
6
CONTINUOUS
10
5.00692
20
-7.74546
11
5.03316
21
-7.80171
0
LINE
8
BLACK
6
CONTINUOUS
10
5.03316
20
-7.80171
11
5.05941
21
-7.74546
0
LINE
8
BLACK
6
CONTINUOUS
10
5.05941
20
-7.74546
11
5.05941
21
-7.8242
0
LINE
8
BLACK
6
CONTINUOUS
10
5.13065
20
-7.8242
11
5.13065
21
-7.78296
0
LINE
8
BLACK
6
CONTINUOUS
10
5.13065
20
-7.78296
11
5.1269
21
-7.77546
0
LINE
8
BLACK
6
CONTINUOUS
10
5.1269
20
-7.77546
11
5.1194
21
-7.77171
0
LINE
8
BLACK
6
CONTINUOUS
10
5.1194
20
-7.77171
11
5.10441
21
-7.77171
0
LINE
8
BLACK
6
CONTINUOUS
10
5.10441
20
-7.77171
11
5.09691
21
-7.77546
0
LINE
8
BLACK
6
CONTINUOUS
10
5.13065
20
-7.82045
11
5.12315
21
-7.8242
0
LINE
8
BLACK
6
CONTINUOUS
10
5.12315
20
-7.8242
11
5.10441
21
-7.8242
0
LINE
8
BLACK
6
CONTINUOUS
10
5.10441
20
-7.8242
11
5.09691
21
-7.82045
0
LINE
8
BLACK
6
CONTINUOUS
10
5.09691
20
-7.82045
11
5.09316
21
-7.81295
0
LINE
8
BLACK
6
CONTINUOUS
10
5.09316
20
-7.81295
11
5.09316
21
-7.80546
0
LINE
8
BLACK
6
CONTINUOUS
10
5.09316
20
-7.80546
11
5.09691
21
-7.79796
0
LINE
8
BLACK
6
CONTINUOUS
10
5.09691
20
-7.79796
11
5.10441
21
-7.79421
0
LINE
8
BLACK
6
CONTINUOUS
10
5.10441
20
-7.79421
11
5.12315
21
-7.79421
0
LINE
8
BLACK
6
CONTINUOUS
10
5.12315
20
-7.79421
11
5.13065
21
-7.79046
0
LINE
8
BLACK
6
CONTINUOUS
10
5.16815
20
-7.77171
11
5.16815
21
-7.85045
0
LINE
8
BLACK
6
CONTINUOUS
10
5.16815
20
-7.77546
11
5.17565
21
-7.77171
0
LINE
8
BLACK
6
CONTINUOUS
10
5.17565
20
-7.77171
11
5.19064
21
-7.77171
0
LINE
8
BLACK
6
CONTINUOUS
10
5.19064
20
-7.77171
11
5.19814
21
-7.77546
0
LINE
8
BLACK
6
CONTINUOUS
10
5.19814
20
-7.77546
11
5.20189
21
-7.77921
0
LINE
8
BLACK
6
CONTINUOUS
10
5.20189
20
-7.77921
11
5.20564
21
-7.78671
0
LINE
8
BLACK
6
CONTINUOUS
10
5.20564
20
-7.78671
11
5.20564
21
-7.80921
0
LINE
8
BLACK
6
CONTINUOUS
10
5.20564
20
-7.80921
11
5.20189
21
-7.8167
0
LINE
8
BLACK
6
CONTINUOUS
10
5.20189
20
-7.8167
11
5.19814
21
-7.82045
0
LINE
8
BLACK
6
CONTINUOUS
10
5.19814
20
-7.82045
11
5.19064
21
-7.8242
0
LINE
8
BLACK
6
CONTINUOUS
10
5.19064
20
-7.8242
11
5.17565
21
-7.8242
0
LINE
8
BLACK
6
CONTINUOUS
10
5.17565
20
-7.8242
11
5.16815
21
-7.82045
0
LINE
8
BLACK
6
CONTINUOUS
10
5.23939
20
-7.8167
11
5.24314
21
-7.82045
0
LINE
8
BLACK
6
CONTINUOUS
10
5.24314
20
-7.82045
11
5.23939
21
-7.8242
0
LINE
8
BLACK
6
CONTINUOUS
10
5.23939
20
-7.8242
11
5.23564
21
-7.82045
0
LINE
8
BLACK
6
CONTINUOUS
10
5.23564
20
-7.82045
11
5.23939
21
-7.8167
0
LINE
8
BLACK
6
CONTINUOUS
10
5.23939
20
-7.8167
11
5.23939
21
-7.8242
0
LINE
8
BLACK
6
CONTINUOUS
10
5.23939
20
-7.77546
11
5.24314
21
-7.77921
0
LINE
8
BLACK
6
CONTINUOUS
10
5.24314
20
-7.77921
11
5.23939
21
-7.78296
0
LINE
8
BLACK
6
CONTINUOUS
10
5.23939
20
-7.78296
11
5.23564
21
-7.77921
0
LINE
8
BLACK
6
CONTINUOUS
10
5.23564
20
-7.77921
11
5.23939
21
-7.77546
0
LINE
8
BLACK
6
CONTINUOUS
10
5.23939
20
-7.77546
11
5.23939
21
-7.78296
0
LINE
8
BLACK
6
CONTINUOUS
10
4.51929
20
-7.91457
11
4.59803
21
-7.99331
0
LINE
8
BLACK
6
CONTINUOUS
10
4.59803
20
-7.91457
11
4.51929
21
-7.99331
0
LINE
8
BLACK
6
CONTINUOUS
10
4.69196
20
-7.91082
11
4.7407
21
-7.91082
0
LINE
8
BLACK
6
CONTINUOUS
10
4.7407
20
-7.91082
11
4.71445
21
-7.94081
0
LINE
8
BLACK
6
CONTINUOUS
10
4.71445
20
-7.94081
11
4.7257
21
-7.94081
0
LINE
8
BLACK
6
CONTINUOUS
10
4.7257
20
-7.94081
11
4.7332
21
-7.94456
0
LINE
8
BLACK
6
CONTINUOUS
10
4.7332
20
-7.94456
11
4.73695
21
-7.94831
0
LINE
8
BLACK
6
CONTINUOUS
10
4.73695
20
-7.94831
11
4.7407
21
-7.95581
0
LINE
8
BLACK
6
CONTINUOUS
10
4.7407
20
-7.95581
11
4.7407
21
-7.97456
0
LINE
8
BLACK
6
CONTINUOUS
10
4.7407
20
-7.97456
11
4.73695
21
-7.98206
0
LINE
8
BLACK
6
CONTINUOUS
10
4.73695
20
-7.98206
11
4.7332
21
-7.98581
0
LINE
8
BLACK
6
CONTINUOUS
10
4.7332
20
-7.98581
11
4.7257
21
-7.98956
0
LINE
8
BLACK
6
CONTINUOUS
10
4.7257
20
-7.98956
11
4.70321
21
-7.98956
0
LINE
8
BLACK
6
CONTINUOUS
10
4.70321
20
-7.98956
11
4.69571
21
-7.98581
0
LINE
8
BLACK
6
CONTINUOUS
10
4.69571
20
-7.98581
11
4.69196
21
-7.98206
0
LINE
8
BLACK
6
CONTINUOUS
10
4.77445
20
-7.98206
11
4.7782
21
-7.98581
0
LINE
8
BLACK
6
CONTINUOUS
10
4.7782
20
-7.98581
11
4.77445
21
-7.98956
0
LINE
8
BLACK
6
CONTINUOUS
10
4.77445
20
-7.98956
11
4.7707
21
-7.98581
0
LINE
8
BLACK
6
CONTINUOUS
10
4.7707
20
-7.98581
11
4.77445
21
-7.98206
0
LINE
8
BLACK
6
CONTINUOUS
10
4.77445
20
-7.98206
11
4.77445
21
-7.98956
0
LINE
8
BLACK
6
CONTINUOUS
10
4.80819
20
-7.91832
11
4.81194
21
-7.91457
0
LINE
8
BLACK
6
CONTINUOUS
10
4.81194
20
-7.91457
11
4.81944
21
-7.91082
0
LINE
8
BLACK
6
CONTINUOUS
10
4.81944
20
-7.91082
11
4.83819
21
-7.91082
0
LINE
8
BLACK
6
CONTINUOUS
10
4.83819
20
-7.91082
11
4.84569
21
-7.91457
0
LINE
8
BLACK
6
CONTINUOUS
10
4.84569
20
-7.91457
11
4.84944
21
-7.91832
0
LINE
8
BLACK
6
CONTINUOUS
10
4.84944
20
-7.91832
11
4.85319
21
-7.92582
0
LINE
8
BLACK
6
CONTINUOUS
10
4.85319
20
-7.92582
11
4.85319
21
-7.93331
0
LINE
8
BLACK
6
CONTINUOUS
10
4.85319
20
-7.93331
11
4.84944
21
-7.94456
0
LINE
8
BLACK
6
CONTINUOUS
10
4.84944
20
-7.94456
11
4.80444
21
-7.98956
0
LINE
8
BLACK
6
CONTINUOUS
10
4.80444
20
-7.98956
11
4.85319
21
-7.98956
0
LINE
8
BLACK
6
CONTINUOUS
10
4.90193
20
-7.91082
11
4.90943
21
-7.91082
0
LINE
8
BLACK
6
CONTINUOUS
10
4.90943
20
-7.91082
11
4.91693
21
-7.91457
0
LINE
8
BLACK
6
CONTINUOUS
10
4.91693
20
-7.91457
11
4.92068
21
-7.91832
0
LINE
8
BLACK
6
CONTINUOUS
10
4.92068
20
-7.91832
11
4.92443
21
-7.92582
0
LINE
8
BLACK
6
CONTINUOUS
10
4.92443
20
-7.92582
11
4.92818
21
-7.94081
0
LINE
8
BLACK
6
CONTINUOUS
10
4.92818
20
-7.94081
11
4.92818
21
-7.95956
0
LINE
8
BLACK
6
CONTINUOUS
10
4.92818
20
-7.95956
11
4.92443
21
-7.97456
0
LINE
8
BLACK
6
CONTINUOUS
10
4.92443
20
-7.97456
11
4.92068
21
-7.98206
0
LINE
8
BLACK
6
CONTINUOUS
10
4.92068
20
-7.98206
11
4.91693
21
-7.98581
0
LINE
8
BLACK
6
CONTINUOUS
10
4.91693
20
-7.98581
11
4.90943
21
-7.98956
0
LINE
8
BLACK
6
CONTINUOUS
10
4.90943
20
-7.98956
11
4.90193
21
-7.98956
0
LINE
8
BLACK
6
CONTINUOUS
10
4.90193
20
-7.98956
11
4.89443
21
-7.98581
0
LINE
8
BLACK
6
CONTINUOUS
10
4.89443
20
-7.98581
11
4.89068
21
-7.98206
0
LINE
8
BLACK
6
CONTINUOUS
10
4.89068
20
-7.98206
11
4.88693
21
-7.97456
0
LINE
8
BLACK
6
CONTINUOUS
10
4.88693
20
-7.97456
11
4.88318
21
-7.95956
0
LINE
8
BLACK
6
CONTINUOUS
10
4.88318
20
-7.95956
11
4.88318
21
-7.94081
0
LINE
8
BLACK
6
CONTINUOUS
10
4.88318
20
-7.94081
11
4.88693
21
-7.92582
0
LINE
8
BLACK
6
CONTINUOUS
10
4.88693
20
-7.92582
11
4.89068
21
-7.91832
0
LINE
8
BLACK
6
CONTINUOUS
10
4.89068
20
-7.91832
11
4.89443
21
-7.91457
0
LINE
8
BLACK
6
CONTINUOUS
10
4.89443
20
-7.91457
11
4.90193
21
-7.91082
0
LINE
8
BLACK
6
CONTINUOUS
10
4.97692
20
-7.91082
11
4.98442
21
-7.91082
0
LINE
8
BLACK
6
CONTINUOUS
10
4.98442
20
-7.91082
11
4.99192
21
-7.91457
0
LINE
8
BLACK
6
CONTINUOUS
10
4.99192
20
-7.91457
11
4.99567
21
-7.91832
0
LINE
8
BLACK
6
CONTINUOUS
10
4.99567
20
-7.91832
11
4.99942
21
-7.92582
0
LINE
8
BLACK
6
CONTINUOUS
10
4.99942
20
-7.92582
11
5.00317
21
-7.94081
0
LINE
8
BLACK
6
CONTINUOUS
10
5.00317
20
-7.94081
11
5.00317
21
-7.95956
0
LINE
8
BLACK
6
CONTINUOUS
10
5.00317
20
-7.95956
11
4.99942
21
-7.97456
0
LINE
8
BLACK
6
CONTINUOUS
10
4.99942
20
-7.97456
11
4.99567
21
-7.98206
0
LINE
8
BLACK
6
CONTINUOUS
10
4.99567
20
-7.98206
11
4.99192
21
-7.98581
0
LINE
8
BLACK
6
CONTINUOUS
10
4.99192
20
-7.98581
11
4.98442
21
-7.98956
0
LINE
8
BLACK
6
CONTINUOUS
10
4.98442
20
-7.98956
11
4.97692
21
-7.98956
0
LINE
8
BLACK
6
CONTINUOUS
10
4.97692
20
-7.98956
11
4.96942
21
-7.98581
0
LINE
8
BLACK
6
CONTINUOUS
10
4.96942
20
-7.98581
11
4.96567
21
-7.98206
0
LINE
8
BLACK
6
CONTINUOUS
10
4.96567
20
-7.98206
11
4.96192
21
-7.97456
0
LINE
8
BLACK
6
CONTINUOUS
10
4.96192
20
-7.97456
11
4.95817
21
-7.95956
0
LINE
8
BLACK
6
CONTINUOUS
10
4.95817
20
-7.95956
11
4.95817
21
-7.94081
0
LINE
8
BLACK
6
CONTINUOUS
10
4.95817
20
-7.94081
11
4.96192
21
-7.92582
0
LINE
8
BLACK
6
CONTINUOUS
10
4.96192
20
-7.92582
11
4.96567
21
-7.91832
0
LINE
8
BLACK
6
CONTINUOUS
10
4.96567
20
-7.91832
11
4.96942
21
-7.91457
0
LINE
8
BLACK
6
CONTINUOUS
10
4.96942
20
-7.91457
11
4.97692
21
-7.91082
0
LINE
8
BLACK
6
CONTINUOUS
10
5.03691
20
-7.98956
11
5.03691
21
-7.93706
0
LINE
8
BLACK
6
CONTINUOUS
10
5.03691
20
-7.94456
11
5.04066
21
-7.94081
0
LINE
8
BLACK
6
CONTINUOUS
10
5.04066
20
-7.94081
11
5.04816
21
-7.93706
0
LINE
8
BLACK
6
CONTINUOUS
10
5.04816
20
-7.93706
11
5.05941
21
-7.93706
0
LINE
8
BLACK
6
CONTINUOUS
10
5.05941
20
-7.93706
11
5.06691
21
-7.94081
0
LINE
8
BLACK
6
CONTINUOUS
10
5.06691
20
-7.94081
11
5.07066
21
-7.94831
0
LINE
8
BLACK
6
CONTINUOUS
10
5.07066
20
-7.94831
11
5.07066
21
-7.98956
0
LINE
8
BLACK
6
CONTINUOUS
10
5.07066
20
-7.94831
11
5.07441
21
-7.94081
0
LINE
8
BLACK
6
CONTINUOUS
10
5.07441
20
-7.94081
11
5.08191
21
-7.93706
0
LINE
8
BLACK
6
CONTINUOUS
10
5.08191
20
-7.93706
11
5.09316
21
-7.93706
0
LINE
8
BLACK
6
CONTINUOUS
10
5.09316
20
-7.93706
11
5.10066
21
-7.94081
0
LINE
8
BLACK
6
CONTINUOUS
10
5.10066
20
-7.94081
11
5.10441
21
-7.94831
0
LINE
8
BLACK
6
CONTINUOUS
10
5.10441
20
-7.94831
11
5.10441
21
-7.98956
0
LINE
8
BLACK
6
CONTINUOUS
10
5.1419
20
-7.98956
11
5.1419
21
-7.93706
0
LINE
8
BLACK
6
CONTINUOUS
10
5.1419
20
-7.94456
11
5.14565
21
-7.94081
0
LINE
8
BLACK
6
CONTINUOUS
10
5.14565
20
-7.94081
11
5.15315
21
-7.93706
0
LINE
8
BLACK
6
CONTINUOUS
10
5.15315
20
-7.93706
11
5.1644
21
-7.93706
0
LINE
8
BLACK
6
CONTINUOUS
10
5.1644
20
-7.93706
11
5.1719
21
-7.94081
0
LINE
8
BLACK
6
CONTINUOUS
10
5.1719
20
-7.94081
11
5.17565
21
-7.94831
0
LINE
8
BLACK
6
CONTINUOUS
10
5.17565
20
-7.94831
11
5.17565
21
-7.98956
0
LINE
8
BLACK
6
CONTINUOUS
10
5.17565
20
-7.94831
11
5.1794
21
-7.94081
0
LINE
8
BLACK
6
CONTINUOUS
10
5.1794
20
-7.94081
11
5.1869
21
-7.93706
0
LINE
8
BLACK
6
CONTINUOUS
10
5.1869
20
-7.93706
11
5.19814
21
-7.93706
0
LINE
8
BLACK
6
CONTINUOUS
10
5.19814
20
-7.93706
11
5.20564
21
-7.94081
0
LINE
8
BLACK
6
CONTINUOUS
10
5.20564
20
-7.94081
11
5.20939
21
-7.94831
0
LINE
8
BLACK
6
CONTINUOUS
10
5.20939
20
-7.94831
11
5.20939
21
-7.98956
0
LINE
8
BLACK
6
CONTINUOUS
10
5.36312
20
-7.90707
11
5.29563
21
-8.00831
0
LINE
8
BLACK
6
CONTINUOUS
10
5.46436
20
-7.91082
11
5.47186
21
-7.91082
0
LINE
8
BLACK
6
CONTINUOUS
10
5.47186
20
-7.91082
11
5.47936
21
-7.91457
0
LINE
8
BLACK
6
CONTINUOUS
10
5.47936
20
-7.91457
11
5.48311
21
-7.91832
0
LINE
8
BLACK
6
CONTINUOUS
10
5.48311
20
-7.91832
11
5.48686
21
-7.92582
0
LINE
8
BLACK
6
CONTINUOUS
10
5.48686
20
-7.92582
11
5.49061
21
-7.94081
0
LINE
8
BLACK
6
CONTINUOUS
10
5.49061
20
-7.94081
11
5.49061
21
-7.95956
0
LINE
8
BLACK
6
CONTINUOUS
10
5.49061
20
-7.95956
11
5.48686
21
-7.97456
0
LINE
8
BLACK
6
CONTINUOUS
10
5.48686
20
-7.97456
11
5.48311
21
-7.98206
0
LINE
8
BLACK
6
CONTINUOUS
10
5.48311
20
-7.98206
11
5.47936
21
-7.98581
0
LINE
8
BLACK
6
CONTINUOUS
10
5.47936
20
-7.98581
11
5.47186
21
-7.98956
0
LINE
8
BLACK
6
CONTINUOUS
10
5.47186
20
-7.98956
11
5.46436
21
-7.98956
0
LINE
8
BLACK
6
CONTINUOUS
10
5.46436
20
-7.98956
11
5.45686
21
-7.98581
0
LINE
8
BLACK
6
CONTINUOUS
10
5.45686
20
-7.98581
11
5.45311
21
-7.98206
0
LINE
8
BLACK
6
CONTINUOUS
10
5.45311
20
-7.98206
11
5.44936
21
-7.97456
0
LINE
8
BLACK
6
CONTINUOUS
10
5.44936
20
-7.97456
11
5.44561
21
-7.95956
0
LINE
8
BLACK
6
CONTINUOUS
10
5.44561
20
-7.95956
11
5.44561
21
-7.94081
0
LINE
8
BLACK
6
CONTINUOUS
10
5.44561
20
-7.94081
11
5.44936
21
-7.92582
0
LINE
8
BLACK
6
CONTINUOUS
10
5.44936
20
-7.92582
11
5.45311
21
-7.91832
0
LINE
8
BLACK
6
CONTINUOUS
10
5.45311
20
-7.91832
11
5.45686
21
-7.91457
0
LINE
8
BLACK
6
CONTINUOUS
10
5.45686
20
-7.91457
11
5.46436
21
-7.91082
0
LINE
8
BLACK
6
CONTINUOUS
10
5.52435
20
-7.98206
11
5.5281
21
-7.98581
0
LINE
8
BLACK
6
CONTINUOUS
10
5.5281
20
-7.98581
11
5.52435
21
-7.98956
0
LINE
8
BLACK
6
CONTINUOUS
10
5.52435
20
-7.98956
11
5.5206
21
-7.98581
0
LINE
8
BLACK
6
CONTINUOUS
10
5.5206
20
-7.98581
11
5.52435
21
-7.98206
0
LINE
8
BLACK
6
CONTINUOUS
10
5.52435
20
-7.98206
11
5.52435
21
-7.98956
0
LINE
8
BLACK
6
CONTINUOUS
10
5.60309
20
-7.98956
11
5.5581
21
-7.98956
0
LINE
8
BLACK
6
CONTINUOUS
10
5.5806
20
-7.98956
11
5.5806
21
-7.91082
0
LINE
8
BLACK
6
CONTINUOUS
10
5.5806
20
-7.91082
11
5.5731
21
-7.92207
0
LINE
8
BLACK
6
CONTINUOUS
10
5.5731
20
-7.92207
11
5.5656
21
-7.92957
0
LINE
8
BLACK
6
CONTINUOUS
10
5.5656
20
-7.92957
11
5.5581
21
-7.93331
0
LINE
8
BLACK
6
CONTINUOUS
10
5.63309
20
-7.91832
11
5.63684
21
-7.91457
0
LINE
8
BLACK
6
CONTINUOUS
10
5.63684
20
-7.91457
11
5.64434
21
-7.91082
0
LINE
8
BLACK
6
CONTINUOUS
10
5.64434
20
-7.91082
11
5.66309
21
-7.91082
0
LINE
8
BLACK
6
CONTINUOUS
10
5.66309
20
-7.91082
11
5.67058
21
-7.91457
0
LINE
8
BLACK
6
CONTINUOUS
10
5.67058
20
-7.91457
11
5.67433
21
-7.91832
0
LINE
8
BLACK
6
CONTINUOUS
10
5.67433
20
-7.91832
11
5.67808
21
-7.92582
0
LINE
8
BLACK
6
CONTINUOUS
10
5.67808
20
-7.92582
11
5.67808
21
-7.93331
0
LINE
8
BLACK
6
CONTINUOUS
10
5.67808
20
-7.93331
11
5.67433
21
-7.94456
0
LINE
8
BLACK
6
CONTINUOUS
10
5.67433
20
-7.94456
11
5.62934
21
-7.98956
0
LINE
8
BLACK
6
CONTINUOUS
10
5.62934
20
-7.98956
11
5.67808
21
-7.98956
0
LINE
8
BLACK
6
CONTINUOUS
10
5.74558
20
-7.91082
11
5.73058
21
-7.91082
0
LINE
8
BLACK
6
CONTINUOUS
10
5.73058
20
-7.91082
11
5.72308
21
-7.91457
0
LINE
8
BLACK
6
CONTINUOUS
10
5.72308
20
-7.91457
11
5.71933
21
-7.91832
0
LINE
8
BLACK
6
CONTINUOUS
10
5.71933
20
-7.91832
11
5.71183
21
-7.92957
0
LINE
8
BLACK
6
CONTINUOUS
10
5.71183
20
-7.92957
11
5.70808
21
-7.94456
0
LINE
8
BLACK
6
CONTINUOUS
10
5.70808
20
-7.94456
11
5.70808
21
-7.97456
0
LINE
8
BLACK
6
CONTINUOUS
10
5.70808
20
-7.97456
11
5.71183
21
-7.98206
0
LINE
8
BLACK
6
CONTINUOUS
10
5.71183
20
-7.98206
11
5.71558
21
-7.98581
0
LINE
8
BLACK
6
CONTINUOUS
10
5.71558
20
-7.98581
11
5.72308
21
-7.98956
0
LINE
8
BLACK
6
CONTINUOUS
10
5.72308
20
-7.98956
11
5.73808
21
-7.98956
0
LINE
8
BLACK
6
CONTINUOUS
10
5.73808
20
-7.98956
11
5.74558
21
-7.98581
0
LINE
8
BLACK
6
CONTINUOUS
10
5.74558
20
-7.98581
11
5.74933
21
-7.98206
0
LINE
8
BLACK
6
CONTINUOUS
10
5.74933
20
-7.98206
11
5.75307
21
-7.97456
0
LINE
8
BLACK
6
CONTINUOUS
10
5.75307
20
-7.97456
11
5.75307
21
-7.95581
0
LINE
8
BLACK
6
CONTINUOUS
10
5.75307
20
-7.95581
11
5.74933
21
-7.94831
0
LINE
8
BLACK
6
CONTINUOUS
10
5.74933
20
-7.94831
11
5.74558
21
-7.94456
0
LINE
8
BLACK
6
CONTINUOUS
10
5.74558
20
-7.94456
11
5.73808
21
-7.94081
0
LINE
8
BLACK
6
CONTINUOUS
10
5.73808
20
-7.94081
11
5.72308
21
-7.94081
0
LINE
8
BLACK
6
CONTINUOUS
10
5.72308
20
-7.94081
11
5.71558
21
-7.94456
0
LINE
8
BLACK
6
CONTINUOUS
10
5.71558
20
-7.94456
11
5.71183
21
-7.94831
0
LINE
8
BLACK
6
CONTINUOUS
10
5.71183
20
-7.94831
11
5.70808
21
-7.95581
0
LINE
8
BLACK
6
CONTINUOUS
10
5.80182
20
-7.91082
11
5.80932
21
-7.91082
0
LINE
8
BLACK
6
CONTINUOUS
10
5.80932
20
-7.91082
11
5.81682
21
-7.91457
0
LINE
8
BLACK
6
CONTINUOUS
10
5.81682
20
-7.91457
11
5.82057
21
-7.91832
0
LINE
8
BLACK
6
CONTINUOUS
10
5.82057
20
-7.91832
11
5.82432
21
-7.92582
0
LINE
8
BLACK
6
CONTINUOUS
10
5.82432
20
-7.92582
11
5.82807
21
-7.94081
0
LINE
8
BLACK
6
CONTINUOUS
10
5.82807
20
-7.94081
11
5.82807
21
-7.95956
0
LINE
8
BLACK
6
CONTINUOUS
10
5.82807
20
-7.95956
11
5.82432
21
-7.97456
0
LINE
8
BLACK
6
CONTINUOUS
10
5.82432
20
-7.97456
11
5.82057
21
-7.98206
0
LINE
8
BLACK
6
CONTINUOUS
10
5.82057
20
-7.98206
11
5.81682
21
-7.98581
0
LINE
8
BLACK
6
CONTINUOUS
10
5.81682
20
-7.98581
11
5.80932
21
-7.98956
0
LINE
8
BLACK
6
CONTINUOUS
10
5.80932
20
-7.98956
11
5.80182
21
-7.98956
0
LINE
8
BLACK
6
CONTINUOUS
10
5.80182
20
-7.98956
11
5.79432
21
-7.98581
0
LINE
8
BLACK
6
CONTINUOUS
10
5.79432
20
-7.98581
11
5.79057
21
-7.98206
0
LINE
8
BLACK
6
CONTINUOUS
10
5.79057
20
-7.98206
11
5.78682
21
-7.97456
0
LINE
8
BLACK
6
CONTINUOUS
10
5.78682
20
-7.97456
11
5.78307
21
-7.95956
0
LINE
8
BLACK
6
CONTINUOUS
10
5.78307
20
-7.95956
11
5.78307
21
-7.94081
0
LINE
8
BLACK
6
CONTINUOUS
10
5.78307
20
-7.94081
11
5.78682
21
-7.92582
0
LINE
8
BLACK
6
CONTINUOUS
10
5.78682
20
-7.92582
11
5.79057
21
-7.91832
0
LINE
8
BLACK
6
CONTINUOUS
10
5.79057
20
-7.91832
11
5.79432
21
-7.91457
0
LINE
8
BLACK
6
CONTINUOUS
10
5.79432
20
-7.91457
11
5.80182
21
-7.91082
0
LINE
8
BLACK
6
CONTINUOUS
10
5.85806
20
-7.91082
11
5.85806
21
-7.92582
0
LINE
8
BLACK
6
CONTINUOUS
10
5.88806
20
-7.91082
11
5.88806
21
-7.92582
0
LINE
8
BLACK
6
CONTINUOUS
10
6.00429
20
-8.01955
11
6.00054
21
-8.0158
0
LINE
8
BLACK
6
CONTINUOUS
10
6.00054
20
-8.0158
11
5.99304
21
-8.00456
0
LINE
8
BLACK
6
CONTINUOUS
10
5.99304
20
-8.00456
11
5.9893
21
-7.99706
0
LINE
8
BLACK
6
CONTINUOUS
10
5.9893
20
-7.99706
11
5.98555
21
-7.98581
0
LINE
8
BLACK
6
CONTINUOUS
10
5.98555
20
-7.98581
11
5.9818
21
-7.96706
0
LINE
8
BLACK
6
CONTINUOUS
10
5.9818
20
-7.96706
11
5.9818
21
-7.95206
0
LINE
8
BLACK
6
CONTINUOUS
10
5.9818
20
-7.95206
11
5.98555
21
-7.93331
0
LINE
8
BLACK
6
CONTINUOUS
10
5.98555
20
-7.93331
11
5.9893
21
-7.92207
0
LINE
8
BLACK
6
CONTINUOUS
10
5.9893
20
-7.92207
11
5.99304
21
-7.91457
0
LINE
8
BLACK
6
CONTINUOUS
10
5.99304
20
-7.91457
11
6.00054
21
-7.90332
0
LINE
8
BLACK
6
CONTINUOUS
10
6.00054
20
-7.90332
11
6.00429
21
-7.89957
0
LINE
8
BLACK
6
CONTINUOUS
10
6.07178
20
-7.91082
11
6.03429
21
-7.91082
0
LINE
8
BLACK
6
CONTINUOUS
10
6.03429
20
-7.91082
11
6.03054
21
-7.94831
0
LINE
8
BLACK
6
CONTINUOUS
10
6.03054
20
-7.94831
11
6.03429
21
-7.94456
0
LINE
8
BLACK
6
CONTINUOUS
10
6.03429
20
-7.94456
11
6.04179
21
-7.94081
0
LINE
8
BLACK
6
CONTINUOUS
10
6.04179
20
-7.94081
11
6.06054
21
-7.94081
0
LINE
8
BLACK
6
CONTINUOUS
10
6.06054
20
-7.94081
11
6.06804
21
-7.94456
0
LINE
8
BLACK
6
CONTINUOUS
10
6.06804
20
-7.94456
11
6.07178
21
-7.94831
0
LINE
8
BLACK
6
CONTINUOUS
10
6.07178
20
-7.94831
11
6.07553
21
-7.95581
0
LINE
8
BLACK
6
CONTINUOUS
10
6.07553
20
-7.95581
11
6.07553
21
-7.97456
0
LINE
8
BLACK
6
CONTINUOUS
10
6.07553
20
-7.97456
11
6.07178
21
-7.98206
0
LINE
8
BLACK
6
CONTINUOUS
10
6.07178
20
-7.98206
11
6.06804
21
-7.98581
0
LINE
8
BLACK
6
CONTINUOUS
10
6.06804
20
-7.98581
11
6.06054
21
-7.98956
0
LINE
8
BLACK
6
CONTINUOUS
10
6.06054
20
-7.98956
11
6.04179
21
-7.98956
0
LINE
8
BLACK
6
CONTINUOUS
10
6.04179
20
-7.98956
11
6.03429
21
-7.98581
0
LINE
8
BLACK
6
CONTINUOUS
10
6.03429
20
-7.98581
11
6.03054
21
-7.98206
0
LINE
8
BLACK
6
CONTINUOUS
10
6.16927
20
-7.98956
11
6.16927
21
-7.91082
0
LINE
8
BLACK
6
CONTINUOUS
10
6.20302
20
-7.98956
11
6.20302
21
-7.94831
0
LINE
8
BLACK
6
CONTINUOUS
10
6.20302
20
-7.94831
11
6.19927
21
-7.94081
0
LINE
8
BLACK
6
CONTINUOUS
10
6.19927
20
-7.94081
11
6.19177
21
-7.93706
0
LINE
8
BLACK
6
CONTINUOUS
10
6.19177
20
-7.93706
11
6.18052
21
-7.93706
0
LINE
8
BLACK
6
CONTINUOUS
10
6.18052
20
-7.93706
11
6.17302
21
-7.94081
0
LINE
8
BLACK
6
CONTINUOUS
10
6.17302
20
-7.94081
11
6.16927
21
-7.94456
0
LINE
8
BLACK
6
CONTINUOUS
10
6.25176
20
-7.98956
11
6.24426
21
-7.98581
0
LINE
8
BLACK
6
CONTINUOUS
10
6.24426
20
-7.98581
11
6.24051
21
-7.98206
0
LINE
8
BLACK
6
CONTINUOUS
10
6.24051
20
-7.98206
11
6.23676
21
-7.97456
0
LINE
8
BLACK
6
CONTINUOUS
10
6.23676
20
-7.97456
11
6.23676
21
-7.95206
0
LINE
8
BLACK
6
CONTINUOUS
10
6.23676
20
-7.95206
11
6.24051
21
-7.94456
0
LINE
8
BLACK
6
CONTINUOUS
10
6.24051
20
-7.94456
11
6.24426
21
-7.94081
0
LINE
8
BLACK
6
CONTINUOUS
10
6.24426
20
-7.94081
11
6.25176
21
-7.93706
0
LINE
8
BLACK
6
CONTINUOUS
10
6.25176
20
-7.93706
11
6.26301
21
-7.93706
0
LINE
8
BLACK
6
CONTINUOUS
10
6.26301
20
-7.93706
11
6.27051
21
-7.94081
0
LINE
8
BLACK
6
CONTINUOUS
10
6.27051
20
-7.94081
11
6.27426
21
-7.94456
0
LINE
8
BLACK
6
CONTINUOUS
10
6.27426
20
-7.94456
11
6.27801
21
-7.95206
0
LINE
8
BLACK
6
CONTINUOUS
10
6.27801
20
-7.95206
11
6.27801
21
-7.97456
0
LINE
8
BLACK
6
CONTINUOUS
10
6.27801
20
-7.97456
11
6.27426
21
-7.98206
0
LINE
8
BLACK
6
CONTINUOUS
10
6.27426
20
-7.98206
11
6.27051
21
-7.98581
0
LINE
8
BLACK
6
CONTINUOUS
10
6.27051
20
-7.98581
11
6.26301
21
-7.98956
0
LINE
8
BLACK
6
CONTINUOUS
10
6.26301
20
-7.98956
11
6.25176
21
-7.98956
0
LINE
8
BLACK
6
CONTINUOUS
10
6.323
20
-7.98956
11
6.3155
21
-7.98581
0
LINE
8
BLACK
6
CONTINUOUS
10
6.3155
20
-7.98581
11
6.31175
21
-7.97831
0
LINE
8
BLACK
6
CONTINUOUS
10
6.31175
20
-7.97831
11
6.31175
21
-7.91082
0
LINE
8
BLACK
6
CONTINUOUS
10
6.383
20
-7.98581
11
6.3755
21
-7.98956
0
LINE
8
BLACK
6
CONTINUOUS
10
6.3755
20
-7.98956
11
6.3605
21
-7.98956
0
LINE
8
BLACK
6
CONTINUOUS
10
6.3605
20
-7.98956
11
6.353
21
-7.98581
0
LINE
8
BLACK
6
CONTINUOUS
10
6.353
20
-7.98581
11
6.34925
21
-7.97831
0
LINE
8
BLACK
6
CONTINUOUS
10
6.34925
20
-7.97831
11
6.34925
21
-7.94831
0
LINE
8
BLACK
6
CONTINUOUS
10
6.34925
20
-7.94831
11
6.353
21
-7.94081
0
LINE
8
BLACK
6
CONTINUOUS
10
6.353
20
-7.94081
11
6.3605
21
-7.93706
0
LINE
8
BLACK
6
CONTINUOUS
10
6.3605
20
-7.93706
11
6.3755
21
-7.93706
0
LINE
8
BLACK
6
CONTINUOUS
10
6.3755
20
-7.93706
11
6.383
21
-7.94081
0
LINE
8
BLACK
6
CONTINUOUS
10
6.383
20
-7.94081
11
6.38675
21
-7.94831
0
LINE
8
BLACK
6
CONTINUOUS
10
6.38675
20
-7.94831
11
6.38675
21
-7.95581
0
LINE
8
BLACK
6
CONTINUOUS
10
6.38675
20
-7.95581
11
6.34925
21
-7.96331
0
LINE
8
BLACK
6
CONTINUOUS
10
6.41674
20
-7.98581
11
6.42424
21
-7.98956
0
LINE
8
BLACK
6
CONTINUOUS
10
6.42424
20
-7.98956
11
6.43924
21
-7.98956
0
LINE
8
BLACK
6
CONTINUOUS
10
6.43924
20
-7.98956
11
6.44674
21
-7.98581
0
LINE
8
BLACK
6
CONTINUOUS
10
6.44674
20
-7.98581
11
6.45049
21
-7.97831
0
LINE
8
BLACK
6
CONTINUOUS
10
6.45049
20
-7.97831
11
6.45049
21
-7.97456
0
LINE
8
BLACK
6
CONTINUOUS
10
6.45049
20
-7.97456
11
6.44674
21
-7.96706
0
LINE
8
BLACK
6
CONTINUOUS
10
6.44674
20
-7.96706
11
6.43924
21
-7.96331
0
LINE
8
BLACK
6
CONTINUOUS
10
6.43924
20
-7.96331
11
6.42799
21
-7.96331
0
LINE
8
BLACK
6
CONTINUOUS
10
6.42799
20
-7.96331
11
6.42049
21
-7.95956
0
LINE
8
BLACK
6
CONTINUOUS
10
6.42049
20
-7.95956
11
6.41674
21
-7.95206
0
LINE
8
BLACK
6
CONTINUOUS
10
6.41674
20
-7.95206
11
6.41674
21
-7.94831
0
LINE
8
BLACK
6
CONTINUOUS
10
6.41674
20
-7.94831
11
6.42049
21
-7.94081
0
LINE
8
BLACK
6
CONTINUOUS
10
6.42049
20
-7.94081
11
6.42799
21
-7.93706
0
LINE
8
BLACK
6
CONTINUOUS
10
6.42799
20
-7.93706
11
6.43924
21
-7.93706
0
LINE
8
BLACK
6
CONTINUOUS
10
6.43924
20
-7.93706
11
6.44674
21
-7.94081
0
LINE
8
BLACK
6
CONTINUOUS
10
6.47673
20
-8.01955
11
6.48048
21
-8.0158
0
LINE
8
BLACK
6
CONTINUOUS
10
6.48048
20
-8.0158
11
6.48798
21
-8.00456
0
LINE
8
BLACK
6
CONTINUOUS
10
6.48798
20
-8.00456
11
6.49173
21
-7.99706
0
LINE
8
BLACK
6
CONTINUOUS
10
6.49173
20
-7.99706
11
6.49548
21
-7.98581
0
LINE
8
BLACK
6
CONTINUOUS
10
6.49548
20
-7.98581
11
6.49923
21
-7.96706
0
LINE
8
BLACK
6
CONTINUOUS
10
6.49923
20
-7.96706
11
6.49923
21
-7.95206
0
LINE
8
BLACK
6
CONTINUOUS
10
6.49923
20
-7.95206
11
6.49548
21
-7.93331
0
LINE
8
BLACK
6
CONTINUOUS
10
6.49548
20
-7.93331
11
6.49173
21
-7.92207
0
LINE
8
BLACK
6
CONTINUOUS
10
6.49173
20
-7.92207
11
6.48798
21
-7.91457
0
LINE
8
BLACK
6
CONTINUOUS
10
6.48798
20
-7.91457
11
6.48048
21
-7.90332
0
LINE
8
BLACK
6
CONTINUOUS
10
6.48048
20
-7.90332
11
6.47673
21
-7.89957
0
LINE
8
BLACK
6
CONTINUOUS
10
6.61922
20
-8.01955
11
6.61547
21
-8.0158
0
LINE
8
BLACK
6
CONTINUOUS
10
6.61547
20
-8.0158
11
6.60797
21
-8.00456
0
LINE
8
BLACK
6
CONTINUOUS
10
6.60797
20
-8.00456
11
6.60422
21
-7.99706
0
LINE
8
BLACK
6
CONTINUOUS
10
6.60422
20
-7.99706
11
6.60047
21
-7.98581
0
LINE
8
BLACK
6
CONTINUOUS
10
6.60047
20
-7.98581
11
6.59672
21
-7.96706
0
LINE
8
BLACK
6
CONTINUOUS
10
6.59672
20
-7.96706
11
6.59672
21
-7.95206
0
LINE
8
BLACK
6
CONTINUOUS
10
6.59672
20
-7.95206
11
6.60047
21
-7.93331
0
LINE
8
BLACK
6
CONTINUOUS
10
6.60047
20
-7.93331
11
6.60422
21
-7.92207
0
LINE
8
BLACK
6
CONTINUOUS
10
6.60422
20
-7.92207
11
6.60797
21
-7.91457
0
LINE
8
BLACK
6
CONTINUOUS
10
6.60797
20
-7.91457
11
6.61547
21
-7.90332
0
LINE
8
BLACK
6
CONTINUOUS
10
6.61547
20
-7.90332
11
6.61922
21
-7.89957
0
LINE
8
BLACK
6
CONTINUOUS
10
6.64921
20
-7.93706
11
6.64921
21
-7.98956
0
LINE
8
BLACK
6
CONTINUOUS
10
6.64921
20
-7.94456
11
6.65296
21
-7.94081
0
LINE
8
BLACK
6
CONTINUOUS
10
6.65296
20
-7.94081
11
6.66046
21
-7.93706
0
LINE
8
BLACK
6
CONTINUOUS
10
6.66046
20
-7.93706
11
6.67171
21
-7.93706
0
LINE
8
BLACK
6
CONTINUOUS
10
6.67171
20
-7.93706
11
6.67921
21
-7.94081
0
LINE
8
BLACK
6
CONTINUOUS
10
6.67921
20
-7.94081
11
6.68296
21
-7.94831
0
LINE
8
BLACK
6
CONTINUOUS
10
6.68296
20
-7.94831
11
6.68296
21
-7.98956
0
LINE
8
BLACK
6
CONTINUOUS
10
6.7317
20
-7.98956
11
6.7242
21
-7.98581
0
LINE
8
BLACK
6
CONTINUOUS
10
6.7242
20
-7.98581
11
6.72045
21
-7.98206
0
LINE
8
BLACK
6
CONTINUOUS
10
6.72045
20
-7.98206
11
6.7167
21
-7.97456
0
LINE
8
BLACK
6
CONTINUOUS
10
6.7167
20
-7.97456
11
6.7167
21
-7.95206
0
LINE
8
BLACK
6
CONTINUOUS
10
6.7167
20
-7.95206
11
6.72045
21
-7.94456
0
LINE
8
BLACK
6
CONTINUOUS
10
6.72045
20
-7.94456
11
6.7242
21
-7.94081
0
LINE
8
BLACK
6
CONTINUOUS
10
6.7242
20
-7.94081
11
6.7317
21
-7.93706
0
LINE
8
BLACK
6
CONTINUOUS
10
6.7317
20
-7.93706
11
6.74295
21
-7.93706
0
LINE
8
BLACK
6
CONTINUOUS
10
6.74295
20
-7.93706
11
6.75045
21
-7.94081
0
LINE
8
BLACK
6
CONTINUOUS
10
6.75045
20
-7.94081
11
6.7542
21
-7.94456
0
LINE
8
BLACK
6
CONTINUOUS
10
6.7542
20
-7.94456
11
6.75795
21
-7.95206
0
LINE
8
BLACK
6
CONTINUOUS
10
6.75795
20
-7.95206
11
6.75795
21
-7.97456
0
LINE
8
BLACK
6
CONTINUOUS
10
6.75795
20
-7.97456
11
6.7542
21
-7.98206
0
LINE
8
BLACK
6
CONTINUOUS
10
6.7542
20
-7.98206
11
6.75045
21
-7.98581
0
LINE
8
BLACK
6
CONTINUOUS
10
6.75045
20
-7.98581
11
6.74295
21
-7.98956
0
LINE
8
BLACK
6
CONTINUOUS
10
6.74295
20
-7.98956
11
6.7317
21
-7.98956
0
LINE
8
BLACK
6
CONTINUOUS
10
6.78045
20
-7.93706
11
6.81044
21
-7.93706
0
LINE
8
BLACK
6
CONTINUOUS
10
6.79169
20
-7.91082
11
6.79169
21
-7.97831
0
LINE
8
BLACK
6
CONTINUOUS
10
6.79169
20
-7.97831
11
6.79544
21
-7.98581
0
LINE
8
BLACK
6
CONTINUOUS
10
6.79544
20
-7.98581
11
6.80294
21
-7.98956
0
LINE
8
BLACK
6
CONTINUOUS
10
6.80294
20
-7.98956
11
6.81044
21
-7.98956
0
LINE
8
BLACK
6
CONTINUOUS
10
6.89668
20
-7.93706
11
6.89668
21
-8.0158
0
LINE
8
BLACK
6
CONTINUOUS
10
6.89668
20
-7.94081
11
6.90418
21
-7.93706
0
LINE
8
BLACK
6
CONTINUOUS
10
6.90418
20
-7.93706
11
6.91918
21
-7.93706
0
LINE
8
BLACK
6
CONTINUOUS
10
6.91918
20
-7.93706
11
6.92668
21
-7.94081
0
LINE
8
BLACK
6
CONTINUOUS
10
6.92668
20
-7.94081
11
6.93043
21
-7.94456
0
LINE
8
BLACK
6
CONTINUOUS
10
6.93043
20
-7.94456
11
6.93418
21
-7.95206
0
LINE
8
BLACK
6
CONTINUOUS
10
6.93418
20
-7.95206
11
6.93418
21
-7.97456
0
LINE
8
BLACK
6
CONTINUOUS
10
6.93418
20
-7.97456
11
6.93043
21
-7.98206
0
LINE
8
BLACK
6
CONTINUOUS
10
6.93043
20
-7.98206
11
6.92668
21
-7.98581
0
LINE
8
BLACK
6
CONTINUOUS
10
6.92668
20
-7.98581
11
6.91918
21
-7.98956
0
LINE
8
BLACK
6
CONTINUOUS
10
6.91918
20
-7.98956
11
6.90418
21
-7.98956
0
LINE
8
BLACK
6
CONTINUOUS
10
6.90418
20
-7.98956
11
6.89668
21
-7.98581
0
LINE
8
BLACK
6
CONTINUOUS
10
6.97917
20
-7.98956
11
6.97167
21
-7.98581
0
LINE
8
BLACK
6
CONTINUOUS
10
6.97167
20
-7.98581
11
6.96792
21
-7.97831
0
LINE
8
BLACK
6
CONTINUOUS
10
6.96792
20
-7.97831
11
6.96792
21
-7.91082
0
LINE
8
BLACK
6
CONTINUOUS
10
7.04291
20
-7.98956
11
7.04291
21
-7.94831
0
LINE
8
BLACK
6
CONTINUOUS
10
7.04291
20
-7.94831
11
7.03916
21
-7.94081
0
LINE
8
BLACK
6
CONTINUOUS
10
7.03916
20
-7.94081
11
7.03166
21
-7.93706
0
LINE
8
BLACK
6
CONTINUOUS
10
7.03166
20
-7.93706
11
7.01667
21
-7.93706
0
LINE
8
BLACK
6
CONTINUOUS
10
7.01667
20
-7.93706
11
7.00917
21
-7.94081
0
LINE
8
BLACK
6
CONTINUOUS
10
7.04291
20
-7.98581
11
7.03541
21
-7.98956
0
LINE
8
BLACK
6
CONTINUOUS
10
7.03541
20
-7.98956
11
7.01667
21
-7.98956
0
LINE
8
BLACK
6
CONTINUOUS
10
7.01667
20
-7.98956
11
7.00917
21
-7.98581
0
LINE
8
BLACK
6
CONTINUOUS
10
7.00917
20
-7.98581
11
7.00542
21
-7.97831
0
LINE
8
BLACK
6
CONTINUOUS
10
7.00542
20
-7.97831
11
7.00542
21
-7.97081
0
LINE
8
BLACK
6
CONTINUOUS
10
7.00542
20
-7.97081
11
7.00917
21
-7.96331
0
LINE
8
BLACK
6
CONTINUOUS
10
7.00917
20
-7.96331
11
7.01667
21
-7.95956
0
LINE
8
BLACK
6
CONTINUOUS
10
7.01667
20
-7.95956
11
7.03541
21
-7.95956
0
LINE
8
BLACK
6
CONTINUOUS
10
7.03541
20
-7.95956
11
7.04291
21
-7.95581
0
LINE
8
BLACK
6
CONTINUOUS
10
7.06916
20
-7.93706
11
7.09916
21
-7.93706
0
LINE
8
BLACK
6
CONTINUOUS
10
7.08041
20
-7.91082
11
7.08041
21
-7.97831
0
LINE
8
BLACK
6
CONTINUOUS
10
7.08041
20
-7.97831
11
7.08416
21
-7.98581
0
LINE
8
BLACK
6
CONTINUOUS
10
7.08416
20
-7.98581
11
7.09166
21
-7.98956
0
LINE
8
BLACK
6
CONTINUOUS
10
7.09166
20
-7.98956
11
7.09916
21
-7.98956
0
LINE
8
BLACK
6
CONTINUOUS
10
7.1554
20
-7.98581
11
7.1479
21
-7.98956
0
LINE
8
BLACK
6
CONTINUOUS
10
7.1479
20
-7.98956
11
7.1329
21
-7.98956
0
LINE
8
BLACK
6
CONTINUOUS
10
7.1329
20
-7.98956
11
7.1254
21
-7.98581
0
LINE
8
BLACK
6
CONTINUOUS
10
7.1254
20
-7.98581
11
7.12165
21
-7.97831
0
LINE
8
BLACK
6
CONTINUOUS
10
7.12165
20
-7.97831
11
7.12165
21
-7.94831
0
LINE
8
BLACK
6
CONTINUOUS
10
7.12165
20
-7.94831
11
7.1254
21
-7.94081
0
LINE
8
BLACK
6
CONTINUOUS
10
7.1254
20
-7.94081
11
7.1329
21
-7.93706
0
LINE
8
BLACK
6
CONTINUOUS
10
7.1329
20
-7.93706
11
7.1479
21
-7.93706
0
LINE
8
BLACK
6
CONTINUOUS
10
7.1479
20
-7.93706
11
7.1554
21
-7.94081
0
LINE
8
BLACK
6
CONTINUOUS
10
7.1554
20
-7.94081
11
7.15915
21
-7.94831
0
LINE
8
BLACK
6
CONTINUOUS
10
7.15915
20
-7.94831
11
7.15915
21
-7.95581
0
LINE
8
BLACK
6
CONTINUOUS
10
7.15915
20
-7.95581
11
7.12165
21
-7.96331
0
LINE
8
BLACK
6
CONTINUOUS
10
7.22664
20
-7.98956
11
7.22664
21
-7.91082
0
LINE
8
BLACK
6
CONTINUOUS
10
7.22664
20
-7.98581
11
7.21914
21
-7.98956
0
LINE
8
BLACK
6
CONTINUOUS
10
7.21914
20
-7.98956
11
7.20414
21
-7.98956
0
LINE
8
BLACK
6
CONTINUOUS
10
7.20414
20
-7.98956
11
7.19664
21
-7.98581
0
LINE
8
BLACK
6
CONTINUOUS
10
7.19664
20
-7.98581
11
7.19289
21
-7.98206
0
LINE
8
BLACK
6
CONTINUOUS
10
7.19289
20
-7.98206
11
7.18915
21
-7.97456
0
LINE
8
BLACK
6
CONTINUOUS
10
7.18915
20
-7.97456
11
7.18915
21
-7.95206
0
LINE
8
BLACK
6
CONTINUOUS
10
7.18915
20
-7.95206
11
7.19289
21
-7.94456
0
LINE
8
BLACK
6
CONTINUOUS
10
7.19289
20
-7.94456
11
7.19664
21
-7.94081
0
LINE
8
BLACK
6
CONTINUOUS
10
7.19664
20
-7.94081
11
7.20414
21
-7.93706
0
LINE
8
BLACK
6
CONTINUOUS
10
7.20414
20
-7.93706
11
7.21914
21
-7.93706
0
LINE
8
BLACK
6
CONTINUOUS
10
7.21914
20
-7.93706
11
7.22664
21
-7.94081
0
LINE
8
BLACK
6
CONTINUOUS
10
7.25664
20
-8.01955
11
7.26039
21
-8.0158
0
LINE
8
BLACK
6
CONTINUOUS
10
7.26039
20
-8.0158
11
7.26789
21
-8.00456
0
LINE
8
BLACK
6
CONTINUOUS
10
7.26789
20
-8.00456
11
7.27163
21
-7.99706
0
LINE
8
BLACK
6
CONTINUOUS
10
7.27163
20
-7.99706
11
7.27538
21
-7.98581
0
LINE
8
BLACK
6
CONTINUOUS
10
7.27538
20
-7.98581
11
7.27913
21
-7.96706
0
LINE
8
BLACK
6
CONTINUOUS
10
7.27913
20
-7.96706
11
7.27913
21
-7.95206
0
LINE
8
BLACK
6
CONTINUOUS
10
7.27913
20
-7.95206
11
7.27538
21
-7.93331
0
LINE
8
BLACK
6
CONTINUOUS
10
7.27538
20
-7.93331
11
7.27163
21
-7.92207
0
LINE
8
BLACK
6
CONTINUOUS
10
7.27163
20
-7.92207
11
7.26789
21
-7.91457
0
LINE
8
BLACK
6
CONTINUOUS
10
7.26789
20
-7.91457
11
7.26039
21
-7.90332
0
LINE
8
BLACK
6
CONTINUOUS
10
7.26039
20
-7.90332
11
7.25664
21
-7.89957
  0
ENDSEC
  0
EOF
